<svg xmlns="http://www.w3.org/2000/svg" xmlns:xlink="http://www.w3.org/1999/xlink" width="101" height="101" viewBox="0 0 101 101">
  <defs>
    <clipPath id="clip-path">
      <path id="path12546" d="M0-682.665H64.29v64.29H0Z" transform="translate(0 682.665)"/>
    </clipPath>
  </defs>
  <g id="Grupo_1043908" data-name="Grupo 1043908" transform="translate(-301 -2437)">
    <circle id="Elipse_4810" data-name="Elipse 4810" cx="50.5" cy="50.5" r="50.5" transform="translate(301 2437)" fill="#0b62f8"/>
    <g id="g12540" transform="translate(319 3137.665)">
      <g id="g12542" transform="translate(0 -682.665)">
        <g id="g12544" clip-path="url(#clip-path)">
          <g id="g12550" transform="translate(7.03 29.058)">
            <path id="path12552" d="M-454.67-23.777a12.651,12.651,0,0,0-.075,9.369l1.032,2.021h-44.541s-8.293-4.659,0-12.952l44.156-.91Z" transform="translate(501.94 26.249)" fill="#f1f2f2"/>
          </g>
          <g id="g12554" transform="translate(7.03 29.058)">
            <path id="path12556" d="M-463.867-133.337h-44.541s-8.292-4.66,0-12.952l44.157-.91-.573,2.472a12.129,12.129,0,0,0-.629,2.009H-505.87a2.842,2.842,0,0,0-2.839,2.838,2.842,2.842,0,0,0,2.839,2.839h40.432a10.907,10.907,0,0,0,.539,1.683Z" transform="translate(512.094 147.2)" fill="#dee1e1"/>
          </g>
          <g id="g12558" transform="translate(4.752 27.546)">
            <path id="path12560" d="M-479.29-166.069-520-166.133c-4.878,0-9.067-3.111-9.067-7.989a11.116,11.116,0,0,1,.166-3.444,8.835,8.835,0,0,1,8.286-5.768h41.768a1.992,1.992,0,0,1,1.992,1.992,1.992,1.992,0,0,1-1.992,1.992h-31.611l-3.087.725-2.685-.725h-4.385a4.848,4.848,0,0,0-4.847,4.848,4.847,4.847,0,0,0,4.847,4.847h41.768a1.992,1.992,0,0,1,1.992,1.992,2.01,2.01,0,0,1-.014.235c-.116.99-1.4,1.359-2.418,1.359" transform="translate(529.12 183.334)" fill="#b7e546"/>
          </g>
          <g id="g12562" transform="translate(4.421 32.804)">
            <path id="path12564" d="M-505.727-102.418a2,2,0,0,1-.569,1.174,1.989,1.989,0,0,1-1.409.584l-20.635,1.237-21.133-1.237a8.832,8.832,0,0,1-8.832-8.832,8.791,8.791,0,0,1,.753-3.574v1.816a8.832,8.832,0,0,0,8.832,8.832Z" transform="translate(558.305 113.066)" fill="#abd641"/>
          </g>
          <g id="g12566" transform="translate(17.801 31.53)">
            <path id="path12568" d="M-53.951-55.86v-5.808H-58.09l-1.47.148.088,5.409a.251.251,0,0,0,.343.234l1.039-.254,1.162-.455a.251.251,0,0,1,.183,0l2.452.96a.251.251,0,0,0,.343-.234" transform="translate(59.56 61.668)" fill="#ef5227"/>
          </g>
          <g id="g12570" transform="translate(17.638 31.53)">
            <path id="path12572" d="M-15.7,0V5.536l-1.29.5a.251.251,0,0,1-.343-.234V0Z" transform="translate(17.333)" fill="#d83724"/>
          </g>
          <g id="g12574" transform="translate(12.976 21.654)">
            <path id="path12576" d="M-342.413-7.9v2.832l-.126,1.256a.879.879,0,0,1-.879.879l-33.465-.126a.878.878,0,0,1-.879-.879l-.251-3.962,17.179-.821Z" transform="translate(378.012 8.716)" fill="#fdcd08"/>
          </g>
          <g id="g12578" transform="translate(54.707 24.838)">
            <path id="path12580" d="M-24,0c-.786,1.938-1.577,3.849-2.363,5.787a1.759,1.759,0,0,0,1.614,2.427l1.454.126h3.536a1.759,1.759,0,0,0,1.614-2.427l-1.639-4.041L-20.813,0Z" transform="translate(26.493)" fill="#fdcd08"/>
          </g>
          <g id="g12582" transform="translate(54.582 24.507)">
            <path id="path12584" d="M-37.376-28.059a4.774,4.774,0,0,0,2.95-.714l-.881-2.2-1.457.435h0l-1.9-.253c-.24.591-.589,1.431-.828,2.023h0l-1.639,4.039a1.758,1.758,0,0,0,1.614,2.427h2.009a1.758,1.758,0,0,1-1.614-2.427l1.224-3.016a.507.507,0,0,1,.521-.31" transform="translate(41.261 30.976)" fill="#faab18"/>
          </g>
          <g id="g12586" transform="translate(56.187 19.833)">
            <path id="path12588" d="M-53.835-26.925a2.925,2.925,0,0,0-1.957-2.768c-.3-.1-.724.08-1.054.08a2.466,2.466,0,0,0-2.586,2.688,2.555,2.555,0,0,0,2.8,2.586c.33,0,.546.285.841.182a2.925,2.925,0,0,0,1.957-2.768" transform="translate(59.432 29.724)" fill="#fdcd08"/>
          </g>
          <g id="g12590" transform="translate(55.987 19.706)">
            <path id="path12592" d="M-36.933-54.773a2.86,2.86,0,0,1-.942.158,2.913,2.913,0,0,1-2.9-2.927,2.912,2.912,0,0,1,2.9-2.926,2.86,2.86,0,0,1,.942.158,2.924,2.924,0,0,0-1.956,2.767,2.925,2.925,0,0,0,1.956,2.769" transform="translate(40.773 60.468)" fill="#faab18"/>
          </g>
          <g id="g12594" transform="translate(1.724 1.417)">
            <path id="path12596" d="M-552.043-111.117l-8.282,2.867-2.26-.232-16.076,6.58a5.27,5.27,0,0,1-3.448,0l-16.076-6.323-2.26-.025-8.283-2.867a1.054,1.054,0,0,1,0-1.992l26.933-9.324a4.308,4.308,0,0,1,2.819,0l26.933,9.324a1.054,1.054,0,0,1,0,1.992" transform="translate(609.437 122.67)" fill="#868491"/>
          </g>
          <g id="g12598" transform="translate(10.715 9.835)">
            <path id="path12600" d="M-385.893-49.553v.85l-18.336,6.347a5.269,5.269,0,0,1-3.448,0L-426.012-48.7v-.85a3.694,3.694,0,0,1,3.044-3.639,96.718,96.718,0,0,1,17.016-1.513,96.731,96.731,0,0,1,17.017,1.513,3.707,3.707,0,0,1,2.184,1.268,3.7,3.7,0,0,1,.86,2.371" transform="translate(426.012 54.705)" fill="#77777f"/>
          </g>
          <g id="g12602" transform="translate(13.227 12.095)">
            <path id="path12604" d="M-340-27.814v7.488H-375.22l-.126-7.236a1.437,1.437,0,0,1,1.183-1.414c.359-.064.467-.378.826-.438A94.2,94.2,0,0,1-357.8-30.705a94.233,94.233,0,0,1,16.617,1.478,1.434,1.434,0,0,1,.848.492,1.429,1.429,0,0,1,.335.922" transform="translate(375.346 30.705)" fill="#868491"/>
          </g>
          <g id="g12606" transform="translate(12.976 21.654)">
            <path id="path12608" d="M-342.413-35.131v1.381a.879.879,0,0,1-.879.879h-33.841a.879.879,0,0,1-.879-.879v-4.213l1.13-.821,1.13.821v2.2a.628.628,0,0,0,.628.628Z" transform="translate(378.012 38.784)" fill="#faab18"/>
          </g>
          <g id="g12610" transform="translate(12.976 13.387)">
            <path id="path12612" d="M-21.74,0V9.087H-24V1.6A1.437,1.437,0,0,1-22.817.186C-22.458.122-22.1.059-21.74,0" transform="translate(24)" fill="#77777f"/>
          </g>
          <g id="g12614" transform="translate(4.193 47.793)">
            <path id="path12616" d="M-513.867-103.3a11.815,11.815,0,0,1,0-9.043l.382-1.7H-564.83s-5.78,6.284.376,12.439l51.3.385Z" transform="translate(567.291 114.042)" fill="#f1f2f2"/>
          </g>
          <g id="g12618" transform="translate(4.193 47.794)">
            <path id="path12620" d="M-520.757-123.337l-51.3-.384c-6.156-6.155-.375-12.439-.375-12.439l51.592.1-.628,1.6a11.766,11.766,0,0,0-.561,1.713h-47.124A2.842,2.842,0,0,0-572-129.913a2.842,2.842,0,0,0,2.839,2.839h47.139a11.91,11.91,0,0,0,.546,1.654Z" transform="translate(574.898 136.16)" fill="#dee1e1"/>
          </g>
          <g id="g12622" transform="translate(1.776 45.209)">
            <path id="path12624" d="M-535.688-165.67l-46.422-.086c-4.878,0-9.169-2.753-9.169-7.63,0-1.548-.379-3.68.321-4.945a8.829,8.829,0,0,1,7.734-4.564h48.409a1.992,1.992,0,0,1,1.992,1.992,1.992,1.992,0,0,1-1.992,1.992H-546.81l-3.134.694-2.638-.694h-30.643a4.847,4.847,0,0,0-4.847,4.848,4.848,4.848,0,0,0,4.847,4.848h48.409a1.992,1.992,0,0,1,1.992,1.992,2,2,0,0,1-.032.36c-.169.929-1.855,1.193-2.832,1.193" transform="translate(591.382 182.894)" fill="#ef5227"/>
          </g>
          <g id="g12626" transform="translate(1.101 49.297)">
            <path id="path12628" d="M-569.424-114.882a1.984,1.984,0,0,1-.551,1.048,1.987,1.987,0,0,1-1.409.584h-48.408a8.832,8.832,0,0,1-8.832-8.832,8.787,8.787,0,0,1,1.381-4.744v3.111a8.832,8.832,0,0,0,8.832,8.832Z" transform="translate(628.625 126.826)" fill="#d83724"/>
          </g>
          <g id="g12630" transform="translate(40.734 49.192)">
            <path id="path12632" d="M-53.992-56.313v-5.855H-57.88l-1.725.105.092,5.5a.251.251,0,0,0,.343.234l1.29-.352.911-.357a.251.251,0,0,1,.183,0l2.452.96a.251.251,0,0,0,.343-.234" transform="translate(59.605 62.168)" fill="#fdcd08"/>
          </g>
          <g id="g12634" transform="translate(40.576 49.191)">
            <path id="path12636" d="M-18.116,0V5.486l-1.541.6A.251.251,0,0,1-20,5.855V0Z" transform="translate(20)" fill="#faab18"/>
          </g>
          <g id="g12638" transform="translate(3.32 26.454)">
            <path id="path12640" d="M-94.006-178.014a9.785,9.785,0,0,1-9.773-9.773,9.785,9.785,0,0,1,9.773-9.774h42.647a.942.942,0,0,1,.942.942.942.942,0,0,1-.942.942H-94.006a7.9,7.9,0,0,0-7.89,7.89,7.9,7.9,0,0,0,7.89,7.89.942.942,0,0,1,.942.942A.942.942,0,0,1-94.006-178.014Z" transform="translate(103.78 197.561)"/>
          </g>
          <g id="g12642" transform="translate(24.297 40.133)">
            <path id="path12644" d="M20.565-4.132a.942.942,0,0,1-.942-.942.942.942,0,0,1,.942-.942,1.052,1.052,0,0,0,1.05-1.05,1.052,1.052,0,0,0-1.05-1.05H-9.058A.942.942,0,0,1-10-9.058.942.942,0,0,1-9.058-10H20.565A2.937,2.937,0,0,1,23.5-7.066,2.937,2.937,0,0,1,20.565-4.132Z" transform="translate(10 10)"/>
          </g>
          <g id="g12646" transform="translate(7.305 30.438)">
            <path id="path12648" d="M-491.451,1.579h-7.75a5.8,5.8,0,0,1-5.789-5.789A5.8,5.8,0,0,1-499.2-10h41.768a.942.942,0,0,1,.942.942.942.942,0,0,1-.942.942H-499.2a3.91,3.91,0,0,0-3.906,3.906A3.91,3.91,0,0,0-499.2-.3h7.75a.942.942,0,0,1,.942.942A.942.942,0,0,1-491.451,1.579Z" transform="translate(504.991 10)"/>
          </g>
          <g id="g12650" transform="translate(52.217 30.764)">
            <path id="path12652" d="M-17.775.924a.942.942,0,0,1-.87-.582,12.673,12.673,0,0,1,0-9.763.942.942,0,0,1,1.23-.51.942.942,0,0,1,.51,1.23,10.8,10.8,0,0,0,0,8.322.942.942,0,0,1-.51,1.23A.939.939,0,0,1-17.775.924Z" transform="translate(19.623 10.003)"/>
          </g>
          <g id="g12654" transform="translate(55.611 48.399)">
            <path id="path12656" d="M-17.774.924a.942.942,0,0,1-.87-.582,12.674,12.674,0,0,1,0-9.763.942.942,0,0,1,1.23-.51A.942.942,0,0,1-16.9-8.7a10.8,10.8,0,0,0,0,8.322.942.942,0,0,1-.51,1.23A.939.939,0,0,1-17.774.924Z" transform="translate(19.622 10.003)"/>
          </g>
          <g id="g12658" transform="translate(16.537 30.505)">
            <path id="path12660" d="M-3.286-2.007a.941.941,0,0,1-.343-.065l-2.543-1-2.543,1a.942.942,0,0,1-.874-.1A.942.942,0,0,1-10-2.949V-9.058A.942.942,0,0,1-9.058-10a.942.942,0,0,1,.942.942v4.729l1.6-.627a.942.942,0,0,1,.687,0l1.6.627V-9.058A.942.942,0,0,1-3.286-10a.942.942,0,0,1,.942.942v6.109a.942.942,0,0,1-.411.778A.942.942,0,0,1-3.286-2.007Z" transform="translate(10 10)"/>
          </g>
          <g id="g12662" transform="translate(0 44.118)">
            <path id="path12664" d="M-487.15-135.706h-48.409a9.785,9.785,0,0,1-9.773-9.773,9.785,9.785,0,0,1,9.773-9.774h48.409a2.937,2.937,0,0,1,2.934,2.934,2.937,2.937,0,0,1-2.934,2.934h-48.409a3.91,3.91,0,0,0-3.906,3.906,3.91,3.91,0,0,0,3.906,3.906h37.189a.942.942,0,0,1,.942.942.942.942,0,0,1-.942.942h-37.189a5.8,5.8,0,0,1-5.789-5.789,5.8,5.8,0,0,1,5.789-5.789h48.409a1.052,1.052,0,0,0,1.05-1.05,1.052,1.052,0,0,0-1.05-1.05h-48.409a7.9,7.9,0,0,0-7.89,7.89,7.9,7.9,0,0,0,7.89,7.89h48.409a1.052,1.052,0,0,0,1.05-1.05,1.052,1.052,0,0,0-1.05-1.05h-6.826a.942.942,0,0,1-.942-.942.942.942,0,0,1,.942-.942h6.826a2.937,2.937,0,0,1,2.934,2.934A2.937,2.937,0,0,1-487.15-135.706Z" transform="translate(545.332 155.253)"/>
          </g>
          <g id="g12666" transform="translate(39.474 48.213)">
            <path id="path12668" d="M-3.286-2.007a.941.941,0,0,1-.343-.065l-2.543-1-2.543,1a.942.942,0,0,1-.874-.1A.942.942,0,0,1-10-2.949V-9.058A.942.942,0,0,1-9.058-10a.942.942,0,0,1,.942.942v4.729l1.6-.627a.942.942,0,0,1,.687,0l1.6.627V-9.058A.942.942,0,0,1-3.286-10a.942.942,0,0,1,.942.942v6.109a.942.942,0,0,1-.411.778A.942.942,0,0,1-3.286-2.007Z" transform="translate(10 10)"/>
          </g>
          <g id="g12670" transform="translate(21.638 0.627)">
            <path id="path12672" d="M16.458-19.881a.942.942,0,0,1-.89-.634.942.942,0,0,1,.582-1.2l10.321-3.573a.079.079,0,0,0,.063-.089.079.079,0,0,0-.063-.089L-.005-34.63a3.309,3.309,0,0,0-2.155,0l-6.592,2.282a.942.942,0,0,1-1.2-.582.942.942,0,0,1,.582-1.2l6.592-2.282a5.2,5.2,0,0,1,3.388,0l26.477,9.166a1.954,1.954,0,0,1,1.331,1.869,1.954,1.954,0,0,1-1.331,1.869L16.766-19.933A.94.94,0,0,1,16.458-19.881Z" transform="translate(10.003 36.693)"/>
          </g>
          <g id="g12674" transform="translate(1.057 4.605)">
            <path id="path12676" d="M-114.411-113.229a.94.94,0,0,1-.308-.052l-10.256-3.55a1.954,1.954,0,0,1-1.331-1.869,1.954,1.954,0,0,1,1.331-1.869l15.655-5.419a.942.942,0,0,1,1.2.582.942.942,0,0,1-.582,1.2l-15.655,5.419a.079.079,0,0,0-.063.089.079.079,0,0,0,.063.089l10.256,3.55a.942.942,0,0,1,.582,1.2A.942.942,0,0,1-114.411-113.229Z" transform="translate(126.306 126.041)"/>
          </g>
          <g id="g12678" transform="translate(58.176 11.177)">
            <path id="path12680" d="M-9.058-.751A.942.942,0,0,1-10-1.693V-9.058A.942.942,0,0,1-9.058-10a.942.942,0,0,1,.942.942v7.365A.942.942,0,0,1-9.058-.751Z" transform="translate(10 10)"/>
          </g>
          <g id="g12682" transform="translate(53.946 23.685)">
            <path id="path12684" d="M-28.3-.018h-5.028a2.649,2.649,0,0,1-2.2-1.173,2.681,2.681,0,0,1-.26-2.509l2.318-5.715a.942.942,0,0,1,1.227-.519.942.942,0,0,1,.519,1.227l-2.318,5.715a.79.79,0,0,0,.077.749.764.764,0,0,0,.637.342H-28.3a.764.764,0,0,0,.637-.342.79.79,0,0,0,.077-.749L-29.9-8.7a.942.942,0,0,1,.519-1.227.942.942,0,0,1,1.227.519L-25.837-3.7a2.681,2.681,0,0,1-.26,2.509A2.649,2.649,0,0,1-28.3-.018Z" transform="translate(35.982 10.003)"/>
          </g>
          <g id="g12686" transform="translate(55.326 18.542)">
            <path id="path12688" d="M-66.724-32.906a3.809,3.809,0,0,1-3.791-3.818,3.809,3.809,0,0,1,3.791-3.818,3.809,3.809,0,0,1,3.791,3.818A3.809,3.809,0,0,1-66.724-32.906Zm0-5.753a1.924,1.924,0,0,0-1.908,1.935,1.923,1.923,0,0,0,1.908,1.934,1.923,1.923,0,0,0,1.908-1.934A1.923,1.923,0,0,0-66.724-38.659Z" transform="translate(70.516 40.543)"/>
          </g>
          <g id="g12690" transform="translate(12.118 11.118)">
            <path id="path12692" d="M25.938-154.453a.942.942,0,0,1-.942-.942v-12.366a.47.47,0,0,0-.387-.463,91.314,91.314,0,0,0-32.338,0,.47.47,0,0,0-.387.463v12.366a.942.942,0,0,1-.942.942.942.942,0,0,1-.942-.942v-12.366a2.352,2.352,0,0,1,1.938-2.317,93.191,93.191,0,0,1,33,0,2.352,2.352,0,0,1,1.938,2.317v12.366A.942.942,0,0,1,25.938-154.453Z" transform="translate(10 171.55)"/>
          </g>
          <g id="g12694" transform="translate(40.37 21.326)">
            <path id="path12696" d="M-2.314-8.116H-9.058A.942.942,0,0,1-10-9.058.942.942,0,0,1-9.058-10h6.745a.942.942,0,0,1,.942.942A.942.942,0,0,1-2.314-8.116Z" transform="translate(10 10)"/>
          </g>
          <g id="g12698" transform="translate(12.118 21.326)">
            <path id="path12700" d="M14.8-8.116H-9.058A.942.942,0,0,1-10-9.058.942.942,0,0,1-9.058-10H14.8a.942.942,0,0,1,.942.942A.942.942,0,0,1,14.8-8.116Z" transform="translate(10 10)"/>
          </g>
        </g>
      </g>
    </g>
  </g>
</svg>
