<svg xmlns="http://www.w3.org/2000/svg" width="81" height="81" viewBox="0 0 81 81">
  <g id="Grupo_1044134" data-name="Grupo 1044134" transform="translate(-215 -12284)">
    <rect id="Rectángulo_355654" data-name="Rectángulo 355654" width="81" height="81" rx="8" transform="translate(215 12284)" fill="#fabf40"/>
    <g id="conocimiento" transform="translate(187.53 12292)">
      <path id="Trazado_775350" data-name="Trazado 775350" d="M94.656,73.653a7.471,7.471,0,0,0-3.645-9.737,7.475,7.475,0,0,0-7.453-9.1,7.479,7.479,0,0,0-4.406-5.389,11.922,11.922,0,1,0-22.551,0,7.474,7.474,0,0,0-4.407,5.389,7.474,7.474,0,0,0-7.453,9.1,7.475,7.475,0,0,0-1.284,12.725,7.469,7.469,0,0,0,8.593,10.982,7.475,7.475,0,0,0,14.942-.334s0,0,0,0V67.056h1.764v20.23h0a7.475,7.475,0,0,0,14.942.337,7.472,7.472,0,0,0,8.987-10.232,7.737,7.737,0,0,0-.394-.751A7.425,7.425,0,0,0,94.656,73.653ZM67.876,34.988a10.593,10.593,0,0,1,4.531,20.166c-.013.007-.025.016-.039.023s-.041.024-.061.039a.379.379,0,0,0-.051.041.464.464,0,0,0-.047.043c-.015.016-.028.033-.043.051s-.025.033-.036.051a.579.579,0,0,0-.031.056c-.009.02-.02.039-.028.059a.555.555,0,0,0-.019.063c-.005.02-.012.04-.016.061a.681.681,0,0,0-.007.073c0,.015-.005.029-.005.044v.757h-8.3v-.757c0-.017,0-.032-.005-.049a.563.563,0,0,0-.007-.067.634.634,0,0,0-.017-.068.372.372,0,0,0-.017-.055.572.572,0,0,0-.029-.065c-.009-.017-.017-.033-.028-.051a.52.52,0,0,0-.04-.055c-.012-.016-.025-.032-.039-.047a.552.552,0,0,0-.051-.047.449.449,0,0,0-.047-.039c-.02-.015-.043-.027-.065-.04s-.023-.015-.036-.021a10.593,10.593,0,0,1,4.531-20.166ZM66.813,60.37h5.214v1.057H66.813a.665.665,0,1,0,0,1.331h5.214v1.107h-8.3V57.843h8.3v1.2H66.813a.665.665,0,0,0,0,1.331Zm-1.15,26.911s0,0,0,0a6.144,6.144,0,1,1-6.144-6.145.665.665,0,0,0,0-1.331,7.488,7.488,0,0,0-7.4,6.383,6.143,6.143,0,0,1-7.846-8.253,5.99,5.99,0,0,1,.633-1.088,6.161,6.161,0,0,1,7.5-1.975.665.665,0,1,0,.55-1.211,7.5,7.5,0,0,0-8.719,1.9A6.142,6.142,0,0,1,45.153,65.2l.032.08a7.478,7.478,0,0,0,9.839,3.867.666.666,0,0,0-.532-1.22A6.151,6.151,0,0,1,46.4,64.744a6.267,6.267,0,0,1-.238-.641,6.141,6.141,0,0,1,5.88-7.956c0,.055,0,.109,0,.164a7.484,7.484,0,0,0,7.476,7.476.665.665,0,0,0,0-1.331,6.152,6.152,0,0,1-6.145-6.145,5.816,5.816,0,0,1,.043-.717A6.143,6.143,0,0,1,57.1,50.659,11.974,11.974,0,0,0,62.4,56.168v.345h-.439a.665.665,0,1,0,0,1.331H62.4V64.53a.666.666,0,0,0,.665.665h1.806V66.39a.665.665,0,0,0,.665.665h.132V87.282Zm3.894-21.557H66.2V65.2h3.36Zm21.957,9.839a7.5,7.5,0,0,0-8.719-1.9.665.665,0,0,0,.55,1.212,6.159,6.159,0,0,1,7.5,1.976,5.993,5.993,0,0,1,.632,1.086,6.143,6.143,0,0,1-7.846,8.253,7.487,7.487,0,0,0-7.395-6.383.665.665,0,1,0,0,1.331,6.145,6.145,0,1,1-6.145,6.145h0V67.055h.133a.666.666,0,0,0,.665-.665V65.2h1.8a.665.665,0,0,0,.665-.665V62.757h.44a.665.665,0,0,0,0-1.331h-.44V60.37h.44a.665.665,0,0,0,0-1.331h-.44v-1.2h.44a.665.665,0,0,0,0-1.331h-.44v-.345a11.974,11.974,0,0,0,5.292-5.509A6.146,6.146,0,0,1,82.337,55.6a6.008,6.008,0,0,1,.043.715,6.152,6.152,0,0,1-6.145,6.145.665.665,0,1,0,0,1.331A7.484,7.484,0,0,0,83.71,56.31c0-.055,0-.109,0-.164a6.141,6.141,0,0,1,5.88,7.957,6.28,6.28,0,0,1-.238.64,6.152,6.152,0,0,1-8.086,3.179.666.666,0,0,0-.532,1.22,7.477,7.477,0,0,0,9.839-3.868L90.6,65.2a6.145,6.145,0,0,1,.914,10.367Z" transform="translate(0 -29.178)" fill="#23130d"/>
      <rect id="Rectángulo_355967" data-name="Rectángulo 355967" width="3.36" height="0.53" transform="translate(66.197 36.017)" fill="#636368"/>
      <g id="Grupo_1044130" data-name="Grupo 1044130" transform="translate(41.802 21.481)">
        <path id="Trazado_775351" data-name="Trazado 775351" d="M286.4,183.889a6.1,6.1,0,0,1-1.921,2.443,7.5,7.5,0,0,0-8.719-1.9.665.665,0,0,0,.55,1.212,6.159,6.159,0,0,1,7.5,1.976,5.993,5.993,0,0,1,.632,1.086,6.143,6.143,0,0,1-7.846,8.253,7.487,7.487,0,0,0-7.395-6.383.665.665,0,0,0,0,1.331,6.145,6.145,0,1,1-6.145,6.145h0V177.823h.133a.666.666,0,0,0,.665-.665v-1.195h1.8a.665.665,0,0,0,.665-.665v-1.772h.44a.665.665,0,0,0,0-1.331h-.44v-1.057h.44a.665.665,0,0,0,0-1.331h-.44v-1.2h.44a.665.665,0,0,0,0-1.331h-.44v-.345a11.974,11.974,0,0,0,5.292-5.509,6.146,6.146,0,0,1,3.687,4.937,6.007,6.007,0,0,1,.043.715,6.152,6.152,0,0,1-6.145,6.145.665.665,0,1,0,0,1.331,7.484,7.484,0,0,0,7.476-7.476c0-.055,0-.109,0-.164a6.141,6.141,0,0,1,5.88,7.957,6.275,6.275,0,0,1-.238.64,6.152,6.152,0,0,1-8.086,3.179.666.666,0,0,0-.532,1.22,7.477,7.477,0,0,0,9.839-3.868l.032-.078a6.14,6.14,0,0,1,2.836,7.924Z" transform="translate(-234.77 -161.427)" fill="#f8d3c9"/>
        <path id="Trazado_775352" data-name="Trazado 775352" d="M74.337,177.824V198.05s0,0,0,0a6.144,6.144,0,1,1-6.144-6.145.665.665,0,1,0,0-1.331,7.488,7.488,0,0,0-7.4,6.383,6.143,6.143,0,0,1-7.846-8.253,5.991,5.991,0,0,1,.633-1.089,6.161,6.161,0,0,1,7.5-1.975.665.665,0,1,0,.55-1.211,7.5,7.5,0,0,0-8.719,1.9,6.142,6.142,0,0,1,.914-10.367l.032.08a7.478,7.478,0,0,0,9.839,3.867.666.666,0,0,0-.532-1.22,6.151,6.151,0,0,1-8.086-3.179,6.269,6.269,0,0,1-.238-.641,6.141,6.141,0,0,1,5.88-7.956c0,.055,0,.109,0,.164a7.484,7.484,0,0,0,7.476,7.476.665.665,0,0,0,0-1.331,6.152,6.152,0,0,1-6.145-6.145,5.815,5.815,0,0,1,.043-.717,6.143,6.143,0,0,1,3.687-4.934,11.974,11.974,0,0,0,5.292,5.509v.345H70.63a.665.665,0,0,0,0,1.331h.439V175.3a.666.666,0,0,0,.665.665H73.54v1.195a.665.665,0,0,0,.665.665Z" transform="translate(-50.475 -161.427)" fill="#f8d3c9"/>
      </g>
      <path id="Trazado_775353" data-name="Trazado 775353" d="M271.965,162.5a5.352,5.352,0,0,1,2.548,3.96,5.219,5.219,0,0,1,.037.619,5.353,5.353,0,0,1-5.347,5.347.889.889,0,0,1-1.59-.758,1.463,1.463,0,0,0-.108-2.457,1.462,1.462,0,0,0,.345-2.247,12.876,12.876,0,0,0,4.115-4.463m5.484,5.268a5.345,5.345,0,0,1,4.343,6.87,5.464,5.464,0,0,1-.207.557,5.352,5.352,0,0,1-4.91,3.21,5.3,5.3,0,0,1-2.126-.444,1.464,1.464,0,0,0-1.169,2.685A8.276,8.276,0,0,0,283.9,177.1a5.349,5.349,0,0,1,.632,8.133,8.294,8.294,0,0,0-5.7-2.259,8.174,8.174,0,0,0-3.4.733,1.462,1.462,0,0,0-.73,1.936,1.465,1.465,0,0,0,1.938.731,5.271,5.271,0,0,1,2.192-.473,5.367,5.367,0,0,1,4.333,2.195,5.191,5.191,0,0,1,.549.943,5.345,5.345,0,0,1-6.415,7.323,8.324,8.324,0,0,0-8.1-6.582,1.464,1.464,0,1,0,0,2.927,5.347,5.347,0,1,1-5.347,5.347V178.462a1.465,1.465,0,0,0,.8-1.3v-.4h1.006a1.465,1.465,0,0,0,1.464-1.464V174.28a1.231,1.231,0,0,1,2.078,1.073,8.286,8.286,0,0,0,8.245-7.585m-5.831-6.34a11.974,11.974,0,0,1-5.292,5.509v.345h.44a.665.665,0,1,1,0,1.331h-.44v1.2h.44a.665.665,0,1,1,0,1.331h-.44v1.057h.44a.665.665,0,1,1,0,1.331h-.44V175.3a.665.665,0,0,1-.665.665h-1.8v1.195a.666.666,0,0,1-.665.665h-.133v20.229h0a6.144,6.144,0,1,0,6.145-6.145.665.665,0,1,1,0-1.331,7.487,7.487,0,0,1,7.395,6.383,6.143,6.143,0,0,0,7.846-8.253,5.991,5.991,0,0,0-.632-1.086,6.155,6.155,0,0,0-7.5-1.976.666.666,0,0,1-.55-1.212,7.42,7.42,0,0,1,3.068-.662,7.5,7.5,0,0,1,5.651,2.559,6.142,6.142,0,0,0-.914-10.367l-.032.078a7.477,7.477,0,0,1-9.839,3.868.666.666,0,0,1,.532-1.22,6.146,6.146,0,0,0,8.086-3.179,6.275,6.275,0,0,0,.238-.64,6.141,6.141,0,0,0-5.87-7.957h-.01c0,.055,0,.109,0,.164a7.484,7.484,0,0,1-7.476,7.476.665.665,0,0,1,0-1.331,6.152,6.152,0,0,0,6.145-6.145,6.007,6.007,0,0,0-.043-.715,6.146,6.146,0,0,0-3.687-4.937Z" transform="translate(-192.969 -139.946)" opacity="0.2"/>
      <path id="Trazado_775354" data-name="Trazado 775354" d="M65.431,162.5a12.878,12.878,0,0,0,4.116,4.464,1.463,1.463,0,0,0,.725,2.4V175.3a1.465,1.465,0,0,0,1.464,1.464h1.007v.4a1.465,1.465,0,0,0,.8,1.3v19.593a5.346,5.346,0,1,1-5.345-5.347,1.464,1.464,0,1,0,0-2.927,8.324,8.324,0,0,0-8.1,6.582,5.348,5.348,0,0,1-6.413-7.326,5.207,5.207,0,0,1,.55-.945,5.364,5.364,0,0,1,4.33-2.19,5.278,5.278,0,0,1,2.193.473,1.463,1.463,0,1,0,1.208-2.666,8.178,8.178,0,0,0-3.4-.733,8.29,8.29,0,0,0-5.7,2.259,5.346,5.346,0,0,1,.631-8.132,8.277,8.277,0,0,0,10.526,3.541,1.464,1.464,0,0,0-1.172-2.683,5.292,5.292,0,0,1-2.126.445,5.351,5.351,0,0,1-4.91-3.211,5.47,5.47,0,0,1-.208-.559,5.34,5.34,0,0,1,4.344-6.866,8.285,8.285,0,0,0,8.246,7.584,1.464,1.464,0,0,0,0-2.927,5.353,5.353,0,0,1-5.347-5.347,5.041,5.041,0,0,1,.036-.619v-.007a5.348,5.348,0,0,1,2.548-3.954m.347-1.072a6.143,6.143,0,0,0-3.687,4.934,5.816,5.816,0,0,0-.043.717,6.152,6.152,0,0,0,6.145,6.145.665.665,0,1,1,0,1.331,7.484,7.484,0,0,1-7.476-7.476c0-.055,0-.109,0-.164h-.01a6.141,6.141,0,0,0-5.871,7.956,6.266,6.266,0,0,0,.238.641,6.144,6.144,0,0,0,8.086,3.179.666.666,0,0,1,.532,1.22,7.478,7.478,0,0,1-9.839-3.867l-.032-.08a6.145,6.145,0,0,0-.914,10.367,7.5,7.5,0,0,1,5.65-2.559,7.421,7.421,0,0,1,3.068.662.665.665,0,1,1-.549,1.211,6.158,6.158,0,0,0-7.5,1.975,5.991,5.991,0,0,0-.633,1.088,6.143,6.143,0,0,0,7.846,8.253,7.488,7.488,0,0,1,7.4-6.383.665.665,0,0,1,0,1.331,6.145,6.145,0,1,0,6.144,6.145s0,0,0,0V177.824h-.132a.665.665,0,0,1-.665-.665v-1.195H71.735a.666.666,0,0,1-.665-.665v-6.687H70.63a.665.665,0,1,1,0-1.331h.439v-.345a11.974,11.974,0,0,1-5.292-5.509Z" transform="translate(-8.674 -139.946)" opacity="0.2"/>
      <path id="Trazado_775355" data-name="Trazado 775355" d="M217.66,217.279a.666.666,0,0,0,.665.665h5.214V219h-5.214a.665.665,0,1,0,0,1.331h5.214v1.107h-8.3v-6.021h8.3v1.2h-5.214A.666.666,0,0,0,217.66,217.279Z" transform="translate(-151.512 -186.752)" fill="#e1e1e5"/>
      <path id="Trazado_775356" data-name="Trazado 775356" d="M188.02,54.248a10.524,10.524,0,0,1-.665,3.677,10.673,10.673,0,0,1-1.544,2.784,10.538,10.538,0,0,1-1.3,1.411,10.365,10.365,0,0,1-1.482,1.12c-.273.17-.554.33-.844.475-.073.037-.148.073-.222.109-.013.007-.025.016-.039.023s-.041.024-.061.039a.381.381,0,0,0-.051.041.467.467,0,0,0-.047.043c-.015.016-.028.033-.043.051s-.025.033-.036.051a.583.583,0,0,0-.031.056c-.009.02-.02.039-.028.059a.561.561,0,0,0-.019.063c-.005.02-.012.04-.016.061a.677.677,0,0,0-.007.073c0,.015-.005.029-.005.044v.757h-8.3v-.757c0-.017,0-.032-.005-.049a.568.568,0,0,0-.007-.067.636.636,0,0,0-.017-.068.371.371,0,0,0-.017-.055.571.571,0,0,0-.029-.065c-.009-.017-.017-.033-.028-.051a.522.522,0,0,0-.04-.055c-.012-.016-.025-.032-.039-.047a.552.552,0,0,0-.051-.047.447.447,0,0,0-.047-.039c-.02-.015-.043-.027-.065-.04s-.023-.015-.036-.021a10.647,10.647,0,0,1-6.06-9.576,10.529,10.529,0,0,1,1.127-4.75q.218-.433.475-.842a10.695,10.695,0,0,1,2.526-2.79,10.584,10.584,0,0,1,17.054,8.383Z" transform="translate(-109.552 -37.848)" fill="#f9c139"/>
      <path id="Trazado_775357" data-name="Trazado 775357" d="M173.944,93.158h7.711a0,0,0,0,0,0,0c-.009.02-.02.039-.028.059a.561.561,0,0,0-.019.063c-.005.02-.012.04-.016.061a.685.685,0,0,0-.007.073c0,.015-.005.029-.005.044v.757h-8.3v-.757c0-.017,0-.032-.005-.049a.565.565,0,0,0-.007-.067.632.632,0,0,0-.017-.068.371.371,0,0,0-.017-.055.573.573,0,0,0-.029-.065c-.009-.017-.017-.033-.028-.051a.518.518,0,0,0-.04-.055c-.012-.016-.025-.032-.039-.047a.552.552,0,0,0-.051-.047.448.448,0,0,0-.047-.039c-.02-.015-.043-.027-.065-.04s-.023-.015-.036-.021a10.647,10.647,0,0,1-6.06-9.575,10.523,10.523,0,0,1,1.964-6.134,10.517,10.517,0,0,0-1.3,5.077,10.647,10.647,0,0,0,6.06,9.576c.013.007.024.015.036.021s.045.025.065.04a.448.448,0,0,1,.047.039.55.55,0,0,1,.051.047c.013.015.027.031.039.047a.522.522,0,0,1,.04.055c.011.017.019.033.028.051a.573.573,0,0,1,.029.065.371.371,0,0,1,.017.055.632.632,0,0,1,.017.068.565.565,0,0,1,.007.067c0,.017.005.032.005.049v.757Z" transform="translate(-109.552 -66.881)" opacity="0.2"/>
      <g id="Grupo_1044131" data-name="Grupo 1044131" transform="translate(51.698)">
        <path id="Trazado_775358" data-name="Trazado 775358" d="M242.093,3.106a.665.665,0,0,0,.665-.665V.665a.665.665,0,1,0-1.331,0V2.44A.665.665,0,0,0,242.093,3.106Z" transform="translate(-225.915)" fill="#23130d"/>
        <path id="Trazado_775359" data-name="Trazado 775359" d="M184.114,18.156a.665.665,0,0,0,1.152-.665l-.887-1.537a.665.665,0,1,0-1.152.665Z" transform="translate(-175.381 -13.542)" fill="#23130d"/>
        <path id="Trazado_775360" data-name="Trazado 775360" d="M140.8,59.533l1.537.888A.665.665,0,1,0,143,59.268l-1.537-.888a.665.665,0,1,0-.665,1.152Z" transform="translate(-138.388 -50.535)" fill="#23130d"/>
        <path id="Trazado_775361" data-name="Trazado 775361" d="M125.51,117.916h1.775a.665.665,0,1,0,0-1.331H125.51a.665.665,0,1,0,0,1.331Z" transform="translate(-124.845 -101.071)" fill="#23130d"/>
        <path id="Trazado_775362" data-name="Trazado 775362" d="M344.675,117.254a.665.665,0,0,0,.665.665h1.775a.665.665,0,1,0,0-1.331H345.34A.665.665,0,0,0,344.675,117.254Z" transform="translate(-315.423 -101.075)" fill="#23130d"/>
        <path id="Trazado_775363" data-name="Trazado 775363" d="M331.506,60.511a.662.662,0,0,0,.332-.089l1.537-.887a.665.665,0,0,0-.665-1.152l-1.537.887a.665.665,0,0,0,.333,1.242Z" transform="translate(-303.429 -50.536)" fill="#23130d"/>
        <path id="Trazado_775364" data-name="Trazado 775364" d="M293.384,18.4a.665.665,0,0,0,.909-.243l.888-1.537a.665.665,0,0,0-1.152-.666l-.888,1.537A.665.665,0,0,0,293.384,18.4Z" transform="translate(-270.668 -13.543)" fill="#23130d"/>
      </g>
      <rect id="Rectángulo_355968" data-name="Rectángulo 355968" width="0.968" height="6.021" transform="translate(63.726 28.665)" opacity="0.2"/>
      <g id="Grupo_1044133" data-name="Grupo 1044133" transform="translate(57.527 6.354)">
        <g id="Grupo_1044132" data-name="Grupo 1044132" transform="translate(0 0.115)" opacity="0.2">
          <path id="Trazado_775365" data-name="Trazado 775365" d="M183.751,101.764c-.073.037-.148.073-.222.109-.013.007-.025.016-.039.023s-.041.024-.061.039a.378.378,0,0,0-.051.041.466.466,0,0,0-.047.043c-.015.016-.028.033-.043.051s-.025.033-.036.051a.578.578,0,0,0-.031.056c-.009.02-.02.039-.028.059a.555.555,0,0,0-.019.063c-.005.02-.012.04-.016.061a.681.681,0,0,0-.007.073c0,.015-.005.029-.005.044v.757h-1.316L168.648,90.047a10.44,10.44,0,0,1,.886-2.5Z" transform="translate(-168.648 -82.367)" fill="#fff"/>
          <path id="Trazado_775366" data-name="Trazado 775366" d="M194.946,85.006a10.366,10.366,0,0,1-1.482,1.12L178.878,71.542A10.407,10.407,0,0,1,180,70.057Z" transform="translate(-177.517 -67.204)" fill="#fff"/>
          <path id="Trazado_775367" data-name="Trazado 775367" d="M214.247,62.224a10.673,10.673,0,0,1-1.544,2.784L197.858,50.165a10.56,10.56,0,0,1,2.782-1.548Z" transform="translate(-193.971 -48.617)" fill="#fff"/>
        </g>
        <path id="Trazado_775368" data-name="Trazado 775368" d="M251.5,58.489a.665.665,0,0,1-.665-.665,8.749,8.749,0,0,0-8.739-8.739.665.665,0,1,1,0-1.331,10.081,10.081,0,0,1,10.07,10.07A.665.665,0,0,1,251.5,58.489Z" transform="translate(-231.743 -47.754)" fill="#fff"/>
      </g>
    </g>
  </g>
</svg>
