<svg xmlns="http://www.w3.org/2000/svg" width="81" height="81" viewBox="0 0 81 81">
  <g id="Grupo_1044067" data-name="Grupo 1044067" transform="translate(-215 -10159)">
    <rect id="Rectángulo_35795" data-name="Rectángulo 35795" width="81" height="81" rx="8" transform="translate(215 10159)" fill="#fabf40"/>
    <g id="dislexia" transform="translate(204.389 10168)">
      <g id="Grupo_1044065" data-name="Grupo 1044065" transform="translate(23.538 0.929)">
        <path id="Trazado_775298" data-name="Trazado 775298" d="M85.3,27.816c-1.584-10.182-9.756-15.123-18.978-17.054,0,0,.231.555-.017-.041-.665-.141-1.526-.382-2.4-.506-4.311-.591-9.275-1.14-13.794.075q-1.086.292-2.168.685l.011,0a22.9,22.9,0,0,0-3.376,1.543,17.234,17.234,0,0,0-9.156,14.353c-.148,2.263-1.123,3.356-1.343,4.3-.268,1.149.954,2.33,1.442,3.465a1.673,1.673,0,0,1-.083,1.475,13.416,13.416,0,0,1-3.777,4.17c-.88.677-1.551,1.282-1.548,2.337,0,1.23.773,2.033,2.425,2.541,3.166.974-.662,3.455-.662,3.455a1.054,1.054,0,0,0,.336,1.454,10.908,10.908,0,0,1,1.314,1.217.248.248,0,0,1-.029.356,1.779,1.779,0,0,0-.743,1.475.978.978,0,0,0,.67.869,4.113,4.113,0,0,1,1,.483.911.911,0,0,1,.291,1.127,3.768,3.768,0,0,0-.582,3.127c.582,2.363,2.565,3.238,4.554,3.563,1.4.228,4.286-.256,7.227-.654,5.194-.7,7.58,3.584,9.111,7.273h0a2.271,2.271,0,0,0,.371.757c.584.8,2.317.9,3.339.6l17.1-4.548a2.494,2.494,0,0,0,1.713-3.285c-1.483-4-3.077-9.576-1.124-11.832.094-.1.018-.024.217-.224,5.781-5.232,7.987-8.723,8.625-14.093,0,0-.694,0,0,0a34.447,34.447,0,0,0,.042-8.464Z" transform="translate(-30.109 -9.31)" fill="#fed2a4"/>
        <path id="Trazado_775299" data-name="Trazado 775299" d="M214.581,45.925a24.079,24.079,0,0,0,3.687-4.779c1.889-3.223,2.265-7.263,2.291-11.216a22.491,22.491,0,0,0-.853-6.558,19.028,19.028,0,0,0-6.916-9.73h0a30.482,30.482,0,0,0-12.158-5.278,0,0,0,0,1,0,0c-.664-.141-1.695-.329-2.574-.453a32.939,32.939,0,0,0-14.4.868,35.213,35.213,0,0,1,11.429-.126c.879.124,1.91.312,2.574.453a0,0,0,0,0,0,0c9.221,1.931,18.069,7.4,19.654,17.578a27.384,27.384,0,0,1,.272,3.987c0,1.623-.115,3.2-.255,4.637a16.689,16.689,0,0,1-3.149,8.316,46.935,46.935,0,0,1-3.624,3.594,5.212,5.212,0,0,0-.374.383c-2.022,2.334-1.737,6.883.871,13.909a.637.637,0,0,1-.032.523.628.628,0,0,1-.4.319l-20.67,5.508a2.719,2.719,0,0,0,2.108,1.126,2.079,2.079,0,0,0,.586-.083l18.439-4.754a2.494,2.494,0,0,0,1.713-3.285c-1.483-4-3.163-9.792-1.21-12.048l.038-.043c.557-.582.5-.365,2.952-2.851Z" transform="translate(-164.671 -7.511)" fill="#ffbd86"/>
        <g id="Grupo_1044064" data-name="Grupo 1044064" transform="translate(9.993 3.852)">
          <g id="Grupo_1044062" data-name="Grupo 1044062">
            <path id="Trazado_775300" data-name="Trazado 775300" d="M149.255,57.847a.5.5,0,0,1,.137-.61,6.156,6.156,0,0,0,2.274-3.158,6.074,6.074,0,0,0-4.33-7.209.493.493,0,0,1-.344-.37,5.51,5.51,0,0,0-4.019-4.619,6.469,6.469,0,0,0-3.075-.162,6.146,6.146,0,0,0-1.691.707.489.489,0,0,1-.675-.17,7.229,7.229,0,0,0-11.211-1.632.5.5,0,0,1-.591.067,5.5,5.5,0,0,0-7.943,2.993.491.491,0,0,1-.4.328,6.488,6.488,0,0,0-5.21,8.728.488.488,0,0,1-.074.474,5.668,5.668,0,0,0,8.357,7.613,1.347,1.347,0,0,1,1.965.1,10.507,10.507,0,0,0,5.458,3.42l.055.014a2,2,0,0,1,1.058.674,6.12,6.12,0,0,0,8.076,1.2.745.745,0,0,1,.935.091,7.251,7.251,0,0,0,3.758,1.967c3.618.689,6.772-1.571,7.848-5.093a7.465,7.465,0,0,0-.358-5.358Z" transform="translate(-110.896 -38.654)" fill="#faf8f8"/>
          </g>
          <g id="Grupo_1044063" data-name="Grupo 1044063" transform="translate(29.002 2.881)">
            <path id="Trazado_775301" data-name="Trazado 775301" d="M355.129,78.415a7.27,7.27,0,0,1-7.9,10.292l-.139-.028a7.269,7.269,0,0,0,5.07-10.264.5.5,0,0,1,.14-.6,6.085,6.085,0,0,0,2.087-3.249,6.152,6.152,0,0,0-4.175-7.376.493.493,0,0,1-.343-.37,6.12,6.12,0,0,0-4.479-4.681l-.03-.007a6.122,6.122,0,0,1,7.477,4.688.493.493,0,0,0,.343.37,6.152,6.152,0,0,1,4.175,7.376,6.085,6.085,0,0,1-2.087,3.249.5.5,0,0,0-.14.6Z" transform="translate(-345.361 -61.944)" fill="#f0e9e6"/>
          </g>
        </g>
      </g>
      <g id="Grupo_1044066" data-name="Grupo 1044066" transform="translate(22.611 0)">
        <path id="Trazado_775302" data-name="Trazado 775302" d="M80.347,22.817A20.14,20.14,0,0,0,70.569,5.159C65.442,1.88,58.393,0,51.23,0a27,27,0,0,0-15.7,4.61,17.951,17.951,0,0,0-7.61,13.818,7.406,7.406,0,0,1-.845,2.938A6.168,6.168,0,0,0,26.6,22.58a4.061,4.061,0,0,0,.931,3.054,7.733,7.733,0,0,1,.563.987.745.745,0,0,1-.039.655,12.345,12.345,0,0,1-3.534,3.889,3.876,3.876,0,0,0-1.91,3.074c0,1.646,1.04,2.8,3.08,3.426a1.513,1.513,0,0,1,.6.286,4.063,4.063,0,0,1-1.489,1.5.93.93,0,0,0-.257.249,1.978,1.978,0,0,0,.52,2.709c.309.246.562.471.761.66A2.492,2.492,0,0,0,25.643,46a.936.936,0,0,0,.57.384,3.693,3.693,0,0,1,1.08.446,4.726,4.726,0,0,0-.634,3.733c.577,2.343,2.362,3.775,5.305,4.257a25.651,25.651,0,0,0,6.14-.462c.449-.063.9-.127,1.361-.189,4.5-.609,6.632,3.017,8.26,7.028A3.433,3.433,0,0,0,50.9,63.33a3.4,3.4,0,0,0,.848-.108l5.311-1.369a.928.928,0,1,0-.463-1.8l-5.311,1.369a1.568,1.568,0,0,1-1.84-.925c-1.1-2.71-3.677-9.057-10.228-8.169-.46.062-.918.127-1.37.19a26.693,26.693,0,0,1-5.583.468c-2.2-.36-3.41-1.272-3.8-2.869a2.981,2.981,0,0,1,.491-2.452,1.834,1.834,0,0,0-.572-2.343,5.079,5.079,0,0,0-1.274-.614c-.015-.22.1-.516.562-.852a.928.928,0,0,0,.193-1.317,15.519,15.519,0,0,0-1.776-1.717c.769-.546,2.235-1.783,2.045-3.15-.08-.572-.473-1.346-1.892-1.782-1.554-.478-1.769-1.079-1.77-1.657s.349-.954,1.187-1.6a14.443,14.443,0,0,0,4.02-4.451,2.612,2.612,0,0,0,.126-2.3,9.143,9.143,0,0,0-.7-1.245c-.386-.612-.786-1.244-.693-1.643a4.948,4.948,0,0,1,.346-.841,9.229,9.229,0,0,0,1.02-3.611C30.526,7.017,41.092,1.855,51.23,1.855c6.818,0,13.5,1.774,18.339,4.867a18.363,18.363,0,0,1,8.922,16.094c0,8.423-1.107,11.875-8.438,18.509-2.108,1.907-1.864,6.252.744,13.282a1.566,1.566,0,0,1-1.075,2.064L60.772,58.98a.928.928,0,0,0,.463,1.8l8.951-2.307a3.422,3.422,0,0,0,2.351-4.506c-2.186-5.891-2.637-10-1.239-11.262,7.74-7.005,9.048-11.109,9.048-19.884Z" transform="translate(-22.611 0)"/>
        <path id="Trazado_775303" data-name="Trazado 775303" d="M173.478,50.343a6.9,6.9,0,0,0-4.459-8.238,6.9,6.9,0,0,0-9.89-4.45,7.983,7.983,0,0,0-11.905-1.637,6.3,6.3,0,0,0-8.716,3.321,7.276,7.276,0,0,0-3.067,1.305.928.928,0,1,0,1.1,1.5,5.417,5.417,0,0,1,2.743-1.032.928.928,0,0,0,.814-.674,4.444,4.444,0,0,1,6.747-2.494.928.928,0,0,0,1.186-.13,6.129,6.129,0,0,1,9.939,1.544.928.928,0,0,0,1.38.342,5.046,5.046,0,0,1,7.959,3.287.928.928,0,0,0,.7.756l.039.009a5.044,5.044,0,0,1,1.648,9.015.928.928,0,0,0-.28,1.207,6.167,6.167,0,0,1-.113,6.149.928.928,0,1,0,1.589.957,8.026,8.026,0,0,0,.5-7.292,6.9,6.9,0,0,0,2.094-3.442Z" transform="translate(-121.153 -29.849)"/>
        <path id="Trazado_775304" data-name="Trazado 775304" d="M108.346,126.438a6.446,6.446,0,0,0,9.121,1.937,1.654,1.654,0,0,1,2.089.144,11.223,11.223,0,0,0,5.1,2.869c.126.032.255.063.386.091a6.9,6.9,0,0,0,9.186,1.717,8,8,0,0,0,8.794,1.494.928.928,0,1,0-.76-1.693,6.153,6.153,0,0,1-7.208-1.625.928.928,0,0,0-1.293-.118,5.045,5.045,0,0,1-7.4-1.124.927.927,0,0,0-.607-.4c-.219-.04-.434-.087-.639-.139a9.365,9.365,0,0,1-4.252-2.394,3.513,3.513,0,0,0-4.435-.355,4.594,4.594,0,0,1-3.884.615,4.6,4.6,0,0,1-2.186-7.437.928.928,0,0,0,.152-.974,5.353,5.353,0,0,1-.269-3.463.928.928,0,0,0-1.8-.459,7.186,7.186,0,0,0,.159,4.126,6.443,6.443,0,0,0-.251,7.187Z" transform="translate(-96.886 -100.273)"/>
        <path id="Trazado_775305" data-name="Trazado 775305" d="M152.272,120.492a.928.928,0,0,0-1.234.445l-3.487,7.422-.011.025a1.1,1.1,0,0,0,1.425,1.464l.02-.008,7.539-3.249a.928.928,0,1,0-.734-1.7l-1.29.556-2.378-2.449.6-1.268A.928.928,0,0,0,152.272,120.492Zm.4,5.737-2.6,1.121,1.2-2.561Z" transform="translate(-132.006 -105.51)"/>
        <path id="Trazado_775306" data-name="Trazado 775306" d="M338.458,165.722a2.845,2.845,0,0,0-1.487-3.739l-2.223-.958a.927.927,0,0,0-1.219.485l-1.518,3.523h0l-1.779,4.129a.928.928,0,0,0,.489,1.221s2.048.872,2.611,1.114a3.169,3.169,0,0,0,4.007-4.483A2.827,2.827,0,0,0,338.458,165.722Zm-3.592-2.625,1.371.591a.99.99,0,1,1-.783,1.818l-.815-.348-.557-.24Zm.929,6.01a1.317,1.317,0,0,1-1.729.688c-.322-.139-1.128-.483-1.762-.752l1.042-2.419.554.236,1.207.52A1.317,1.317,0,0,1,335.794,169.107Z" transform="translate(-292.115 -141.041)"/>
        <path id="Trazado_775307" data-name="Trazado 775307" d="M218.134,79.434a4.867,4.867,0,0,0,3-2.248c1.271-2.061.744-5.349-1.67-6.465a.928.928,0,1,0-.8,1.673c1.254.546,1.688,2.559.877,3.845a3.044,3.044,0,0,1-5.484-2.575.928.928,0,1,0-1.747-.626,4.9,4.9,0,0,0,5.826,6.4Z" transform="translate(-188.593 -61.894)"/>
        <path id="Trazado_775308" data-name="Trazado 775308" d="M236.954,153.251a3.863,3.863,0,0,0,3.436,1.9,5.654,5.654,0,0,0,2.76-.771c2.533-1.428,3.426-3.824,2.221-5.963l-1.094-1.941a.928.928,0,0,0-1.265-.352s-2.634,1.491-3.416,1.931c-.953.537-3.433,1.946-3.433,1.946a.928.928,0,0,0-.348,1.265c.033.059.818,1.44,1.139,1.987Zm3.552-3.582,2.61-1.475.638,1.132c.814,1.445-.249,2.722-1.515,3.436s-2.915.862-3.685-.45c-.155-.264-.428-.741-.667-1.159C238.7,150.694,239.906,150.008,240.506,149.669Z" transform="translate(-209.337 -127.942)"/>
        <path id="Trazado_775309" data-name="Trazado 775309" d="M316.784,93.69l2.127,1.755a.928.928,0,1,0,1.181-1.431l-1.411-1.165.9-1.093,1.255,1.035a.928.928,0,1,0,1.181-1.431l-1.255-1.035.9-1.093,1.411,1.165a.928.928,0,1,0,1.181-1.431l-2.127-1.755a.928.928,0,0,0-1.306.125l-4.165,5.048a.928.928,0,0,0,.125,1.306Z" transform="translate(-280.102 -76.237)"/>
      </g>
    </g>
  </g>
</svg>
