<svg xmlns="http://www.w3.org/2000/svg" xmlns:xlink="http://www.w3.org/1999/xlink" width="72" height="72" viewBox="0 0 72 72">
  <defs>
    <clipPath id="clip-path">
      <path id="path7367" d="M0-682.665H51.472v51.472H0Z" transform="translate(0 682.665)"/>
    </clipPath>
  </defs>
  <g id="Grupo_1044041" data-name="Grupo 1044041" transform="translate(-705 -9198)">
    <circle id="Elipse_4829" data-name="Elipse 4829" cx="36" cy="36" r="36" transform="translate(705 9198)" fill="#3bc192"/>
    <g id="g7353" transform="translate(715 9890.665)">
      <g id="g7355" transform="translate(22.864 -650.907)">
        <path id="path7357" d="M-152.2-.062l6.144,16.461h-5.284L-164.609-.067Z" transform="translate(164.609 0.067)" fill="#c84545"/>
      </g>
      <g id="g7359" transform="translate(12.219 -661.056)">
        <path id="path7361" d="M-211.4-124.378h-8.619v-10.143l-8.619,17.885h8.619v10.128Z" transform="translate(228.637 134.521)" fill="#f6e781"/>
      </g>
      <g id="g7363" transform="translate(0 -682.665)">
        <g id="g7365" clip-path="url(#clip-path)">
          <g id="g7371" transform="translate(15.062 21.609)">
            <path id="path7373" d="M-70.829,0l-5.776,11.985a10.8,10.8,0,0,0,4.253.872h8.833l1.309-2.715h-8.619Z" transform="translate(76.605)" fill="#f4dd45"/>
          </g>
          <g id="g7375" transform="translate(2.322 1.849)">
            <path id="path7377" d="M-338.452-20.667h-6.343a6.575,6.575,0,0,0-4.4-1.685,6.576,6.576,0,0,0-4.408,1.688A12.679,12.679,0,0,0-366.051-7.987a9.509,9.509,0,0,0,9.121,9.5,8.148,8.148,0,0,0,7.872,6.049h23.97a7.432,7.432,0,0,0,5.255-2.177A7.432,7.432,0,0,0-317.655.129a20.8,20.8,0,0,0-20.8-20.8" transform="translate(366.051 22.352)" fill="#e28086"/>
          </g>
          <g id="g7379" transform="translate(40.457 6.399)">
            <path id="path7381" d="M0,0A18.967,18.967,0,0,1,5.16,13.03,18.958,18.958,0,0,1,.622,25.364H2.829a7.432,7.432,0,0,0,7.432-7.432h0A20.785,20.785,0,0,0,0,0" fill="#d06161"/>
          </g>
          <g id="g7383" transform="translate(29.464 31.763)">
            <path id="path7385" d="M-34.955-69.91h8.266a2.85,2.85,0,0,0,2.85-2.85v-2.85H-37.805v2.85a2.85,2.85,0,0,0,2.85,2.85" transform="translate(37.805 75.61)" fill="#e28086"/>
          </g>
          <g id="g7387" transform="translate(29.464 31.763)">
            <path id="path7389" d="M0-33.152H13.822c.049,0,.1,0,.145,0v-2.7H0Z" transform="translate(0 35.856)" fill="#d06161"/>
          </g>
          <g id="g7391" transform="translate(39.637 1.85)">
            <path id="path7393" d="M-130.239-76.627h-5.31v-6.249l-5.31,11.019h5.31v6.24Z" transform="translate(140.86 82.876)" fill="#f6e781"/>
          </g>
          <g id="g7395" transform="translate(0.754 15.999)">
            <path id="path7397" d="M-130.239-76.627h-5.31v-6.249l-5.31,11.019h5.31v6.24Z" transform="translate(140.86 82.876)" fill="#f6e781"/>
          </g>
          <g id="g7399" transform="translate(26.322 36.231)">
            <path id="path7401" d="M-132.815-6.159H-138.1a.754.754,0,0,1-.587-.281l-9.059-11.24a.754.754,0,0,1,.114-1.06.754.754,0,0,1,1.06.114l8.832,10.959h3.837l-3.565-9.55a.754.754,0,0,1,.443-.97.754.754,0,0,1,.97.443l3.944,10.568a.754.754,0,0,1-.087.694A.754.754,0,0,1-132.815-6.159Z" transform="translate(147.912 18.907)"/>
          </g>
          <g id="g7403" transform="translate(11.465 31.008)">
            <path id="path7405" d="M-16.154-60.963a.754.754,0,0,1-.168-.019.754.754,0,0,1-.586-.735V-71.09h-7.865a.754.754,0,0,1-.638-.353.754.754,0,0,1-.041-.728l1.171-2.429a.754.754,0,0,1,1.007-.352.754.754,0,0,1,.352,1.007l-.65,1.348h7.419a.754.754,0,0,1,.754.754v6.829L-8.219-79.9a.754.754,0,0,1,1.007-.352.754.754,0,0,1,.352,1.007l-8.615,17.859A.754.754,0,0,1-16.154-60.963Z" transform="translate(25.528 80.33)"/>
          </g>
          <g id="g7407" transform="translate(14.17 30.405)">
            <path id="path7409" d="M-26.645-5.773a.751.751,0,0,1-.327-.075.754.754,0,0,1-.352-1.007l1.312-2.721a.754.754,0,0,1,1.007-.352.754.754,0,0,1,.352,1.007L-25.965-6.2A.754.754,0,0,1-26.645-5.773Z" transform="translate(27.398 10.002)"/>
          </g>
          <g id="g7411" transform="translate(28.989 2.781)">
            <path id="path7413" d="M3.212-4.481a.75.75,0,0,1-.445-.146A19.89,19.89,0,0,0-9.067-8.492h-.179A.754.754,0,0,1-10-9.246.754.754,0,0,1-9.246-10h.179A21.389,21.389,0,0,1,3.659-5.843a.754.754,0,0,1,.163,1.054A.753.753,0,0,1,3.212-4.481Z" transform="translate(10 10)"/>
          </g>
          <g id="g7415" transform="translate(1.568 1.096)">
            <path id="path7417" d="M-25.346-243.8a.754.754,0,0,1-.65-.371,10.247,10.247,0,0,1-1.418-5.207A13.5,13.5,0,0,1-14.5-262.8a7.341,7.341,0,0,1,4.7-1.7,7.338,7.338,0,0,1,4.683,1.685h2.363a.754.754,0,0,1,.754.754.754.754,0,0,1-.754.754H-5.4a.754.754,0,0,1-.5-.193,5.833,5.833,0,0,0-3.9-1.492,5.836,5.836,0,0,0-3.9,1.495.754.754,0,0,1-.49.193,11.982,11.982,0,0,0-11.7,11.923,8.738,8.738,0,0,0,1.208,4.44.754.754,0,0,1-.266,1.033A.751.751,0,0,1-25.346-243.8Z" transform="translate(27.413 264.491)"/>
          </g>
          <g id="g7419" transform="translate(9.049 24.751)">
            <path id="path7421" d="M-324.832-85.223h-16.223a8.909,8.909,0,0,1-8.444-6.085,10.278,10.278,0,0,1-1.229-.189.754.754,0,0,1-.577-.9.754.754,0,0,1,.9-.577,8.861,8.861,0,0,0,1.512.193.754.754,0,0,1,.7.56,7.4,7.4,0,0,0,7.143,5.488h16.223a.754.754,0,0,1,.754.754A.754.754,0,0,1-324.832-85.223Z" transform="translate(351.321 92.989)"/>
          </g>
          <g id="g7423" transform="translate(38.307 12.722)">
            <path id="path7425" d="M-119.114,9.793h-4.224a.754.754,0,0,1-.754-.754.754.754,0,0,1,.754-.754h4.224a6.638,6.638,0,0,0,4.723-1.956,6.647,6.647,0,0,0,1.447-2.166,6.652,6.652,0,0,0,.509-2.556,20,20,0,0,0-2.943-10.46.754.754,0,0,1,.249-1.037.754.754,0,0,1,1.037.249,21.507,21.507,0,0,1,3.165,11.248,8.153,8.153,0,0,1-.623,3.133A8.148,8.148,0,0,1-113.325,7.4,8.136,8.136,0,0,1-119.114,9.793Z" transform="translate(124.092 10.001)"/>
          </g>
          <g id="g7427" transform="translate(10.697 21.178)">
            <path id="path7429" d="M-59.537-4.7a.754.754,0,0,1-.754-.754.754.754,0,0,1,.754-.754A3.041,3.041,0,0,0-56.5-9.246.754.754,0,0,1-55.745-10a.754.754,0,0,1,.754.754A4.551,4.551,0,0,1-59.537-4.7Z" transform="translate(60.291 10)"/>
          </g>
          <g id="g7431" transform="translate(18.421 1.096)">
            <path id="path7433" d="M-2.645-1.891A.754.754,0,0,1-3.4-2.645,5.853,5.853,0,0,0-9.246-8.492.754.754,0,0,1-10-9.246.754.754,0,0,1-9.246-10,7.363,7.363,0,0,1-1.891-2.645.754.754,0,0,1-2.645-1.891Z" transform="translate(10 10)"/>
          </g>
          <g id="g7435" transform="translate(14.067 2.781)">
            <path id="path7437" d="M-6.156-5.4a.754.754,0,0,1-.754-.754A2.338,2.338,0,0,0-9.246-8.492.754.754,0,0,1-10-9.246.754.754,0,0,1-9.246-10,3.848,3.848,0,0,1-5.4-6.156.754.754,0,0,1-6.156-5.4Z" transform="translate(10 10)"/>
          </g>
          <g id="g7439" transform="translate(31.748 2.939)">
            <path id="path7441" d="M-4.424-4.12a.754.754,0,0,1-.716-.518A5.868,5.868,0,0,0-9.412-8.512a.754.754,0,0,1-.571-.9.754.754,0,0,1,.9-.571A7.383,7.383,0,0,1-3.707-5.11a.754.754,0,0,1-.48.952A.753.753,0,0,1-4.424-4.12Z" transform="translate(10.002 10.002)"/>
          </g>
          <g id="g7443" transform="translate(45.47 20.617)">
            <path id="path7445" d="M-65.125-4.279a.754.754,0,0,1-.754-.754.754.754,0,0,1,.754-.754,3.463,3.463,0,0,0,3.459-3.459A.754.754,0,0,1-60.911-10a.754.754,0,0,1,.754.754A4.973,4.973,0,0,1-65.125-4.279Z" transform="translate(65.878 10)"/>
          </g>
          <g id="g7447" transform="translate(30.804 17.636)">
            <path id="path7449" d="M-4.832-69.148H-9.246A.754.754,0,0,1-10-69.9a.754.754,0,0,1,.754-.754h4.414A2.338,2.338,0,0,0-2.5-72.991a2.314,2.314,0,0,0-.468-1.4.754.754,0,0,1,.149-1.056A.754.754,0,0,1-1.76-75.3a3.811,3.811,0,0,1,.771,2.31A3.848,3.848,0,0,1-4.832-69.148Z" transform="translate(10 75.602)"/>
          </g>
          <g id="g7451" transform="translate(21.369 22.583)">
            <path id="path7453" d="M-9.247-14.809a.754.754,0,0,1-.665-.4A.754.754,0,0,1-9.6-16.228a5.124,5.124,0,0,1,2.41-.6h2.64a.754.754,0,0,1,.754.754.754.754,0,0,1-.754.754h-2.64a3.611,3.611,0,0,0-1.7.426A.751.751,0,0,1-9.247-14.809Z" transform="translate(10.002 16.832)"/>
          </g>
          <g id="g7455" transform="translate(19.123 26.677)">
            <path id="path7457" d="M-60.912-61.61a4.928,4.928,0,0,1-3.56-1.5,4.931,4.931,0,0,1-1.4-3.6.754.754,0,0,1,.774-.733.754.754,0,0,1,.733.774,3.435,3.435,0,0,0,.978,2.51,3.432,3.432,0,0,0,2.48,1.047.754.754,0,0,1,.754.754A.754.754,0,0,1-60.912-61.61Z" transform="translate(65.879 67.449)"/>
          </g>
          <g id="g7459" transform="translate(9.573 10.645)">
            <path id="path7461" d="M-83.751-2.874a.754.754,0,0,1-.754-.754.754.754,0,0,1,.754-.754,4.869,4.869,0,0,0,4.864-4.864A.754.754,0,0,1-78.134-10a.754.754,0,0,1,.754.754A6.379,6.379,0,0,1-83.751-2.874Z" transform="translate(84.505 10)"/>
          </g>
          <g id="g7463" transform="translate(36.901 22.823)">
            <path id="path7465" d="M-81.311-4.308a.754.754,0,0,1-.754-.754.754.754,0,0,1,.754-.754,4.865,4.865,0,0,0,4.7-3.624.754.754,0,0,1,.921-.538.754.754,0,0,1,.538.921A6.373,6.373,0,0,1-81.311-4.308Z" transform="translate(82.065 10.002)"/>
          </g>
          <g id="g7467" transform="translate(21.37 13.454)">
            <path id="path7469" d="M-6.437-5.683a.754.754,0,0,1-.754-.754A2.057,2.057,0,0,0-9.246-8.492.754.754,0,0,1-10-9.246.754.754,0,0,1-9.246-10,3.567,3.567,0,0,1-5.683-6.437.754.754,0,0,1-6.437-5.683Z" transform="translate(10 10)"/>
          </g>
          <g id="g7471" transform="translate(28.71 31.009)">
            <path id="path7473" d="M1.871-2.791H-6.4A3.608,3.608,0,0,1-10-6.4v-2.85A.754.754,0,0,1-9.246-10a.754.754,0,0,1,.754.754V-6.4A2.1,2.1,0,0,0-6.4-4.3H1.871a2.1,2.1,0,0,0,2.1-2.1v-2.85A.754.754,0,0,1,4.721-10a.754.754,0,0,1,.754.754V-6.4A3.609,3.609,0,0,1,1.871-2.791Z" transform="translate(10 10)"/>
          </g>
          <g id="g7475" transform="translate(38.883 1.095)">
            <path id="path7477" d="M-144.8-92.877a.754.754,0,0,1,.168.019.754.754,0,0,1,.586.735v5.495h4.556a.754.754,0,0,1,.639.353.754.754,0,0,1,.041.729l-5.31,11.01a.754.754,0,0,1-.847.407.754.754,0,0,1-.586-.735V-80.35h-4.556a.754.754,0,0,1-.638-.353.754.754,0,0,1-.041-.728l5.31-11.019A.754.754,0,0,1-144.8-92.877Zm4.11,7.757H-144.8a.754.754,0,0,1-.754-.754v-2.947l-3.356,6.964h4.11a.754.754,0,0,1,.754.754v2.941Z" transform="translate(150.86 92.877)"/>
          </g>
          <g id="g7479" transform="translate(0 15.245)">
            <path id="path7481" d="M-144.8-92.877a.754.754,0,0,1,.168.019.754.754,0,0,1,.586.735v5.495h4.556a.754.754,0,0,1,.639.353.754.754,0,0,1,.041.728l-5.31,11.01a.754.754,0,0,1-.847.407.754.754,0,0,1-.586-.735V-80.35h-4.556a.754.754,0,0,1-.638-.353.754.754,0,0,1-.041-.728l5.31-11.019A.754.754,0,0,1-144.8-92.877Zm4.11,7.757H-144.8a.754.754,0,0,1-.754-.754v-2.948l-3.356,6.964h4.11a.754.754,0,0,1,.754.754v2.941Z" transform="translate(150.86 92.877)"/>
          </g>
          <g id="g7483" transform="translate(30.161 8.53)">
            <path id="path7485" d="M-9.246-1.18A.754.754,0,0,1-10-1.934a.754.754,0,0,1,.754-.754,2.905,2.905,0,0,0,2.9-2.9,2.905,2.905,0,0,0-2.9-2.9A.754.754,0,0,1-10-9.246.754.754,0,0,1-9.246-10a4.415,4.415,0,0,1,4.41,4.41A4.415,4.415,0,0,1-9.246-1.18Z" transform="translate(10 10)"/>
          </g>
        </g>
      </g>
    </g>
  </g>
</svg>
