<svg xmlns="http://www.w3.org/2000/svg" xmlns:xlink="http://www.w3.org/1999/xlink" width="81" height="81" viewBox="0 0 81 81">
  <defs>
    <clipPath id="clip-path">
      <path id="path7857" d="M0-682.665H69.788v69.788H0Z" transform="translate(0 682.665)"/>
    </clipPath>
  </defs>
  <g id="Grupo_1044068" data-name="Grupo 1044068" transform="translate(-624 -10159)">
    <rect id="Rectángulo_35796" data-name="Rectángulo 35796" width="81" height="81" rx="8" transform="translate(624 10159)" fill="#fabf40"/>
    <g id="g7851" transform="translate(630 10847.665)">
      <g id="g7853" transform="translate(0 -682.665)">
        <g id="g7855" clip-path="url(#clip-path)">
          <g id="g7861" transform="translate(57.521 3.067)">
            <path id="path7863" d="M-35.911,0H-40V65.7h4.089a4.1,4.1,0,0,0,4.089-4.089V4.089A4.1,4.1,0,0,0-35.911,0" transform="translate(40)" fill="#fc9f63"/>
          </g>
          <g id="g7865" transform="translate(12.267 3.067)">
            <path id="path7867" d="M-433.323-35.911A4.1,4.1,0,0,0-437.412-40h-41.164a4.1,4.1,0,0,0-4.089,4.089V21.61a4.1,4.1,0,0,0,4.089,4.089h41.164a4.1,4.1,0,0,0,4.089-4.089V11.387L-455.95-8.173Z" transform="translate(482.665 40)" fill="#f9bb69"/>
          </g>
          <g id="g7869" transform="translate(4.089 36.734)">
            <path id="path7871" d="M-361.5,0l-28.9,17.72h-12.267a6.134,6.134,0,0,0,6.134,6.134h41.164Z" transform="translate(402.666)" fill="#e7e6e6"/>
          </g>
          <g id="g7873" transform="translate(45.253 36.734)">
            <path id="path7875" d="M0,0V17.72a6.134,6.134,0,0,0,6.134,6.134h4.089V0Z" fill="#d0cdcd"/>
          </g>
          <g id="g7877" transform="translate(53.432 7.156)">
            <path id="path7879" d="M-35.911,0-40,53.081a6.122,6.122,0,0,0,2.045.35A6.134,6.134,0,0,0-31.822,47.3V0Z" transform="translate(40)" fill="#e7e6e6"/>
          </g>
          <g id="g7881" transform="translate(16.357 7.156)">
            <path id="path7883" d="M-234.223,0a4.089,4.089,0,0,1-4.089,4.089A4.089,4.089,0,0,1-242.4,0h-18.493V47.3h32.986a6.136,6.136,0,0,0,4.089,5.783A6.135,6.135,0,0,0-219.73,47.3V0Z" transform="translate(260.894)" fill="#fff"/>
          </g>
          <g id="g7885" transform="translate(45.117 11.245)">
            <path id="path7887" d="M-17.953,0H-20l2.044,4.089h4.089A4.089,4.089,0,0,0-17.953,0" transform="translate(19.997)" fill="#9c9897"/>
          </g>
          <g id="g7889" transform="translate(26.716 1.022)">
            <path id="path7891" d="M-107.732-71.822a2.045,2.045,0,0,1-2.045-2.045,2.045,2.045,0,0,1,2.045-2.045,2.045,2.045,0,0,1,2.045,2.045,2.045,2.045,0,0,1-2.045,2.045m6.134,2.045s0-4.089,0-4.089A6.134,6.134,0,0,0-107.732-80a6.134,6.134,0,0,0-6.134,6.134v4.089h-2.045A4.089,4.089,0,0,0-120-65.688h20.446c0-2.258-.915-4.089-2.044-4.089" transform="translate(120 80)" fill="#b8b4b3"/>
          </g>
          <g id="g7893" transform="translate(42.186 31.827)">
            <path id="path7895" d="M-6.933-23.866a1.019,1.019,0,0,1-.723-.3L-9.7-26.21a1.022,1.022,0,0,1,0-1.446,1.022,1.022,0,0,1,1.446,0l1.322,1.322L-3.567-29.7a1.022,1.022,0,0,1,1.446,0,1.022,1.022,0,0,1,0,1.446L-6.21-24.166A1.019,1.019,0,0,1-6.933-23.866Z" transform="translate(10 30)"/>
          </g>
          <g id="g7897" transform="translate(42.186 23.649)">
            <path id="path7899" d="M-6.933-23.866a1.019,1.019,0,0,1-.723-.3L-9.7-26.21a1.022,1.022,0,0,1,0-1.446,1.022,1.022,0,0,1,1.446,0l1.322,1.322L-3.567-29.7a1.022,1.022,0,0,1,1.446,0,1.022,1.022,0,0,1,0,1.446L-6.21-24.166A1.019,1.019,0,0,1-6.933-23.866Z" transform="translate(10 30)"/>
          </g>
          <g id="g7901" transform="translate(42.186 40.006)">
            <path id="path7903" d="M-6.933-23.866a1.019,1.019,0,0,1-.723-.3L-9.7-26.21a1.022,1.022,0,0,1,0-1.446,1.022,1.022,0,0,1,1.446,0l1.322,1.322L-3.567-29.7a1.022,1.022,0,0,1,1.446,0,1.022,1.022,0,0,1,0,1.446L-6.21-24.166A1.019,1.019,0,0,1-6.933-23.866Z" transform="translate(10 30)"/>
          </g>
          <g id="g7905" transform="translate(25.693 33.872)">
            <path id="path7907" d="M-117.907-7.955h-12.4a1.022,1.022,0,0,1-1.022-1.022A1.022,1.022,0,0,1-130.311-10h12.4a1.022,1.022,0,0,1,1.022,1.022A1.022,1.022,0,0,1-117.907-7.955Z" transform="translate(131.333 10)"/>
          </g>
          <g id="g7909" transform="translate(25.693 25.693)">
            <path id="path7911" d="M-117.907-7.955h-12.4a1.022,1.022,0,0,1-1.022-1.022A1.022,1.022,0,0,1-130.311-10h12.4a1.022,1.022,0,0,1,1.022,1.022A1.022,1.022,0,0,1-117.907-7.955Z" transform="translate(131.333 10)"/>
          </g>
          <g id="g7913" transform="translate(25.693 42.05)">
            <path id="path7915" d="M-117.907-7.955h-12.4a1.022,1.022,0,0,1-1.022-1.022A1.022,1.022,0,0,1-130.311-10h12.4a1.022,1.022,0,0,1,1.022,1.022A1.022,1.022,0,0,1-117.907-7.955Z" transform="translate(131.333 10)"/>
          </g>
          <g id="g7917" transform="translate(3.067 6.134)">
            <path id="path7919" d="M-363.428,45.476h-45.253a7.164,7.164,0,0,1-7.156-7.156,1.022,1.022,0,0,1,1.022-1.022h45.253a1.022,1.022,0,0,1,1.022,1.022,5.117,5.117,0,0,0,5.111,5.111,5.117,5.117,0,0,0,5.111-5.111V-7.955h-15.01a1.022,1.022,0,0,1-1.022-1.022A1.022,1.022,0,0,1-373.327-10h16.032a1.022,1.022,0,0,1,1.022,1.022v47.3A7.164,7.164,0,0,1-363.428,45.476Zm-50.262-6.134a5.12,5.12,0,0,0,5.009,4.089h40.25a7.144,7.144,0,0,1-2.08-4.089Z" transform="translate(415.838 10)"/>
          </g>
          <g id="g7921" transform="translate(15.334 6.134)">
            <path id="path7923" d="M-164.929,39.342a1.022,1.022,0,0,1-1.022-1.022v-47.3A1.022,1.022,0,0,1-164.929-10h15.943a1.022,1.022,0,0,1,1.022,1.022,1.022,1.022,0,0,1-1.022,1.022h-14.92V38.32A1.022,1.022,0,0,1-164.929,39.342Z" transform="translate(165.952 10)"/>
          </g>
          <g id="g7925" transform="translate(11.245 2.045)">
            <path id="path7927" d="M-8.978-423.323A1.022,1.022,0,0,1-10-424.345v-43.209a5.117,5.117,0,0,1,5.111-5.111H13.124a1.022,1.022,0,0,1,1.022,1.022,1.022,1.022,0,0,1-1.022,1.022H-4.889a3.07,3.07,0,0,0-3.067,3.067v43.209A1.022,1.022,0,0,1-8.978-423.323Z" transform="translate(10 472.666)"/>
          </g>
          <g id="g7929" transform="translate(11.245 2.045)">
            <path id="path7931" d="M-265.224,57.744h-45.253a5.117,5.117,0,0,1-5.111-5.111V48.543a1.022,1.022,0,0,1,1.022-1.022,1.022,1.022,0,0,1,1.022,1.022v4.089a3.07,3.07,0,0,0,3.067,3.067h45.253a3.07,3.07,0,0,0,3.067-3.067V-4.889a3.07,3.07,0,0,0-3.067-3.067h-18.1a1.022,1.022,0,0,1-1.022-1.022A1.022,1.022,0,0,1-283.326-10h18.1a5.117,5.117,0,0,1,5.111,5.111V52.632A5.117,5.117,0,0,1-265.224,57.744Z" transform="translate(315.589 10)"/>
          </g>
          <g id="g7933" transform="translate(25.693 0)">
            <path id="path7935" d="M-56.71-70a7.164,7.164,0,0,1,7.156,7.156v3.067h1.022a5.117,5.117,0,0,1,5.111,5.111,1.022,1.022,0,0,1-1.022,1.022H-68.978A1.022,1.022,0,0,1-70-54.666a5.117,5.117,0,0,1,5.111-5.111h1.022v-3.067A7.164,7.164,0,0,1-56.71-70Zm11.07,14.312a3.072,3.072,0,0,0-2.892-2.045h-2.045A1.022,1.022,0,0,1-51.6-58.755v-4.089a5.117,5.117,0,0,0-5.111-5.111,5.117,5.117,0,0,0-5.111,5.111v4.089a1.022,1.022,0,0,1-1.022,1.022h-2.045a3.072,3.072,0,0,0-2.892,2.045Z" transform="translate(70 70)"/>
          </g>
          <g id="g7937" transform="translate(35.916 4.089)">
            <path id="path7939" d="M-46.933-30a3.07,3.07,0,0,1,3.067,3.067,3.07,3.07,0,0,1-3.067,3.067A3.07,3.07,0,0,1-50-26.933,3.07,3.07,0,0,1-46.933-30Zm0,4.089a1.023,1.023,0,0,0,1.022-1.022,1.023,1.023,0,0,0-1.022-1.022,1.023,1.023,0,0,0-1.022,1.022A1.023,1.023,0,0,0-46.933-25.911Z" transform="translate(50 30)"/>
          </g>
        </g>
      </g>
    </g>
  </g>
</svg>
