<svg xmlns="http://www.w3.org/2000/svg" width="72" height="72" viewBox="0 0 72 72">
  <g id="Grupo_1044059" data-name="Grupo 1044059" transform="translate(-705 -9622)">
    <ellipse id="Elipse_4832" data-name="Elipse 4832" cx="36" cy="36" rx="36" ry="36" transform="translate(705 9622)" fill="#3bc192"/>
    <g id="estado-animico" transform="translate(715.981 9633)">
      <g id="Grupo_1044057" data-name="Grupo 1044057" transform="translate(0.754 0.736)">
        <path id="Trazado_775275" data-name="Trazado 775275" d="M107.711,53.835h3.662A14.1,14.1,0,0,1,125.467,67.93V92.435H93.616V67.93a14.1,14.1,0,0,1,14.095-14.095Z" transform="translate(-85.173 -49.291)" fill="#544f57"/>
        <path id="Trazado_775276" data-name="Trazado 775276" d="M108.832,53.832c-3.025,0-5.477,6.311-5.477,14.1V92.432H93.618V67.927a14.1,14.1,0,0,1,14.094-14.1Z" transform="translate(-85.174 -49.288)" fill="#454045"/>
        <path id="Trazado_775277" data-name="Trazado 775277" d="M159.469,435.953H135.911l.575-2.8a5.822,5.822,0,0,1,5.707-4.654h11a5.824,5.824,0,0,1,5.707,4.654Z" transform="translate(-123.32 -387.213)" fill="#efecef"/>
        <path id="Trazado_775278" data-name="Trazado 775278" d="M144.419,428.5a2.118,2.118,0,0,0-.718.126c-1.324.472-2.39,2.223-2.671,4.528l-.341,2.8h-4.783l.575-2.8a5.822,5.822,0,0,1,5.707-4.654Z" transform="translate(-123.315 -387.213)" fill="#c6d0da"/>
        <path id="Trazado_775279" data-name="Trazado 775279" d="M229.3,373v5.443a3.259,3.259,0,0,1-6.519,0V373Z" transform="translate(-201.67 -337.157)" fill="#ffcbbe"/>
        <g id="Grupo_1044055" data-name="Grupo 1044055" transform="translate(6.5 24.477)">
          <path id="Trazado_775280" data-name="Trazado 775280" d="M227.107,381.522a3.263,3.263,0,0,1-4.324-3.081V373h2.128v5.443A3.259,3.259,0,0,0,227.107,381.522Z" transform="translate(-208.172 -361.631)" fill="#eaac9d"/>
          <path id="Trazado_775281" data-name="Trazado 775281" d="M78.052,263.924a4.259,4.259,0,0,1-4.15-5.2,2.1,2.1,0,0,1,4.15.462h27.231a2.1,2.1,0,0,1,4.15-.462,4.259,4.259,0,0,1-4.15,5.2" transform="translate(-73.797 -257.088)" fill="#eaac9d"/>
          <path id="Trazado_775282" data-name="Trazado 775282" d="M222.781,373H229.3v5.014h-6.519Z" transform="translate(-208.17 -361.634)" fill="#eaac9d"/>
        </g>
        <path id="Trazado_775283" data-name="Trazado 775283" d="M144.406,169.149v7.479a9.924,9.924,0,0,1-9.924,9.924H127.1a9.924,9.924,0,0,1-9.924-9.924v-7.393a40.69,40.69,0,0,0,6.52-.846c5.133-1.043,11.025-3.016,13.766-5.757,0,0,2.712,5.541,6.945,6.518Z" transform="translate(-106.421 -147.418)" fill="#ffcbbe"/>
        <path id="Trazado_775284" data-name="Trazado 775284" d="M133.618,239.493H127.1a9.924,9.924,0,0,1-9.924-9.924v-7.393a40.681,40.681,0,0,0,6.52-.846v8.24A9.924,9.924,0,0,0,133.618,239.493Z" transform="translate(-106.421 -200.36)" fill="#eaac9d"/>
        <g id="Grupo_1044056" data-name="Grupo 1044056" transform="translate(14.121 28.56)">
          <ellipse id="Elipse_4974" data-name="Elipse 4974" cx="2.229" cy="1.355" rx="2.229" ry="1.355" transform="translate(16.04)" fill="#e490b7"/>
          <ellipse id="Elipse_4975" data-name="Elipse 4975" cx="2.229" cy="1.355" rx="2.229" ry="1.355" fill="#e490b7"/>
        </g>
        <circle id="Elipse_4976" data-name="Elipse 4976" cx="8.845" cy="8.845" r="8.845" transform="translate(0)" fill="#f4dd45"/>
        <path id="Trazado_775285" data-name="Trazado 775285" d="M17.636,25.1A8.846,8.846,0,1,1,16.364,7.5a8.928,8.928,0,0,1,1.272.091,8.846,8.846,0,0,0,0,17.508Z" transform="translate(-7.518 -7.502)" fill="#eab14d"/>
        <circle id="Elipse_4977" data-name="Elipse 4977" cx="8.845" cy="8.845" r="8.845" transform="translate(31.046)" fill="#dd636e"/>
        <path id="Trazado_775286" data-name="Trazado 775286" d="M334.214,25.1a8.846,8.846,0,1,1-1.272-17.6,8.928,8.928,0,0,1,1.272.091,8.846,8.846,0,0,0,0,17.508Z" transform="translate(-293.05 -7.502)" fill="#da4a54"/>
      </g>
      <g id="Grupo_1044058" data-name="Grupo 1044058" transform="translate(0.019)">
        <path id="Trazado_775287" data-name="Trazado 775287" d="M228.364,316.284a.736.736,0,0,0-.963.392,2.066,2.066,0,0,1-3.809,0,.736.736,0,0,0-1.355.572,3.537,3.537,0,0,0,6.52,0A.735.735,0,0,0,228.364,316.284Z" transform="translate(-200.391 -285.214)"/>
        <path id="Trazado_775288" data-name="Trazado 775288" d="M235.733,283.542h2.652a.736.736,0,1,0,0-1.471h-2.652a.736.736,0,1,0,0,1.471Z" transform="translate(-211.954 -254.409)"/>
        <path id="Trazado_775289" data-name="Trazado 775289" d="M163.027,248.448a.761.761,0,0,0-.133.012H161.42a.76.76,0,1,0,0,1.52h.364a3.473,3.473,0,0,0-.054.613c0,1.183.582,2.145,1.3,2.145s1.3-.962,1.3-2.145S163.742,248.448,163.027,248.448Z" transform="translate(-144.906 -224.083)"/>
        <path id="Trazado_775290" data-name="Trazado 775290" d="M315.455,248.46a.8.8,0,0,0-.138-.012c-.715,0-1.3.962-1.3,2.145s.582,2.145,1.3,2.145,1.3-.962,1.3-2.145a3.476,3.476,0,0,0-.054-.613h.462a.76.76,0,1,0,0-1.52Z" transform="translate(-283.227 -224.083)"/>
        <path id="Trazado_775291" data-name="Trazado 775291" d="M50.226,9.58A9.58,9.58,0,0,0,32.012,5.429a14.75,14.75,0,0,0-5.058-.885H23.292a14.737,14.737,0,0,0-5.059.886A9.58,9.58,0,1,0,2.657,16.181a.736.736,0,1,0,1.066-1.014,8.093,8.093,0,1,1,2.1,1.59.735.735,0,1,0-.687,1.3,9.572,9.572,0,0,0,3.331,1.034c0,.094,0,.188,0,.281v5.248A2.766,2.766,0,0,0,6.641,26.69a4.991,4.991,0,0,0,1.821,5.051V43.88a.735.735,0,0,0,.736.736h4.723a6.5,6.5,0,0,0-.722,1.913l-.575,2.8a.735.735,0,0,0,.72.883H36.9a.735.735,0,0,0,.72-.883l-.575-2.8a6.5,6.5,0,0,0-.722-1.913H41.05a.735.735,0,0,0,.736-.736V41.551a.736.736,0,1,0-1.471,0v1.594H35.186a6.564,6.564,0,0,0-4.565-1.858h-1.5V40.6a10.679,10.679,0,0,0,9.975-7.831,4.954,4.954,0,0,0,1.22-.242v6.082a.736.736,0,0,0,1.471,0V31.742a4.991,4.991,0,0,0,1.822-5.052,2.766,2.766,0,0,0-1.822-2.068V19.374c0-.094,0-.187,0-.281A9.594,9.594,0,0,0,50.226,9.58Zm-31.047,0a9.548,9.548,0,0,0-.412-2.78,13.277,13.277,0,0,1,4.525-.786h3.662a13.287,13.287,0,0,1,4.523.785A9.581,9.581,0,0,0,40.31,19.155c0,.073,0,.147,0,.22v5.153a2.926,2.926,0,0,0-.84.285V22.467a.735.735,0,0,0-.57-.717c-3.837-.885-6.424-6.072-6.45-6.124a.735.735,0,0,0-1.181-.2c-1.707,1.707-5.053,3.337-9.422,4.588a46.8,46.8,0,0,1-10.364,1.8.735.735,0,0,0-.714.735v2.26a2.93,2.93,0,0,0-.839-.285V19.374c0-.073,0-.147,0-.22A9.592,9.592,0,0,0,19.18,9.58ZM8.076,27.014A1.306,1.306,0,0,1,9.56,25.957a1.3,1.3,0,0,1,1.2,1.163,2.249,2.249,0,0,0-1.782-.044.736.736,0,0,0,.55,1.364c.515-.208,1.011.23,1.243.483v1.022a10.725,10.725,0,0,0,.08,1.3,3.524,3.524,0,0,1-2.777-4.236Zm1.858,16.13V32.527a4.954,4.954,0,0,0,1.22.242A10.679,10.679,0,0,0,21.13,40.6v.687h-1.5a6.564,6.564,0,0,0-4.564,1.857Zm17.714-1.122a2.524,2.524,0,1,1-5.047,0V40.6h5.047v1.418Zm7.96,4.8L36,48.74H14.247l.393-1.916a5.109,5.109,0,0,1,4.986-4.066H21.2a3.994,3.994,0,0,0,7.852,0h1.572a5.109,5.109,0,0,1,4.986,4.066ZM38,29.945a9.2,9.2,0,0,1-9.188,9.188H21.432a9.2,9.2,0,0,1-9.188-9.188V23.255C17.38,22.942,27.107,20.8,31.6,17.117c.926,1.573,3.19,4.866,6.407,5.908v6.92Zm4.255-2.153a3.524,3.524,0,0,1-2.864,3.457,10.71,10.71,0,0,0,.08-1.3v-1.02c.231-.252.728-.692,1.244-.484a.736.736,0,0,0,.55-1.364,2.248,2.248,0,0,0-1.782.044,1.367,1.367,0,0,1,2.686-.107,3.548,3.548,0,0,1,.086.779Zm-1.613-10.1a8.11,8.11,0,1,1,8.109-8.11,8.119,8.119,0,0,1-8.109,8.11Z" transform="translate(-0.019)"/>
        <path id="Trazado_775292" data-name="Trazado 775292" d="M58.763,104.912a.736.736,0,0,0-1.356.571,4.183,4.183,0,0,0,7.71,0,.736.736,0,0,0-1.355-.571,2.712,2.712,0,0,1-5,0Z" transform="translate(-51.727 -94.217)"/>
        <path id="Trazado_775293" data-name="Trazado 775293" d="M30.962,56.643a.736.736,0,0,0,1.356-.572,2.715,2.715,0,0,0-5,0,.736.736,0,1,0,1.355.571,1.244,1.244,0,0,1,2.293,0Z" transform="translate(-24.585 -49.075)"/>
        <path id="Trazado_775294" data-name="Trazado 775294" d="M116.41,57.035a.736.736,0,0,0,.964-.392,1.244,1.244,0,0,1,2.292,0,.736.736,0,0,0,1.355-.572,2.715,2.715,0,0,0-5,0A.736.736,0,0,0,116.41,57.035Z" transform="translate(-104.59 -49.075)"/>
        <path id="Trazado_775295" data-name="Trazado 775295" d="M377.839,114.464a4.176,4.176,0,0,0-3.855,2.559.736.736,0,0,0,1.355.571,2.712,2.712,0,0,1,5,0,.736.736,0,0,0,1.355-.571A4.175,4.175,0,0,0,377.839,114.464Z" transform="translate(-337.258 -103.239)"/>
        <path id="Trazado_775296" data-name="Trazado 775296" d="M437.21,74.468a.736.736,0,0,0-.964.392,1.244,1.244,0,0,1-2.292,0,.735.735,0,0,0-1.355.571,2.715,2.715,0,0,0,5,0A.736.736,0,0,0,437.21,74.468Z" transform="translate(-390.124 -67.113)"/>
        <path id="Trazado_775297" data-name="Trazado 775297" d="M348.9,75.432a.736.736,0,0,0-1.355-.571,1.244,1.244,0,0,1-2.292,0,.736.736,0,1,0-1.355.571,2.715,2.715,0,0,0,5,0Z" transform="translate(-310.119 -67.114)"/>
      </g>
    </g>
  </g>
</svg>
