<svg xmlns="http://www.w3.org/2000/svg" width="81" height="81" viewBox="0 0 81 81">
  <g id="Grupo_1044143" data-name="Grupo 1044143" transform="translate(-1044 -12284)">
    <rect id="Rectángulo_355656" data-name="Rectángulo 355656" width="81" height="81" rx="8" transform="translate(1044 12284)" fill="#fabf40"/>
    <g id="Layer_1" transform="translate(1047.461 12282.83)">
      <g id="Grupo_1044142" data-name="Grupo 1044142" transform="translate(2.539 9.17)">
        <path id="Trazado_775369" data-name="Trazado 775369" d="M100.282,137.077H73.038a1.788,1.788,0,0,1,0-3.577h27.244a1.788,1.788,0,1,1,0,3.577Z" transform="translate(-52.592 -99.738)" fill="#72c2e9"/>
        <path id="Trazado_775370" data-name="Trazado 775370" d="M120.67,146.67h3.981v27.671H120.67Z" transform="translate(-88.592 -109.332)" fill="#f0c020"/>
        <path id="Trazado_775371" data-name="Trazado 775371" d="M120.67,146.67h3.981V149.2H120.67Z" transform="translate(-88.592 -109.332)" fill="#e8a61e"/>
        <circle id="Elipse_4985" data-name="Elipse 4985" cx="4.64" cy="4.64" r="4.64" transform="translate(4.934 11.014)" fill="#ffb69f"/>
        <path id="Trazado_775372" data-name="Trazado 775372" d="M23.249,93.778v1.8a1.8,1.8,0,0,0,1.8,1.8h4.828v6.107H20.46V88.616a4.706,4.706,0,0,1,4.706-4.706h0a4.706,4.706,0,0,1,4.706,4.706v5.162Z" transform="translate(-15.594 -63.614)" fill="#fc5d3d"/>
        <path id="Trazado_775373" data-name="Trazado 775373" d="M40.169,158.706v18.875H34.917V162.6a1.358,1.358,0,0,0-1.358-1.358H23.175a2.715,2.715,0,0,1-2.715-2.716V155.99H37.454A2.715,2.715,0,0,1,40.169,158.706Z" transform="translate(-15.594 -116.121)" fill="#7d7b79"/>
        <path id="Trazado_775374" data-name="Trazado 775374" d="M83.145,237.039a1.776,1.776,0,0,1-1.76,2.01H73.7V235.5h7.623A1.818,1.818,0,0,1,83.145,237.039Z" transform="translate(-54.376 -174.04)" fill="#efefef"/>
        <path id="Trazado_775375" data-name="Trazado 775375" d="M5.04,192.667H8.389v15.18H5.04Z" transform="translate(-4.361 -142.838)" fill="#f0c020"/>
        <path id="Trazado_775376" data-name="Trazado 775376" d="M9.227,104.22V83.534a2.094,2.094,0,0,0-4.187,0v28.11H23.685v-3.35a1.358,1.358,0,0,0-1.358-1.358H11.943a2.715,2.715,0,0,1-2.715-2.715Z" transform="translate(-4.361 -61.815)" fill="#72c2e9"/>
        <path id="Trazado_775377" data-name="Trazado 775377" d="M61.367,192.667h3.349v15.18H61.367Z" transform="translate(-45.392 -142.838)" fill="#f0c020"/>
        <path id="Trazado_775378" data-name="Trazado 775378" d="M47.65,122.048v0a1.8,1.8,0,0,1-1.8,1.8H32.528a1.8,1.8,0,0,1-1.8-1.8v-1.8H45.853A1.8,1.8,0,0,1,47.65,122.048Z" transform="translate(-23.075 -90.086)" fill="#ffb69f"/>
        <path id="Trazado_775379" data-name="Trazado 775379" d="M210.4,54.371a4.639,4.639,0,1,1-9.279,0,4.639,4.639,0,0,1,9.279,0Z" transform="translate(-147.195 -38.716)" fill="#ffb69f"/>
        <path id="Trazado_775380" data-name="Trazado 775380" d="M207.5,93.778v1.8a1.8,1.8,0,0,1-1.8,1.8H200.87v6.107h9.415V88.616a4.706,4.706,0,0,0-4.706-4.706h0a4.706,4.706,0,0,0-4.706,4.706v5.162Z" transform="translate(-147.013 -63.614)" fill="#efefef"/>
        <path id="Trazado_775381" data-name="Trazado 775381" d="M162.96,158.706v18.875h5.252V162.6a1.358,1.358,0,0,1,1.358-1.358h10.384a2.715,2.715,0,0,0,2.715-2.716V155.99H165.676A2.715,2.715,0,0,0,162.96,158.706Z" transform="translate(-119.398 -116.121)" fill="#7d7b79"/>
        <path id="Trazado_775382" data-name="Trazado 775382" d="M147.475,237.039a1.776,1.776,0,0,0,1.76,2.01h7.685V235.5H149.3A1.818,1.818,0,0,0,147.475,237.039Z" transform="translate(-108.107 -174.04)" fill="#efefef"/>
        <path id="Trazado_775383" data-name="Trazado 775383" d="M0,0H3.349V15.18H0Z" transform="translate(67.459 65.009) rotate(180)" fill="#f0c020"/>
        <path id="Trazado_775384" data-name="Trazado 775384" d="M196.757,104.22V83.534a2.094,2.094,0,0,1,4.187,0v28.11H182.3v-3.35a1.358,1.358,0,0,1,1.358-1.358h10.384A2.715,2.715,0,0,0,196.757,104.22Z" transform="translate(-133.486 -61.815)" fill="#72c2e9"/>
        <path id="Trazado_775385" data-name="Trazado 775385" d="M0,0H3.349V15.18H0Z" transform="translate(52.163 65.009) rotate(180)" fill="#f0c020"/>
        <path id="Trazado_775386" data-name="Trazado 775386" d="M162.96,122.048v0a1.8,1.8,0,0,0,1.8,1.8h13.325a1.8,1.8,0,0,0,1.8-1.8v-1.8H164.758A1.8,1.8,0,0,0,162.96,122.048Z" transform="translate(-119.398 -90.086)" fill="#ffb69f"/>
        <g id="Grupo_1044135" data-name="Grupo 1044135" transform="translate(17.322 0.678)">
          <path id="Trazado_775387" data-name="Trazado 775387" d="M118.491,121.7H107.6a1.6,1.6,0,0,0,0,3.2h10.889Z" transform="translate(-95.227 -91.821)" fill="#f0c020"/>
          <circle id="Elipse_4986" data-name="Elipse 4986" cx="6.743" cy="6.743" r="6.743" fill="#f0c020"/>
          <path id="Trazado_775388" data-name="Trazado 775388" d="M160.7,14.385V22.44a2.715,2.715,0,0,1-2.715,2.715h-.372a4.637,4.637,0,0,0-8.785,0H131.715A2.715,2.715,0,0,1,129,22.44V14.385a2.715,2.715,0,0,1,2.715-2.715h26.272A2.715,2.715,0,0,1,160.7,14.385Z" transform="translate(-111.982 -11.669)" fill="#f0c020"/>
        </g>
        <g id="Grupo_1044141" data-name="Grupo 1044141">
          <g id="Grupo_1044136" data-name="Grupo 1044136" transform="translate(6.632 41.634)">
            <path id="Trazado_775389" data-name="Trazado 775389" d="M42.46,180.551a.679.679,0,0,1-.679-.679v-.994a.679.679,0,1,1,1.358,0v.994A.679.679,0,0,1,42.46,180.551Zm0-3.71a.679.679,0,0,1-.679-.679V163.848H27.639a.679.679,0,1,1,0-1.358h14.55a.951.951,0,0,1,.95.95v12.722A.679.679,0,0,1,42.46,176.841Z" transform="translate(-26.96 -162.49)" fill="#afafaf"/>
          </g>
          <g id="Grupo_1044137" data-name="Grupo 1044137" transform="translate(45.327 41.634)">
            <path id="Trazado_775390" data-name="Trazado 775390" d="M170.139,180.551a.679.679,0,0,1-.679-.679v-.994a.679.679,0,1,1,1.358,0v.994A.679.679,0,0,1,170.139,180.551Zm0-3.71a.679.679,0,0,1-.679-.679V163.44a.951.951,0,0,1,.95-.95h14.55a.679.679,0,0,1,0,1.358H170.818v12.315A.679.679,0,0,1,170.139,176.841Z" transform="translate(-169.46 -162.49)" fill="#afafaf"/>
          </g>
          <g id="Grupo_1044140" data-name="Grupo 1044140" transform="translate(6.632 41.634)">
            <g id="Grupo_1044138" data-name="Grupo 1044138">
              <path id="Trazado_775391" data-name="Trazado 775391" d="M42.46,180.551a.679.679,0,0,1-.679-.679v-.994a.679.679,0,1,1,1.358,0v.994A.679.679,0,0,1,42.46,180.551Zm0-3.71a.679.679,0,0,1-.679-.679V163.848H27.639a.679.679,0,1,1,0-1.358h14.55a.951.951,0,0,1,.95.95v12.722A.679.679,0,0,1,42.46,176.841Z" transform="translate(-26.96 -162.49)" fill="#afafaf"/>
            </g>
            <g id="Grupo_1044139" data-name="Grupo 1044139" transform="translate(38.696)">
              <path id="Trazado_775392" data-name="Trazado 775392" d="M170.139,180.551a.679.679,0,0,1-.679-.679v-.994a.679.679,0,1,1,1.358,0v.994A.679.679,0,0,1,170.139,180.551Zm0-3.71a.679.679,0,0,1-.679-.679V163.44a.951.951,0,0,1,.95-.95h14.55a.679.679,0,0,1,0,1.358H170.818v12.315A.679.679,0,0,1,170.139,176.841Z" transform="translate(-169.46 -162.49)" fill="#afafaf"/>
            </g>
          </g>
          <path id="Trazado_775393" data-name="Trazado 775393" d="M63.114,24.064a.678.678,0,0,0,.959,0L65.839,22.3a7.416,7.416,0,1,0-.96-.96L63.114,23.1A.679.679,0,0,0,63.114,24.064Zm7.471-13.537a6.064,6.064,0,1,1-6.064,6.064A6.086,6.086,0,0,1,70.585,10.528Z" transform="translate(-46.52 -9.17)"/>
          <path id="Trazado_775394" data-name="Trazado 775394" d="M89.339,45.31a.679.679,0,0,0-.679.679v.2a.679.679,0,0,0,1.358,0v-.2A.679.679,0,0,0,89.339,45.31Z" transform="translate(-65.274 -35.496)"/>
          <path id="Trazado_775395" data-name="Trazado 775395" d="M82.94,23.4a.679.679,0,0,0,.679-.679,1.055,1.055,0,0,1,1.062-1.037,1.079,1.079,0,0,1,1.056,1.037,1.026,1.026,0,0,1-.592.929A1.941,1.941,0,0,0,84,25.4v.149a.679.679,0,0,0,1.358,0V25.4a.6.6,0,0,1,.377-.521,2.4,2.4,0,0,0,1.36-2.151,2.417,2.417,0,0,0-4.833,0A.679.679,0,0,0,82.94,23.4Z" transform="translate(-60.613 -17.3)"/>
          <circle id="Elipse_4987" data-name="Elipse 4987" cx="0.679" cy="0.679" r="0.679" transform="translate(51.755 0)"/>
          <path id="Trazado_775396" data-name="Trazado 775396" d="M166.255,21.5H143.309a.679.679,0,0,0,0,1.358h22.946a.679.679,0,1,0,0-1.358Z" transform="translate(-104.588 -18.152)"/>
          <path id="Trazado_775397" data-name="Trazado 775397" d="M143.3,35.358h3.8a.679.679,0,1,0,0-1.358h-3.8a.679.679,0,1,0,0,1.358Z" transform="translate(-104.585 -27.257)"/>
          <path id="Trazado_775398" data-name="Trazado 775398" d="M184.411,34.679a.679.679,0,0,0-.679-.679H167.3a.679.679,0,1,0,0,1.358h16.429A.679.679,0,0,0,184.411,34.679Z" transform="translate(-122.068 -27.257)"/>
          <path id="Trazado_775399" data-name="Trazado 775399" d="M143.3,47.858h14.088a.679.679,0,1,0,0-1.358H143.3a.679.679,0,1,0,0,1.358Z" transform="translate(-104.581 -36.363)"/>
          <circle id="Elipse_4988" data-name="Elipse 4988" cx="0.679" cy="0.679" r="0.679" transform="translate(35.38 44.806)"/>
          <circle id="Elipse_4989" data-name="Elipse 4989" cx="0.679" cy="0.679" r="0.679" transform="translate(0 34.506)"/>
          <path id="Trazado_775400" data-name="Trazado 775400" d="M70.677,74.179V30.889a2.772,2.772,0,0,0-5.532-.264A5.418,5.418,0,0,0,63.7,29.46a5.311,5.311,0,0,0,2.649-5.486,3.4,3.4,0,0,0,2.909-3.356V12.564A3.4,3.4,0,0,0,65.867,9.17H57.688a.679.679,0,1,0,0,1.358h8.179A2.044,2.044,0,0,1,67.9,12.564v8.054a2.036,2.036,0,0,1-1.947,2.034,5.316,5.316,0,0,0-9.708,0H39.595a2.044,2.044,0,0,1-2.037-2.037V12.564a2.044,2.044,0,0,1,2.037-2.037H52.257a.679.679,0,0,0,0-1.358H39.595A3.4,3.4,0,0,0,36.2,12.564v8.054a3.4,3.4,0,0,0,3.394,3.394h9.55v1.45A2.039,2.039,0,0,0,51.182,27.5h1.89a.679.679,0,0,0,0-1.358h-1.89a.681.681,0,0,1-.679-.679v-1.45h5.345A5.311,5.311,0,0,0,58.5,29.459a5.389,5.389,0,0,0-2.785,4.712v4.483H47.9a2.479,2.479,0,0,0-2.206,3.6H43.8V39.79l1.98-10.873a.679.679,0,0,0-.546-.79.686.686,0,0,0-.79.546L42.558,39.049H32.236a2.281,2.281,0,0,0-2.084,3.2h-2.63a2.477,2.477,0,0,0-2.2-3.6H17.5V34.172a5.389,5.389,0,0,0-2.786-4.712,5.319,5.319,0,1,0-5.2,0,5.422,5.422,0,0,0-1.442,1.166,2.772,2.772,0,0,0-5.532.264V41.639a.679.679,0,1,0,1.358,0V30.889a1.415,1.415,0,0,1,2.83,0V51.575a3.4,3.4,0,0,0,3.394,3.394H20.5a.683.683,0,0,1,.679.679v2.672H3.9V47.07a.679.679,0,1,0-1.358,0V74.179a.679.679,0,0,0,.679.679H70a.679.679,0,0,0,.679-.679ZM69.319,73.5H67.328l0-13.822h1.993ZM43.73,69.951A2.463,2.463,0,0,0,41.475,73.5h-2.2V57.37a.679.679,0,0,0-1.358,0V73.5H35.3V47.187h2.623v4.752a.679.679,0,0,0,1.358,0V47.187H50.229a2.466,2.466,0,0,0,2.2-3.576h3.287V48.36h-6.9a3.4,3.4,0,0,0-3.394,3.394v18.2Zm-14.245,0H27.793v-18.2A3.4,3.4,0,0,0,24.4,48.36H17.5V43.611h3.287a2.466,2.466,0,0,0,2.2,3.576H33.939V73.5h-2.2a2.462,2.462,0,0,0-2.255-3.549Zm20.744-26.34a1.109,1.109,0,1,1,0,2.219H22.984a1.109,1.109,0,0,1,0-2.219ZM46.78,51.754a2.044,2.044,0,0,1,2.037-2.037H65.131v1.857a2.044,2.044,0,0,1-2.037,2.037H52.711a2.041,2.041,0,0,0-2.037,2.037v14.3H46.78Zm5.252,7.924h1.99V73.5h-1.99Zm3.348,0h10.59V73.5H55.38Zm11.109-28.79a1.415,1.415,0,1,1,2.83,0V58.321H52.032V55.648a.679.679,0,0,1,.679-.679H63.095a3.4,3.4,0,0,0,3.394-3.394Zm-9.347-6.064A3.962,3.962,0,0,1,61.1,20.863h.005a3.962,3.962,0,1,1-3.965,3.962Zm-.068,9.347a4.028,4.028,0,0,1,8.057,0V48.36H57.075V43.611h4.149A2.484,2.484,0,0,0,63.7,41.134V35.79a.679.679,0,1,0-1.358,0v2.865h-2.46V35.79a.679.679,0,1,0-1.358,0v2.865h-1.45V34.172ZM46.78,41.131A1.121,1.121,0,0,1,47.9,40.013H62.342v1.121a1.122,1.122,0,0,1-1.119,1.119H47.9A1.121,1.121,0,0,1,46.78,41.131Zm-15.467.2a.926.926,0,0,1,.923-.923H42.446v1.847H32.236a.926.926,0,0,1-.923-.923Zm-4.877-.2a1.123,1.123,0,0,1-1.119,1.119H11.992a1.121,1.121,0,0,1-1.119-1.119V40.013H25.317A1.125,1.125,0,0,1,26.436,41.134ZM8.152,24.825a3.961,3.961,0,1,1,3.962,3.962,3.975,3.975,0,0,1-3.962-3.962Zm3.959,5.32h0a4.045,4.045,0,0,1,4.027,4.027v4.483h-1.45V35.79a.679.679,0,0,0-1.358,0v2.868H10.873V35.79a.679.679,0,1,0-1.358,0v5.344a2.482,2.482,0,0,0,2.477,2.477h4.149V48.36H8.084V34.172a4.043,4.043,0,0,1,4.027-4.027ZM20.5,53.612H10.121a2.044,2.044,0,0,1-2.037-2.037V49.718H24.4a2.044,2.044,0,0,1,2.037,2.037v18.2H22.542v-14.3A2.041,2.041,0,0,0,20.5,53.612Zm.679,6.066V73.5H19.19V59.678ZM17.836,73.5H7.245V59.678h10.59ZM5.887,59.678V73.5H3.9V59.678ZM22.542,73.5V71.309h6.946a1.134,1.134,0,0,1,1.146.948,0,0,0,0,0,0,0A1.1,1.1,0,0,1,29.548,73.5Zm20.04-1.241v0a1.134,1.134,0,0,1,1.148-.948h6.944V73.5H43.668A1.1,1.1,0,0,1,42.582,72.259Z" transform="translate(-2.539 -9.17)"/>
        </g>
      </g>
    </g>
  </g>
</svg>
