<svg xmlns="http://www.w3.org/2000/svg" width="56" height="56" viewBox="0 0 56 56">
  <g id="Grupo_1044302" data-name="Grupo 1044302" transform="translate(-1168 -14144)">
    <path id="Trazado_775854" data-name="Trazado 775854" d="M10,0H46A10,10,0,0,1,56,10V46A10,10,0,0,1,46,56H10A10,10,0,0,1,0,46V10A10,10,0,0,1,10,0Z" transform="translate(1168 14144)" fill="#fabf40"/>
    <path id="Trazado_775855" data-name="Trazado 775855" d="M12.949,0H1.043V-2.578L6.527-8.344q2.027-2.309,2.027-3.668a2.551,2.551,0,0,0-.48-1.676,1.715,1.715,0,0,0-1.395-.574,1.737,1.737,0,0,0-1.465.768,3.155,3.155,0,0,0-.562,1.916H.691a5.6,5.6,0,0,1,.785-2.9,5.506,5.506,0,0,1,2.18-2.08,6.475,6.475,0,0,1,3.117-.75,6.369,6.369,0,0,1,4.26,1.277,4.56,4.56,0,0,1,1.494,3.668,5.326,5.326,0,0,1-.375,1.963,8.608,8.608,0,0,1-1.166,2A29.372,29.372,0,0,1,8.438-5.59l-2.2,2.543h6.715Z" transform="translate(1189 14180)" fill="#12263f"/>
  </g>
</svg>
