<svg xmlns="http://www.w3.org/2000/svg" width="56" height="56" viewBox="0 0 56 56">
  <g id="Grupo_1044304" data-name="Grupo 1044304" transform="translate(6269 -2439)">
    <path id="Trazado_775858" data-name="Trazado 775858" d="M10,0H46A10,10,0,0,1,56,10V46A10,10,0,0,1,46,56H10A10,10,0,0,1,0,46V10A10,10,0,0,1,10,0Z" transform="translate(-6269 2439)" fill="#fabf40"/>
    <path id="Trazado_775859" data-name="Trazado 775859" d="M11.473-6.668h1.734v3.047H11.473V0H7.523V-3.621H.926L.691-6.035,7.523-17.027v-.035h3.949Zm-7.02,0h3.07v-5.25l-.246.4Z" transform="translate(-6248 2475)" fill="#12263f"/>
  </g>
</svg>
