<svg xmlns="http://www.w3.org/2000/svg" width="56" height="56" viewBox="0 0 56 56">
  <g id="Grupo_1044306" data-name="Grupo 1044306" transform="translate(6269 -2833)">
    <path id="Trazado_775862" data-name="Trazado 775862" d="M10,0H46A10,10,0,0,1,56,10V46A10,10,0,0,1,46,56H10A10,10,0,0,1,0,46V10A10,10,0,0,1,10,0Z" transform="translate(-6269 2833)" fill="#fabf40"/>
    <path id="Trazado_775863" data-name="Trazado 775863" d="M10.582-17.309V-14.2h-.176a5.929,5.929,0,0,0-3.639,1.061A4.478,4.478,0,0,0,5.016-10.2a4.618,4.618,0,0,1,3.375-1.312,4.308,4.308,0,0,1,3.527,1.617A6.523,6.523,0,0,1,13.23-5.648a5.973,5.973,0,0,1-.768,2.988A5.477,5.477,0,0,1,10.318-.533,6.162,6.162,0,0,1,7.266.234,6.369,6.369,0,0,1,4.02-.592,5.68,5.68,0,0,1,1.793-2.953a7.776,7.776,0,0,1-.82-3.539V-8.074A9.85,9.85,0,0,1,2.1-12.814a8.2,8.2,0,0,1,3.229-3.3,9.231,9.231,0,0,1,4.652-1.2ZM7.02-8.461A2.266,2.266,0,0,0,5.707-8.1a2.3,2.3,0,0,0-.785.887v1.179q0,3.221,2.238,3.221a1.818,1.818,0,0,0,1.506-.805,3.272,3.272,0,0,0,.6-2.019,3.212,3.212,0,0,0-.615-2.036A1.971,1.971,0,0,0,7.02-8.461Z" transform="translate(-6248 2869)" fill="#12263f"/>
  </g>
</svg>
