<svg xmlns="http://www.w3.org/2000/svg" width="190" height="180" viewBox="0 0 190 180">
  <g id="Grupo_1043170" data-name="Grupo 1043170" transform="translate(-180 -3151)">
    <rect id="mi-hija-no-tiene-miedo-hacer-visita-aqui" width="190" height="145" rx="15" transform="translate(180 3174)" fill="#3bc192"/>
    <circle id="Elipse_4834" data-name="Elipse 4834" cx="44" cy="44" r="44" transform="translate(187 3151)" fill="#fabf40"/>
    <circle id="Elipse_4835" data-name="Elipse 4835" cx="26.5" cy="26.5" r="26.5" transform="translate(300 3278)" fill="#fde9bc"/>
    <g id="informe-medico" transform="translate(209.904 3175.13)">
      <g id="Grupo_1043067" data-name="Grupo 1043067" transform="translate(3.068 3.245)">
        <g id="Grupo_1043059" data-name="Grupo 1043059" transform="translate(49.623)">
          <path id="Trazado_772020" data-name="Trazado 772020" d="M50.812,14.406v4.135H42.541V14.406a4.135,4.135,0,0,0-8.271,0v4.135H26V14.406a12.406,12.406,0,1,1,24.812,0Z" transform="translate(-26 -2)" fill="#b4dd7f"/>
        </g>
        <g id="Grupo_1043060" data-name="Grupo 1043060" transform="translate(16.541 16.541)">
          <path id="Trazado_772021" data-name="Trazado 772021" d="M98.908,117.517H12.068A2.068,2.068,0,0,1,10,115.449V12.068A2.068,2.068,0,0,1,12.068,10h88.908V115.449A2.068,2.068,0,0,1,98.908,117.517Z" transform="translate(-10 -10)" fill="#e6e9ed"/>
        </g>
        <g id="Grupo_1043061" data-name="Grupo 1043061" transform="translate(24.812 24.812)">
          <path id="Trazado_772022" data-name="Trazado 772022" d="M14,14H88.435v90.976H14Z" transform="translate(-14 -14)" fill="#f0d0b4"/>
        </g>
        <g id="Grupo_1043062" data-name="Grupo 1043062" transform="translate(70.299 82.705)">
          <path id="Trazado_772023" data-name="Trazado 772023" d="M56.676,45.1V62.676H36V42H56.676Z" transform="translate(-36 -42)" fill="#fcd770"/>
        </g>
        <g id="Grupo_1043063" data-name="Grupo 1043063" transform="translate(78.57 57.894)">
          <circle id="Elipse_4833" data-name="Elipse 4833" cx="4.135" cy="4.135" r="4.135" transform="translate(0)" fill="#e6e9ed"/>
        </g>
        <g id="Grupo_1043064" data-name="Grupo 1043064" transform="translate(0 37.217)">
          <path id="Trazado_772024" data-name="Trazado 772024" d="M58.177,44.812a18.468,18.468,0,0,1-3.825,5.541L30.947,73.758l-4.135-4.135-8.271-8.271-11-11A18.886,18.886,0,0,1,2,36.975v-.062a18.645,18.645,0,0,1,4.115-11.7A13.8,13.8,0,0,1,16.928,20a14.076,14.076,0,0,1,1.613.1,13.743,13.743,0,0,1,8.188,3.949l.083.083,4.135,4.135,4.218-4.218A13.836,13.836,0,0,1,55.779,25.21a18.645,18.645,0,0,1,4.115,11.7v.062a18.51,18.51,0,0,1-1.716,7.836Z" transform="translate(-2 -20)" fill="#ff826e"/>
        </g>
        <g id="Grupo_1043065" data-name="Grupo 1043065" transform="translate(82.705 0)">
          <path id="Trazado_772025" data-name="Trazado 772025" d="M83.353,8.2V23.834a28.983,28.983,0,0,1-16.541,26.2,31.087,31.087,0,0,1-4.135,1.592,31.086,31.086,0,0,1-4.135-1.592,28.917,28.917,0,0,1-16.376-23.24A23.4,23.4,0,0,1,42,23.834V8.2a36.683,36.683,0,0,0,9.966-1.365,37.523,37.523,0,0,0,9.242-3.949L62.676,2l1.468.889A37.438,37.438,0,0,0,83.353,8.2Z" transform="translate(-42 -2)" fill="#aab2bd"/>
        </g>
        <g id="Grupo_1043066" data-name="Grupo 1043066" transform="translate(90.976 12.406)">
          <path id="Trazado_772026" data-name="Trazado 772026" d="M70.812,18.338v4.135a2.074,2.074,0,0,1-2.068,2.068h-6.2v6.2a2.074,2.074,0,0,1-2.068,2.068H56.338a2.074,2.074,0,0,1-2.068-2.068v-6.2h-6.2A2.074,2.074,0,0,1,46,22.473V18.338a2.074,2.074,0,0,1,2.068-2.068h6.2v-6.2A2.074,2.074,0,0,1,56.338,8h4.135a2.074,2.074,0,0,1,2.068,2.068v6.2h6.2A2.074,2.074,0,0,1,70.812,18.338Z" transform="translate(-46 -8)" fill="#fcd770"/>
        </g>
      </g>
      <g id="Grupo_1043068" data-name="Grupo 1043068" transform="translate(1 0.834)">
        <path id="Trazado_772027" data-name="Trazado 772027" d="M53.271,11.135v4.135H49.135A4.139,4.139,0,0,0,45,19.406v4.135a4.139,4.139,0,0,0,4.135,4.135h4.135v4.135a4.139,4.139,0,0,0,4.135,4.135h4.135a4.139,4.139,0,0,0,4.135-4.135V27.676h4.135a4.139,4.139,0,0,0,4.135-4.135V19.406a4.139,4.139,0,0,0-4.135-4.135H65.676V11.135A4.139,4.139,0,0,0,61.541,7H57.406A4.139,4.139,0,0,0,53.271,11.135ZM69.812,19.4v4.137H61.541v8.271H57.406V23.541H49.135V19.406h8.271V11.135h4.135v8.271Z" transform="translate(45.976 5.749)"/>
        <path id="Trazado_772028" data-name="Trazado 772028" d="M127.125,7.38a35.241,35.241,0,0,1-18.137-5.024L106.449.834,103.91,2.356A35.242,35.242,0,0,1,85.773,7.38H83.705V17.718H79.57V15.651a14.473,14.473,0,0,0-28.947,0v2.068H21.676a4.139,4.139,0,0,0-4.135,4.135V38.419a15.826,15.826,0,0,0-11.98,5.955,20.986,20.986,0,0,0,1.586,27.9L17.541,82.671v42.564a4.139,4.139,0,0,0,4.135,4.135h86.84a4.139,4.139,0,0,0,4.135-4.135v-72.7a30.84,30.84,0,0,0,16.541-27.46V7.38ZM100.246,78.961l-4.373,4.921H71.3v24.812H96.111V89.837l4.135-4.652v31.779h-70.3V95.076l2.068,2.068L56.882,72.277a21,21,0,0,0,3.67-4.935h19.4a6.2,6.2,0,1,0,0-4.135H62.21a21.259,21.259,0,0,0,.819-5.829,20.89,20.89,0,0,0-4.561-13,15.93,15.93,0,0,0-23.705-1.313l-2.748,2.748-2.068-2.068V30.124H84.108a30.773,30.773,0,0,0,16.138,22.413ZM85.862,101.368l6.114-6.879v10.069H75.435V88.018H91.976v.248l-6.292,7.077-4.652-4.652-2.924,2.924ZM83.705,65.274a2.068,2.068,0,1,1,2.068,2.068A2.07,2.07,0,0,1,83.705,65.274ZM54.758,15.651a10.338,10.338,0,1,1,20.676,0v2.068H71.3V15.651a6.2,6.2,0,1,0-12.406,0v2.068H54.758Zm12.406,2.068H63.029V15.651a2.068,2.068,0,0,1,4.135,0Zm16.541,4.135v3.225c0,.306.027.606.037.91H25.812V40.448a15.672,15.672,0,0,0-4.135-1.613V21.853ZM5.135,57.377A16.736,16.736,0,0,1,8.793,46.957a11.794,11.794,0,0,1,17.55-.972l5.672,5.672,5.672-5.672a11.794,11.794,0,0,1,17.55.972,16.787,16.787,0,0,1,2.628,16.249H39.007l-4.541,9.085L28.055,53.062,22.344,67.341h-4.8v4.135h7.6l2.56-6.4L33.7,83.068l7.865-15.726H55.656a17.145,17.145,0,0,1-1.7,2.012L32.014,91.3,10.071,69.353A16.778,16.778,0,0,1,5.135,57.377Zm103.381,67.857H21.676V86.806l4.135,4.135V121.1h78.57V54.342c.49.174.972.358,1.474.507l.593.178.593-.178c.5-.151.984-.335,1.474-.507ZM125.058,25.079A26.774,26.774,0,0,1,106.449,50.7,26.774,26.774,0,0,1,87.84,25.079V11.462A39.4,39.4,0,0,0,106.04,5.9l.409-.248.409.246a39.374,39.374,0,0,0,18.2,5.56Z" transform="translate(-1 -0.834)"/>
        <path id="Trazado_772029" data-name="Trazado 772029" d="M31,51h4.135v4.135H31Z" transform="translate(31.029 52.725)"/>
        <path id="Trazado_772030" data-name="Trazado 772030" d="M27,51h4.135v4.135H27Z" transform="translate(26.758 52.725)"/>
        <path id="Trazado_772031" data-name="Trazado 772031" d="M23,51h4.135v4.135H23Z" transform="translate(22.488 52.725)"/>
        <path id="Trazado_772032" data-name="Trazado 772032" d="M33,25H45.406v4.135H33Z" transform="translate(33.164 24.966)"/>
        <path id="Trazado_772033" data-name="Trazado 772033" d="M33,21H45.406v4.135H33Z" transform="translate(33.164 20.696)"/>
        <path id="Trazado_772034" data-name="Trazado 772034" d="M33,17H45.406v4.135H33Z" transform="translate(33.164 16.425)"/>
      </g>
    </g>
  </g>
</svg>
