<svg xmlns="http://www.w3.org/2000/svg" width="155" height="108" viewBox="0 0 155 108">
  <g id="Grupo_1043071" data-name="Grupo 1043071" transform="translate(-477 -5026)">
    <rect id="Rectángulo_35829" data-name="Rectángulo 35829" width="155" height="59" rx="6" transform="translate(477 5050)" fill="#452d9e"/>
    <circle id="Elipse_4842" data-name="Elipse 4842" cx="34.5" cy="34.5" r="34.5" transform="translate(555 5065)" fill="#fabf40"/>
    <circle id="Elipse_4843" data-name="Elipse 4843" cx="24.5" cy="24.5" r="24.5" transform="translate(483 5026)" fill="#fde9bc"/>
    <g id="www" transform="translate(507 5032.041)">
      <circle id="Elipse_4836" data-name="Elipse 4836" cx="47" cy="47" r="47" transform="translate(1 1)" fill="#c3e1f5"/>
      <circle id="Elipse_4837" data-name="Elipse 4837" cx="38" cy="38" r="38" transform="translate(10 10)" fill="#abd9e6"/>
      <path id="Trazado_772035" data-name="Trazado 772035" d="M88,14a7,7,0,1,1-14,0,7.33,7.33,0,0,1,.16-1.5,7,7,0,0,1,13.68,0A7.33,7.33,0,0,1,88,14Z" fill="#dc5d6b"/>
      <ellipse id="Elipse_4838" data-name="Elipse 4838" cx="6.84" cy="5.5" rx="6.84" ry="5.5" transform="translate(74.16 7)" fill="#e47980"/>
      <path id="Trazado_772036" data-name="Trazado 772036" d="M22,14A7,7,0,1,1,8,14a7.33,7.33,0,0,1,.16-1.5,7,7,0,0,1,13.68,0A7.33,7.33,0,0,1,22,14Z" fill="#dc5d6b"/>
      <ellipse id="Elipse_4839" data-name="Elipse 4839" cx="6.84" cy="5.5" rx="6.84" ry="5.5" transform="translate(8.16 7)" fill="#e47980"/>
      <path id="Trazado_772037" data-name="Trazado 772037" d="M22,82A7,7,0,1,1,8,82a7.33,7.33,0,0,1,.16-1.5,7,7,0,0,1,13.68,0A7.33,7.33,0,0,1,22,82Z" fill="#dc5d6b"/>
      <ellipse id="Elipse_4840" data-name="Elipse 4840" cx="6.84" cy="5.5" rx="6.84" ry="5.5" transform="translate(8.16 75)" fill="#e47980"/>
      <path id="Trazado_772038" data-name="Trazado 772038" d="M88,82a7,7,0,1,1-14,0,7.33,7.33,0,0,1,.16-1.5,7,7,0,0,1,13.68,0A7.33,7.33,0,0,1,88,82Z" fill="#dc5d6b"/>
      <ellipse id="Elipse_4841" data-name="Elipse 4841" cx="6.84" cy="5.5" rx="6.84" ry="5.5" transform="translate(74.16 75)" fill="#e47980"/>
      <path id="Trazado_772039" data-name="Trazado 772039" d="M75,48a26.74,26.74,0,1,1-7.831-19.169A27,27,0,0,1,75,48Z" fill="#7190c4"/>
      <path id="Trazado_772040" data-name="Trazado 772040" d="M75,48a26.74,26.74,0,0,1-4.06,14.23A27,27,0,0,1,29.06,28.77a27.28,27.28,0,0,1,2.7-2.34A27,27,0,0,1,75,47.35Z" fill="#89a3ce"/>
      <path id="Trazado_772041" data-name="Trazado 772041" d="M75,47.35A24.5,24.5,0,0,1,31.76,26.43,27,27,0,0,1,75,47.35Z" fill="#a5b9db"/>
      <path id="Trazado_772042" data-name="Trazado 772042" d="M14,40H82V56H14Z" fill="#fabf40"/>
      <g id="Grupo_1043070" data-name="Grupo 1043070">
        <path id="Trazado_772044" data-name="Trazado 772044" d="M14,39a1,1,0,0,0-1,1V56a1,1,0,0,0,1,1h7.49a28,28,0,0,0,53,0H82a1,1,0,0,0,1-1V40a1,1,0,0,0-1-1H74.51a28,28,0,0,0-53,0ZM48,74c-3.42,0-6.63-4-8.69-10.25a50.72,50.72,0,0,1,17.38,0C54.63,70,51.42,74,48,74Zm10.67-9.87a35,35,0,0,1,7.49,2.51A25.78,25.78,0,0,1,53.52,73.4a23,23,0,0,0,5.15-9.27ZM42.48,73.4a25.78,25.78,0,0,1-12.64-6.76,35,35,0,0,1,7.49-2.51A23,23,0,0,0,42.48,73.4ZM48,61a53.119,53.119,0,0,0-9.27.81,45.169,45.169,0,0,1-1-4.81H58.29a45.166,45.166,0,0,1-1,4.81A53.119,53.119,0,0,0,48,61ZM35.69,57a47,47,0,0,0,1.07,5.19,36,36,0,0,0-8.36,2.92A26,26,0,0,1,23.61,57ZM67.6,65.11a36,36,0,0,0-8.36-2.92A47,47,0,0,0,60.31,57H72.39A26,26,0,0,1,67.6,65.11ZM81,55H15V41H81ZM48,22c3.42,0,6.63,4,8.69,10.25A51.09,51.09,0,0,1,48,33a51.09,51.09,0,0,1-8.69-.75C41.37,26,44.58,22,48,22ZM37.33,31.87a35,35,0,0,1-7.49-2.51A25.78,25.78,0,0,1,42.48,22.6a23,23,0,0,0-5.15,9.27ZM53.52,22.6a25.78,25.78,0,0,1,12.64,6.76,35,35,0,0,1-7.49,2.51,23,23,0,0,0-5.15-9.27ZM48,35a53.119,53.119,0,0,0,9.27-.81,45.17,45.17,0,0,1,1,4.81H37.71a45.17,45.17,0,0,1,1-4.81A53.119,53.119,0,0,0,48,35Zm12.31,4a47,47,0,0,0-1.07-5.19,36,36,0,0,0,8.36-2.92A26,26,0,0,1,72.39,39ZM28.4,30.89a36,36,0,0,0,8.36,2.92A47,47,0,0,0,35.69,39H23.61a26,26,0,0,1,4.79-8.11Z" fill="#39426a"/>
        <path id="Trazado_772045" data-name="Trazado 772045" d="M54.35,43.06a1,1,0,0,0-1.29.59l-2.27,6.06-1.93-3.22a1,1,0,0,0-1.72,0l-1.93,3.22-2.27-6.06a1,1,0,1,0-1.88.7l3,8a1,1,0,0,0,1.8.16L48,48.94l2.14,3.57A1,1,0,0,0,51,53h.09a1,1,0,0,0,.85-.65l3-8a1,1,0,0,0-.59-1.29Z" fill="#39426a"/>
        <path id="Trazado_772046" data-name="Trazado 772046" d="M34.35,43.06a1,1,0,0,0-1.29.59l-2.27,6.06-1.93-3.22a1,1,0,0,0-1.72,0l-1.93,3.22-2.27-6.06a1,1,0,1,0-1.88.7l3,8a1,1,0,0,0,1.8.16L28,48.94l2.14,3.57A1,1,0,0,0,31,53h.09a1,1,0,0,0,.85-.65l3-8a1,1,0,0,0-.59-1.29Z" fill="#39426a"/>
        <path id="Trazado_772047" data-name="Trazado 772047" d="M64.06,52.35a1,1,0,0,0,1.8.16L68,48.94l2.14,3.57A1,1,0,0,0,71,53h.09a1,1,0,0,0,.85-.65l3-8a1,1,0,1,0-1.88-.7l-2.27,6.06-1.93-3.22a1,1,0,0,0-1.72,0l-1.93,3.22-2.27-6.06a1,1,0,1,0-1.88.7Z" fill="#39426a"/>
        <path id="Trazado_772048" data-name="Trazado 772048" d="M92.86,63.07a1.011,1.011,0,1,0,.3-2,1.011,1.011,0,1,0-.3,2Z" fill="#39426a"/>
        <path id="Trazado_772049" data-name="Trazado 772049" d="M94.88,58.34a1,1,0,1,0-1.19.76.86.86,0,0,0,.22,0,1,1,0,0,0,.97-.76Z" fill="#39426a"/>
        <path id="Trazado_772050" data-name="Trazado 772050" d="M89.27,25.47a1,1,0,0,0,.47,1.89,1.11,1.11,0,0,0,.46-.11,1,1,0,1,0-.93-1.78Z" fill="#39426a"/>
        <path id="Trazado_772051" data-name="Trazado 772051" d="M94.48,40.88a1,1,0,1,0,.12,2h.13a1.008,1.008,0,1,0-.25-2Z" fill="#39426a"/>
        <path id="Trazado_772052" data-name="Trazado 772052" d="M95.6,54.23a1.008,1.008,0,1,0-1.14.86h.13a1,1,0,0,0,1.01-.86Z" fill="#39426a"/>
        <path id="Trazado_772053" data-name="Trazado 772053" d="M93.69,36.87a1.005,1.005,0,0,0,.21,2h.22a1.023,1.023,0,0,0-.43-2Z" fill="#39426a"/>
        <path id="Trazado_772054" data-name="Trazado 772054" d="M87.16,22a1.009,1.009,0,0,0,.54,1.86.94.94,0,0,0,.53-.16A1,1,0,0,0,87.16,22Z" fill="#39426a"/>
        <path id="Trazado_772055" data-name="Trazado 772055" d="M96,50.07a1,1,0,1,0-1,.98,1,1,0,0,0,1-.98Z" fill="#39426a"/>
        <path id="Trazado_772056" data-name="Trazado 772056" d="M91.09,66.84a1,1,0,1,0-.562-1.22A1,1,0,0,0,91.09,66.84Z" fill="#39426a"/>
        <path id="Trazado_772057" data-name="Trazado 772057" d="M86.87,72.63a1,1,0,1,0,1.37-.31A1,1,0,0,0,86.87,72.63Z" fill="#39426a"/>
        <path id="Trazado_772058" data-name="Trazado 772058" d="M91.08,29.14a1,1,0,1,0,1.3.54,1,1,0,0,0-1.3-.54Z" fill="#39426a"/>
        <path id="Trazado_772059" data-name="Trazado 772059" d="M89.75,70.62a1,1,0,1,0-.46-.11A1,1,0,0,0,89.75,70.62Z" fill="#39426a"/>
        <path id="Trazado_772060" data-name="Trazado 772060" d="M92.55,33a.809.809,0,1,1,0,.04Z" fill="#39426a"/>
        <path id="Trazado_772061" data-name="Trazado 772061" d="M94.91,44.94a1,1,0,1,0,1,1A1,1,0,0,0,94.91,44.94Z" fill="#39426a"/>
        <path id="Trazado_772062" data-name="Trazado 772062" d="M1.4,55.13h.12a1,1,0,1,0-.12,0Z" fill="#39426a"/>
        <path id="Trazado_772063" data-name="Trazado 772063" d="M4.54,66.94a1,1,0,1,0-.92-.62A1,1,0,0,0,4.54,66.94Z" fill="#39426a"/>
        <path id="Trazado_772064" data-name="Trazado 772064" d="M6.26,70.64a.92.92,0,0,0,.46-.11,1,1,0,1,0-.46.11Z" fill="#39426a"/>
        <path id="Trazado_772065" data-name="Trazado 772065" d="M8.83,22a1,1,0,1,0,.433,1.13A1,1,0,0,0,8.83,22Z" fill="#39426a"/>
        <path id="Trazado_772066" data-name="Trazado 772066" d="M3.15,63.1a1,1,0,1,0-.3-1.96,1.011,1.011,0,0,0,.3,2Z" fill="#39426a"/>
        <path id="Trazado_772067" data-name="Trazado 772067" d="M2.1,59.15h.21a1.023,1.023,0,0,0-.43-2,1.006,1.006,0,0,0,.22,2Z" fill="#39426a"/>
        <path id="Trazado_772068" data-name="Trazado 772068" d="M1.09,51.06a1,1,0,1,0,0-2,1,1,0,0,0,.05,2Z" fill="#39426a"/>
        <path id="Trazado_772069" data-name="Trazado 772069" d="M4.91,29.16a1.339,1.339,0,1,0,0-.01Z" fill="#39426a"/>
        <path id="Trazado_772070" data-name="Trazado 772070" d="M1.12,37.66a1,1,0,0,0,.77,1.19H2.1a1.005,1.005,0,0,0,.21-2,1,1,0,0,0-1.19.81Z" fill="#39426a"/>
        <path id="Trazado_772071" data-name="Trazado 772071" d="M5.37,25.92a1,1,0,0,0,.42,1.35,1.11,1.11,0,0,0,.46.11,1,1,0,1,0-.88-1.46Z" fill="#39426a"/>
        <path id="Trazado_772072" data-name="Trazado 772072" d="M.4,41.77a1,1,0,0,0,.86,1.12h.13a1,1,0,1,0-1-1.13Z" fill="#39426a"/>
        <path id="Trazado_772073" data-name="Trazado 772073" d="M2.19,33.63a1,1,0,0,0,.65,1.25,1,1,0,0,0,.3,0,1,1,0,1,0-1-1.3Z" fill="#39426a"/>
        <path id="Trazado_772074" data-name="Trazado 772074" d="M0,45.93a1,1,0,1,0,1-1A1,1,0,0,0,0,45.93Z" fill="#39426a"/>
        <path id="Trazado_772075" data-name="Trazado 772075" d="M7.77,72.34a.983.983,0,1,0,1.38.27,1,1,0,0,0-1.38-.27Z" fill="#39426a"/>
        <path id="Trazado_772076" data-name="Trazado 772076" d="M21.31,9.1A8,8,0,1,0,15,22a7.92,7.92,0,0,0,4.9-1.69l4.39,4.4a1,1,0,1,0,1.42-1.42l-4.4-4.39a7.95,7.95,0,0,0,0-9.8ZM9,14a6,6,0,1,1,6,6,6,6,0,0,1-6-6Z" fill="#39426a"/>
        <path id="Trazado_772077" data-name="Trazado 772077" d="M49.94,2a1,1,0,0,0,1-1,1,1,0,0,0-2-.08,1,1,0,0,0,1,1Z" fill="#39426a"/>
        <path id="Trazado_772078" data-name="Trazado 772078" d="M53.82,2.36a.955.955,0,1,0-.12,0Z" fill="#39426a"/>
        <path id="Trazado_772079" data-name="Trazado 772079" d="M68.26,6.69a1,1,0,1,0-.455-1.345A1,1,0,0,0,68.26,6.69Z" fill="#39426a"/>
        <path id="Trazado_772080" data-name="Trazado 772080" d="M65.13,5.22a1.063,1.063,0,1,0-.36-.07A.92.92,0,0,0,65.13,5.22Z" fill="#39426a"/>
        <path id="Trazado_772081" data-name="Trazado 772081" d="M61.45,4a1.01,1.01,0,0,0,.28-2,1,1,0,1,0-.57,1.92A1,1,0,0,0,61.45,4Z" fill="#39426a"/>
        <path id="Trazado_772082" data-name="Trazado 772082" d="M46.08,2a1,1,0,0,0,1-1,1,1,0,0,0-2,.08,1,1,0,0,0,1,1Z" fill="#39426a"/>
        <path id="Trazado_772083" data-name="Trazado 772083" d="M30.84,5.23a.978.978,0,1,0-.93-.64A1,1,0,0,0,30.84,5.23Z" fill="#39426a"/>
        <path id="Trazado_772084" data-name="Trazado 772084" d="M42.28,2.35a1.017,1.017,0,1,0-.16.02Z" fill="#39426a"/>
        <path id="Trazado_772085" data-name="Trazado 772085" d="M27.28,6.8a1,1,0,1,0-.9-.56,1,1,0,0,0,.9.56Z" fill="#39426a"/>
        <path id="Trazado_772086" data-name="Trazado 772086" d="M38.31,3h.2a1,1,0,0,0,.78-1.19A1,1,0,0,0,38.1,1a1.005,1.005,0,0,0,.21,2Z" fill="#39426a"/>
        <path id="Trazado_772087" data-name="Trazado 772087" d="M34.53,4a.92.92,0,0,0,.28,0,1,1,0,1,0-.28,0Z" fill="#39426a"/>
        <path id="Trazado_772088" data-name="Trazado 772088" d="M57.67,3a1,1,0,0,0,.2-2,1.021,1.021,0,0,0-.41,2,.75.75,0,0,0,.21,0Z" fill="#39426a"/>
        <path id="Trazado_772089" data-name="Trazado 772089" d="M72.13,8.66a1,1,0,1,0-.52-.15,1,1,0,0,0,.52.15Z" fill="#39426a"/>
        <path id="Trazado_772090" data-name="Trazado 772090" d="M23.86,8.67A1.007,1.007,0,1,0,23,8.18,1,1,0,0,0,23.86,8.67Z" fill="#39426a"/>
        <path id="Trazado_772091" data-name="Trazado 772091" d="M37.33,93.8A1,1,0,0,0,38.1,95h.21a1.012,1.012,0,1,0-.98-1.2Z" fill="#39426a"/>
        <path id="Trazado_772092" data-name="Trazado 772092" d="M23,87.82a.648.648,0,1,1,0,.03Z" fill="#39426a"/>
        <path id="Trazado_772093" data-name="Trazado 772093" d="M61.16,92.09a1.01,1.01,0,0,0,.29,2,.9.9,0,0,0,.28,0,1,1,0,0,0-.57-1.92Z" fill="#39426a"/>
        <path id="Trazado_772094" data-name="Trazado 772094" d="M64.77,90.85a1,1,0,0,0,.37,1.93.92.92,0,0,0,.36-.07,1,1,0,0,0-.73-1.86Z" fill="#39426a"/>
        <path id="Trazado_772095" data-name="Trazado 772095" d="M57.46,93a1.005,1.005,0,1,0,.21,2h.2a1.021,1.021,0,1,0-.41-2Z" fill="#39426a"/>
        <path id="Trazado_772096" data-name="Trazado 772096" d="M68.26,89.31a1,1,0,1,0,.766-.048,1,1,0,0,0-.766.048Z" fill="#39426a"/>
        <path id="Trazado_772097" data-name="Trazado 772097" d="M52.83,94.77a1,1,0,0,0,1,.87h.12a1,1,0,1,0-1.11-.87Z" fill="#39426a"/>
        <path id="Trazado_772098" data-name="Trazado 772098" d="M27.72,89.3a1,1,0,1,0,.508.574,1,1,0,0,0-.508-.574Z" fill="#39426a"/>
        <path id="Trazado_772099" data-name="Trazado 772099" d="M29.91,91.41a1,1,0,0,0,.57,1.29.92.92,0,0,0,.36.07,1,1,0,1,0-.93-1.36Z" fill="#39426a"/>
        <path id="Trazado_772100" data-name="Trazado 772100" d="M33.57,92.76a.68.68,0,1,0-.04-.04Z" fill="#39426a"/>
        <path id="Trazado_772101" data-name="Trazado 772101" d="M48.94,95a.978.978,0,1,0,.91-1,1,1,0,0,0-.91,1Z" fill="#39426a"/>
        <path id="Trazado_772102" data-name="Trazado 772102" d="M45,94.92a1,1,0,1,0,1-1A1,1,0,0,0,45,94.92Z" fill="#39426a"/>
        <path id="Trazado_772103" data-name="Trazado 772103" d="M41.16,94.52A1,1,0,0,0,42,95.63h.12a1,1,0,1,0-1-1.12Z" fill="#39426a"/>
        <path id="Trazado_772104" data-name="Trazado 772104" d="M71.61,87.49a2.1,2.1,0,1,0,.03,0Z" fill="#39426a"/>
        <path id="Trazado_772105" data-name="Trazado 772105" d="M74.69,86.9A8,8,0,1,0,86,75.78l-.1-.08a7.95,7.95,0,0,0-9.8,0l-4.39-4.4a1,1,0,1,0-1.42,1.42l4.4,4.39a7.93,7.93,0,0,0,0,9.79ZM87,82a6,6,0,1,1-6-6A6,6,0,0,1,87,82Z" fill="#39426a"/>
        <path id="Trazado_772106" data-name="Trazado 772106" d="M70.29,24.71a1,1,0,0,0,1.42,0l4.39-4.4a7.95,7.95,0,0,0,9.8,0l.09-.07a7.99,7.99,0,1,0-11.3-1.35l-4.4,4.39a1,1,0,0,0,0,1.43ZM81,8a6,6,0,1,1-6,6,6,6,0,0,1,6-6Z" fill="#39426a"/>
        <path id="Trazado_772107" data-name="Trazado 772107" d="M25.71,71.29a1,1,0,0,0-1.42,0l-4.39,4.4A7.92,7.92,0,0,0,15,74a8,8,0,1,0,6.31,12.9,1.58,1.58,0,0,0,.12-.15,8,8,0,0,0-.14-9.62l4.4-4.39a1,1,0,0,0,.02-1.45ZM15,88a6,6,0,1,1,6-6,6,6,0,0,1-6,6Z" fill="#39426a"/>
      </g>
      <path id="Trazado_772108" data-name="Trazado 772108" d="M85,15a1,1,0,0,1-1-1,3,3,0,0,0-3-3,1,1,0,0,1,0-2,5,5,0,0,1,5,5A1,1,0,0,1,85,15Z" fill="#f4929c"/>
      <path id="Trazado_772109" data-name="Trazado 772109" d="M19,15a1,1,0,0,1-1-1,3,3,0,0,0-3-3,1,1,0,1,1,0-2,5,5,0,0,1,5,5,1,1,0,0,1-1,1Z" fill="#f4929c"/>
      <path id="Trazado_772110" data-name="Trazado 772110" d="M85,83a1,1,0,0,1-1-1,3,3,0,0,0-3-3,1,1,0,0,1,0-2,5,5,0,0,1,5,5A1,1,0,0,1,85,83Z" fill="#f4929c"/>
      <path id="Trazado_772111" data-name="Trazado 772111" d="M19,83a1,1,0,0,1-1-1,3,3,0,0,0-3-3,1,1,0,0,1,0-2,5,5,0,0,1,5,5A1,1,0,0,1,19,83Z" fill="#f4929c"/>
    </g>
  </g>
</svg>
