<svg id="Grupo_1044202" data-name="Grupo 1044202" xmlns="http://www.w3.org/2000/svg" xmlns:xlink="http://www.w3.org/1999/xlink" width="88" height="113" viewBox="0 0 88 113">
  <defs>
    <clipPath id="clip-path">
      <path id="path6975" d="M0-682.665H82.621v82.621H0Z" transform="translate(0 682.665)"/>
    </clipPath>
  </defs>
  <rect id="mi-hija-no-tiene-miedo-hacer-visita-aqui" width="85" height="70" rx="15" transform="translate(3 31)" fill="#3bc192"/>
  <circle id="Elipse_4834" data-name="Elipse 4834" cx="19" cy="19" r="19" transform="translate(50)" fill="#fabf40"/>
  <ellipse id="Elipse_4835" data-name="Elipse 4835" cx="17" cy="18" rx="17" ry="18" transform="translate(0 77)" fill="#fde9bc"/>
  <g id="g6969" transform="translate(5.379 689.747)">
    <g id="g6971" transform="translate(0 -682.665)">
      <g id="g6973" clip-path="url(#clip-path)">
        <g id="g6979" transform="translate(5.135 1.21)">
          <path id="path6981" d="M-193.773-87.567l-9.01-10.359a4.934,4.934,0,0,0-3.723-1.7,4.934,4.934,0,0,0-3.723,1.7l-9.01,10.359a4.987,4.987,0,0,0,.472,7c3.352,2.98,7.318-.871,7.318-.871v38.724h9.884V-81.438s3.975,3.892,7.318.871a5,5,0,0,0,.472-7" transform="translate(220.454 99.624)" fill="#b0f0ef"/>
        </g>
        <g id="g6983" transform="translate(14.138 37.599)">
          <path id="path6985" d="M-71.785-3.626a40.775,40.775,0,0,0-9.884-.349V16.4h9.884Z" transform="translate(81.669 4.126)" fill="#76e7e7"/>
        </g>
        <g id="g6987" transform="translate(1.21 45.533)">
          <path id="path6989" d="M-259.566-130.282a17.9,17.9,0,0,1-17.87,17.939,17.9,17.9,0,0,1-17.87-17.939,17.9,17.9,0,0,1,17.87-17.939,17.9,17.9,0,0,1,17.87,17.939" transform="translate(295.306 148.221)" fill="#60daa8"/>
        </g>
        <g id="g6991" transform="translate(1.21 45.533)">
          <path id="path6993" d="M-67.029-130.282a17.937,17.937,0,0,1,13.258-17.334,17.847,17.847,0,0,0-4.617-.6,17.9,17.9,0,0,0-17.87,17.939,17.9,17.9,0,0,0,17.87,17.939,17.847,17.847,0,0,0,4.617-.6,17.936,17.936,0,0,1-13.258-17.334" transform="translate(76.258 148.221)" fill="#00ce8e"/>
        </g>
        <g id="g6995" transform="translate(8.931 53.284)">
          <path id="path6997" d="M-124.938-51.421h-3.957v-3.972a3.1,3.1,0,0,0-3.1-3.108,3.1,3.1,0,0,0-3.1,3.108v3.972h-3.957a3.1,3.1,0,0,0-3.1,3.108,3.1,3.1,0,0,0,3.1,3.108h3.957v3.972a3.1,3.1,0,0,0,3.1,3.108,3.1,3.1,0,0,0,3.1-3.108V-45.2h3.957a3.1,3.1,0,0,0,3.1-3.108,3.1,3.1,0,0,0-3.1-3.108" transform="translate(142.141 58.501)" fill="#fffcdc"/>
        </g>
        <g id="g6999" transform="translate(49.595 24.501)">
          <path id="path7001" d="M-193.772-325.75l-9.01,10.359a4.934,4.934,0,0,1-3.723,1.7,4.934,4.934,0,0,1-3.723-1.7l-9.01-10.359a4.987,4.987,0,0,1,.472-7c3.352-2.98,7.318.871,7.318.871V-370.6h9.884v38.724s3.975-3.892,7.318-.871a5,5,0,0,1,.472,7" transform="translate(220.453 370.603)" fill="#b0f0ef"/>
        </g>
        <g id="g7003" transform="translate(58.599 24.501)">
          <path id="path7005" d="M-71.785-145.412a40.774,40.774,0,0,1-9.884.349v-20.371h9.884Z" transform="translate(81.669 165.434)" fill="#76e7e7"/>
        </g>
        <g id="g7007" transform="translate(45.671 1.21)">
          <path id="path7009" d="M-259.566-130.281a17.9,17.9,0,0,0-17.87-17.939,17.9,17.9,0,0,0-17.87,17.939,17.9,17.9,0,0,0,17.87,17.939,17.9,17.9,0,0,0,17.87-17.939" transform="translate(295.306 148.22)" fill="#ff8a98"/>
        </g>
        <g id="g7011" transform="translate(45.671 1.21)">
          <path id="path7013" d="M-67.029-130.281a17.937,17.937,0,0,1,13.259-17.334,17.854,17.854,0,0,0-4.618-.6,17.9,17.9,0,0,0-17.87,17.939,17.9,17.9,0,0,0,17.87,17.939,17.852,17.852,0,0,0,4.617-.6,17.937,17.937,0,0,1-13.258-17.334" transform="translate(76.258 148.22)" fill="#fd5c6f"/>
        </g>
        <g id="g7015" transform="translate(53.391 16.04)">
          <path id="path7017" d="M0-22.533v.012a3.1,3.1,0,0,0,3.1,3.1H17.2a3.1,3.1,0,0,0,3.1-3.1v-.012a3.1,3.1,0,0,0-3.1-3.1H3.1a3.1,3.1,0,0,0-3.1,3.1" transform="translate(0 25.636)" fill="#fffcdc"/>
        </g>
        <g id="g7019" transform="translate(3.934)">
          <path id="path7021" d="M-154.59-334.825h-2.421v-24.662a5.826,5.826,0,0,1-6.912-.561,6.219,6.219,0,0,1-.581-8.7l9.01-10.359a6.143,6.143,0,0,1,4.636-2.114,6.144,6.144,0,0,1,4.636,2.114l9.01,10.359a6.176,6.176,0,0,1-.574,8.692c-2.313,2.09-4.966,1.61-6.92.579v24.394h-2.421v-26.742a1.21,1.21,0,0,1,.741-1.116,1.21,1.21,0,0,1,1.316.251c.127.123,3.21,3.051,5.66.838a3.772,3.772,0,0,0,.37-5.308l-9.01-10.359a3.724,3.724,0,0,0-2.81-1.282,3.724,3.724,0,0,0-2.81,1.282l-9.01,10.359a3.791,3.791,0,0,0,.363,5.3c2.483,2.207,5.542-.71,5.671-.835a1.21,1.21,0,0,1,1.314-.246,1.21,1.21,0,0,1,.739,1.115Z" transform="translate(166.007 381.22)"/>
        </g>
        <g id="g7023" transform="translate(48.394 35.273)">
          <path id="path7025" d="M-150.859,37.348a6.143,6.143,0,0,1-4.636-2.114l-9.01-10.359a6.219,6.219,0,0,1,.581-8.7,5.826,5.826,0,0,1,6.912-.561V-3.657a1.21,1.21,0,0,1,1.21-1.21,1.21,1.21,0,0,1,1.21,1.21V17.952a1.21,1.21,0,0,1-.739,1.115,1.21,1.21,0,0,1-1.314-.246c-.127-.122-3.209-3.024-5.671-.835a3.79,3.79,0,0,0-.363,5.3l9.01,10.359a3.724,3.724,0,0,0,2.809,1.282,3.724,3.724,0,0,0,2.81-1.282l9.01-10.359a3.772,3.772,0,0,0-.37-5.308c-2.47-2.232-5.531.712-5.66.838a1.21,1.21,0,0,1-1.316.251,1.21,1.21,0,0,1-.741-1.116V-8.79a1.21,1.21,0,0,1,1.21-1.21,1.21,1.21,0,0,1,1.21,1.21V15.6c1.954-1.032,4.606-1.511,6.919.579a6.176,6.176,0,0,1,.574,8.692l-9.01,10.359A6.143,6.143,0,0,1-150.859,37.348Z" transform="translate(166.008 10)"/>
        </g>
        <g id="g7027" transform="translate(0 44.323)">
          <path id="path7029" d="M-22.46-211.493a18.915,18.915,0,0,1-10.934-3.454,1.21,1.21,0,0,1-.294-1.686A1.21,1.21,0,0,1-32-216.928a16.507,16.507,0,0,0,9.542,3.014A16.713,16.713,0,0,0-5.8-230.642a16.713,16.713,0,0,0-16.66-16.729,16.713,16.713,0,0,0-16.66,16.729,16.6,16.6,0,0,0,3.56,10.336,1.21,1.21,0,0,1-.206,1.7,1.21,1.21,0,0,1-1.7-.206,19,19,0,0,1-4.075-11.829,19.136,19.136,0,0,1,19.08-19.149,19.136,19.136,0,0,1,19.08,19.149A19.136,19.136,0,0,1-22.46-211.493Z" transform="translate(41.54 249.791)"/>
        </g>
        <g id="g7031" transform="translate(7.72 52.073)">
          <path id="path7033" d="M-140.781-68.5a4.318,4.318,0,0,1,4.307,4.319v2.762h2.747a4.318,4.318,0,0,1,4.307,4.319,4.317,4.317,0,0,1-4.307,4.318h-2.747v2.762a4.318,4.318,0,0,1-4.307,4.319,4.317,4.317,0,0,1-4.307-4.319v-2.762h-2.746a4.317,4.317,0,0,1-4.307-4.318,4.318,4.318,0,0,1,4.307-4.319h2.746v-2.762A4.317,4.317,0,0,1-140.781-68.5Zm7.053,13.3a1.894,1.894,0,0,0,1.886-1.9,1.894,1.894,0,0,0-1.886-1.9h-3.957a1.21,1.21,0,0,1-1.21-1.21v-3.972a1.894,1.894,0,0,0-1.886-1.9,1.894,1.894,0,0,0-1.886,1.9v3.972a1.21,1.21,0,0,1-1.21,1.21h-3.957a1.894,1.894,0,0,0-1.886,1.9,1.894,1.894,0,0,0,1.886,1.9h3.957a1.21,1.21,0,0,1,1.21,1.21v3.972a1.894,1.894,0,0,0,1.886,1.9,1.894,1.894,0,0,0,1.886-1.9v-3.972a1.21,1.21,0,0,1,1.21-1.21Z" transform="translate(152.141 68.501)"/>
        </g>
        <g id="g7035" transform="translate(44.46 0)">
          <path id="path7037" d="M-286.226-158.22a19.136,19.136,0,0,1,19.08,19.149,19.136,19.136,0,0,1-19.08,19.149,19.136,19.136,0,0,1-19.08-19.149A19.136,19.136,0,0,1-286.226-158.22Zm0,35.877a16.713,16.713,0,0,0,16.66-16.728,16.713,16.713,0,0,0-16.66-16.728,16.713,16.713,0,0,0-16.66,16.728A16.713,16.713,0,0,0-286.226-122.342Z" transform="translate(305.306 158.22)"/>
        </g>
        <g id="g7039" transform="translate(52.181 14.83)">
          <path id="path7041" d="M-133.683-52.729a1.21,1.21,0,0,1-1.21-1.21,1.21,1.21,0,0,1,1.21-1.21,1.894,1.894,0,0,0,1.892-1.892,1.9,1.9,0,0,0-1.892-1.9h-14.094a1.894,1.894,0,0,0-1.892,1.892,1.9,1.9,0,0,0,1.892,1.9h9.059a1.21,1.21,0,0,1,1.21,1.21,1.21,1.21,0,0,1-1.21,1.21h-9.059a4.318,4.318,0,0,1-4.313-4.313,4.32,4.32,0,0,1,4.313-4.325h14.094a4.318,4.318,0,0,1,4.313,4.313A4.32,4.32,0,0,1-133.683-52.729Z" transform="translate(152.09 61.366)"/>
        </g>
      </g>
    </g>
  </g>
</svg>
