<svg id="Grupo_1044190" data-name="Grupo 1044190" xmlns="http://www.w3.org/2000/svg" width="90" height="113" viewBox="0 0 90 113">
  <rect id="mi-hija-no-tiene-miedo-hacer-visita-aqui" width="85" height="70" rx="15" transform="translate(5 31)" fill="#3bc192"/>
  <circle id="Elipse_4834" data-name="Elipse 4834" cx="19" cy="19" r="19" transform="translate(50)" fill="#fabf40"/>
  <ellipse id="Elipse_4835" data-name="Elipse 4835" cx="17" cy="18" rx="17" ry="18" transform="translate(0 77)" fill="#fde9bc"/>
  <g id="grupo-de-edad" transform="translate(8.598 -19.095)">
    <g id="Grupo_1044228" data-name="Grupo 1044228" transform="translate(1.16 25.332)">
      <path id="Trazado_775661" data-name="Trazado 775661" d="M29.5,253.92a9.282,9.282,0,0,0-9.282-9.282h-3.44A9.282,9.282,0,0,0,7.5,253.92v7.419a3.094,3.094,0,0,0,3.094,3.094h.4v16.86H24.914v-16.86h1.5a3.094,3.094,0,0,0,3.094-3.094Z" transform="translate(-7.5 -211.691)" fill="#f96491"/>
      <path id="Trazado_775662" data-name="Trazado 775662" d="M72.83,244.637H69.736a9.282,9.282,0,0,1,9.282,9.282v7.419H74.428v19.954h3.094v-16.86h1.5a3.094,3.094,0,0,0,3.094-3.094v-7.419A9.282,9.282,0,0,0,72.83,244.637Z" transform="translate(-60.108 -211.69)" fill="#f93a79"/>
      <circle id="Elipse_5009" data-name="Elipse 5009" cx="7.891" cy="7.891" r="7.891" transform="translate(3.093 17.018)" fill="#f96491"/>
      <path id="Trazado_775663" data-name="Trazado 775663" d="M70.047,141.673a7.927,7.927,0,0,0-1.547.153,7.892,7.892,0,0,1,0,15.478,7.892,7.892,0,1,0,1.547-15.63Z" transform="translate(-59.063 -124.655)" fill="#f93a79"/>
      <path id="Trazado_775664" data-name="Trazado 775664" d="M207.242,203.92a9.282,9.282,0,0,0-9.282-9.282h-3.44a9.282,9.282,0,0,0-9.282,9.282v11.6a3.094,3.094,0,0,0,3.094,3.094h.737v20.418h13.924V218.61h1.156a3.094,3.094,0,0,0,3.094-3.094Z" transform="translate(-157.74 -169.426)" fill="#fff08a"/>
      <path id="Trazado_775665" data-name="Trazado 775665" d="M250.567,194.637h-3.094a9.282,9.282,0,0,1,9.282,9.282v11.6h-4.25v23.512H255.6V218.609h1.156a3.094,3.094,0,0,0,3.094-3.094v-11.6A9.282,9.282,0,0,0,250.567,194.637Z" transform="translate(-210.347 -169.425)" fill="#ffc472"/>
      <circle id="Elipse_5010" data-name="Elipse 5010" cx="7.891" cy="7.891" r="7.891" transform="translate(30.59 9.282)" fill="#fff08a"/>
      <path id="Trazado_775666" data-name="Trazado 775666" d="M247.783,91.673a7.926,7.926,0,0,0-1.547.153,7.892,7.892,0,0,1,0,15.478,7.892,7.892,0,1,0,1.547-15.63Z" transform="translate(-209.302 -82.391)" fill="#ffc472"/>
      <path id="Trazado_775667" data-name="Trazado 775667" d="M385.511,143.92a9.282,9.282,0,0,0-9.282-9.282h-3.44a9.282,9.282,0,0,0-9.282,9.282v16.547a3.094,3.094,0,0,0,3.094,3.094h1v24.75h13.924v-24.75h.9a3.094,3.094,0,0,0,3.094-3.094V143.92Z" transform="translate(-308.429 -118.709)" fill="#8ae897"/>
      <path id="Trazado_775668" data-name="Trazado 775668" d="M428.836,134.637h-3.094a9.282,9.282,0,0,1,9.282,9.282v16.547h-3.992V188.31h3.094V163.56h.9a3.094,3.094,0,0,0,3.094-3.094V143.919A9.282,9.282,0,0,0,428.836,134.637Z" transform="translate(-361.037 -118.708)" fill="#69bdc6"/>
      <circle id="Elipse_5011" data-name="Elipse 5011" cx="7.891" cy="7.891" r="7.891" transform="translate(58.169 0)" fill="#8ae897"/>
      <path id="Trazado_775669" data-name="Trazado 775669" d="M426.052,31.673a7.926,7.926,0,0,0-1.547.153,7.892,7.892,0,0,1,0,15.478,7.892,7.892,0,1,0,1.547-15.63Z" transform="translate(-359.991 -31.673)" fill="#69bdc6"/>
    </g>
    <g id="Grupo_1044229" data-name="Grupo 1044229" transform="translate(0 24.172)">
      <path id="Trazado_775670" data-name="Trazado 775670" d="M373.286,40.672a9.049,9.049,0,0,0,2.942-11.538l-2.07,1.05a6.657,6.657,0,0,1,.724,3.04,6.731,6.731,0,1,1-1.922-4.71l1.658-1.624a9.05,9.05,0,1,0-11.59,13.79,10.459,10.459,0,0,0-7.021,9.864V67.091a4.26,4.26,0,0,0,4.089,4.251V96.095h16.244V71.337a4.26,4.26,0,0,0,3.992-4.246V50.544a10.459,10.459,0,0,0-7.046-9.872Zm4.725,26.419a1.936,1.936,0,0,1-1.934,1.934h-2.058v24.75h-4.69V73.189h-2.321V93.774h-4.593V69.025H360.26a1.936,1.936,0,0,1-1.934-1.934V50.544a8.131,8.131,0,0,1,8.122-8.122h3.44a8.131,8.131,0,0,1,8.122,8.122V67.091Z" transform="translate(-300.929 -24.172)"/>
      <path id="Trazado_775671" data-name="Trazado 775671" d="M195.017,100.673a9.051,9.051,0,1,0-10.259.008,10.459,10.459,0,0,0-7.021,9.864v11.6a4.261,4.261,0,0,0,3.831,4.234v20.439h16.244V126.4a4.259,4.259,0,0,0,4.25-4.254v-6.658h-2.321v6.658a1.936,1.936,0,0,1-1.934,1.934h-2.317v20.418h-4.651V128.548H188.52v15.944h-4.632V124.075h-1.9a1.936,1.936,0,0,1-1.934-1.934v-11.6a8.131,8.131,0,0,1,8.122-8.122h3.44a8.131,8.131,0,0,1,8.122,8.122v2.627h2.321v-2.627A10.458,10.458,0,0,0,195.017,100.673ZM183.15,93.225a6.731,6.731,0,1,1,6.731,6.731A6.739,6.739,0,0,1,183.15,93.225Z" transform="translate(-150.24 -74.89)"/>
      <path id="Trazado_775672" data-name="Trazado 775672" d="M17.28,150.673a9.051,9.051,0,1,0-10.26.008,10.467,10.467,0,0,0-5.69,4.76l2.024,1.136a8.139,8.139,0,0,1,7.089-4.154h3.44A8.131,8.131,0,0,1,22,160.545v7.419a1.936,1.936,0,0,1-1.934,1.934H17.414v16.86H12.773V174H10.452v12.755H5.811V169.9H4.254a1.936,1.936,0,0,1-1.934-1.934v-7.419a8.15,8.15,0,0,1,.273-2.1l-2.242-.6A10.47,10.47,0,0,0,0,160.545v7.419a4.262,4.262,0,0,0,3.491,4.186v16.928H19.735v-16.86h.336a4.259,4.259,0,0,0,4.254-4.254v-7.419a10.459,10.459,0,0,0-7.046-9.872ZM5.413,143.225a6.731,6.731,0,1,1,6.731,6.731,6.739,6.739,0,0,1-6.731-6.731Z" transform="translate(0 -117.155)"/>
      <path id="Trazado_775673" data-name="Trazado 775673" d="M67.562,316.559h2.321v2.33H67.562Z" transform="translate(-57.11 -271.325)"/>
      <path id="Trazado_775674" data-name="Trazado 775674" d="M67.562,286.621h2.321v2.321H67.562Z" transform="translate(-57.11 -246.018)"/>
      <path id="Trazado_775675" data-name="Trazado 775675" d="M247.5,241.621h2.321v2.321H247.5Z" transform="translate(-209.21 -207.98)"/>
      <path id="Trazado_775676" data-name="Trazado 775676" d="M247.5,271.621h2.321v2.321H247.5Z" transform="translate(-209.21 -233.339)"/>
      <path id="Trazado_775677" data-name="Trazado 775677" d="M429.326,193.277H427v-2.311h2.321Zm0-4.631H427v-2.321h2.321Zm0-4.641H427v-2.321h2.321Z" transform="translate(-360.944 -157.316)" fill="#fff"/>
    </g>
  </g>
</svg>
