<svg xmlns="http://www.w3.org/2000/svg" xmlns:xlink="http://www.w3.org/1999/xlink" width="88" height="113" viewBox="0 0 88 113">
  <defs>
    <clipPath id="clip-path">
      <path id="path5715" d="M0-682.665H79.609v79.609H0Z" transform="translate(0 682.665)"/>
    </clipPath>
  </defs>
  <g id="Grupo_1044184" data-name="Grupo 1044184" transform="translate(-180 -3153.21)">
    <rect id="mi-hija-no-tiene-miedo-hacer-visita-aqui" width="85" height="70" rx="15" transform="translate(180 3184.21)" fill="#3bc192"/>
    <circle id="Elipse_4834" data-name="Elipse 4834" cx="19" cy="19" r="19" transform="translate(180 3153.21)" fill="#fabf40"/>
    <ellipse id="Elipse_4835" data-name="Elipse 4835" cx="17" cy="18" rx="17" ry="18" transform="translate(234 3230.21)" fill="#fde9bc"/>
    <g id="g5709" transform="translate(182.067 3839.208)">
      <g id="g5711" transform="translate(0 -682.665)">
        <g id="g5713" clip-path="url(#clip-path)">
          <g id="g5719" transform="translate(35.807 25.823)">
            <path id="path5721" d="M-104.706-1.631S-93.844-4.185-92.46,8.3s-14.561,19.669-14.561,19.669l-11.506-11.408Z" transform="translate(118.528 1.846)" fill="#ee6161"/>
          </g>
          <g id="g5723" transform="translate(42.618 7.635)">
            <path id="path5725" d="M-47.723-43.225c-1.034,2.229-3.24,3.4-4.927,2.619s-1.705-3.312-.672-5.541,2.728-3.313,4.415-2.53,2.217,3.224,1.184,5.453" transform="translate(54.023 48.931)" fill="#ffb09e"/>
          </g>
          <g id="g5727" transform="translate(65.383 18.361)">
            <path id="path5729" d="M-4-21.678c-1.034,2.229-.5,4.67,1.184,5.453s3.63-.838,4.664-3.067.767-4.223-.92-5.005-3.893.39-4.927,2.619" transform="translate(4.53 24.54)" fill="#ffb09e"/>
          </g>
          <g id="g5731" transform="translate(45.515 2.06)">
            <path id="path5733" d="M-7.621-98.2l3.1-6.687a10.832,10.832,0,0,1,14.384-5.269,10.832,10.832,0,0,1,5.269,14.384l-3.084,6.65A10.853,10.853,0,0,1-2.362-83.847h0A10.812,10.812,0,0,1-7.621-98.2" transform="translate(8.627 111.167)" fill="#ffcebf"/>
          </g>
          <g id="g5735" transform="translate(51.269 3.769)">
            <path id="path5737" d="M-106.136,0a11.6,11.6,0,0,1,.921,11.575l-3.265,7.05a11.417,11.417,0,0,1-11.667,6.734q.251.132.511.254a10.853,10.853,0,0,0,14.411-5.279l3.084-6.65a10.832,10.832,0,0,0-4-13.684" transform="translate(120.146)" fill="#ffb09e"/>
          </g>
          <g id="g5739" transform="translate(46.215 1.166)">
            <path id="path5741" d="M-163.561-166.563a.194.194,0,0,1-.273.039c-6.227-4.839-5.75-12.243-4.7-16.692a.364.364,0,0,0-.646-.3c-2.746,3.682-8.139,8.8-15.826,7.176a.193.193,0,0,1-.146-.233c.423-1.882,4.24-16.762,17.942-10.407s4.808,18.88,3.645,20.419" transform="translate(185.153 188.55)" fill="#685e68"/>
          </g>
          <g id="g5743" transform="translate(61.793 1.812)">
            <path id="path5745" d="M-17.939-6.989a19.4,19.4,0,0,0-2.368-.923c9.254,5.564,4.912,14.555,2.679,18.086a13.571,13.571,0,0,0,3.061,3.294.194.194,0,0,0,.273-.039C-13.13,11.891-4.237-.635-17.939-6.989" transform="translate(20.307 7.912)" fill="#554e56"/>
          </g>
          <g id="g5747" transform="translate(20.999 63.948)">
            <path id="path5749" d="M-279.383-109.8h-35.609a1.272,1.272,0,0,1-1.272-1.272v-1.765a11.457,11.457,0,0,1,11.457-11.457h15.238a11.457,11.457,0,0,1,11.457,11.457v1.765a1.272,1.272,0,0,1-1.272,1.272" transform="translate(316.265 124.292)" fill="#cbe5e8"/>
          </g>
          <g id="g5751" transform="translate(43.03 63.948)">
            <path id="path5753" d="M-35.335,0H-40A11.458,11.458,0,0,1-28.542,11.457v1.765a1.272,1.272,0,0,1-1.272,1.272h4.665a1.272,1.272,0,0,0,1.272-1.272V11.457A11.458,11.458,0,0,0-35.335,0" transform="translate(40)" fill="#a8d3d8"/>
          </g>
          <path id="path5755" d="M318.567-189.656h-7.631v-12.408h7.631Z" transform="translate(-274.677 258.109)" fill="#ffcebf"/>
          <path id="path5757" d="M343.654-189.656h3.815v-12.408h-3.815Z" transform="translate(-303.579 258.109)" fill="#ffb09e"/>
          <g id="g5759" transform="translate(31.918 60.959)">
            <path id="path5761" d="M-32.893,0a9.968,9.968,0,0,0,3.815,7.494s-2.377,2.654-4.782,1.811c-1.905-.668-2.983-4.222-3.349-5.669a.894.894,0,0,1,.366-.959Z" transform="translate(37.235)" fill="#eae7ea"/>
          </g>
          <g id="g5763" transform="translate(40.075 60.959)">
            <path id="path5765" d="M-28.9,0a9.968,9.968,0,0,1-3.815,7.494s2.377,2.654,4.782,1.811c1.905-.668,2.983-4.222,3.349-5.669a.894.894,0,0,0-.366-.959Z" transform="translate(32.717)" fill="#eae7ea"/>
          </g>
          <g id="g5767" transform="translate(22.116 38.328)">
            <path id="path5769" d="M-53.929-38.165c0,2.783-1.7,5.038-3.8,5.038s-3.319-2.59-3.319-5.373,1.219-4.7,3.319-4.7,3.8,2.255,3.8,5.038" transform="translate(61.048 43.203)" fill="#ffb09e"/>
          </g>
          <g id="g5771" transform="translate(50.374 38.328)">
            <path id="path5773" d="M0-38.165c0,2.783,1.7,5.038,3.8,5.038s3.319-2.59,3.319-5.373S5.9-43.2,3.8-43.2,0-40.947,0-38.165" transform="translate(0 43.203)" fill="#ffb09e"/>
          </g>
          <g id="g5775" transform="translate(27.538 25.623)">
            <path id="path5777" d="M0-156.153V-164.5a12.267,12.267,0,0,1,12.267-12.267A12.267,12.267,0,0,1,24.533-164.5v8.3a12.29,12.29,0,0,1-12.29,12.29A12.244,12.244,0,0,1,0-156.153" transform="translate(0 176.766)" fill="#ffcebf"/>
          </g>
          <g id="g5779" transform="translate(37.451 25.623)">
            <path id="path5781" d="M-17.828,0h0A12.327,12.327,0,0,0-20.16.224a12.269,12.269,0,0,1,9.934,12.043v8.3a12.292,12.292,0,0,1-9.956,12.066,12.309,12.309,0,0,0,2.33.224,12.29,12.29,0,0,0,12.29-12.29v-8.3A12.267,12.267,0,0,0-17.828,0" transform="translate(20.181)" fill="#ffb09e"/>
          </g>
          <g id="g5783" transform="translate(25.705 20.58)">
            <path id="path5785" d="M-204.452-151.166a14.967,14.967,0,0,0-.625,3.061s-2.83-2.107-2.744-2.909c.135-1.281.876-9.146-2.359-8.4s-4.567,1.281-7.271,1.281-4.037-.539-7.271-1.281-2.494,7.124-2.359,8.4c.085.8-2.528,2.9-2.528,2.9a21.422,21.422,0,0,0-.842-3.054c-.27-.579-2.7-7.943,1.221-12.818a.864.864,0,0,0,.042-1.025,3.9,3.9,0,0,1-.668-2.185,3.92,3.92,0,0,1,1.154-2.774,3.914,3.914,0,0,1,2.774-1.154h9.543a3.941,3.941,0,0,1,3.692,2.6,1.285,1.285,0,0,0,.9.827c12.1,2.853,7.874,15.385,7.339,16.533" transform="translate(231.442 171.121)" fill="#685e68"/>
          </g>
          <g id="g5787" transform="translate(36.096 20.58)">
            <path id="path5789" d="M-70.149-25.927a1.286,1.286,0,0,1-.9-.827,3.941,3.941,0,0,0-3.692-2.6h-4.665a3.941,3.941,0,0,1,3.692,2.6,1.286,1.286,0,0,0,.9.827c6.838,1.611,8.462,6.312,8.485,10.3a22.036,22.036,0,0,1,.149,6.381c-.085.8,2.744,2.909,2.744,2.909a14.962,14.962,0,0,1,.624-3.061c.535-1.148,4.766-13.68-7.338-16.533" transform="translate(79.409 29.349)" fill="#554e56"/>
          </g>
          <g id="g5791" transform="translate(58.851 49.594)">
            <path id="path5793" d="M-44.522,0A6.65,6.65,0,0,1-40.6,1.288,6.65,6.65,0,0,1-36.686,0c3.3,0,5.877,2.892,5.877,6.583,0,2.364-1.155,6.932-8.9,10.969a1.93,1.93,0,0,1-.9.222,1.931,1.931,0,0,1-.9-.222c-7.74-4.036-8.9-8.6-8.9-10.969C-50.4,2.892-47.818,0-44.522,0" transform="translate(50.4)" fill="#ee6161"/>
          </g>
          <g id="g5795" transform="translate(66.328 49.594)">
            <path id="path5797" d="M-47.248,0a6.514,6.514,0,0,0-2.428.466,6.543,6.543,0,0,1,3.668,6.117c0,2.212-1.012,6.351-7.477,10.18q.67.4,1.419.788a1.93,1.93,0,0,0,.9.222,1.931,1.931,0,0,0,.9-.222c7.74-4.036,8.9-8.6,8.9-10.969C-41.371,2.892-43.953,0-47.248,0" transform="translate(53.485)" fill="#e94444"/>
          </g>
          <g id="g5799" transform="translate(1.166 9.046)">
            <path id="path5801" d="M-44.522,0A6.65,6.65,0,0,1-40.6,1.288,6.65,6.65,0,0,1-36.686,0c3.3,0,5.877,2.892,5.877,6.583,0,2.364-1.155,6.932-8.9,10.969a1.93,1.93,0,0,1-.9.222,1.931,1.931,0,0,1-.9-.222c-7.74-4.036-8.9-8.6-8.9-10.969C-50.4,2.892-47.818,0-44.522,0" transform="translate(50.4)" fill="#ee6161"/>
          </g>
          <g id="g5803" transform="translate(8.643 9.046)">
            <path id="path5805" d="M-47.248,0a6.517,6.517,0,0,0-2.428.466,6.543,6.543,0,0,1,3.668,6.117c0,2.212-1.012,6.351-7.477,10.18q.67.4,1.419.788a1.932,1.932,0,0,0,.9.222,1.932,1.932,0,0,0,.9-.222c7.74-4.037,8.9-8.6,8.9-10.969C-41.371,2.892-43.953,0-47.248,0" transform="translate(53.485)" fill="#e94444"/>
          </g>
          <g id="g5807" transform="translate(52.071 34.008)">
            <path id="path5809" d="M-52.6-45.462h-4.637a2.307,2.307,0,0,1-2.307-2.307v-1.387a2.307,2.307,0,0,1,2.307-2.307H-52.6A2.307,2.307,0,0,1-50.3-49.157v1.387A2.307,2.307,0,0,1-52.6-45.462" transform="translate(59.549 51.464)" fill="#ffcebf"/>
          </g>
          <g id="g5811" transform="translate(54.365 34.008)">
            <path id="path5813" d="M-35.232,0h-4.651a2.307,2.307,0,0,1,2.293,2.306V3.695A2.307,2.307,0,0,1-39.883,6h4.651a2.307,2.307,0,0,0,2.307-2.307V2.307A2.307,2.307,0,0,0-35.232,0" transform="translate(39.883)" fill="#ffb09e"/>
          </g>
          <g id="g5815" transform="translate(47.066 28.78)">
            <path id="path5817" d="M-109.28,17.57a1.166,1.166,0,0,1-1.035-.627,1.166,1.166,0,0,1,.495-1.573C-106.488,13.632-95.7,7.2-96.8-2.681a12.816,12.816,0,0,0-1.751-5.524A1.166,1.166,0,0,1-98.2-9.817a1.166,1.166,0,0,1,1.611.353A15.1,15.1,0,0,1-94.48-2.938c1.258,11.351-10.6,18.466-14.261,20.376A1.161,1.161,0,0,1-109.28,17.57Z" transform="translate(110.447 10.001)"/>
          </g>
          <g id="g5819" transform="translate(41.451 6.471)">
            <path id="path5821" d="M-36.332-71.092a3.8,3.8,0,0,1-1.6-.352c-2.159-1-2.68-3.984-1.24-7.09,1.339-2.887,3.736-4.132,5.964-3.1a3.757,3.757,0,0,1,.5.279,1.166,1.166,0,0,1,.323,1.617,1.166,1.166,0,0,1-1.617.323,1.418,1.418,0,0,0-.187-.1c-1.53-.709-2.655,1.513-2.865,1.965-.829,1.79-.782,3.581.105,3.993a1.714,1.714,0,0,0,1.262.024,1.166,1.166,0,0,1,1.477.735,1.166,1.166,0,0,1-.735,1.477A4.332,4.332,0,0,1-36.332-71.092Z" transform="translate(39.987 81.993)"/>
          </g>
          <g id="g5823" transform="translate(64.498 17.302)">
            <path id="path5825" d="M-47.748.733a3.25,3.25,0,0,1-1.376-.3,3.983,3.983,0,0,1-2.022-2.2,1.166,1.166,0,0,1,.651-1.515,1.166,1.166,0,0,1,1.515.651,1.72,1.72,0,0,0,.837.951c.887.411,2.285-.71,3.115-2.5a4.231,4.231,0,0,0,.468-2.359,1.365,1.365,0,0,0-.821-1.1,1.153,1.153,0,0,0-.184-.069,1.166,1.166,0,0,1-.815-1.434,1.166,1.166,0,0,1,1.434-.815,3.462,3.462,0,0,1,.55.2,3.7,3.7,0,0,1,2.136,2.821,6.44,6.44,0,0,1-.652,3.731C-44.056-.738-45.94.733-47.748.733Z" transform="translate(51.229 10.002)"/>
          </g>
          <g id="g5827" transform="translate(44.349 12.361)">
            <path id="path5829" d="M-16.894-88.872a1.166,1.166,0,0,1-1.053-.663,12.084,12.084,0,0,1-1.178-5.184,11.881,11.881,0,0,1,1.114-5.032l.7-1.5a1.166,1.166,0,0,1,1.549-.567,1.166,1.166,0,0,1,.567,1.549l-.7,1.5a9.564,9.564,0,0,0-.9,4.051,9.737,9.737,0,0,0,.95,4.177,1.166,1.166,0,0,1-.549,1.555A1.162,1.162,0,0,1-16.894-88.872Z" transform="translate(19.125 101.925)"/>
          </g>
          <g id="g5831" transform="translate(51.957 21.477)">
            <path id="path5833" d="M-123.5.076a11.891,11.891,0,0,1-3.551-.542,1.166,1.166,0,0,1-.765-1.461,1.166,1.166,0,0,1,1.461-.765,9.708,9.708,0,0,0,11.663-5.175l.676-1.458a1.166,1.166,0,0,1,1.549-.567,1.166,1.166,0,0,1,.567,1.549l-.676,1.458A12.064,12.064,0,0,1-123.5.076Z" transform="translate(127.872 10.002)"/>
          </g>
          <g id="g5835" transform="translate(49.214 20.005)">
            <path id="path5837" d="M-76.47-37.348a8.089,8.089,0,0,1-3.245-.683,7.767,7.767,0,0,1-4.019-4.575,1.166,1.166,0,0,1,.72-1.484,1.166,1.166,0,0,1,1.484.72,5.4,5.4,0,0,0,2.755,3.2,5.5,5.5,0,0,0,4.28.092,1.166,1.166,0,0,1,1.536.6,1.166,1.166,0,0,1-.6,1.536A7.269,7.269,0,0,1-76.47-37.348Z" transform="translate(83.799 44.155)"/>
          </g>
          <g id="g5839" transform="translate(53.398 19.714)">
            <path id="path5841" d="M-6.889-6.766A1.173,1.173,0,0,1-7.1-6.785,4.71,4.71,0,0,1-9.576-7.934a1.166,1.166,0,0,1-.158-1.642,1.166,1.166,0,0,1,1.642-.158,2.449,2.449,0,0,0,1.409.654,1.166,1.166,0,0,1,.94,1.355A1.167,1.167,0,0,1-6.889-6.766Z" transform="translate(10 10)"/>
          </g>
          <g id="g5843" transform="translate(54.111 11.136)">
            <path id="path5845" d="M-17.1-13.343a1.161,1.161,0,0,1-.741-.266,4.866,4.866,0,0,0-.878-.61,1.166,1.166,0,0,1-.51-1.568,1.166,1.166,0,0,1,1.568-.51,7.1,7.1,0,0,1,1.3.888,1.166,1.166,0,0,1,.158,1.642A1.164,1.164,0,0,1-17.1-13.343Z" transform="translate(19.358 16.425)"/>
          </g>
          <g id="g5847" transform="translate(60.153 14.181)">
            <path id="path5849" d="M-7.637-7.352a1.163,1.163,0,0,1-.428-.082,5.139,5.139,0,0,0-.977-.254,1.166,1.166,0,0,1-.94-1.355,1.166,1.166,0,0,1,1.355-.94,7.31,7.31,0,0,1,1.419.38A1.166,1.166,0,0,1-6.553-8.09,1.167,1.167,0,0,1-7.637-7.352Z" transform="translate(10.002 10.002)"/>
          </g>
          <g id="g5851" transform="translate(52.185 14.913)">
            <path id="path5853" d="M-10.886-7.154a1.162,1.162,0,0,1-.49-.109,1.166,1.166,0,0,1-.567-1.549l.239-.515a1.166,1.166,0,0,1,1.549-.567,1.166,1.166,0,0,1,.567,1.549l-.239.515A1.166,1.166,0,0,1-10.886-7.154Z" transform="translate(12.052 10.002)"/>
          </g>
          <g id="g5855" transform="translate(59.398 18.258)">
            <path id="path5857" d="M-10.885-7.154a1.162,1.162,0,0,1-.49-.108,1.166,1.166,0,0,1-.567-1.548l.239-.515a1.166,1.166,0,0,1,1.548-.567,1.166,1.166,0,0,1,.567,1.548l-.239.515A1.166,1.166,0,0,1-10.885-7.154Z" transform="translate(12.05 10.002)"/>
          </g>
          <g id="g5859" transform="translate(45.049 -0.002)">
            <path id="path5861" d="M-205.849-92.117a1.367,1.367,0,0,1-.832-.283c-5.524-4.293-6.146-10.4-5.638-14.911-2.631,2.764-6.639,5.648-11.9,5.648a15.232,15.232,0,0,1-3.155-.337,1.341,1.341,0,0,1-.858-.59,1.373,1.373,0,0,1-.186-1.038c.331-1.474,2.273-8.964,8.037-11.8,3.3-1.626,7.18-1.427,11.534.592a14.393,14.393,0,0,1,7.01,6.084,1.166,1.166,0,0,1-.488,1.575,1.166,1.166,0,0,1-1.575-.488,12.153,12.153,0,0,0-5.928-5.055c-3.682-1.708-6.885-1.915-9.522-.616-4.016,1.978-5.885,7.021-6.531,9.23,6.7.876,11.387-3.885,13.639-6.905a1.517,1.517,0,0,1,1.874-.473,1.518,1.518,0,0,1,.841,1.741c-.868,3.66-1.5,10.3,3.494,14.844a17.776,17.776,0,0,0,3.06-8.1,1.166,1.166,0,0,1,1.24-1.087,1.166,1.166,0,0,1,1.087,1.24c-.325,4.951-3.487,9.361-4.117,10.2a1.365,1.365,0,0,1-.9.529A1.343,1.343,0,0,1-205.849-92.117Z" transform="translate(228.453 116.517)"/>
          </g>
          <g id="g5863" transform="translate(19.832 62.791)">
            <path id="path5865" d="M-204.592,6.817H-240.2a2.441,2.441,0,0,1-2.438-2.438V2.615A12.577,12.577,0,0,1-230.493-10a1.166,1.166,0,0,1,1.209,1.122,1.166,1.166,0,0,1-1.122,1.209,10.252,10.252,0,0,0-9.9,10.283V4.379a.106.106,0,0,0,.106.106h35.609a.106.106,0,0,0,.106-.106V2.615a10.252,10.252,0,0,0-9.9-10.283,1.166,1.166,0,0,1-1.122-1.209A1.166,1.166,0,0,1-214.3-10,12.577,12.577,0,0,1-202.154,2.615V4.379A2.441,2.441,0,0,1-204.592,6.817Z" transform="translate(242.639 10)"/>
          </g>
          <g id="g5867" transform="translate(35.093 56.968)">
            <path id="path5869" d="M-8.834-27.626A1.166,1.166,0,0,1-10-28.792v-2.635a1.166,1.166,0,0,1,1.166-1.166,1.166,1.166,0,0,1,1.166,1.166v2.635A1.166,1.166,0,0,1-8.834-27.626Z" transform="translate(10 32.593)"/>
          </g>
          <g id="g5871" transform="translate(42.724 56.8)">
            <path id="path5873" d="M-8.834-28.894A1.166,1.166,0,0,1-10-30.06v-2.8a1.166,1.166,0,0,1,1.166-1.166,1.166,1.166,0,0,1,1.166,1.166v2.8A1.166,1.166,0,0,1-8.834-28.894Z" transform="translate(10 34.028)"/>
          </g>
          <g id="g5875" transform="translate(30.752 59.793)">
            <path id="path5877" d="M-41.723-10a1.165,1.165,0,0,1,.546.136,1.166,1.166,0,0,1,.62,1.027,8.87,8.87,0,0,0,3.333,6.553,1.166,1.166,0,0,1,.476.82,1.166,1.166,0,0,1-.291.9c-.217.242-2.19,2.365-4.669,2.365a4.12,4.12,0,0,1-1.367-.231C-45.3.791-46.53-2.384-47.168-4.911a2.066,2.066,0,0,1,.842-2.21L-42.377-9.8A1.166,1.166,0,0,1-41.723-10Zm2.03,8.678a10.872,10.872,0,0,1-2.941-5.485L-44.859-5.3C-44.2-2.8-43.185-.938-42.3-.629a1.769,1.769,0,0,0,.6.1A3.716,3.716,0,0,0-39.693-1.322Z" transform="translate(47.23 10)"/>
          </g>
          <g id="g5879" transform="translate(38.909 59.793)">
            <path id="path5881" d="M-37.736-10a1.165,1.165,0,0,1,.655.2l3.949,2.678a2.066,2.066,0,0,1,.842,2.21c-.639,2.527-1.867,5.7-4.094,6.483a4.12,4.12,0,0,1-1.367.231C-40.23,1.8-42.2-.32-42.42-.562a1.166,1.166,0,0,1-.291-.9,1.166,1.166,0,0,1,.476-.82A8.775,8.775,0,0,0-38.9-8.834a1.166,1.166,0,0,1,.62-1.03A1.165,1.165,0,0,1-37.736-10ZM-34.6-5.3l-2.225-1.509a10.872,10.872,0,0,1-2.941,5.485,3.718,3.718,0,0,0,2.015.793,1.769,1.769,0,0,0,.6-.1C-36.273-.938-35.255-2.8-34.6-5.3Z" transform="translate(42.717 10)"/>
          </g>
          <g id="g5883" transform="translate(20.95 37.163)">
            <path id="path5885" d="M-39.636,1.754c-2.6,0-4.484-2.75-4.484-6.538,0-3.566,1.76-5.87,4.484-5.87a4.1,4.1,0,0,1,.924.106,1.166,1.166,0,0,1,.873,1.4,1.166,1.166,0,0,1-1.4.873,1.762,1.762,0,0,0-.4-.046c-1.587,0-2.152,1.827-2.152,3.537,0,2.067.8,4.206,2.152,4.206a2.067,2.067,0,0,0,1.379-.592,1.166,1.166,0,0,1,1.648.067A1.166,1.166,0,0,1-36.676.546,4.329,4.329,0,0,1-39.636,1.754Z" transform="translate(44.12 10.653)"/>
          </g>
          <g id="g5887" transform="translate(50.466 42.26)">
            <path id="path5889"/>
          </g>
          <g id="g5891" transform="translate(50.835 39.05)">
            <path id="path5893" d="M-49.1.518A4.325,4.325,0,0,1-52.065-.7a1.166,1.166,0,0,1-.063-1.648,1.166,1.166,0,0,1,1.648-.063,2.062,2.062,0,0,0,1.381.594c1.347,0,2.152-2.138,2.152-4.206a5.614,5.614,0,0,0-.434-2.324,1.166,1.166,0,0,1,.566-1.549,1.166,1.166,0,0,1,1.549.566,7.822,7.822,0,0,1,.651,3.307C-44.615-2.232-46.5.518-49.1.518Z" transform="translate(52.439 10.002)"/>
          </g>
          <g id="g5895" transform="translate(26.372 42.423)">
            <path id="path5897" d="M-18.754-69.515a1.166,1.166,0,0,1-1.042-.64A13.271,13.271,0,0,1-21.231-76.2v-2.648a1.166,1.166,0,0,1,1.166-1.166A1.166,1.166,0,0,1-18.9-78.846V-76.2a10.96,10.96,0,0,0,1.184,4.99,1.166,1.166,0,0,1-.515,1.567A1.161,1.161,0,0,1-18.754-69.515Z" transform="translate(21.231 80.012)"/>
          </g>
          <g id="g5899" transform="translate(31.178 42.431)">
            <path id="path5901" d="M-170.557,7.217A13.285,13.285,0,0,1-178.7,4.459a1.166,1.166,0,0,1-.217-1.635,1.166,1.166,0,0,1,1.635-.217,10.972,10.972,0,0,0,6.728,2.277A11.137,11.137,0,0,0-159.434-6.24V-8.834A1.166,1.166,0,0,1-158.267-10,1.166,1.166,0,0,1-157.1-8.834V-6.24A13.472,13.472,0,0,1-170.557,7.217Z" transform="translate(179.16 10)"/>
          </g>
          <g id="g5903" transform="translate(24.535 19.414)">
            <path id="path5905" d="M-216.664-148.339a1.165,1.165,0,0,1-.7-.231c-3.363-2.5-3.25-3.567-3.207-3.967.414-3.929,0-6.548-.631-7.1-.049-.044-.1-.089-.308-.042-.754.173-1.4.335-1.992.481a20.313,20.313,0,0,1-5.539.829,20.324,20.324,0,0,1-5.542-.83c-.587-.146-1.236-.308-1.989-.48-.207-.047-.258,0-.308.042-.627.556-1.045,3.174-.631,7.1.042.391.152,1.433-2.958,3.932a1.166,1.166,0,0,1-1.125.188,1.166,1.166,0,0,1-.747-.862,19.212,19.212,0,0,0-.757-2.8c-.591-1.269-2.721-8.724,1.234-13.867a5.059,5.059,0,0,1-.748-2.652,5.062,5.062,0,0,1,1.494-3.6,5.058,5.058,0,0,1,3.6-1.5h9.543a5.113,5.113,0,0,1,4.789,3.364c7.613,1.866,9.335,7.087,9.453,11.155a1.166,1.166,0,0,1-1.132,1.2,1.166,1.166,0,0,1-1.2-1.132c-.137-4.728-2.688-7.71-7.582-8.863a2.446,2.446,0,0,1-1.732-1.564,2.774,2.774,0,0,0-2.6-1.827h-9.543a2.74,2.74,0,0,0-1.949.812,2.745,2.745,0,0,0-.812,1.949,2.739,2.739,0,0,0,.47,1.534,2.022,2.022,0,0,1-.1,2.406c-3.62,4.5-1.1,11.535-1.07,11.6a9.587,9.587,0,0,1,.46,1.359,5.208,5.208,0,0,0,.671-.786c-.271-2.711-.412-7.279,1.423-8.906a2.575,2.575,0,0,1,2.376-.57c.769.176,1.432.341,2.031.491a18.01,18.01,0,0,0,4.979.761,18,18,0,0,0,4.976-.76c.6-.149,1.264-.315,2.034-.491a2.575,2.575,0,0,1,2.376.57c1.83,1.622,1.695,6.168,1.426,8.881a5.626,5.626,0,0,0,.73.786,6.777,6.777,0,0,1,.4-1.338,7.119,7.119,0,0,0,.264-.729,1.166,1.166,0,0,1,1.464-.759,1.166,1.166,0,0,1,.759,1.464,9.313,9.313,0,0,1-.371,1.007,13.2,13.2,0,0,0-.523,2.7,1.166,1.166,0,0,1-.694.942A1.165,1.165,0,0,1-216.664-148.339Z" transform="translate(244.199 173.688)"/>
          </g>
          <g id="g5907" transform="translate(32.266 37.036)">
            <path id="path5909" d="M-33.7-9.582A1.168,1.168,0,0,1-34-9.62a4.336,4.336,0,0,0-2.693,0,1.166,1.166,0,0,1-1.423-.834,1.166,1.166,0,0,1,.834-1.423,6.6,6.6,0,0,1,3.872,0,1.166,1.166,0,0,1,.834,1.423A1.167,1.167,0,0,1-33.7-9.582Z" transform="translate(38.152 12.167)"/>
          </g>
          <g id="g5911" transform="translate(41.728 37.036)">
            <path id="path5913" d="M-8.837-9.582a1.167,1.167,0,0,1-1.128-.872,1.166,1.166,0,0,1,.834-1.423,6.6,6.6,0,0,1,3.872,0,1.166,1.166,0,0,1,.834,1.423,1.166,1.166,0,0,1-1.423.834,4.336,4.336,0,0,0-2.693,0A1.168,1.168,0,0,1-8.837-9.582Z" transform="translate(10.002 12.167)"/>
          </g>
          <g id="g5915" transform="translate(33.297 41.731)">
            <path id="path5917" d="M-8.834-6.9A1.166,1.166,0,0,1-10-8.071v-.763A1.166,1.166,0,0,1-8.834-10,1.166,1.166,0,0,1-7.668-8.834v.763A1.166,1.166,0,0,1-8.834-6.9Z" transform="translate(10 10)"/>
          </g>
          <g id="g5919" transform="translate(43.98 41.731)">
            <path id="path5921" d="M-8.834-6.9A1.166,1.166,0,0,1-10-8.071v-.763A1.166,1.166,0,0,1-8.834-10,1.166,1.166,0,0,1-7.668-8.834v.763A1.166,1.166,0,0,1-8.834-6.9Z" transform="translate(10 10)"/>
          </g>
          <g id="g5923" transform="translate(37.844 47.153)">
            <path id="path5925" d="M-8.073-7.553a4.107,4.107,0,0,1-1.058-.155,1.166,1.166,0,0,1-.834-1.423,1.166,1.166,0,0,1,1.423-.834,1.416,1.416,0,0,0,.937,0,1.166,1.166,0,0,1,1.423.834,1.166,1.166,0,0,1-.834,1.423A4.107,4.107,0,0,1-8.073-7.553Z" transform="translate(10.002 10.002)"/>
          </g>
          <g id="g5927" transform="translate(36.21 50.325)">
            <path id="path5929" d="M-47.553-7.053a6.1,6.1,0,0,1-2.964-.763A1.166,1.166,0,0,1-50.969-9.4a1.166,1.166,0,0,1,1.586-.452,3.79,3.79,0,0,0,3.66,0,1.166,1.166,0,0,1,1.586.452,1.166,1.166,0,0,1-.452,1.586A6.1,6.1,0,0,1-47.553-7.053Z" transform="translate(51.116 10.002)"/>
          </g>
          <g id="g5931" transform="translate(57.685 48.428)">
            <path id="path5933" d="M-53.356-10a7.764,7.764,0,0,1,3.918,1.065A7.764,7.764,0,0,1-45.52-10c3.95,0,7.044,3.4,7.044,7.749,0,2.628-1.237,7.682-9.522,12a3.105,3.105,0,0,1-1.439.354,3.111,3.111,0,0,1-1.443-.356C-59.163,5.431-60.4.377-60.4-2.251-60.4-6.6-57.306-10-53.356-10Zm3.918,3.62a1.165,1.165,0,0,1-.683-.221,5.523,5.523,0,0,0-3.235-1.067c-2.642,0-4.711,2.379-4.711,5.417,0,2.1,1.074,6.183,8.269,9.935a.78.78,0,0,0,.718,0c7.2-3.754,8.273-7.837,8.273-9.937,0-3.038-2.069-5.417-4.711-5.417A5.523,5.523,0,0,0-48.755-6.6,1.165,1.165,0,0,1-49.438-6.379Z" transform="translate(60.4 10)"/>
          </g>
          <g id="g5935" transform="translate(0 7.88)">
            <path id="path5937" d="M-53.356-10a7.764,7.764,0,0,1,3.918,1.065A7.764,7.764,0,0,1-45.52-10c3.95,0,7.044,3.4,7.044,7.749,0,2.628-1.237,7.682-9.522,12a3.105,3.105,0,0,1-1.439.354,3.111,3.111,0,0,1-1.443-.356C-59.163,5.431-60.4.377-60.4-2.251-60.4-6.6-57.306-10-53.356-10Zm3.918,3.621a1.165,1.165,0,0,1-.683-.221,5.523,5.523,0,0,0-3.235-1.068c-2.642,0-4.711,2.379-4.711,5.417,0,2.1,1.074,6.183,8.269,9.935a.78.78,0,0,0,.718,0c7.2-3.754,8.273-7.837,8.273-9.937,0-3.038-2.069-5.417-4.711-5.417A5.523,5.523,0,0,0-48.755-6.6,1.165,1.165,0,0,1-49.438-6.379Z" transform="translate(60.4 10)"/>
          </g>
          <g id="g5939" transform="translate(50.905 32.842)">
            <path id="path5941" d="M-61.439-53.13h-4.637A3.477,3.477,0,0,1-69.549-56.6v-1.387a3.477,3.477,0,0,1,3.473-3.473h4.637a3.477,3.477,0,0,1,3.473,3.473V-56.6A3.477,3.477,0,0,1-61.439-53.13Zm-4.637-6a1.142,1.142,0,0,0-1.141,1.141V-56.6a1.142,1.142,0,0,0,1.141,1.141h4.637A1.142,1.142,0,0,0-60.3-56.6v-1.387a1.142,1.142,0,0,0-1.141-1.141Z" transform="translate(69.549 61.464)"/>
          </g>
        </g>
      </g>
    </g>
  </g>
</svg>
