<svg id="Grupo_1044262" data-name="Grupo 1044262" xmlns="http://www.w3.org/2000/svg" width="88" height="113" viewBox="0 0 88 113">
  <rect id="mi-hija-no-tiene-miedo-hacer-visita-aqui" width="85" height="70" rx="15" transform="translate(3 31)" fill="#3bc192"/>
  <circle id="Elipse_4834" data-name="Elipse 4834" cx="19" cy="19" r="19" transform="translate(50)" fill="#fabf40"/>
  <ellipse id="Elipse_4835" data-name="Elipse 4835" cx="17" cy="18" rx="17" ry="18" transform="translate(0 77)" fill="#fde9bc"/>
  <g id="lista-de-verificacion_1_" data-name="lista-de-verificacion (1)" transform="translate(4 11.906)">
    <g id="Grupo_1044260" data-name="Grupo 1044260" transform="translate(1.34 1.34)">
      <g id="Grupo_1044249" data-name="Grupo 1044249">
        <path id="Trazado_775733" data-name="Trazado 775733" d="M16.52,16.587l-6.969,3.1a5.376,5.376,0,0,0-3.19,4.905v5.9H5.021a3.871,3.871,0,0,0-1.622.348L1.724,24.977A18.808,18.808,0,0,1,19.8,1H30.445a18.809,18.809,0,0,1,18.08,23.977l-1.675,5.857a3.871,3.871,0,0,0-1.622-.348h-1.34V25.124a5.359,5.359,0,0,0-5.361-5.361H26.746A18.066,18.066,0,0,1,16.52,16.587Z" transform="translate(-1 -1)" fill="#b27946"/>
      </g>
      <g id="Grupo_1044250" data-name="Grupo 1044250" transform="translate(5.361 51.076)">
        <path id="Trazado_775734" data-name="Trazado 775734" d="M42.526,49.282a8.439,8.439,0,0,0-4.342-7.371l-5.012-2.8h-.013a18.334,18.334,0,0,1-5.374,2.1v.429h2.68a1.344,1.344,0,0,1,1.34,1.34v6.7h-2.68v8.041H31.8v4.021a1.344,1.344,0,0,1-1.34,1.34h-13.4a1.344,1.344,0,0,1-1.34-1.34V42.983a1.344,1.344,0,0,1,1.34-1.34h2.68v-.429a18.334,18.334,0,0,1-5.374-2.1h-.013L9.731,41.7l-.389.214a8.423,8.423,0,0,0,2.238,15.6l-1.22,10.936h26.8l-1.22-10.936a8.391,8.391,0,0,0,6.581-8.229Z" transform="translate(-5 -39.11)" fill="#fcd770"/>
      </g>
      <g id="Grupo_1044251" data-name="Grupo 1044251" transform="translate(56.289 34.846)">
        <path id="Trazado_775735" data-name="Trazado 775735" d="M61.763,30.458V44.423a1.344,1.344,0,0,1-1.34,1.34H44.34A1.344,1.344,0,0,1,43,44.423V28.34A1.344,1.344,0,0,1,44.34,27H60.423a1.344,1.344,0,0,1,1.34,1.34Z" transform="translate(-43 -27)" fill="#ff826e"/>
      </g>
      <g id="Grupo_1044252" data-name="Grupo 1044252" transform="translate(56.289 8.041)">
        <path id="Trazado_775736" data-name="Trazado 775736" d="M61.763,10.458V24.423a1.344,1.344,0,0,1-1.34,1.34H44.34A1.344,1.344,0,0,1,43,24.423V8.34A1.344,1.344,0,0,1,44.34,7H60.423a1.344,1.344,0,0,1,1.34,1.34Z" transform="translate(-43 -7)" fill="#ff826e"/>
      </g>
      <g id="Grupo_1044253" data-name="Grupo 1044253" transform="translate(16.083 53.609)">
        <path id="Trazado_775737" data-name="Trazado 775737" d="M29.083,57.083V61.1a1.344,1.344,0,0,1-1.34,1.34H14.34A1.344,1.344,0,0,1,13,61.1V42.34A1.344,1.344,0,0,1,14.34,41h2.68v1.34a1.344,1.344,0,0,0,1.34,1.34h5.361a1.344,1.344,0,0,0,1.34-1.34V41h2.68a1.344,1.344,0,0,1,1.34,1.34v6.7h-6.7a4.021,4.021,0,0,0,0,8.041h6.7Z" transform="translate(-13 -41)" fill="#e6e9ed"/>
      </g>
      <g id="Grupo_1044254" data-name="Grupo 1044254" transform="translate(20.103 50.929)">
        <path id="Trazado_775738" data-name="Trazado 775738" d="M24.041,41.252v1.769a1.344,1.344,0,0,1-1.34,1.34H17.34A1.344,1.344,0,0,1,16,43.021V40.34A1.344,1.344,0,0,1,17.34,39H22.7a1.344,1.344,0,0,1,1.34,1.34Z" transform="translate(-16 -39)" fill="#b4dd7f"/>
      </g>
      <g id="Grupo_1044255" data-name="Grupo 1044255" transform="translate(21.444 61.65)">
        <path id="Trazado_775739" data-name="Trazado 775739" d="M25.041,47v8.041H21.021a4.021,4.021,0,0,1,0-8.041Z" transform="translate(-17 -47)" fill="#f0d0b4"/>
      </g>
      <g id="Grupo_1044256" data-name="Grupo 1044256" transform="translate(42.7 29.485)">
        <path id="Trazado_775740" data-name="Trazado 775740" d="M36.01,23.348a4.016,4.016,0,0,1-1.622,7.693H32.86a19.567,19.567,0,0,0,.188-2.68V23h1.34A3.871,3.871,0,0,1,36.01,23.348Z" transform="translate(-32.86 -23)" fill="#f0d0b4"/>
      </g>
      <g id="Grupo_1044257" data-name="Grupo 1044257" transform="translate(5.361 15.587)">
        <path id="Trazado_775741" data-name="Trazado 775741" d="M42.526,26.528v5.361a19.567,19.567,0,0,1-.188,2.68,18.787,18.787,0,0,1-9.167,13.55h-.013a18.334,18.334,0,0,1-5.374,2.1v-.911a1.344,1.344,0,0,0-1.34-1.34H21.083a1.344,1.344,0,0,0-1.34,1.34v.911a18.334,18.334,0,0,1-5.374-2.1h-.013a18.787,18.787,0,0,1-9.167-13.55A19.567,19.567,0,0,1,5,31.889V20.631a5.376,5.376,0,0,1,3.19-4.905l6.969-3.1a18.066,18.066,0,0,0,10.226,3.176H37.165a5.359,5.359,0,0,1,5.361,5.361Z" transform="translate(-5 -12.63)" fill="#f0d0b4"/>
      </g>
      <g id="Grupo_1044258" data-name="Grupo 1044258" transform="translate(0 29.485)">
        <path id="Trazado_775742" data-name="Trazado 775742" d="M6.361,23v5.361a19.567,19.567,0,0,0,.188,2.68H5.021A4.015,4.015,0,0,1,3.4,23.348,3.871,3.871,0,0,1,5.021,23Z" transform="translate(-1 -23)" fill="#f0d0b4"/>
      </g>
      <g id="Grupo_1044259" data-name="Grupo 1044259" transform="translate(18.763 40.207)">
        <path id="Trazado_775743" data-name="Trazado 775743" d="M25.722,31l-.362,1.461a5.154,5.154,0,0,1-10,0L15,31Z" transform="translate(-15 -31)" fill="#ff826e"/>
      </g>
    </g>
    <g id="Grupo_1044261" data-name="Grupo 1044261" transform="translate(0)">
      <path id="Trazado_775744" data-name="Trazado 775744" d="M14.5,33.125a6.49,6.49,0,0,0,12.593,0L27.874,30H13.719Zm9.935-.445a3.81,3.81,0,0,1-7.277,0Z" transform="translate(4.668 10.207)"/>
      <path id="Trazado_775745" data-name="Trazado 775745" d="M18.722,25.361A5.361,5.361,0,0,0,8,25.361h2.68a2.68,2.68,0,0,1,5.361,0Z" transform="translate(2.722 6.805)"/>
      <path id="Trazado_775746" data-name="Trazado 775746" d="M27.361,20A5.366,5.366,0,0,0,22,25.361h2.68a2.68,2.68,0,0,1,5.361,0h2.68A5.366,5.366,0,0,0,27.361,20Z" transform="translate(7.485 6.805)"/>
      <path id="Trazado_775747" data-name="Trazado 775747" d="M44.68,28.035H60.763a2.683,2.683,0,0,0,2.68-2.68V11.983l6.267-5.744L67.9,4.262,63.308,8.47a2.676,2.676,0,0,0-2.545-1.879H44.68A2.683,2.683,0,0,0,42,9.272V25.354A2.683,2.683,0,0,0,44.68,28.035Zm0-18.763H60.763V10.8l-8,7.335-3.113-3.113-1.9,1.9,4.928,4.928,8.082-7.409V25.354H44.68Z" transform="translate(14.289 1.45)"/>
      <path id="Trazado_775748" data-name="Trazado 775748" d="M67.9,24.263l-4.59,4.208a2.675,2.675,0,0,0-2.545-1.88H44.68A2.683,2.683,0,0,0,42,29.271V45.354a2.683,2.683,0,0,0,2.68,2.68H60.763a2.683,2.683,0,0,0,2.68-2.68V31.983l6.267-5.744ZM60.765,45.354H44.68V29.271H60.763V30.8l-8,7.335-3.113-3.113-1.9,1.9,4.928,4.928,8.082-7.409Z" transform="translate(14.289 8.255)"/>
      <path id="Trazado_775749" data-name="Trazado 775749" d="M42,46h8.041v2.68H42Z" transform="translate(14.289 15.65)"/>
      <path id="Trazado_775750" data-name="Trazado 775750" d="M50,46H60.722v2.68H50Z" transform="translate(17.011 15.65)"/>
      <path id="Trazado_775751" data-name="Trazado 775751" d="M42,50H63.444v2.68H42Z" transform="translate(14.289 17.011)"/>
      <path id="Trazado_775752" data-name="Trazado 775752" d="M42,54h2.68v2.68H42Z" transform="translate(14.289 18.372)"/>
      <path id="Trazado_775753" data-name="Trazado 775753" d="M46,54h2.68v2.68H46Z" transform="translate(15.65 18.372)"/>
      <path id="Trazado_775754" data-name="Trazado 775754" d="M50,54h2.68v2.68H50Z" transform="translate(17.011 18.372)"/>
      <path id="Trazado_775755" data-name="Trazado 775755" d="M50.929,20.149A20.171,20.171,0,0,0,30.78,0H20.149A20.147,20.147,0,0,0,.776,25.684l1.394,4.88a5.344,5.344,0,0,0,3.191,9.643H5.79A20.306,20.306,0,0,0,13.5,52.318l-1.7.944-1.35-1.8L8.309,53.073l1.173,1.563a9.755,9.755,0,0,0,2.34,17.146L10.565,83.094h29.8L39.106,71.781a9.769,9.769,0,0,0,1.433-17.734l-3.111-1.729A20.316,20.316,0,0,0,45.14,40.207h.428a5.344,5.344,0,0,0,3.191-9.643l1.394-4.88A20.127,20.127,0,0,0,50.929,20.149ZM5.361,37.526a2.68,2.68,0,0,1,0-5.361v4.021c0,.45.028.9.059,1.34Zm10.72,16.424c.272.145.551.276.831.409a2.666,2.666,0,0,0-.83,1.93v2.682l-2.658-3.544ZM28.145,58.97a2.683,2.683,0,0,0,2.68-2.68h1.34V61.65H26.8a5.361,5.361,0,1,0,0,10.722h5.361v2.68h-13.4V56.289H20.1a2.683,2.683,0,0,0,2.68,2.68Zm-5.361-2.68v-2.68h5.361v2.68Zm4.021,13.4a2.68,2.68,0,0,1,0-5.361h2.68v5.361Zm-18.763-7.1A7.09,7.09,0,0,1,11.09,56.78L14.781,61.7a5.853,5.853,0,0,0-3.667,1.682l1.9,1.9a3.208,3.208,0,0,1,2.286-.948h.785v5.361h-.945A7.105,7.105,0,0,1,8.041,62.594ZM37.37,80.414H13.559l.9-8.076c.226.016.453.035.682.035h.945v2.68a2.683,2.683,0,0,0,2.68,2.68h13.4a2.683,2.683,0,0,0,2.68-2.68v-2.68h.945c.231,0,.456-.019.682-.035ZM39.236,56.39a7.1,7.1,0,0,1-3.446,13.3H32.165V64.331h3.466a3.214,3.214,0,0,1,2.288.948l1.9-1.9a5.877,5.877,0,0,0-4.184-1.733h-.785V56.289a2.666,2.666,0,0,0-.83-1.93c.279-.133.559-.264.831-.409Zm3.651-20.2A17.533,17.533,0,0,1,30.69,52.81a2.675,2.675,0,0,0-2.545-1.882H22.784a2.675,2.675,0,0,0-2.545,1.882,17.533,17.533,0,0,1-12.2-16.624V24.928a4.02,4.02,0,0,1,2.388-3.674l6.339-2.817a19.351,19.351,0,0,0,10.318,3.006H38.867a4.026,4.026,0,0,1,4.021,4.021Zm2.68,1.34h-.059c.031-.445.059-.89.059-1.34V32.165a2.68,2.68,0,1,1,0,5.361Zm0-8.041V25.464a6.709,6.709,0,0,0-6.7-6.7H27.087a16.683,16.683,0,0,1-13.91-7.445l-2.23,1.488a19.436,19.436,0,0,0,3.34,3.8L9.341,18.8a6.708,6.708,0,0,0-3.98,6.125v4.557a5.324,5.324,0,0,0-.692.07L3.353,24.948A17.467,17.467,0,0,1,20.149,2.68H30.78a17.471,17.471,0,0,1,16.8,22.268l-1.316,4.606a5.369,5.369,0,0,0-.693-.07Z" transform="translate(0)"/>
    </g>
  </g>
</svg>
