<svg xmlns="http://www.w3.org/2000/svg" width="88" height="113" viewBox="0 0 88 113">
  <g id="Grupo_1044197" data-name="Grupo 1044197" transform="translate(-180 -3153.21)">
    <rect id="mi-hija-no-tiene-miedo-hacer-visita-aqui" width="85" height="70" rx="15" transform="translate(180 3184.21)" fill="#3bc192"/>
    <circle id="Elipse_4834" data-name="Elipse 4834" cx="19" cy="19" r="19" transform="translate(180 3153.21)" fill="#fabf40"/>
    <ellipse id="Elipse_4835" data-name="Elipse 4835" cx="17" cy="18" rx="17" ry="18" transform="translate(234 3230.21)" fill="#fde9bc"/>
    <g id="recreo" transform="translate(181.567 3158.696)">
      <path id="Trazado_775699" data-name="Trazado 775699" d="M188.813,298.169V305.7a22.729,22.729,0,0,0,5.958-.179v-.593a13.551,13.551,0,0,1,2.375-7.854A15,15,0,0,1,188.813,298.169Zm0,0" transform="translate(-155.389 -245.139)" fill="#a2f9f9"/>
      <path id="Trazado_775700" data-name="Trazado 775700" d="M227.68,292.47a4.71,4.71,0,0,1-.361,5.9v8.358h2.675a3.727,3.727,0,0,1,7-1.274,3.728,3.728,0,0,1,7,1.274h10.833V287.886a13.1,13.1,0,0,0-5.941-11.253,17.819,17.819,0,0,1-7.768,1.772h-5.259a20.351,20.351,0,0,1-7.5-1.365,13.337,13.337,0,0,0-5.466,11.022v2.217l.445.045h.009l-.13-.344a1.444,1.444,0,0,1,.841-1.861l.368-.139a1.444,1.444,0,0,1,1.862.841Zm0,0" transform="translate(-183.51 -228.268)" fill="#48e5e1"/>
      <path id="Trazado_775701" data-name="Trazado 775701" d="M223.335,292.242h.009l-.13-.344a1.444,1.444,0,0,1,.841-1.861l.368-.139a1.443,1.443,0,0,1,1.861.841l1.4,3.65a4.848,4.848,0,0,1,.422.727c.053.014.108.025.161.038v-5.174a13.342,13.342,0,0,1,4.158-9.922,19.14,19.14,0,0,1-4.065-1.1,13.337,13.337,0,0,0-5.466,11.022V292.2Zm0,0" transform="translate(-183.51 -230.186)" fill="#41ceca"/>
      <path id="Trazado_775702" data-name="Trazado 775702" d="M252.15,439.389v-5.64a3.642,3.642,0,0,1,.418-1.694,3.727,3.727,0,0,0-7,1.275h-2.675v8.628a1.127,1.127,0,0,1-1.129,1.119h7.753v-.012a3.725,3.725,0,0,0,3.049-1.976A3.64,3.64,0,0,1,252.15,439.389Zm0,0" transform="translate(-199.085 -354.874)" fill="#a2f9f9"/>
      <path id="Trazado_775703" data-name="Trazado 775703" d="M304.625,443.064v.012h15.083a4.874,4.874,0,1,0,0-9.747H308.574a3.723,3.723,0,0,0-7.417.42v5.64A3.7,3.7,0,0,0,304.625,443.064Zm0,0" transform="translate(-248.092 -354.874)" fill="#a2f9f9"/>
      <path id="Trazado_775704" data-name="Trazado 775704" d="M306.486,439.389v-5.64a3.658,3.658,0,0,1,1.057-2.571,3.724,3.724,0,0,0-6.383,2.571v5.64a3.7,3.7,0,0,0,3.468,3.675v.012h5.326v-.012A3.7,3.7,0,0,1,306.486,439.389Zm0,0" transform="translate(-248.095 -354.874)" fill="#91e0e0"/>
      <path id="Trazado_775705" data-name="Trazado 775705" d="M290.924,286.156h-5.259a22.452,22.452,0,0,1-2.414-.129,4.254,4.254,0,0,0,8.5.109C291.478,286.149,291.2,286.156,290.924,286.156Zm0,0" transform="translate(-233.316 -236.02)" fill="#ffd5b3"/>
      <path id="Trazado_775706" data-name="Trazado 775706" d="M236.026,93.769l-.071,0V91.285c0-.192,0-.383-.01-.574a4.44,4.44,0,0,1-1.292.712,9.274,9.274,0,0,1-3.083.566c-5.341,0-7.757-5.62-7.781-5.677l-.165-.395-.158.4c-.029.073-2.958,7.287-7.85,7.287a5.435,5.435,0,0,1-1.632-.26c-2.318-.731-3.084-2.494-2.278-5.241l-.318-.139c-1.5,2.51-3.81,5.5-6.258,5.5a3.015,3.015,0,0,1-.848-.122,2.954,2.954,0,0,1-1.937-1.578c-.611-1.274-.463-3.212.406-5.317l-.32-.142c-2.026,4.249-4.182,6.314-6.591,6.314a4.273,4.273,0,0,1-.829-.083v10.719c0,11.544,7.988,17.777,17.841,17.777h5.259a17.837,17.837,0,0,0,17.249-13.221,4.377,4.377,0,0,0,.665.053c3.055,0,5.533-3.156,5.533-7.048S239.081,93.769,236.026,93.769Zm0,0" transform="translate(-160.505 -70.897)" fill="#ffd5b3"/>
      <path id="Trazado_775707" data-name="Trazado 775707" d="M200.363,122.741V110.769c0-.417.016-.829.044-1.238-1.408,1.808-3.19,3.081-5.4,2.666v10.543c0,11.544,7.988,17.777,17.841,17.777h5.289C208.317,140.49,200.363,134.26,200.363,122.741Zm0,0" transform="translate(-160.505 -90.382)" fill="#e5bfa1"/>
      <path id="Trazado_775708" data-name="Trazado 775708" d="M268.121,221.138a5.984,5.984,0,0,1-6-5.949,1.124,1.124,0,0,1,1.129-1.119H273a1.124,1.124,0,0,1,1.129,1.119A5.984,5.984,0,0,1,268.121,221.138Zm0,0" transform="translate(-215.878 -176.644)" fill="#fb8276"/>
      <path id="Trazado_775709" data-name="Trazado 775709" d="M267.506,215.189a1.124,1.124,0,0,1,1.129-1.119h-5.388a1.124,1.124,0,0,0-1.129,1.119,6.01,6.01,0,0,0,8.7,5.314A5.949,5.949,0,0,1,267.506,215.189Zm0,0" transform="translate(-215.878 -176.644)" fill="#e1756a"/>
      <path id="Trazado_775710" data-name="Trazado 775710" d="M207.208,7.5h-5.689a19.265,19.265,0,0,0-19.3,19.23v.288a5.218,5.218,0,0,0,1.265.705c4.089,1.621,6.853-2.494,8.549-6.051-1.263,3.059-1.221,6.293,1.643,7.129,2.763.807,5.416-2.3,7.3-5.457-.647,2.2-.5,4.544,2.392,5.457,6.1,1.922,9.7-7.129,9.7-7.129s3.325,7.953,11.083,5.207a4.492,4.492,0,0,0,2.282-1.756A19.27,19.27,0,0,0,207.208,7.5Zm0,0" transform="translate(-149.948 -6.189)" fill="#f7931e"/>
      <path id="Trazado_775711" data-name="Trazado 775711" d="M187.553,27.018V26.73a19.265,19.265,0,0,1,19.3-19.23h-5.33a19.265,19.265,0,0,0-19.3,19.23v.288a5.2,5.2,0,0,0,1.265.705,4.5,4.5,0,0,0,4.395-.477C187.767,27.173,187.657,27.1,187.553,27.018Zm0,0" transform="translate(-149.952 -6.189)" fill="#de841b"/>
      <path id="Trazado_775712" data-name="Trazado 775712" d="M106.08,248.831v-1.276a2.473,2.473,0,0,0-2.484-2.461H96.371a2.473,2.473,0,0,0-2.484,2.461v1.276Zm0,0" transform="translate(-77.06 -202.243)" fill="#89c947"/>
      <path id="Trazado_775713" data-name="Trazado 775713" d="M99.305,248.831v-1.276a2.473,2.473,0,0,1,2.484-2.461H96.371a2.473,2.473,0,0,0-2.484,2.461v1.276Zm0,0" transform="translate(-77.06 -202.243)" fill="#7bb540"/>
      <path id="Trazado_775714" data-name="Trazado 775714" d="M89.7,286.162a1.128,1.128,0,0,1-1.129,1.119H69.832a1.127,1.127,0,0,1-1.129-1.119v-18.57a1.127,1.127,0,0,1,1.129-1.119H88.573a1.128,1.128,0,0,1,1.129,1.119Zm0,0" transform="translate(-56.279 -219.885)" fill="#d5e962"/>
      <path id="Trazado_775715" data-name="Trazado 775715" d="M74.109,286.162v-7.931l-1.057-1.016a1.942,1.942,0,0,1,1.057-3.32v-6.3a1.127,1.127,0,0,1,1.129-1.119H69.832a1.127,1.127,0,0,0-1.129,1.119v18.57a1.127,1.127,0,0,0,1.129,1.118h5.405A1.127,1.127,0,0,1,74.109,286.162Zm0,0" transform="translate(-56.279 -219.885)" fill="#bfd158"/>
      <path id="Trazado_775716" data-name="Trazado 775716" d="M106.061,306.911a.645.645,0,0,1-.3-.073l-2.663-1.38-2.663,1.38a.648.648,0,0,1-.677-.048.628.628,0,0,1-.255-.619l.508-2.924-2.155-2.07a.627.627,0,0,1-.163-.649.644.644,0,0,1,.519-.432l2.978-.426,1.332-2.659a.647.647,0,0,1,1.153,0l1.332,2.659,2.978.426a.641.641,0,0,1,.518.432.625.625,0,0,1-.163.649l-2.155,2.07.509,2.924a.629.629,0,0,1-.255.619A.65.65,0,0,1,106.061,306.911Zm0,0" transform="translate(-80.174 -244.791)" fill="#89c947"/>
      <path id="Trazado_775717" data-name="Trazado 775717" d="M29,405.177a1.127,1.127,0,0,1-1.13,1.119H9.129A1.127,1.127,0,0,1,8,405.177v-18.57a1.127,1.127,0,0,1,1.129-1.119H27.87A1.127,1.127,0,0,1,29,386.607Zm0,0" transform="translate(-6.189 -318.092)" fill="#fb8276"/>
      <path id="Trazado_775718" data-name="Trazado 775718" d="M13.354,405.177v-7.462l-.839-.821a4.124,4.124,0,0,1,0-5.909,4.281,4.281,0,0,1,.839-.638v-3.739a1.127,1.127,0,0,1,1.129-1.119H9.129A1.127,1.127,0,0,0,8,386.607v18.57A1.127,1.127,0,0,0,9.129,406.3h5.354A1.127,1.127,0,0,1,13.354,405.177Zm0,0" transform="translate(-6.189 -318.092)" fill="#e1756a"/>
      <path id="Trazado_775719" data-name="Trazado 775719" d="M40.107,427.116a.536.536,0,0,1-.375-.152l-4.693-4.59a2.811,2.811,0,0,1,0-4.035,2.962,2.962,0,0,1,4.124,0l.944.923.944-.923a2.962,2.962,0,0,1,4.124,0,2.811,2.811,0,0,1,0,4.035l-4.693,4.59A.538.538,0,0,1,40.107,427.116Zm0,0" transform="translate(-27.796 -344.511)" fill="#ef5050"/>
      <path id="Trazado_775720" data-name="Trazado 775720" d="M144.952,389.773l-4.346-.437a1.338,1.338,0,0,1-1.2-1.466l.036-.363a1.338,1.338,0,0,1,1.466-1.2l3.139.316.024-.234-3.831-.386a1.332,1.332,0,0,1-.927-.518H129.238a1.127,1.127,0,0,0-1.129,1.119v18.57a1.127,1.127,0,0,0,1.129,1.119H147.98a1.127,1.127,0,0,0,1.129-1.119V388.191A4.933,4.933,0,0,1,144.952,389.773Zm0,0" transform="translate(-105.299 -318.092)" fill="#ffc502"/>
      <path id="Trazado_775721" data-name="Trazado 775721" d="M133.447,405.177v-6.054l-.933-1.6a3.421,3.421,0,0,1,0-3.258l.933-1.6v-6.054a1.127,1.127,0,0,1,1.129-1.119h-5.334a1.127,1.127,0,0,0-1.129,1.119v18.57a1.127,1.127,0,0,0,1.129,1.119h5.334A1.127,1.127,0,0,1,133.447,405.177Zm0,0" transform="translate(-105.302 -318.092)" fill="#e5b102"/>
      <path id="Trazado_775722" data-name="Trazado 775722" d="M162,427.342a2.174,2.174,0,0,1-1.694-.968l-1.636-2.808a2.13,2.13,0,0,1,0-1.937l1.636-2.808a2.174,2.174,0,0,1,1.694-.968h3.273a2.172,2.172,0,0,1,1.693.968l1.636,2.808a2.13,2.13,0,0,1,0,1.938l-1.636,2.808a2.172,2.172,0,0,1-1.693.968Zm0,0" transform="translate(-130.321 -344.798)" fill="#fcdb67"/>
      <path id="Trazado_775723" data-name="Trazado 775723" d="M269.55,318.468a3.572,3.572,0,0,0-4.749,1.625,14.017,14.017,0,0,1-15.95,7.333,4.7,4.7,0,0,1-.815,5.2l.033-.034v1.875a21.168,21.168,0,0,0,23.1-11.3A3.5,3.5,0,0,0,269.55,318.468Zm0,0" transform="translate(-204.258 -262.497)" fill="#a2f9f9"/>
      <path id="Trazado_775724" data-name="Trazado 775724" d="M190.992,351.158l.036-.363a1.339,1.339,0,0,1,1.466-1.2l3.138.316.024-.234-3.831-.386a1.338,1.338,0,0,1-1.2-1.466l.037-.363a1.338,1.338,0,0,1,1.466-1.2l3.831.385.023-.234-3.139-.316a1.338,1.338,0,0,1-1.2-1.466l.037-.363a1.338,1.338,0,0,1,1.466-1.2l3.557.358h.008l-.13-.344a1.445,1.445,0,0,1,.841-1.862l.368-.139a1.445,1.445,0,0,1,1.862.841l1.4,3.649a4.725,4.725,0,0,1,.844,3.2,4.852,4.852,0,0,1-5.362,4.281l-4.345-.437A1.337,1.337,0,0,1,190.992,351.158Zm0,0" transform="translate(-156.882 -281.38)" fill="#ffd5b3"/>
      <path id="Trazado_775725" data-name="Trazado 775725" d="M75.822,38.271c3.635-.193,6.543-3.865,6.543-8.35,0-4.092-2.42-7.507-5.6-8.222V20.631a5.956,5.956,0,0,0,.813-.961,1.313,1.313,0,0,0,.221-.843A20.582,20.582,0,0,0,57.26,0H51.571A20.6,20.6,0,0,0,30.959,20.541v.288a1.312,1.312,0,0,0,.514,1.04,6.555,6.555,0,0,0,1.58.884c.048.019.1.033.143.051v9.554c0,5.843,1.952,10.746,5.644,14.179A17.133,17.133,0,0,0,42.455,49.1a14.75,14.75,0,0,0-1.533,1.773,13.572,13.572,0,0,1-5.2,1.026c-.331,0-.66-.014-.988-.039V47.707a2.438,2.438,0,0,0-2.44-2.43H30.33a3.787,3.787,0,0,0-3.794-3.738H19.311a3.788,3.788,0,0,0-3.794,3.738H13.553a2.437,2.437,0,0,0-2.44,2.43V66.085H2.94A2.438,2.438,0,0,0,.5,68.515v18.57a2.438,2.438,0,0,0,2.44,2.43H50.434a1.29,1.29,0,0,0,.292-.033,5.019,5.019,0,0,0,2.757-1.2,5.023,5.023,0,0,0,2.753,1.2,1.285,1.285,0,0,0,.3.033H71.616a6.181,6.181,0,0,0,1.011-12.286V74.653a1.311,1.311,0,1,0-2.622,0v2.492h-8.5a5.045,5.045,0,0,0-8.025-2.035,5.044,5.044,0,0,0-8.024,2.035h-.338v-3.63a22.22,22.22,0,0,0,2.827.182,22.453,22.453,0,0,0,20.14-12.442,4.807,4.807,0,0,0-2.226-6.465,4.892,4.892,0,0,0-6.495,2.225A12.514,12.514,0,0,1,54.252,62.4a1.311,1.311,0,1,0,1.284,2.287,15.127,15.127,0,0,0,6.182-6.509,2.26,2.26,0,0,1,3-1.025,2.184,2.184,0,0,1,1.016,2.941A19.84,19.84,0,0,1,45.121,70.862v-.283a6.028,6.028,0,0,0,1.2-3.049,5.888,5.888,0,0,0,.018-.962,15.264,15.264,0,0,0,2.7.059,1.312,1.312,0,1,0-.18-2.617,12.564,12.564,0,0,1-3.4-.234c-.038-.062-.077-.124-.117-.186L44,60.088a2.744,2.744,0,0,0-3.238-1.7,12.006,12.006,0,0,1,4.288-8.15,20.885,20.885,0,0,0,3.7.93,5.573,5.573,0,0,0,10.826.173,19.141,19.141,0,0,0,5.653-1.477A11.912,11.912,0,0,1,70,59.618v8.916a1.311,1.311,0,1,0,2.622,0V59.618a14.314,14.314,0,0,0-4.871-11.075A19.074,19.074,0,0,0,75.822,38.271ZM54.376,78.876a2.411,2.411,0,0,1,4.8-.27,1.311,1.311,0,0,0,1.3,1.162H71.616a3.562,3.562,0,1,1,0,7.124h-14.9c-.031,0-.061-.008-.093-.01a2.394,2.394,0,0,1-2.244-2.366Zm-9.255.891h1.364a1.31,1.31,0,0,0,1.3-1.162A2.417,2.417,0,0,1,52,77.326a4.938,4.938,0,0,0-.249,1.55v5.64A4.918,4.918,0,0,0,52,86.061a2.414,2.414,0,0,1-1.657.821c-.031,0-.062.005-.093.01H45.121ZM34.734,54.49c.328.02.657.032.988.032a16.347,16.347,0,0,0,3.387-.356,15.252,15.252,0,0,0-1.029,5.078,21.592,21.592,0,0,1-2.358.129c-.331,0-.66-.01-.988-.025Zm.212,19.876a.943.943,0,0,1,.56.317l1.636,2.808a.9.9,0,0,1,0,.618l-1.636,2.808a.944.944,0,0,1-.56.318H31.674a.944.944,0,0,1-.561-.318l-1.636-2.808a.9.9,0,0,1,0-.617l1.636-2.808a.944.944,0,0,1,.561-.318h3.273Zm-15.636-30.2h7.226a1.162,1.162,0,0,1,1.171,1.115H18.14A1.162,1.162,0,0,1,19.311,44.162ZM13.735,47.9H32.112V66.085H13.735ZM21.5,86.892H3.122V68.707H21.5Zm21,0H24.122V68.707h8.845a2.627,2.627,0,0,0-.126.576l-.037.364a2.642,2.642,0,0,0,.725,2.1H31.674a3.466,3.466,0,0,0-2.827,1.62L27.212,76.17a3.421,3.421,0,0,0,0,3.258l1.636,2.808a3.467,3.467,0,0,0,2.827,1.62h3.273a3.463,3.463,0,0,0,2.826-1.621l1.636-2.808a3.425,3.425,0,0,0,0-3.258l-1.636-2.808a3,3,0,0,0-.471-.6l2.219.223c.212.021.428.032.64.032a6.293,6.293,0,0,0,2.338-.447ZM40.882,62.844a1.311,1.311,0,0,0,.18-1.252l-.13-.344a.129.129,0,0,1,0-.1.13.13,0,0,1,.075-.07l.367-.139a.135.135,0,0,1,.048-.01.138.138,0,0,1,.126.092l1.4,3.649a1.291,1.291,0,0,0,.152.286,3.429,3.429,0,0,1,.613,2.312A3.517,3.517,0,0,1,40.161,70.4c-.125,0-.251-.007-.377-.019l-4.345-.437a.027.027,0,0,1-.025-.029l.037-.363a.028.028,0,0,1,.029-.025h0l3.138.316a1.311,1.311,0,0,0,1.436-1.173l.023-.233A1.311,1.311,0,0,0,38.906,67l-3.831-.386a.031.031,0,0,1-.024-.029l.036-.363c0-.02.022-.023.03-.025l3.831.386A1.311,1.311,0,0,0,40.384,65.4l.023-.234a1.312,1.312,0,0,0-1.173-1.436L36.1,63.419a.031.031,0,0,1-.025-.03l.037-.363c0-.02.022-.022.029-.024l3.557.358.033,0A1.309,1.309,0,0,0,40.882,62.844Zm13.305-9.961a2.946,2.946,0,0,1-2.541-1.446c.234.007.467.011.7.011h4.373A2.945,2.945,0,0,1,54.187,52.883Zm3.421-4.058H52.348c-10.041,0-16.53-6.463-16.53-16.466V23.183a6.466,6.466,0,0,0,3.766-1.757q.326-.292.641-.63a4.9,4.9,0,0,0,.275.715,4.44,4.44,0,0,0,2.86,2.361c2.134.624,4.29-.292,6.433-2.727a4.892,4.892,0,0,0,3.238,2.719,6.935,6.935,0,0,0,2.1.332c2.295,0,4.492-1.216,6.446-3.594a18.208,18.208,0,0,0,1.642-2.383,12.022,12.022,0,0,0,2.228,2.355,1.311,1.311,0,1,0,1.629-2.055,10.217,10.217,0,0,1-2.74-3.54,1.312,1.312,0,0,0-1.21-.806h-.011A1.314,1.314,0,0,0,61.9,15c-.031.079-3.208,7.9-8.085,6.364-1.2-.379-2.323-1.131-1.528-3.837a1.311,1.311,0,0,0-2.383-1.043c-2.129,3.553-4.245,5.33-5.812,4.872a1.822,1.822,0,0,1-1.231-.979c-.465-.969-.3-2.611.432-4.391a1.311,1.311,0,0,0-2.4-1.065c-3.258,6.832-5.986,5.751-6.883,5.4a4.472,4.472,0,0,1-.432-.2A17.977,17.977,0,0,1,51.571,2.622H57.26A18.06,18.06,0,0,1,75.133,18.549a3.187,3.187,0,0,1-1.365.906,8.966,8.966,0,0,1-1.6.412,1.311,1.311,0,0,0,.409,2.59,11.414,11.414,0,0,0,1.556-.364v.781a1.31,1.31,0,0,0,1.311,1.311c.027,0,.053,0,.085,0,2.321.01,4.208,2.579,4.208,5.737s-1.894,5.736-4.221,5.736a3.066,3.066,0,0,1-.468-.037,1.311,1.311,0,0,0-1.465.96A16.527,16.527,0,0,1,57.607,48.825Zm0,0"/>
      <path id="Trazado_775726" data-name="Trazado 775726" d="M343.987,156.6a1.311,1.311,0,0,0-1.311,1.311v2.151a1.311,1.311,0,1,0,2.622,0v-2.151A1.311,1.311,0,0,0,343.987,156.6Zm0,0" transform="translate(-282.352 -129.219)"/>
      <path id="Trazado_775727" data-name="Trazado 775727" d="M233.171,156.6a1.311,1.311,0,0,0-1.311,1.311v2.151a1.311,1.311,0,0,0,2.622,0v-2.151A1.311,1.311,0,0,0,233.171,156.6Zm0,0" transform="translate(-190.91 -129.219)"/>
      <path id="Trazado_775728" data-name="Trazado 775728" d="M284.563,170.388h.85a1.311,1.311,0,0,0,0-2.622h-.389V166.55a1.311,1.311,0,0,0-2.622,0V168.2A2.176,2.176,0,0,0,284.563,170.388Zm0,0" transform="translate(-232.617 -136.349)"/>
      <path id="Trazado_775729" data-name="Trazado 775729" d="M266.808,206.566h-9.75a2.438,2.438,0,0,0-2.44,2.43,7.316,7.316,0,0,0,14.631,0A2.438,2.438,0,0,0,266.808,206.566Zm-4.876,7.068a4.675,4.675,0,0,1-4.689-4.446h9.379A4.675,4.675,0,0,1,261.932,213.635Zm0,0" transform="translate(-209.689 -170.452)"/>
      <path id="Trazado_775730" data-name="Trazado 775730" d="M101.985,292.608l-2.3-.328-1.024-2.045a1.958,1.958,0,0,0-3.5,0l-1.024,2.046-2.3.329a1.943,1.943,0,0,0-1.077,3.325l1.652,1.586-.389,2.236a1.954,1.954,0,0,0,2.827,2.057l2.06-1.067,2.054,1.064a1.964,1.964,0,0,0,.909.223,1.949,1.949,0,0,0,1.925-2.277l-.389-2.236,1.651-1.586a1.943,1.943,0,0,0-1.078-3.326Zm-2.892,3.5a1.308,1.308,0,0,0-.383,1.17l.275,1.583-1.468-.761a1.312,1.312,0,0,0-1.206,0l-1.468.761.275-1.583a1.312,1.312,0,0,0-.384-1.171l-1.149-1.1,1.606-.229a1.313,1.313,0,0,0,.986-.711l.736-1.47.736,1.47a1.311,1.311,0,0,0,.987.711l1.606.229Zm0,0" transform="translate(-73.99 -238.602)"/>
      <path id="Trazado_775731" data-name="Trazado 775731" d="M32.628,421.715a1.851,1.851,0,0,0,2.584,0l4.693-4.591a4.122,4.122,0,0,0,0-5.909,4.275,4.275,0,0,0-5.958,0l-.027.027-.027-.027a4.275,4.275,0,0,0-5.958,0,4.122,4.122,0,0,0,0,5.909Zm-2.859-8.624a1.652,1.652,0,0,1,2.291,0l.943.923a1.312,1.312,0,0,0,1.834,0l.944-.923a1.651,1.651,0,0,1,2.291,0,1.5,1.5,0,0,1,0,2.159l-4.152,4.06-4.152-4.06a1.5,1.5,0,0,1,0-2.159Zm0,0" transform="translate(-21.609 -338.325)"/>
      <path id="Trazado_775732" data-name="Trazado 775732" d="M422.769,161.134a1.3,1.3,0,0,0,.622-.158c2.8-1.513,2.342-4.684,1.709-6.148a1.311,1.311,0,0,0-2.407,1.041c.036.083.862,2.039-.549,2.8a1.311,1.311,0,0,0,.625,2.465Zm0,0" transform="translate(-347.359 -127.106)"/>
    </g>
  </g>
</svg>
