<svg id="Grupo_1044230" data-name="Grupo 1044230" xmlns="http://www.w3.org/2000/svg" xmlns:xlink="http://www.w3.org/1999/xlink" width="90" height="113" viewBox="0 0 90 113">
  <defs>
    <clipPath id="clip-path">
      <rect id="Rectángulo_356071" data-name="Rectángulo 356071" width="79.069" height="78.995" fill="none"/>
    </clipPath>
  </defs>
  <rect id="mi-hija-no-tiene-miedo-hacer-visita-aqui" width="85" height="70" rx="15" transform="translate(5 31)" fill="#3bc192"/>
  <circle id="Elipse_4834" data-name="Elipse 4834" cx="19" cy="19" r="19" transform="translate(50)" fill="#fabf40"/>
  <ellipse id="Elipse_4835" data-name="Elipse 4835" cx="17" cy="18" rx="17" ry="18" transform="translate(0 77)" fill="#fde9bc"/>
  <g id="Grupo_1044225" data-name="Grupo 1044225" transform="translate(8 6.596)">
    <g id="Grupo_1044225-2" data-name="Grupo 1044225" transform="translate(0 0)" clip-path="url(#clip-path)">
      <path id="Trazado_775620" data-name="Trazado 775620" d="M0,74.591V4.315A4.938,4.938,0,0,1,4.314,0H57.784c3.091.534,4.691,2.453,4.693,5.641q0,10.441,0,20.881a2.224,2.224,0,0,0,.061.83c.347-.063.488-.33.679-.519,1.985-1.974,3.955-3.963,5.943-5.934a5.812,5.812,0,0,1,8.881,7.419,10.374,10.374,0,0,1-1.306,1.515q-6.7,6.7-13.413,13.391a2.719,2.719,0,0,0-.862,2.108q.033,14.061.015,28.124a5.518,5.518,0,0,1-2.5,4.769,4.721,4.721,0,0,1-2.848.757q-14.1-.006-28.2,0c-7.935,0-15.87-.02-23.805.015A5.2,5.2,0,0,1,.573,76.478,5.334,5.334,0,0,1,0,74.591" transform="translate(0 0)"/>
      <path id="Trazado_775621" data-name="Trazado 775621" d="M29.042,73.714c-.257-1.167-.713-1.537-1.92-1.538-4.878,0-9.757-.013-14.635.015-.616,0-.739-.171-.739-.756q.024-29.466,0-58.933c0-.586.124-.765.74-.755,2.464.039,4.93.026,7.394.008.452,0,.644.056.683.6a4.693,4.693,0,0,0,4.53,4.32q8.548.068,17.1,0a4.7,4.7,0,0,0,4.529-4.325c.037-.456.128-.6.607-.6q3.812.039,7.626,0c.5-.006.578.151.577.6q-.02,13.482,0,26.963a1.083,1.083,0,0,1-.416.926,8.857,8.857,0,0,0-2.5,3.618c-1.163,2.759-2.407,5.484-3.637,8.213a1.675,1.675,0,0,0,.164,2.061,1.64,1.64,0,0,0,2.054.188c1.407-.654,2.836-1.263,4.324-1.921v1.623c0,5.829-.008,11.659.013,17.488,0,.53-.113.678-.663.676-4.9-.024-9.807-.015-14.712-.013-1.209,0-1.666.372-1.919,1.538a5.624,5.624,0,0,1-2.882.16c-.334-.115-.39-.442-.526-.706a1.313,1.313,0,0,0-2.373-.019c-.138.262-.192.59-.521.717a5.546,5.546,0,0,1-2.9-.152" transform="translate(-2.516 -2.516)" fill="#fefefe"/>
      <path id="Trazado_775622" data-name="Trazado 775622" d="M33.53,72.034h3.036a1.625,1.625,0,0,0,1.918,1.543q8.243,0,16.485,0c1.423,0,1.958-.531,1.958-1.946,0-7.165.009-14.33-.014-21.495a.978.978,0,0,1,.733-1.126c.787-.276,1.531-.671,2.364-1.047v.828q0,12.6,0,25.194c0,1.887-.779,2.674-2.649,2.674H6.6c-1.888,0-2.675-.778-2.675-2.648q0-33.706,0-67.413c0-1.892.776-2.678,2.644-2.679,3.851,0,7.7.015,11.555-.017.625-.006.8.18.739.769-.081.756.319,1.773-.166,2.205-.42.375-1.414.119-2.155.122C14,7,11.455,7,8.913,7,7.536,7,7,7.536,7,8.918Q7,40.275,7,71.632c0,1.414.534,1.945,1.958,1.945q8.243,0,16.485,0a1.626,1.626,0,0,0,1.918-1.543H30.4c.222.125.263.368.366.567a1.327,1.327,0,0,0,2.4,0c.1-.2.145-.443.366-.568" transform="translate(-0.84 -0.836)" fill="#79b1fe"/>
      <path id="Trazado_775623" data-name="Trazado 775623" d="M36.873,3.92c3.1,0,6.209.013,9.313-.012.538,0,.751.075.734.691-.049,1.795-.009,3.592-.02,5.388a1.742,1.742,0,0,1-1.95,1.945q-8.081.008-16.163,0a1.74,1.74,0,0,1-1.946-1.949c-.009-1.822.022-3.644-.017-5.465-.011-.547.2-.609.659-.607,3.13.017,6.26.009,9.39.009" transform="translate(-5.745 -0.837)" fill="#bcd8fe"/>
      <path id="Trazado_775624" data-name="Trazado 775624" d="M68.141,35.11V9.32C68.141,7.4,67.752,7,65.862,7c-2.978,0-5.956-.01-8.934.011-.488,0-.686-.1-.648-.629a17.877,17.877,0,0,0,0-1.925c-.013-.367.048-.55.49-.549,4.108.017,8.215,0,12.323.022a2.123,2.123,0,0,1,2.12,2.106c.011.205.005.411.005.616q0,12.285.013,24.571a1.659,1.659,0,0,1-.567,1.334c-.816.773-1.587,1.594-2.529,2.549" transform="translate(-12.053 -0.838)" fill="#79b1fe"/>
      <path id="Trazado_775625" data-name="Trazado 775625" d="M86.857,37.04c-.121.129-.222.244-.329.35q-6.583,6.586-13.161,13.176c-.288.289-.454.286-.733,0-.945-.977-1.912-1.934-2.882-2.886-.232-.228-.33-.361-.035-.654q6.628-6.594,13.231-13.215c.173-.173.311-.424.611-.118,1.023,1.044,2.066,2.07,3.1,3.1.068.068.123.149.2.243" transform="translate(-14.892 -7.185)" fill="#fec05a"/>
      <path id="Trazado_775626" data-name="Trazado 775626" d="M95.063,30.662A3.549,3.549,0,0,1,93.6,33.624c-.207.2-.322,0-.438-.118q-1.528-1.516-3.046-3.041c-.1-.1-.218-.177-.127-.381a2.914,2.914,0,0,1,3.737-1.208,2.381,2.381,0,0,1,1.337,1.786" transform="translate(-19.266 -6.126)" fill="#fe6876"/>
      <path id="Trazado_775627" data-name="Trazado 775627" d="M64.6,59.21c.684-1.534,1.3-2.9,1.9-4.277.152-.347.3-.265.5-.063.651.656,1.3,1.313,1.963,1.959.224.218.243.354-.072.491-1.374.6-2.744,1.209-4.287,1.89" transform="translate(-13.835 -11.714)" fill="#97a0b2"/>
      <path id="Trazado_775628" data-name="Trazado 775628" d="M23.762,23.534c1.539,0,3.079,0,4.618,0,1.224,0,1.813.574,1.815,1.772q.011,4.7,0,9.392c0,1.2-.587,1.775-1.811,1.778q-4.656.009-9.314,0c-1.253,0-1.814-.575-1.815-1.85q-.007-4.618,0-9.238c0-1.31.556-1.851,1.888-1.855,1.539,0,3.079,0,4.618,0" transform="translate(-3.695 -5.04)"/>
      <path id="Trazado_775629" data-name="Trazado 775629" d="M30.2,51.615c0,1.539.006,3.08,0,4.619-.006,1.223-.576,1.812-1.774,1.814q-4.7.011-9.391,0c-1.2,0-1.774-.59-1.776-1.812q-.008-4.657,0-9.315c0-1.253.574-1.812,1.85-1.814q4.618-.006,9.237,0c1.31,0,1.851.556,1.855,1.889,0,1.539,0,3.08,0,4.619" transform="translate(-3.695 -9.66)"/>
      <path id="Trazado_775630" data-name="Trazado 775630" d="M17.255,73.073c0-1.539-.007-3.08,0-4.619a1.56,1.56,0,0,1,1.737-1.771q4.734-.013,9.468,0A1.558,1.558,0,0,1,30.2,68.457q.011,4.7,0,9.392c0,1.2-.59,1.771-1.814,1.774q-4.657.008-9.314,0c-1.25,0-1.807-.578-1.812-1.854-.006-1.565,0-3.131,0-4.7" transform="translate(-3.695 -14.28)"/>
      <path id="Trazado_775631" data-name="Trazado 775631" d="M44.614,68.537a1.732,1.732,0,0,1,1.223.595c.628.642,1.278,1.262,1.9,1.912.255.268.42.268.676,0,.615-.653,1.256-1.283,1.9-1.909a1.551,1.551,0,1,1,2.185,2.17c-.587.61-1.177,1.218-1.8,1.792-.351.325-.429.537-.022.9.651.577,1.253,1.213,1.855,1.844a1.542,1.542,0,0,1,.12,2.263,1.561,1.561,0,0,1-2.319-.109c-.627-.606-1.257-1.212-1.843-1.857-.33-.365-.527-.33-.842.014-.589.643-1.218,1.249-1.847,1.852a1.547,1.547,0,1,1-2.178-2.174c.606-.628,1.2-1.266,1.858-1.84.423-.372.294-.583-.039-.9-.671-.633-1.321-1.29-1.957-1.96a1.464,1.464,0,0,1-.271-1.711,1.491,1.491,0,0,1,1.405-.878" transform="translate(-9.22 -14.678)"/>
      <path id="Trazado_775632" data-name="Trazado 775632" d="M54.339,26.92a1.874,1.874,0,0,1-.584,1.225c-2.236,2.231-4.46,4.471-6.7,6.7a1.553,1.553,0,0,1-2.43,0q-1.6-1.563-3.161-3.157a1.551,1.551,0,1,1,2.178-2.177c.609.589,1.228,1.172,1.79,1.8.338.38.52.3.832-.022,1.764-1.794,3.554-3.563,5.329-5.347a1.557,1.557,0,0,1,1.822-.418,1.536,1.536,0,0,1,.926,1.392" transform="translate(-8.752 -5.438)"/>
      <path id="Trazado_775633" data-name="Trazado 775633" d="M54.34,48.487a1.828,1.828,0,0,1-.539,1.186c-2.27,2.269-4.531,4.547-6.814,6.8a1.52,1.52,0,0,1-2.319-.012Q43.014,54.852,41.4,53.2a1.542,1.542,0,1,1,2.192-2.156c.595.567,1.192,1.136,1.737,1.748.367.413.581.455,1,.021,1.73-1.79,3.51-3.533,5.268-5.3a1.567,1.567,0,0,1,1.682-.46A1.488,1.488,0,0,1,54.3,48.208c.024.1.033.2.045.279" transform="translate(-8.751 -10.059)"/>
      <path id="Trazado_775634" data-name="Trazado 775634" d="M40.747,90.185c-.231,1.042-.771,1.561-1.6,1.539-.8-.021-1.3-.523-1.525-1.539.223-1.01.724-1.514,1.525-1.535.833-.021,1.37.493,1.6,1.535" transform="translate(-8.057 -18.986)" fill="#010101"/>
      <path id="Trazado_775635" data-name="Trazado 775635" d="M24.566,34.236c-.974,0-1.948-.015-2.921.008-.368.008-.481-.105-.478-.475q.025-2.922,0-5.843c0-.367.105-.48.475-.477q2.921.024,5.843,0c.367,0,.48.105.477.475q-.025,2.922,0,5.843c0,.367-.1.486-.475.478-.973-.023-1.947-.008-2.921-.008" transform="translate(-4.533 -5.879)" fill="#cae458"/>
      <path id="Trazado_775636" data-name="Trazado 775636" d="M24.487,55.808c-.948,0-1.9-.016-2.845.008-.369.009-.478-.109-.475-.477q.025-2.922,0-5.843c0-.369.109-.479.477-.475q2.921.024,5.843,0c.369,0,.479.109.475.476q-.024,2.922,0,5.844c0,.369-.108.483-.477.475-1-.023-2-.008-3-.008" transform="translate(-4.533 -10.499)" fill="#cae458"/>
      <path id="Trazado_775637" data-name="Trazado 775637" d="M27.955,74c0,.948-.013,1.9.007,2.844.008.369-.054.547-.492.541-1.947-.023-3.893-.02-5.84,0-.387,0-.464-.144-.461-.493.013-1.947.017-3.895,0-5.841,0-.388.145-.464.493-.461q2.92.02,5.84,0c.388,0,.468.143.461.492-.019.974-.006,1.947-.006,2.921" transform="translate(-4.533 -15.119)" fill="#fe6977"/>
    </g>
  </g>
</svg>
