<svg xmlns="http://www.w3.org/2000/svg" xmlns:xlink="http://www.w3.org/1999/xlink" width="88" height="113" viewBox="0 0 88 113">
  <defs>
    <clipPath id="clip-path">
      <rect id="Rectángulo_356072" data-name="Rectángulo 356072" width="84.155" height="84.166" fill="none"/>
    </clipPath>
  </defs>
  <g id="Grupo_1044189" data-name="Grupo 1044189" transform="translate(-180 -3153.211)">
    <rect id="mi-hija-no-tiene-miedo-hacer-visita-aqui" width="85" height="70" rx="15" transform="translate(180 3184.21)" fill="#3bc192"/>
    <circle id="Elipse_4834" data-name="Elipse 4834" cx="19" cy="19" r="19" transform="translate(180 3153.21)" fill="#fabf40"/>
    <ellipse id="Elipse_4835" data-name="Elipse 4835" cx="17" cy="18" rx="17" ry="18" transform="translate(234 3230.21)" fill="#fde9bc"/>
    <g id="Grupo_1044227" data-name="Grupo 1044227" transform="translate(183.845 3157.961)">
      <g id="Grupo_1044227-2" data-name="Grupo 1044227" clip-path="url(#clip-path)">
        <path id="Trazado_775638" data-name="Trazado 775638" d="M.141,91.958a10.511,10.511,0,0,1,8.494-8.847c1.262-.237,2.527-.457,3.79-.69A2.263,2.263,0,0,0,14.36,81.1a.711.711,0,0,0-.28-1.027,11.09,11.09,0,0,1-5.2-10,57.7,57.7,0,0,1,.14-7.3,11.152,11.152,0,0,1,22.193,1.3c.048,2.216.059,4.436,0,6.652a10.956,10.956,0,0,1-5.115,9.3c-.376.251-.673.484-.351.967a4.694,4.694,0,0,0,2.831,1.326c1.982.376,4.025.546,5.855,1.532A10.668,10.668,0,0,1,40.35,93.42c.053,1.312,0,2.629.011,3.944.007,1.045.069,1.108,1.128,1.108q10.395.005,20.789,0,8.545,0,17.091,0c1.224,0,1.244-.022,1.245-1.233q0-6.615,0-13.231c0-1.07-.06-1.131-1.1-1.136q-2.794-.012-5.587,0c-.943.006-1.018.083-1.021,1.047-.008,2.794,0,5.588,0,8.382a3.58,3.58,0,0,1-.174,1.377,1.924,1.924,0,0,1-1.806,1.328c-1.944.052-3.89.073-5.832-.008a1.98,1.98,0,0,1-2.022-1.874A2.016,2.016,0,0,1,65.1,91.264c1.038-.074,2.08-.033,3.121-.022.612.007.893-.206.887-.858-.021-2.218-.018-4.436,0-6.654,0-.647-.282-.858-.891-.858q-9.365.006-18.729,0c-.666,0-.923.246-.916.918q.032,3.286,0,6.572c-.005.629.236.894.866.882.9-.016,1.808-.027,2.71.007a1.9,1.9,0,1,1-.035,3.776c-1.669.033-3.341.039-5.01,0a2.108,2.108,0,0,1-2.317-2.373c-.021-2.875,0-5.751-.009-8.627,0-1.108-.043-1.146-1.161-1.149-1.862,0-3.724,0-5.586,0a3.2,3.2,0,0,1-1.289-.2,1.46,1.46,0,0,1-.947-1.962,1.657,1.657,0,0,1,1.776-1.374c.848-.02,1.7-.045,2.546.009.57.036.651-.183.657-.688A32.136,32.136,0,0,1,40.9,73.9a9.1,9.1,0,0,1,2.516-5.049,1.49,1.49,0,0,0,.456-1.151c-.009-5.915-.077-11.832.025-17.746A14.652,14.652,0,0,1,56.293,35.9a14.956,14.956,0,0,1,16.216,8.468,14.6,14.6,0,0,1,1.315,6.368c-.014,5.641,0,11.283-.015,16.924a1.592,1.592,0,0,0,.488,1.22A9.151,9.151,0,0,1,76.9,75c.054,1.2.049,2.41.008,3.614-.019.557.1.75.7.729,1.45-.049,2.9.016,4.353-.027a2,2,0,0,1,2.192,1.326V100.7a1.391,1.391,0,0,1-1.315,1.315H1.315A1.391,1.391,0,0,1,0,100.7v-7.89c.2-.259-.009-.584.141-.851" transform="translate(0 -17.849)"/>
        <path id="Trazado_775639" data-name="Trazado 775639" d="M44.543,0a7.236,7.236,0,0,1,3.935,2.016A6.035,6.035,0,0,1,50.247,6.06c.063,2.764.149,5.54-.021,8.3A6.234,6.234,0,0,1,44.477,20.3c-.623.077-.811.257-.77.871.056.845,0,1.7.018,2.546a1.708,1.708,0,0,1-.994,1.814,1.755,1.755,0,0,1-2.062-.562c-1.29-1.3-2.618-2.573-3.879-3.906a1.876,1.876,0,0,0-1.709-.69,4.906,4.906,0,0,1-1.066,0c-.416-.041-.5.136-.491.513.022,1.1.019,2.191.006,3.287A6.514,6.514,0,0,1,26.779,30.9q-5.012.029-10.025-.006a1.445,1.445,0,0,0-1.144.473q-2.966,3.018-5.976,5.993c-.954.947-2.1.943-2.75.025a2.037,2.037,0,0,1-.312-1.249q.01-2.341,0-4.684c0-.244.118-.53-.343-.573C2.705,30.553.729,28.525,0,25.151V14.63A6.041,6.041,0,0,1,3.506,9.389a6.885,6.885,0,0,1,3.332-.74c2.874-.013,5.748,0,8.622-.006,1.016,0,1.076-.053,1.068-1.064a8.16,8.16,0,0,1,.712-4A6.042,6.042,0,0,1,22.518,0Z"/>
        <path id="Trazado_775640" data-name="Trazado 775640" d="M0,165.7a2.291,2.291,0,0,0,1.315,1.315C0,167.017,0,167.017,0,165.7" transform="translate(0 -82.851)" fill="#e8e8e8"/>
        <path id="Trazado_775641" data-name="Trazado 775641" d="M165.681,167.017A2.3,2.3,0,0,0,167,165.7c0,1.315,0,1.315-1.315,1.315" transform="translate(-82.841 -82.851)" fill="#e8e8e8"/>
        <path id="Trazado_775642" data-name="Trazado 775642" d="M.141,148.213a.917.917,0,0,1-.141.851v-.822a.169.169,0,0,1,.141-.029" transform="translate(0 -74.105)" fill="#505050"/>
        <path id="Trazado_775643" data-name="Trazado 775643" d="M89.009,138.144c.322,1.263.787,1.64,2.066,1.645q2.629.01,5.259,0c1.458-.005,2.059-.6,2.062-2.042.007-3.123.02-6.246-.013-9.369-.007-.6.129-.78.756-.768,2.272.042,4.547.036,6.82,0,.55-.008.671.16.669.684q-.029,7.4,0,14.794c0,.572-.194.655-.7.655q-19.683-.018-39.365,0c-.561,0-.738-.115-.731-.707a42.249,42.249,0,0,0-.08-5.746c-.639-5.091-4.1-8.45-9.357-9.336-1.132-.191-2.261-.406-3.386-.637a1.753,1.753,0,0,1-1.516-1.315l9.165-.025c.321,0,.66.059.882-.266.022,1.313.589,1.9,1.9,1.907,2.242.012,4.484.021,6.725-.01.519-.007.631.146.627.641-.022,3.117-.013,6.234-.011,9.351,0,1.617.561,2.181,2.161,2.185s3.171,0,4.757,0c1.357,0,1.808-.353,2.141-1.646a5.681,5.681,0,0,1,2.9-.171c.358.107.442.445.607.72a1.361,1.361,0,0,0,2.482.052c.175-.263.221-.627.575-.757a4.475,4.475,0,0,1,2.6.156" transform="translate(-25.75 -62.858)" fill="#fcb38a"/>
        <path id="Trazado_775644" data-name="Trazado 775644" d="M23.29,148.224c-5.311,0-10.622-.01-15.933.013-.618,0-.836-.12-.82-.792.044-1.851.01-1.852,1.88-1.852,3.011,0,6.023,0,9.034,0,1.125,0,1.81-.5,1.932-1.376.16-1.14-.575-1.9-1.891-1.906-2.792-.012-5.585,0-8.377,0H7.637c-1.159,0-1.185-.007-.847-1.163a7.227,7.227,0,0,1,5.925-5.353,43.961,43.961,0,0,0,5.131-1.063,1.32,1.32,0,0,1,.8.089c1.314.371,2.631.735,3.94,1.124a2.5,2.5,0,0,0,1.448.007c1.522-.433,3.061-1.2,4.577-1.159a32.8,32.8,0,0,1,4.567.863,8.492,8.492,0,0,1,4.586,2,7.243,7.243,0,0,1,2.319,5.422c.014,1.451-.028,2.9.018,4.353.02.627-.133.819-.8.816-5.338-.03-10.676-.017-16.015-.017" transform="translate(-3.268 -67.345)" fill="#6f89f1"/>
        <path id="Trazado_775645" data-name="Trazado 775645" d="M40.053,88.548a18.819,18.819,0,0,1-.471,5.5A7.91,7.91,0,0,1,27.3,97.6a7.64,7.64,0,0,1-2.975-5.8,54.764,54.764,0,0,1,.09-7.875A7.862,7.862,0,0,1,40.05,85.155c.022,1.04,0,2.081,0,3.393" transform="translate(-12.113 -38.598)" fill="#868690"/>
        <path id="Trazado_775646" data-name="Trazado 775646" d="M102.876,112.333c-4.68,0-9.361-.011-14.041.015-.6,0-.81-.12-.771-.754.061-.982.008-1.97.018-2.955a6.223,6.223,0,0,1,5.1-6.34c.933-.208,1.891-.31,2.815-.549a.81.81,0,0,1,1,.411c1.408,1.952,2.837,3.89,4.265,5.827,1.052,1.428,2.163,1.43,3.214,0q2.14-2.908,4.261-5.83a.814.814,0,0,1,1-.414c1.083.276,2.207.4,3.287.683a6.1,6.1,0,0,1,4.618,5.789c.049,1.148-.015,2.3.03,3.448.021.541-.145.678-.678.676-4.708-.021-9.415-.012-14.123-.012" transform="translate(-44.03 -50.853)" fill="#51b9f1"/>
        <path id="Trazado_775647" data-name="Trazado 775647" d="M117.675,60.864c0,2.683-.015,5.367.01,8.05.006.6-.094.725-.725.565-1.4-.354-2.834-.591-4.257-.864a2.255,2.255,0,0,1-.911-.338c-.746-.531-.739-1.01-.014-1.531a9.939,9.939,0,0,0,4.362-7.894c.1-1.884.029-3.777.033-5.667a1.7,1.7,0,0,0-.9-1.551c-1.837-1.082-3.666-2.179-5.516-3.238a1.589,1.589,0,0,0-2.221.338,8.305,8.305,0,0,1-6.838,2.743c-1.067-.038-2.136-.025-3.2.005a1.517,1.517,0,0,0-1.657,1.478c0,2.593-.313,5.206.265,7.776a9.974,9.974,0,0,0,3.965,5.938c.27.2.8.238.692.766a1.329,1.329,0,0,1-1.037,1.054c-.956.228-1.928.389-2.892.581a11.51,11.51,0,0,0-1.759.379c-.731.272-.786-.028-.784-.644.02-4.08,0-8.16.016-12.24a23.121,23.121,0,0,1,.347-5.8A11.725,11.725,0,0,1,106.2,42.183c5.9.295,10.456,4.165,11.312,9.657a54.478,54.478,0,0,1,.157,6.887c.02.711,0,1.424,0,2.135" transform="translate(-47.143 -21.085)" fill="#f3b75e"/>
        <path id="Trazado_775648" data-name="Trazado 775648" d="M117.668,66.87a8.555,8.555,0,0,1-.816,4.521A6.892,6.892,0,0,1,103.876,68.4c-.036-1.066.029-2.137-.03-3.2-.034-.623.218-.7.749-.686a14.772,14.772,0,0,0,5.194-.544,10.465,10.465,0,0,0,3.63-2.014.683.683,0,0,1,.982-.08c.921.587,1.871,1.13,2.824,1.664a.739.739,0,0,1,.452.764c-.032.738-.009,1.478-.009,2.566" transform="translate(-51.922 -30.852)" fill="#fdccad"/>
        <path id="Trazado_775649" data-name="Trazado 775649" d="M112.955,94.682a8.214,8.214,0,0,0,3.1,0c.34-.065.578.007.687.374a1.268,1.268,0,0,0,.269.59c.946.82.491,1.492-.128,2.243-.727.885-1.375,1.836-2.038,2.772-.237.334-.4.366-.65.012-.873-1.222-1.767-2.43-2.654-3.642-.111-.152-.292-.306-.14-.5a7.861,7.861,0,0,0,1.032-1.756c.086-.2.343-.09.527-.091" transform="translate(-55.669 -47.326)" fill="#fcb38a"/>
        <path id="Trazado_775650" data-name="Trazado 775650" d="M37.489,129.156c-.823-.232-1.612-.45-2.4-.68-.317-.092-.2-.3-.142-.525.083-.329.249-.453.583-.374a9.768,9.768,0,0,0,2.777.145,6.515,6.515,0,0,0,1.135-.149c.41-.1.51.134.623.444.151.417-.129.452-.4.527-.736.2-1.47.413-2.177.612" transform="translate(-17.44 -63.776)" fill="#fbcbac"/>
        <path id="Trazado_775651" data-name="Trazado 775651" d="M13.133,44.65c0-1.16.017-2.091,0-3.022a1.694,1.694,0,0,0-1.841-1.847c-.547-.016-1.1.013-1.643-.013a3.136,3.136,0,0,1-3.063-3.053q-.076-4.64,0-9.283a3.169,3.169,0,0,1,3.438-3.1q9.57-.013,19.14,0c.411,0,.822-.011,1.232.008a3.152,3.152,0,0,1,3.107,3.1q.068,4.6,0,9.2a3.152,3.152,0,0,1-3.317,3.137c-3.587.018-7.174.032-10.761-.011A3.094,3.094,0,0,0,16.957,40.8c-1.2,1.266-2.452,2.475-3.824,3.849" transform="translate(-3.271 -12.161)" fill="#a5d96f"/>
        <path id="Trazado_775652" data-name="Trazado 775652" d="M60.389,23.3c-.723-.726-1.409-1.381-2.054-2.074a2.475,2.475,0,0,0-2.037-.857c-.847.038-1.875.3-2.5-.082S53.634,18.79,53.523,18a6.516,6.516,0,0,0-6.614-5.839q-3.081-.04-6.163.009c-.549.009-.711-.154-.667-.683.045-.544,0-1.1.013-1.643a3.2,3.2,0,0,1,3.285-3.269c2.492-.026,4.985-.007,7.478-.007q6.287,0,12.574,0a3.262,3.262,0,0,1,3.615,3.6q.007,3.287,0,6.575a3.265,3.265,0,0,1-3.589,3.629h-.247c-2.35,0-2.65.287-2.74,2.6a2.184,2.184,0,0,1-.078.32" transform="translate(-20.036 -3.281)" fill="#7cd2f7"/>
        <path id="Trazado_775653" data-name="Trazado 775653" d="M114.357,148.941c.29-1.093.88-1.656,1.707-1.63s1.35.565,1.622,1.63c-.269,1.068-.805,1.609-1.622,1.635s-1.418-.539-1.707-1.635" transform="translate(-57.179 -73.655)" fill="#010101"/>
        <path id="Trazado_775654" data-name="Trazado 775654" d="M40.505,151.608a1.656,1.656,0,0,1-1.65,1.6,1.634,1.634,0,0,1,.071-3.267,1.654,1.654,0,0,1,1.579,1.67" transform="translate(-18.63 -74.969)" fill="#010101"/>
        <path id="Trazado_775655" data-name="Trazado 775655" d="M114.594,81.487a3.441,3.441,0,0,1-2.351-.941,1.633,1.633,0,0,1-.264-2.208,1.544,1.544,0,0,1,2.161-.4.872.872,0,0,0,1.037,0,1.531,1.531,0,0,1,2.158.4,1.615,1.615,0,0,1-.263,2.2,3.567,3.567,0,0,1-2.478.938" transform="translate(-55.832 -38.833)"/>
        <path id="Trazado_775656" data-name="Trazado 775656" d="M110.257,71.856a1.6,1.6,0,0,1-1.633,1.573,1.628,1.628,0,0,1-1.6-1.614,1.661,1.661,0,0,1,1.687-1.623,1.624,1.624,0,0,1,1.551,1.664" transform="translate(-53.51 -35.095)" fill="#010100"/>
        <path id="Trazado_775657" data-name="Trazado 775657" d="M123.52,73.421a1.59,1.59,0,0,1-1.641-1.562,1.637,1.637,0,0,1,1.62-1.682,1.674,1.674,0,0,1,1.615,1.621,1.621,1.621,0,0,1-1.594,1.623" transform="translate(-60.94 -35.089)" fill="#010100"/>
        <path id="Trazado_775658" data-name="Trazado 775658" d="M21.134,33.854c-2.027,0-4.054.01-6.08,0a1.654,1.654,0,1,1,0-3.278c2.41-.017,4.82,0,7.231,0,1.725,0,3.451-.026,5.176.008A1.641,1.641,0,0,1,29.041,33a1.8,1.8,0,0,1-1.744.86c-2.054-.009-4.108,0-6.162,0" transform="translate(-6.587 -15.279)"/>
        <path id="Trazado_775659" data-name="Trazado 775659" d="M20.239,42.405c1.753,0,3.506-.025,5.259.007a1.64,1.64,0,1,1,.062,3.273c-3.561.009-7.122.02-10.683-.007a1.636,1.636,0,0,1-1.7-1.639A1.658,1.658,0,0,1,14.9,42.415c1.78-.032,3.561-.009,5.341-.01" transform="translate(-6.586 -21.198)"/>
        <path id="Trazado_775660" data-name="Trazado 775660" d="M48.642,42.435a1.632,1.632,0,1,1-1.609,1.658,1.7,1.7,0,0,1,1.609-1.658" transform="translate(-23.516 -21.217)" fill="#010100"/>
      </g>
    </g>
  </g>
</svg>
