<svg xmlns="http://www.w3.org/2000/svg" width="81" height="81" viewBox="0 0 81 81">
  <g id="Grupo_988068" data-name="Grupo 988068" transform="translate(-204 -2577)">
    <rect id="Rectángulo_35795" data-name="Rectángulo 35795" width="81" height="81" rx="8" transform="translate(204 2577)" fill="#fabf40"/>
    <g id="lista-de-verificacion" transform="translate(182.693 2585.589)">
      <g id="Grupo_988064" data-name="Grupo 988064" transform="translate(34.969 0.95)">
        <g id="Grupo_988063" data-name="Grupo 988063" transform="translate(0)">
          <g id="Grupo_988060" data-name="Grupo 988060">
            <g id="Grupo_988057" data-name="Grupo 988057">
              <path id="Trazado_212816" data-name="Trazado 212816" d="M83.923,106.138H43.839a2.324,2.324,0,0,1-2.324-2.324v-53.1a2.324,2.324,0,0,1,2.324-2.324H83.923a2.324,2.324,0,0,1,2.324,2.324v53.1A2.324,2.324,0,0,1,83.923,106.138Z" transform="translate(-41.515 -43.214)" fill="#ffc250"/>
              <path id="Trazado_212817" data-name="Trazado 212817" d="M322.805,48.39h-7.779a2.324,2.324,0,0,1,2.324,2.324v53.1a2.324,2.324,0,0,1-2.324,2.324h7.779a2.324,2.324,0,0,0,2.324-2.324v-53.1A2.324,2.324,0,0,0,322.805,48.39Z" transform="translate(-280.397 -43.213)" fill="#eab14d"/>
              <path id="Trazado_212818" data-name="Trazado 212818" d="M71.522,127.716V79.229a.831.831,0,0,1,.831-.831h35.472a.831.831,0,0,1,.831.831v48.487a.831.831,0,0,1-.831.831H72.353A.831.831,0,0,1,71.522,127.716Z" transform="translate(-67.723 -69.422)" fill="#f5f5f5"/>
              <path id="Trazado_212819" data-name="Trazado 212819" d="M304.6,78.4h-7.779a.831.831,0,0,1,.831.831v48.487a.831.831,0,0,1-.831.831H304.6a.831.831,0,0,0,.831-.831V79.229A.831.831,0,0,0,304.6,78.4Z" transform="translate(-264.493 -69.422)" fill="#eaeaea"/>
              <path id="Trazado_212820" data-name="Trazado 212820" d="M154.262,10.393V9.169A1.669,1.669,0,0,0,152.593,7.5h-6.538a1.669,1.669,0,0,0-1.669,1.669v1.224a.683.683,0,0,1-.683.683h-2.721a1.639,1.639,0,0,0-1.639,1.639v3.762H159.3V12.714a1.639,1.639,0,0,0-1.639-1.639h-2.721A.683.683,0,0,1,154.262,10.393Z" transform="translate(-126.958 -7.5)" fill="#c2d0da"/>
            </g>
            <g id="Grupo_988059" data-name="Grupo 988059" transform="translate(8.632 13.68)">
              <g id="Grupo_988058" data-name="Grupo 988058">
                <path id="Trazado_212821" data-name="Trazado 212821" d="M109.694,124.333v-7.317a1.468,1.468,0,0,1,1.468-1.468h7.317a1.468,1.468,0,0,1,1.468,1.468v7.317a1.468,1.468,0,0,1-1.468,1.468h-7.317A1.468,1.468,0,0,1,109.694,124.333Z" transform="translate(-109.694 -115.548)" fill="#66b49d"/>
                <path id="Trazado_212822" data-name="Trazado 212822" d="M109.694,244.74v-7.317a1.468,1.468,0,0,1,1.468-1.468h7.317a1.468,1.468,0,0,1,1.468,1.468v7.317a1.468,1.468,0,0,1-1.468,1.468h-7.317A1.468,1.468,0,0,1,109.694,244.74Z" transform="translate(-109.694 -220.711)" fill="#66b49d"/>
                <path id="Trazado_212823" data-name="Trazado 212823" d="M109.694,365.145v-7.317a1.468,1.468,0,0,1,1.468-1.468h7.317a1.468,1.468,0,0,1,1.468,1.468v7.317a1.468,1.468,0,0,1-1.468,1.468h-7.317A1.468,1.468,0,0,1,109.694,365.145Z" transform="translate(-109.694 -325.871)" fill="#66b49d"/>
              </g>
            </g>
          </g>
          <g id="Grupo_988062" data-name="Grupo 988062" transform="translate(24.498 14.753)">
            <g id="Grupo_988061" data-name="Grupo 988061" transform="translate(1.559)">
              <path id="Trazado_212824" data-name="Trazado 212824" d="M271.888,178.139l-.932-1.228-3.489-2.209-1.341-.211-17.863,28.227a7.352,7.352,0,0,0-.936,2.211,5.754,5.754,0,0,1,5.1,3.229,7.351,7.351,0,0,0,1.6-1.791Z" transform="translate(-247.328 -168.101)" fill="#fc8086"/>
              <path id="Trazado_212825" data-name="Trazado 212825" d="M417.331,125.373l-1.507-.954a2.518,2.518,0,0,0-3.475.781l-1.382,2.184.441.889,4.195,2.656,1.126.1,1.383-2.186a2.518,2.518,0,0,0-.781-3.474Z" transform="translate(-390.249 -124.027)" fill="#8c9ba6"/>
            </g>
            <path id="Trazado_212826" data-name="Trazado 212826" d="M0,0H3.589V6.82H0Z" transform="matrix(0.535, -0.845, 0.845, 0.535, 20.36, 6.381)" fill="#c9e2e7"/>
            <path id="Trazado_212827" data-name="Trazado 212827" d="M241.67,418.124l-5.086,4.1a.965.965,0,0,1-1.544-.978l1.531-6.35A5.754,5.754,0,0,1,241.67,418.124Z" transform="translate(-235.011 -378.069)" fill="#7c8b96"/>
          </g>
        </g>
      </g>
      <g id="Grupo_988067" data-name="Grupo 988067" transform="translate(34.02 0)">
        <g id="Grupo_988066" data-name="Grupo 988066" transform="translate(0)">
          <g id="Grupo_988065" data-name="Grupo 988065">
            <path id="Trazado_212828" data-name="Trazado 212828" d="M132.244,135.524a.95.95,0,0,0-1.328.2l-1.879,2.554-.643-.883a.95.95,0,1,0-1.536,1.118l1.109,1.523a1.325,1.325,0,0,0,1.064.543h0a1.324,1.324,0,0,0,1.063-.537l2.349-3.191A.95.95,0,0,0,132.244,135.524Z" transform="translate(-114.945 -118.204)"/>
            <path id="Trazado_212829" data-name="Trazado 212829" d="M132.243,258.551a.949.949,0,0,0-1.328.2l-1.88,2.553-.643-.883a.95.95,0,1,0-1.536,1.118l1.109,1.523a1.325,1.325,0,0,0,1.064.543h0a1.325,1.325,0,0,0,1.063-.538l2.349-3.191A.95.95,0,0,0,132.243,258.551Z" transform="translate(-114.944 -225.655)"/>
            <path id="Trazado_212830" data-name="Trazado 212830" d="M132.243,376.335a.949.949,0,0,0-1.328.2l-1.88,2.553-.643-.883a.95.95,0,1,0-1.536,1.118l1.109,1.523a1.324,1.324,0,0,0,1.064.543h0a1.325,1.325,0,0,0,1.063-.538l2.349-3.191A.95.95,0,0,0,132.243,376.335Z" transform="translate(-114.944 -328.526)"/>
            <path id="Trazado_212831" data-name="Trazado 212831" d="M221.475,134.767h11.739a.95.95,0,0,0,0-1.9H221.475a.95.95,0,0,0,0,1.9Z" transform="translate(-196.912 -116.045)"/>
            <path id="Trazado_212832" data-name="Trazado 212832" d="M221.475,166.108h5.869a.95.95,0,1,0,0-1.9h-5.869a.95.95,0,0,0,0,1.9Z" transform="translate(-196.912 -143.418)"/>
            <path id="Trazado_212833" data-name="Trazado 212833" d="M221.475,255.172h7.876a.95.95,0,1,0,0-1.9h-7.876a.95.95,0,0,0,0,1.9Z" transform="translate(-196.912 -221.206)"/>
            <path id="Trazado_212834" data-name="Trazado 212834" d="M227.344,286.514a.95.95,0,1,0,0-1.9h-5.869a.95.95,0,1,0,0,1.9Z" transform="translate(-196.912 -248.58)"/>
            <path id="Trazado_212835" data-name="Trazado 212835" d="M111.932,108.047h-7.317a2.421,2.421,0,0,0-2.418,2.418v7.317a2.421,2.421,0,0,0,2.418,2.418h7.317a2.421,2.421,0,0,0,2.418-2.418v-7.317A2.42,2.42,0,0,0,111.932,108.047Zm.518,9.735a.519.519,0,0,1-.518.518h-7.317a.519.519,0,0,1-.518-.518v-7.317a.519.519,0,0,1,.518-.518h7.317a.519.519,0,0,1,.518.518Z" transform="translate(-93.565 -94.367)"/>
            <path id="Trazado_212836" data-name="Trazado 212836" d="M111.932,228.453h-7.317a2.421,2.421,0,0,0-2.418,2.418v7.317a2.421,2.421,0,0,0,2.418,2.418h7.317a2.421,2.421,0,0,0,2.418-2.418v-7.317A2.42,2.42,0,0,0,111.932,228.453Zm.518,9.735a.519.519,0,0,1-.518.518h-7.317a.519.519,0,0,1-.518-.518v-7.317a.519.519,0,0,1,.518-.518h7.317a.519.519,0,0,1,.518.518Z" transform="translate(-93.565 -199.529)"/>
            <path id="Trazado_212837" data-name="Trazado 212837" d="M111.932,348.857h-7.317a2.421,2.421,0,0,0-2.418,2.418v7.317a2.421,2.421,0,0,0,2.418,2.418h7.317a2.421,2.421,0,0,0,2.418-2.418v-7.317A2.42,2.42,0,0,0,111.932,348.857Zm.518,9.735a.519.519,0,0,1-.518.518h-7.317a.519.519,0,0,1-.518-.518v-7.317a.519.519,0,0,1,.518-.518h7.317a.519.519,0,0,1,.518.518Z" transform="translate(-93.565 -304.689)"/>
            <path id="Trazado_212838" data-name="Trazado 212838" d="M88.617,16.246l-1.507-.955a3.467,3.467,0,0,0-4.785,1.075l-1.382,2.184-1.919,3.033-2.171,3.43V10.757a1.783,1.783,0,0,0-1.781-1.781H68.266v-1.9h9.111a1.376,1.376,0,0,1,1.375,1.375v8.225a.95.95,0,1,0,1.9,0V8.451a3.278,3.278,0,0,0-3.274-3.274H68.069a2.592,2.592,0,0,0-2.392-1.6H63.224V2.619A2.622,2.622,0,0,0,60.6,0H54.067a2.622,2.622,0,0,0-2.619,2.619v.957H48.994a2.592,2.592,0,0,0-2.392,1.6H37.294A3.278,3.278,0,0,0,34.02,8.451v53.1a3.278,3.278,0,0,0,3.274,3.274H77.378a3.278,3.278,0,0,0,3.274-3.274v-21.3a.95.95,0,1,0-1.9,0v21.3a1.376,1.376,0,0,1-1.375,1.375H37.294a1.376,1.376,0,0,1-1.375-1.375V8.451a1.376,1.376,0,0,1,1.375-1.375h9.111v1.9H39.6a1.783,1.783,0,0,0-1.781,1.781V59.243A1.783,1.783,0,0,0,39.6,61.024H75.072a1.783,1.783,0,0,0,1.781-1.781V41.319L86.39,26.248h0l1.919-3.032,1.383-2.186a3.472,3.472,0,0,0-1.075-4.784Zm-3.706.445a1.556,1.556,0,0,1,1.183.205l1.507.955a1.57,1.57,0,0,1,.486,2.163L87.212,21.4l-4.157-2.632.875-1.382a1.557,1.557,0,0,1,.981-.692ZM66.922,53.459a6.392,6.392,0,0,1-.6.8,6.677,6.677,0,0,0-1.01-1.081l17.7-27.948,1.268.8Zm-6.486,5.665a.127.127,0,0,0-.018-.007h0l1.342-5.573A4.782,4.782,0,0,1,64.9,55.53C59.866,59.583,60.508,59.058,60.437,59.123ZM82.04,20.37,86.2,23l-.9,1.428L81.136,21.8ZM48.305,6.185c0-.012,0-.023,0-.035s0-.008,0-.012a.69.69,0,0,1,.688-.663h2.721a1.634,1.634,0,0,0,1.632-1.632V2.619a.72.72,0,0,1,.719-.719H60.6a.72.72,0,0,1,.719.719V3.842a1.634,1.634,0,0,0,1.632,1.632h2.721a.689.689,0,0,1,.688.663s0,.008,0,.012,0,.023,0,.035V8.976H48.305Zm-8.587,4.69H74.953v17.14L65.012,43.724a.95.95,0,1,0,1.605,1.016L80.12,23.4l1.284.813-17.7,27.948a6.67,6.67,0,0,0-1.409-.45,6.423,6.423,0,0,1,.468-.887l1.477-2.333a.95.95,0,1,0-1.605-1.016L61.161,49.81a8.286,8.286,0,0,0-1.057,2.5h0l-1.53,6.35a1.971,1.971,0,0,0-.055.468h-18.8ZM74.953,59.124H63.463l3.26-2.627a8.283,8.283,0,0,0,1.8-2.023l6.426-10.154Z" transform="translate(-34.02 0)"/>
          </g>
        </g>
      </g>
    </g>
  </g>
</svg>
