<svg xmlns="http://www.w3.org/2000/svg" width="75" height="75" viewBox="0 0 75 75">
  <g id="Grupo_1043832" data-name="Grupo 1043832" transform="translate(-631 -5207)">
    <rect id="Rectángulo_345241" data-name="Rectángulo 345241" width="75" height="75" rx="7" transform="translate(631 5207)" fill="#fabf40"/>
    <g id="_23-Training" data-name="23-Training" transform="translate(637 5213)">
      <rect id="Rectángulo_355849" data-name="Rectángulo 355849" width="38" height="4" transform="translate(23 3)" fill="#64b5f6"/>
      <rect id="Rectángulo_355850" data-name="Rectángulo 355850" width="5" height="4" transform="translate(56 3)" fill="#42a5f5"/>
      <path id="Trazado_773546" data-name="Trazado 773546" d="M26,7H58V29a2,2,0,0,1-2,2H28a2,2,0,0,1-2-2Z" fill="#eee"/>
      <path id="Trazado_773547" data-name="Trazado 773547" d="M58,7V29a2.006,2.006,0,0,1-2,2H28a2.006,2.006,0,0,1-2-2V28H51a2.006,2.006,0,0,0,2-2V7Z" fill="#e0e0e0"/>
      <path id="Trazado_773548" data-name="Trazado 773548" d="M35,53H29a5,5,0,0,0-5,5v3H40V58A5,5,0,0,0,35,53Z" fill="#ffb74d"/>
      <circle id="Elipse_4951" data-name="Elipse 4951" cx="5" cy="5" r="5" transform="translate(27 43)" fill="#ffccbc"/>
      <path id="Trazado_773549" data-name="Trazado 773549" d="M15,53H9a5,5,0,0,0-5,5v3H20V58A5,5,0,0,0,15,53Z" fill="#ffb74d"/>
      <circle id="Elipse_4952" data-name="Elipse 4952" cx="5" cy="5" r="5" transform="translate(7 43)" fill="#ffccbc"/>
      <path id="Trazado_773550" data-name="Trazado 773550" d="M55,53H49a5,5,0,0,0-5,5v3H60V58A5,5,0,0,0,55,53Z" fill="#ffb74d"/>
      <path id="Trazado_773551" data-name="Trazado 773551" d="M60,58v3H44V58h8a2.1,2.1,0,0,0,1.565-3.513l-.027-.027A5.022,5.022,0,0,0,50,53h5A5,5,0,0,1,60,58Z" fill="#ffa726"/>
      <path id="Trazado_773552" data-name="Trazado 773552" d="M40,58v3H24V58h8a2.1,2.1,0,0,0,1.565-3.513l-.027-.027A5.022,5.022,0,0,0,30,53h5A5,5,0,0,1,40,58Z" fill="#ffa726"/>
      <path id="Trazado_773553" data-name="Trazado 773553" d="M20,58v3H4V58h8a2.1,2.1,0,0,0,1.565-3.513l-.027-.027A5.022,5.022,0,0,0,10,53h5A5,5,0,0,1,20,58Z" fill="#ffa726"/>
      <circle id="Elipse_4953" data-name="Elipse 4953" cx="5" cy="5" r="5" transform="translate(47 43)" fill="#ffccbc"/>
      <path id="Trazado_773554" data-name="Trazado 773554" d="M57,48a5,5,0,0,1-5,5,4.941,4.941,0,0,1-3-1,5,5,0,0,0,3-9,5,5,0,0,1,5,5Z" fill="#ffab91"/>
      <path id="Trazado_773555" data-name="Trazado 773555" d="M37,48a5,5,0,0,1-5,5,4.941,4.941,0,0,1-3-1,5,5,0,0,0,3-9A5,5,0,0,1,37,48Z" fill="#ffab91"/>
      <path id="Trazado_773556" data-name="Trazado 773556" d="M17,48a5,5,0,0,1-5,5,4.941,4.941,0,0,1-3-1,5,5,0,0,0,3-9A5,5,0,0,1,17,48Z" fill="#ffab91"/>
      <circle id="Elipse_4954" data-name="Elipse 4954" cx="5" cy="5" r="5" transform="translate(8 5)" fill="#ffccbc"/>
      <path id="Trazado_773557" data-name="Trazado 773557" d="M3,20v9a2,2,0,0,0,2,2H7v6H19V19h8a2,2,0,0,0,2-2h0a2,2,0,0,0-2-2H8A5,5,0,0,0,3,20Z" fill="#64b5f6"/>
      <path id="Trazado_773558" data-name="Trazado 773558" d="M26.893,15H24a2,2,0,0,1-2,2H18a4,4,0,0,0-4,4v9a4,4,0,0,1-4,4H7v3H19V19h8a2,2,0,0,0,1.973-2.336A2.074,2.074,0,0,0,26.893,15Z" fill="#42a5f5"/>
      <circle id="Elipse_4955" data-name="Elipse 4955" cx="3" cy="3" r="3" transform="translate(39 36)" fill="#64b5f6"/>
      <path id="Trazado_773559" data-name="Trazado 773559" d="M45,39a3,3,0,0,1-3,3,2.962,2.962,0,0,1-2.3-1.08A3,3,0,0,0,42,38a2.959,2.959,0,0,0-.7-1.92A3.267,3.267,0,0,1,42,36a3,3,0,0,1,3,3Z" fill="#42a5f5"/>
      <path id="Trazado_773560" data-name="Trazado 773560" d="M18,10a5,5,0,0,1-5,5,4.941,4.941,0,0,1-3-1,5,5,0,0,0,3-9,5,5,0,0,1,5,5Z" fill="#ffab91"/>
      <path id="Trazado_773561" data-name="Trazado 773561" d="M61,2H23a1,1,0,0,0-1,1V7a1,1,0,0,0,1,1h2v3a1,1,0,0,0,2,0V8H57V29a1,1,0,0,1-1,1H28a1,1,0,0,1-1-1V23a1,1,0,0,0-2,0v6a3,3,0,0,0,3,3H41v4.184a3,3,0,1,0,2,0V32H56a3,3,0,0,0,3-3V8h2a1,1,0,0,0,1-1V3a1,1,0,0,0-1-1ZM42,40a1,1,0,1,1,1-1,1,1,0,0,1-1,1ZM60,6H24V4H60ZM36.322,52.152a6,6,0,1,0-8.644,0A6.007,6.007,0,0,0,23,58v3a1,1,0,0,0,2,0V58a4,4,0,0,1,4-4h6a4,4,0,0,1,4,4v3a1,1,0,0,0,2,0V58a6.007,6.007,0,0,0-4.678-5.848ZM32,44a4,4,0,1,1-4,4,4,4,0,0,1,4-4ZM16.322,52.152a6,6,0,1,0-8.644,0A6.007,6.007,0,0,0,3,58v3a1,1,0,0,0,2,0V58a4,4,0,0,1,4-4h6a4,4,0,0,1,4,4v3a1,1,0,0,0,2,0V58a6.007,6.007,0,0,0-4.678-5.848ZM12,44a4,4,0,1,1-4,4,4,4,0,0,1,4-4Zm44.322,8.152a6,6,0,1,0-8.644,0A6.007,6.007,0,0,0,43,58v3a1,1,0,0,0,2,0V58a4,4,0,0,1,4-4h6a4,4,0,0,1,4,4v3a1,1,0,0,0,2,0V58a6.007,6.007,0,0,0-4.678-5.848ZM52,44a4,4,0,1,1-4,4,4,4,0,0,1,4-4ZM6,32v5a1,1,0,0,0,2,0V23a1,1,0,0,0-2,0v7H5a1,1,0,0,1-1-1V20a4,4,0,0,1,4-4H27a1,1,0,0,1,0,2H19a1,1,0,0,0-1,1V37a1,1,0,0,0,2,0V20h7a3,3,0,0,0,0-6H17.46A6,6,0,1,0,8.54,14H8a6.007,6.007,0,0,0-6,6v9a3,3,0,0,0,3,3ZM9,10a4,4,0,1,1,4,4A4,4,0,0,1,9,10Zm4,20a1,1,0,0,1,1,1v6a1,1,0,0,1-2,0V31a1,1,0,0,1,1-1ZM53,13a1,1,0,0,1-1,1H32a1,1,0,0,1,0-2H52a1,1,0,0,1,1,1Zm0,6a1,1,0,0,1-1,1H42a1,1,0,0,1,0-2H52a1,1,0,0,1,1,1ZM31,19a1,1,0,0,1,1-1h6a1,1,0,0,1,0,2H32a1,1,0,0,1-1-1Zm0,6a1,1,0,0,1,1-1H52a1,1,0,0,1,0,2H32a1,1,0,0,1-1-1Z"/>
    </g>
  </g>
</svg>
