<svg xmlns="http://www.w3.org/2000/svg" width="56" height="56" viewBox="0 0 56 56">
  <g id="Grupo_1044305" data-name="Grupo 1044305" transform="translate(6604 -2833)">
    <path id="Trazado_775860" data-name="Trazado 775860" d="M10,0H46A10,10,0,0,1,56,10V46A10,10,0,0,1,46,56H10A10,10,0,0,1,0,46V10A10,10,0,0,1,10,0Z" transform="translate(-6604 2833)" fill="#fabf40"/>
    <path id="Trazado_775861" data-name="Trazado 775861" d="M1.277-8.335,2.32-17.062h9.973v3.047H5.531L5.145-10.6a4.658,4.658,0,0,1,1.107-.436,5.053,5.053,0,0,1,1.342-.188A5.006,5.006,0,0,1,11.5-9.721,6.066,6.066,0,0,1,12.867-5.5a6.055,6.055,0,0,1-.732,2.971A5.034,5.034,0,0,1,10.078-.48,6.493,6.493,0,0,1,6.949.234,6.987,6.987,0,0,1,3.938-.427a5.4,5.4,0,0,1-2.2-1.815A4.41,4.41,0,0,1,.949-4.847H4.91a2.24,2.24,0,0,0,.6,1.485,1.9,1.9,0,0,0,1.418.55q1.992,0,1.992-2.947,0-2.725-2.437-2.725A2.432,2.432,0,0,0,4.418-7.6Z" transform="translate(-6583 2869)" fill="#12263f"/>
  </g>
</svg>
