<svg xmlns="http://www.w3.org/2000/svg" xmlns:xlink="http://www.w3.org/1999/xlink" width="114" height="114" viewBox="0 0 114 114">
  <defs>
    <clipPath id="clip-path">
      <rect id="Rectángulo_33786" data-name="Rectángulo 33786" width="47.788" height="76.848" fill="none"/>
    </clipPath>
    <clipPath id="clip-path-3">
      <rect id="Rectángulo_33782" data-name="Rectángulo 33782" width="47.057" height="72.709" fill="none"/>
    </clipPath>
    <clipPath id="clip-path-4">
      <rect id="Rectángulo_33783" data-name="Rectángulo 33783" width="22.898" height="72.636" fill="none"/>
    </clipPath>
  </defs>
  <g id="Grupo_1044289" data-name="Grupo 1044289" transform="translate(-932.333 -362)">
    <g id="Grupo_80168" data-name="Grupo 80168" transform="translate(76.359 23.639)">
      <g id="Grupo_80151" data-name="Grupo 80151" transform="translate(888.974 357.361)">
        <g id="Grupo_80150" data-name="Grupo 80150" clip-path="url(#clip-path)">
          <g id="Grupo_80149" data-name="Grupo 80149">
            <g id="Grupo_80148" data-name="Grupo 80148" clip-path="url(#clip-path)">
              <g id="Grupo_80144" data-name="Grupo 80144" transform="translate(0.366 3.773)" opacity="0.73">
                <g id="Grupo_80143" data-name="Grupo 80143">
                  <g id="Grupo_80142" data-name="Grupo 80142" clip-path="url(#clip-path-3)">
                    <path id="Trazado_113614" data-name="Trazado 113614" d="M27.951,41.1,27.86,12.829c0-1.336-1.092-3.233-2.428-3.228l-3.893.02c-1.336,0-2.416,1.909-2.411,3.246l.092,28.271L1.748,73.162A6.111,6.111,0,0,0,7.072,82.31l34.817-.132a6.111,6.111,0,0,0,5.1-9.448Z" transform="translate(-0.931 -9.601)" fill="#fff"/>
                  </g>
                </g>
              </g>
              <path id="Trazado_113615" data-name="Trazado 113615" d="M16.412,146.188s11.773-3.749,27.715,2.458c0,0-22.851,7.672-27.715-2.458" transform="translate(-9.963 -88.061)" fill="#004be3"/>
              <path id="Trazado_113616" data-name="Trazado 113616" d="M7.189,145.056s8.069,3.9,18.608-.114c10.773-4.1,16,.33,16,.33l4.525,8.434c3.517,4.338.241,9.91-5.344,9.93l-33.869-.218c-5.306.019-7.515-5.38-4.6-9.811Z" transform="translate(-0.74 -86.929)" fill="#3360ff"/>
              <path id="Trazado_113617" data-name="Trazado 113617" d="M28.653,157.218a1.005,1.005,0,1,1-1.009-1,1.005,1.005,0,0,1,1.009,1" transform="translate(-16.173 -94.83)" fill="#6d8afb"/>
              <path id="Trazado_113618" data-name="Trazado 113618" d="M87.669,156.066a1.005,1.005,0,1,1-1.009-1,1.005,1.005,0,0,1,1.009,1" transform="translate(-51.998 -94.13)" fill="#6d8afb"/>
              <path id="Trazado_113619" data-name="Trazado 113619" d="M75.414,124.954a.944.944,0,1,1-.948-.941.944.944,0,0,1,.948.941" transform="translate(-44.633 -75.281)" fill="#6d8afb"/>
              <path id="Trazado_113620" data-name="Trazado 113620" d="M74.041,180.05a.944.944,0,1,1-.948-.941.944.944,0,0,1,.948.941" transform="translate(-43.799 -108.727)" fill="#6d8afb"/>
              <path id="Trazado_113621" data-name="Trazado 113621" d="M58.7,109.839a.945.945,0,1,1-.948-.941.944.944,0,0,1,.948.941" transform="translate(-34.487 -66.106)" fill="#6d8afb"/>
              <path id="Trazado_113622" data-name="Trazado 113622" d="M19.708,175.931a1.649,1.649,0,1,1-1.654-1.643,1.649,1.649,0,0,1,1.654,1.643" transform="translate(-9.962 -105.8)" fill="#6d8afb"/>
              <path id="Trazado_113623" data-name="Trazado 113623" d="M46.691,130.126a1.407,1.407,0,1,1-1.413-1.4,1.407,1.407,0,0,1,1.413,1.4" transform="translate(-26.635 -78.141)" fill="#6d8afb"/>
              <path id="Trazado_113624" data-name="Trazado 113624" d="M58.9,86.95a.584.584,0,1,1-.586-.582.584.584,0,0,1,.586.582" transform="translate(-35.044 -52.429)" fill="#6d8afb"/>
              <path id="Trazado_113625" data-name="Trazado 113625" d="M101.2,175.928a1.957,1.957,0,1,1-1.964-1.95,1.957,1.957,0,0,1,1.964,1.95" transform="translate(-59.055 -105.612)" fill="#6d8afb"/>
              <path id="Trazado_113626" data-name="Trazado 113626" d="M51.03,161.959a1.786,1.786,0,1,1-1.792-1.779,1.786,1.786,0,0,1,1.792,1.779" transform="translate(-28.809 -97.236)" fill="#6d8afb"/>
              <g id="Grupo_80147" data-name="Grupo 80147" transform="translate(24.866 3.809)" opacity="0.18">
                <g id="Grupo_80146" data-name="Grupo 80146">
                  <g id="Grupo_80145" data-name="Grupo 80145" clip-path="url(#clip-path-4)">
                    <path id="Trazado_113627" data-name="Trazado 113627" d="M63.28,9.694,63.5,82.33l16.962-.1A5.73,5.73,0,0,0,84.8,72.79l-19-31.633.249-27.911c.013-1.429-1.117-3.425-2.545-3.472Z" transform="translate(-63.28 -9.694)" fill="#fff"/>
                  </g>
                </g>
              </g>
              <path id="Trazado_113628" data-name="Trazado 113628" d="M27.951,41.1,27.86,12.829c0-1.336-1.092-3.233-2.428-3.228l-3.893.02c-1.336,0-2.416,1.909-2.411,3.246l.092,28.271L1.748,73.162A6.111,6.111,0,0,0,7.072,82.31l34.817-.132a6.111,6.111,0,0,0,5.1-9.448Z" transform="translate(-0.565 -5.828)" fill="none" stroke="#fff" stroke-linecap="round" stroke-linejoin="round" stroke-width="1.862"/>
              <path id="Trazado_113629" data-name="Trazado 113629" d="M53.327,7.68H40.5a1.029,1.029,0,0,1-1.029-1.029V1.028A1.029,1.029,0,0,1,40.5,0H53.327a1.029,1.029,0,0,1,1.029,1.028V6.652A1.029,1.029,0,0,1,53.327,7.68" transform="translate(-23.962 0)" fill="#e16495"/>
              <rect id="Rectángulo_33784" data-name="Rectángulo 33784" width="2.517" height="5.233" transform="translate(17.936 1.157)" fill="#f880b5"/>
            </g>
          </g>
        </g>
      </g>
    </g>
    <g id="Elipse_4713" data-name="Elipse 4713" transform="translate(1046.333 476) rotate(180)" fill="none" stroke="#fff" stroke-width="4" stroke-dasharray="100">
      <circle cx="57" cy="57" r="57" stroke="none"/>
      <circle cx="57" cy="57" r="55" fill="none"/>
    </g>
  </g>
</svg>
