<svg xmlns="http://www.w3.org/2000/svg" xmlns:xlink="http://www.w3.org/1999/xlink" width="114" height="114" viewBox="0 0 114 114">
  <defs>
    <clipPath id="clip-path">
      <rect id="Rectángulo_33799" data-name="Rectángulo 33799" width="78.001" height="66.791" fill="none"/>
    </clipPath>
  </defs>
  <g id="Grupo_1044290" data-name="Grupo 1044290" transform="translate(-1184.333 -399)">
    <g id="Grupo_80167" data-name="Grupo 80167" transform="translate(-71.987 19.718)">
      <g id="Grupo_80166" data-name="Grupo 80166" transform="translate(1274.32 403.282)">
        <g id="Grupo_80165" data-name="Grupo 80165" transform="translate(0 0)" clip-path="url(#clip-path)">
          <path id="Trazado_113651" data-name="Trazado 113651" d="M71.763,74.094H6.237A6.237,6.237,0,0,1,0,67.856V26.945a6.237,6.237,0,0,1,6.237-6.238H71.763A6.237,6.237,0,0,1,78,26.945V67.856a6.237,6.237,0,0,1-6.237,6.237" transform="translate(0 -7.303)" fill="#7f6c93"/>
          <rect id="Rectángulo_33797" data-name="Rectángulo 33797" width="5.654" height="18.56" transform="translate(36.09 41.079)" fill="#efeee4"/>
          <rect id="Rectángulo_33798" data-name="Rectángulo 33798" width="18.56" height="5.654" transform="translate(29.637 47.532)" fill="#efeee4"/>
          <path id="Trazado_113652" data-name="Trazado 113652" d="M34.9,14.365V8.4a5.673,5.673,0,0,1,5.673-5.673H62.043A5.673,5.673,0,0,1,67.717,8.4v5.968" transform="translate(-12.307 -0.96)" fill="none" stroke="#423451" stroke-miterlimit="10" stroke-width="5.445"/>
          <line id="Línea_160" data-name="Línea 160" y2="35.743" transform="translate(5.821 31.048)" fill="none" stroke="#584569" stroke-miterlimit="10" stroke-width="0.778"/>
          <line id="Línea_161" data-name="Línea 161" y2="35.743" transform="translate(72.346 31.048)" fill="none" stroke="#584569" stroke-miterlimit="10" stroke-width="0.778"/>
          <path id="Trazado_113653" data-name="Trazado 113653" d="M72.941,20.707H7.415A5.99,5.99,0,0,0,3.34,22.329V38.164A5.764,5.764,0,0,0,8.912,44.1H71.278a5.764,5.764,0,0,0,5.572-5.938V22.178a5.974,5.974,0,0,0-3.909-1.471" transform="translate(-1.178 -7.303)" fill="#423451"/>
          <path id="Trazado_113654" data-name="Trazado 113654" d="M72.941,20.707H7.415A6.2,6.2,0,0,0,3.34,22.23V37.088A5.572,5.572,0,0,0,8.912,42.66H71.278a5.572,5.572,0,0,0,5.572-5.572v-15a6.208,6.208,0,0,0-3.909-1.381" transform="translate(-1.178 -7.303)" fill="#584569"/>
          <path id="Trazado_113655" data-name="Trazado 113655" d="M20.237,56.787h0a2,2,0,0,1-2-2V49.958a2,2,0,1,1,3.991,0v4.833a2,2,0,0,1-2,2" transform="translate(-6.433 -16.914)" fill="#efeee4"/>
          <path id="Trazado_113656" data-name="Trazado 113656" d="M99.026,56.787h0a2,2,0,0,1-2-2V49.958a2,2,0,1,1,3.991,0v4.833a2,2,0,0,1-2,2" transform="translate(-34.219 -16.914)" fill="#efeee4"/>
        </g>
      </g>
    </g>
    <g id="Elipse_4714" data-name="Elipse 4714" transform="translate(1298.333 513) rotate(180)" fill="none" stroke="#fff" stroke-width="4" stroke-dasharray="100">
      <circle cx="57" cy="57" r="57" stroke="none"/>
      <circle cx="57" cy="57" r="55" fill="none"/>
    </g>
  </g>
</svg>
