<svg xmlns="http://www.w3.org/2000/svg" width="107" height="82" viewBox="0 0 107 82">
  <g id="Grupo_1044210" data-name="Grupo 1044210" transform="translate(-221 -9545)">
    <circle id="Elipse_4842" data-name="Elipse 4842" cx="26" cy="26" r="26" transform="translate(276 9575)" fill="#a9c8fd"/>
    <circle id="Elipse_4843" data-name="Elipse 4843" cx="18.5" cy="18.5" r="18.5" transform="translate(221 9545)" fill="#fde9bc"/>
    <g id="www" transform="translate(239.207 9549.552)">
      <circle id="Elipse_4836" data-name="Elipse 4836" cx="35.656" cy="35.656" r="35.656" transform="translate(0.759 0.79)" fill="#c3e1f5"/>
      <circle id="Elipse_4837" data-name="Elipse 4837" cx="28.828" cy="28.828" r="28.828" transform="translate(7.586 7.617)" fill="#abd9e6"/>
      <path id="Trazado_772035" data-name="Trazado 772035" d="M84.621,12.308a5.311,5.311,0,1,1-10.621,0,5.561,5.561,0,0,1,.121-1.138,5.311,5.311,0,0,1,10.378,0,5.562,5.562,0,0,1,.121,1.138Z" transform="translate(-17.86 -1.656)" fill="#dc5d6b"/>
      <ellipse id="Elipse_4838" data-name="Elipse 4838" cx="5.189" cy="4.173" rx="5.189" ry="4.173" transform="translate(56.261 5.341)" fill="#e47980"/>
      <path id="Trazado_772036" data-name="Trazado 772036" d="M18.621,12.308A5.311,5.311,0,1,1,8,12.308a5.561,5.561,0,0,1,.121-1.138,5.311,5.311,0,0,1,10.378,0A5.561,5.561,0,0,1,18.621,12.308Z" transform="translate(-1.931 -1.656)" fill="#dc5d6b"/>
      <ellipse id="Elipse_4839" data-name="Elipse 4839" cx="5.189" cy="4.173" rx="5.189" ry="4.173" transform="translate(6.191 5.341)" fill="#e47980"/>
      <path id="Trazado_772037" data-name="Trazado 772037" d="M18.621,80.308A5.311,5.311,0,0,1,8,80.308a5.561,5.561,0,0,1,.121-1.138,5.311,5.311,0,0,1,10.378,0A5.561,5.561,0,0,1,18.621,80.308Z" transform="translate(-1.931 -18.068)" fill="#dc5d6b"/>
      <ellipse id="Elipse_4840" data-name="Elipse 4840" cx="5.189" cy="4.173" rx="5.189" ry="4.173" transform="translate(6.191 56.929)" fill="#e47980"/>
      <path id="Trazado_772038" data-name="Trazado 772038" d="M84.621,80.308a5.311,5.311,0,1,1-10.621,0,5.561,5.561,0,0,1,.121-1.138,5.311,5.311,0,0,1,10.378,0,5.562,5.562,0,0,1,.121,1.138Z" transform="translate(-17.86 -18.068)" fill="#dc5d6b"/>
      <ellipse id="Elipse_4841" data-name="Elipse 4841" cx="5.189" cy="4.173" rx="5.189" ry="4.173" transform="translate(56.261 56.929)" fill="#e47980"/>
      <path id="Trazado_772039" data-name="Trazado 772039" d="M61.967,41.483A20.286,20.286,0,1,1,56.026,26.94,20.483,20.483,0,0,1,61.967,41.483Z" transform="translate(-5.068 -5.037)" fill="#7190c4"/>
      <path id="Trazado_772040" data-name="Trazado 772040" d="M62.94,41.482a20.286,20.286,0,0,1-3.08,10.8A20.483,20.483,0,0,1,28.088,26.893a20.7,20.7,0,0,1,2.048-1.775,20.483,20.483,0,0,1,32.8,15.871Z" transform="translate(-6.042 -5.036)" fill="#89a3ce"/>
      <path id="Trazado_772041" data-name="Trazado 772041" d="M64.377,40.989a18.587,18.587,0,0,1-32.8-15.871,20.483,20.483,0,0,1,32.8,15.871Z" transform="translate(-7.478 -5.036)" fill="#a5b9db"/>
      <path id="Trazado_772042" data-name="Trazado 772042" d="M14,40H65.588V52.138H14Z" transform="translate(-3.379 -9.623)" fill="#fabf40"/>
      <g id="Grupo_1043070" data-name="Grupo 1043070" transform="translate(0 0)">
        <path id="Trazado_772044" data-name="Trazado 772044" d="M13.759,34.424a.759.759,0,0,0-.759.759V47.321a.759.759,0,0,0,.759.759h5.682a21.242,21.242,0,0,0,40.208,0h5.7a.759.759,0,0,0,.759-.759V35.183a.759.759,0,0,0-.759-.759H59.664a21.242,21.242,0,0,0-40.208,0ZM39.553,60.977c-2.595,0-5.03-3.035-6.593-7.776a38.479,38.479,0,0,1,13.185,0c-1.563,4.742-4,7.776-6.593,7.776Zm8.095-7.488a26.553,26.553,0,0,1,5.682,1.9,19.558,19.558,0,0,1-9.589,5.128,17.449,17.449,0,0,0,3.907-7.033ZM35.365,60.522a19.558,19.558,0,0,1-9.589-5.128,26.553,26.553,0,0,1,5.682-1.9A17.449,17.449,0,0,0,35.365,60.522Zm4.188-9.407a40.3,40.3,0,0,0-7.033.614,34.267,34.267,0,0,1-.759-3.649h15.6a34.264,34.264,0,0,1-.759,3.649,40.3,40.3,0,0,0-7.048-.615ZM30.214,48.08a35.655,35.655,0,0,0,.812,3.937,27.311,27.311,0,0,0-6.342,2.215,19.725,19.725,0,0,1-3.634-6.153Zm24.208,6.153a27.311,27.311,0,0,0-6.342-2.215,35.656,35.656,0,0,0,.812-3.937h9.164A19.725,19.725,0,0,1,54.422,54.232Zm10.166-7.67H14.517V35.942H64.588ZM39.553,21.527c2.595,0,5.03,3.035,6.593,7.776a38.759,38.759,0,0,1-6.593.569A38.759,38.759,0,0,1,32.96,29.3C34.523,24.562,36.958,21.527,39.553,21.527Zm-8.095,7.488a26.552,26.552,0,0,1-5.682-1.9,19.558,19.558,0,0,1,9.589-5.128,17.449,17.449,0,0,0-3.907,7.033ZM43.74,21.983a19.558,19.558,0,0,1,9.589,5.128,26.553,26.553,0,0,1-5.682,1.9,17.449,17.449,0,0,0-3.907-7.033ZM39.553,31.39a40.3,40.3,0,0,0,7.033-.615,34.268,34.268,0,0,1,.759,3.649h-15.6a34.268,34.268,0,0,1,.759-3.649,40.3,40.3,0,0,0,7.048.615Zm9.339,3.035a35.655,35.655,0,0,0-.812-3.937,27.311,27.311,0,0,0,6.342-2.215,19.725,19.725,0,0,1,3.634,6.153ZM24.683,28.272a27.311,27.311,0,0,0,6.342,2.215,35.656,35.656,0,0,0-.812,3.937H21.049A19.725,19.725,0,0,1,24.683,28.272Z" transform="translate(-3.138 -4.806)" fill="#39426a"/>
        <path id="Trazado_772045" data-name="Trazado 772045" d="M51.127,43.045a.759.759,0,0,0-.979.448l-1.722,4.6-1.464-2.443a.759.759,0,0,0-1.3,0L44.193,48.09l-1.722-4.6a.761.761,0,1,0-1.426.531l2.276,6.069a.759.759,0,0,0,1.366.121l1.623-2.708,1.624,2.708a.759.759,0,0,0,.652.372h.068a.759.759,0,0,0,.645-.493l2.276-6.069a.759.759,0,0,0-.448-.979Z" transform="translate(-9.895 -10.346)" fill="#39426a"/>
        <path id="Trazado_772046" data-name="Trazado 772046" d="M31.127,43.045a.759.759,0,0,0-.979.448l-1.722,4.6-1.464-2.443a.759.759,0,0,0-1.3,0L24.193,48.09l-1.722-4.6a.761.761,0,1,0-1.426.531l2.276,6.069a.759.759,0,0,0,1.366.121l1.624-2.708,1.623,2.708a.759.759,0,0,0,.652.372h.068a.759.759,0,0,0,.645-.493l2.276-6.069a.759.759,0,0,0-.448-.979Z" transform="translate(-5.068 -10.346)" fill="#39426a"/>
        <path id="Trazado_772047" data-name="Trazado 772047" d="M63.321,50.093a.759.759,0,0,0,1.366.121l1.623-2.708,1.624,2.708a.759.759,0,0,0,.652.372h.068a.759.759,0,0,0,.645-.493l2.276-6.069a.761.761,0,1,0-1.426-.531l-1.722,4.6-1.464-2.443a.759.759,0,0,0-1.3,0L64.193,48.09l-1.722-4.6a.761.761,0,1,0-1.426.531Z" transform="translate(-14.722 -10.347)" fill="#39426a"/>
        <path id="Trazado_772048" data-name="Trazado 772048" d="M92.618,62.576a.767.767,0,0,0,.228-1.517.767.767,0,1,0-.228,1.517Z" transform="translate(-22.171 -14.697)" fill="#39426a"/>
        <path id="Trazado_772049" data-name="Trazado 772049" d="M94.4,58.046a.759.759,0,1,0-.9.577.652.652,0,0,0,.167,0,.759.759,0,0,0,.736-.577Z" transform="translate(-22.423 -13.756)" fill="#39426a"/>
        <path id="Trazado_772050" data-name="Trazado 772050" d="M89.141,25.442a.761.761,0,0,0,.357,1.434.842.842,0,0,0,.349-.083.762.762,0,1,0-.706-1.35Z" transform="translate(-21.417 -6.089)" fill="#39426a"/>
        <path id="Trazado_772051" data-name="Trazado 772051" d="M94.253,40.878a.76.76,0,1,0,.091,1.517h.1a.765.765,0,0,0-.19-1.517Z" transform="translate(-22.576 -9.834)" fill="#39426a"/>
        <path id="Trazado_772052" data-name="Trazado 772052" d="M95.115,53.955a.765.765,0,1,0-.865.652h.1a.759.759,0,0,0,.766-.652Z" transform="translate(-22.589 -12.783)" fill="#39426a"/>
        <path id="Trazado_772053" data-name="Trazado 772053" d="M93.473,36.864a.763.763,0,0,0,.159,1.517H93.8a.776.776,0,0,0-.326-1.517Z" transform="translate(-22.395 -8.862)" fill="#39426a"/>
        <path id="Trazado_772054" data-name="Trazado 772054" d="M87.047,21.963a.766.766,0,0,0,.41,1.411.713.713,0,0,0,.4-.121.762.762,0,0,0-.812-1.29Z" transform="translate(-20.923 -5.242)" fill="#39426a"/>
        <path id="Trazado_772055" data-name="Trazado 772055" d="M95.517,49.829a.759.759,0,1,0-.759.743.759.759,0,0,0,.759-.743Z" transform="translate(-22.687 -11.812)" fill="#39426a"/>
        <path id="Trazado_772056" data-name="Trazado 772056" d="M90.943,66.377a.759.759,0,1,0-.426-.926A.758.758,0,0,0,90.943,66.377Z" transform="translate(-21.838 -15.638)" fill="#39426a"/>
        <path id="Trazado_772057" data-name="Trazado 772057" d="M86.832,72.519a.756.756,0,1,0,1.039-.235A.759.759,0,0,0,86.832,72.519Z" transform="translate(-20.928 -17.387)" fill="#39426a"/>
        <path id="Trazado_772058" data-name="Trazado 772058" d="M90.933,29.122a.759.759,0,1,0,.986.41.759.759,0,0,0-.986-.41Z" transform="translate(-21.836 -6.984)" fill="#39426a"/>
        <path id="Trazado_772059" data-name="Trazado 772059" d="M89.508,70.137a.757.757,0,1,0-.349-.083A.759.759,0,0,0,89.508,70.137Z" transform="translate(-21.42 -16.531)" fill="#39426a"/>
        <path id="Trazado_772060" data-name="Trazado 772060" d="M92.384,33a.614.614,0,1,1,0,.03Z" transform="translate(-22.171 -7.932)" fill="#39426a"/>
        <path id="Trazado_772061" data-name="Trazado 772061" d="M94.669,44.94a.759.759,0,1,0,.759.759A.759.759,0,0,0,94.669,44.94Z" transform="translate(-22.666 -10.816)" fill="#39426a"/>
        <path id="Trazado_772062" data-name="Trazado 772062" d="M1.173,54.648h.091a.759.759,0,1,0-.091,0Z" transform="translate(-0.111 -12.793)" fill="#39426a"/>
        <path id="Trazado_772063" data-name="Trazado 772063" d="M4.3,66.456a.762.762,0,1,0-.7-.47A.759.759,0,0,0,4.3,66.456Z" transform="translate(-0.855 -15.641)" fill="#39426a"/>
        <path id="Trazado_772064" data-name="Trazado 772064" d="M6.021,70.15a.7.7,0,0,0,.349-.083.755.755,0,1,0-.349.083Z" transform="translate(-1.272 -16.529)" fill="#39426a"/>
        <path id="Trazado_772065" data-name="Trazado 772065" d="M8.457,21.961a.759.759,0,1,0,.329.857A.759.759,0,0,0,8.457,21.961Z" transform="translate(-1.758 -5.24)" fill="#39426a"/>
        <path id="Trazado_772066" data-name="Trazado 772066" d="M2.87,62.616a.761.761,0,1,0-.228-1.487.767.767,0,0,0,.228,1.517Z" transform="translate(-0.48 -14.714)" fill="#39426a"/>
        <path id="Trazado_772067" data-name="Trazado 772067" d="M1.831,58.662H1.99a.776.776,0,1,0-.326-1.517.763.763,0,0,0,.167,1.517Z" transform="translate(-0.237 -13.757)" fill="#39426a"/>
        <path id="Trazado_772068" data-name="Trazado 772068" d="M.855,50.577a.759.759,0,1,0,0-1.517.759.759,0,1,0,.038,1.517Z" transform="translate(-0.028 -11.81)" fill="#39426a"/>
        <path id="Trazado_772069" data-name="Trazado 772069" d="M4.578,29.142a1.016,1.016,0,1,0,0-.008Z" transform="translate(-0.853 -6.989)" fill="#39426a"/>
        <path id="Trazado_772070" data-name="Trazado 772070" d="M1.115,37.459a.759.759,0,0,0,.584.9h.159a.763.763,0,0,0,.159-1.517.759.759,0,0,0-.9.615Z" transform="translate(-0.265 -8.858)" fill="#39426a"/>
        <path id="Trazado_772071" data-name="Trazado 772071" d="M5.342,25.79a.759.759,0,0,0,.319,1.024.842.842,0,0,0,.349.083.758.758,0,1,0-.668-1.108Z" transform="translate(-1.268 -6.095)" fill="#39426a"/>
        <path id="Trazado_772072" data-name="Trazado 772072" d="M.4,41.558a.759.759,0,0,0,.652.85h.1A.759.759,0,1,0,.39,41.55Z" transform="translate(-0.094 -9.838)" fill="#39426a"/>
        <path id="Trazado_772073" data-name="Trazado 772073" d="M2.178,33.449a.759.759,0,0,0,.493.948.759.759,0,0,0,.228,0,.759.759,0,1,0-.759-.986Z" transform="translate(-0.517 -7.905)" fill="#39426a"/>
        <path id="Trazado_772074" data-name="Trazado 772074" d="M0,45.689a.759.759,0,1,0,.759-.759A.759.759,0,0,0,0,45.689Z" transform="translate(0 -10.813)" fill="#39426a"/>
        <path id="Trazado_772075" data-name="Trazado 772075" d="M7.66,72.3a.746.746,0,1,0,1.047.2.759.759,0,0,0-1.047-.2Z" transform="translate(-1.765 -17.388)" fill="#39426a"/>
        <path id="Trazado_772076" data-name="Trazado 772076" d="M17.853,8.352a6.069,6.069,0,1,0-4.787,9.787,6.008,6.008,0,0,0,3.717-1.282l3.33,3.338a.762.762,0,1,0,1.077-1.077l-3.338-3.33a6.031,6.031,0,0,0,0-7.435ZM8.514,12.069a4.552,4.552,0,1,1,4.552,4.552,4.552,4.552,0,0,1-4.552-4.552Z" transform="translate(-1.686 -1.417)" fill="#39426a"/>
        <path id="Trazado_772077" data-name="Trazado 772077" d="M49.7,1.507a.759.759,0,0,0,.759-.759A.759.759,0,0,0,48.94.688a.759.759,0,0,0,.759.759Z" transform="translate(-11.812 0.041)" fill="#39426a"/>
        <path id="Trazado_772078" data-name="Trazado 772078" d="M53.577,1.876a.724.724,0,1,0-.091,0Z" transform="translate(-12.747 -0.054)" fill="#39426a"/>
        <path id="Trazado_772079" data-name="Trazado 772079" d="M68.125,6.23a.762.762,0,1,0-.345-1.02.759.759,0,0,0,.345,1.02Z" transform="translate(-16.34 -1.124)" fill="#39426a"/>
        <path id="Trazado_772080" data-name="Trazado 772080" d="M64.88,4.733a.806.806,0,1,0-.273-.053A.7.7,0,0,0,64.88,4.733Z" transform="translate(-15.47 -0.742)" fill="#39426a"/>
        <path id="Trazado_772081" data-name="Trazado 772081" d="M61.207,3.507a.766.766,0,0,0,.212-1.517.76.76,0,1,0-.432,1.457A.759.759,0,0,0,61.207,3.507Z" transform="translate(-14.588 -0.442)" fill="#39426a"/>
        <path id="Trazado_772082" data-name="Trazado 772082" d="M45.838,1.527A.759.759,0,0,0,46.6.768.759.759,0,1,0,45.08.829a.759.759,0,0,0,.759.759Z" transform="translate(-10.88 0.022)" fill="#39426a"/>
        <path id="Trazado_772083" data-name="Trazado 772083" d="M30.6,4.756A.742.742,0,1,0,29.9,4.27.759.759,0,0,0,30.6,4.756Z" transform="translate(-7.206 -0.757)" fill="#39426a"/>
        <path id="Trazado_772084" data-name="Trazado 772084" d="M41.985,1.869a.772.772,0,1,0-.121.015Z" transform="translate(-9.91 -0.056)" fill="#39426a"/>
        <path id="Trazado_772085" data-name="Trazado 772085" d="M27.038,6.318a.757.757,0,1,0-.683-.425.759.759,0,0,0,.683.425Z" transform="translate(-6.343 -1.128)" fill="#39426a"/>
        <path id="Trazado_772086" data-name="Trazado 772086" d="M38.042,2.512h.152a.759.759,0,0,0,.592-.9.8.8,0,1,0-.743.9Z" transform="translate(-8.978 -0.205)" fill="#39426a"/>
        <path id="Trazado_772087" data-name="Trazado 772087" d="M34.322,3.52a.7.7,0,0,0,.212,0,.759.759,0,1,0-.212,0Z" transform="translate(-8.126 -0.454)" fill="#39426a"/>
        <path id="Trazado_772088" data-name="Trazado 772088" d="M57.422,2.512A.762.762,0,0,0,57.574.995a.774.774,0,0,0-.311,1.517A.569.569,0,0,0,57.422,2.512Z" transform="translate(-13.671 -0.205)" fill="#39426a"/>
        <path id="Trazado_772089" data-name="Trazado 772089" d="M71.89,8.177a.759.759,0,1,0-.394-.114.759.759,0,0,0,.394.114Z" transform="translate(-17.169 -1.576)" fill="#39426a"/>
        <path id="Trazado_772090" data-name="Trazado 772090" d="M23.618,8.185a.764.764,0,1,0-.652-.372A.759.759,0,0,0,23.618,8.185Z" transform="translate(-5.516 -1.577)" fill="#39426a"/>
        <path id="Trazado_772091" data-name="Trazado 772091" d="M37.324,93.6a.759.759,0,0,0,.584.91h.159a.768.768,0,1,0-.743-.91Z" transform="translate(-9.004 -22.41)" fill="#39426a"/>
        <path id="Trazado_772092" data-name="Trazado 772092" d="M22.966,87.678a.491.491,0,1,1,0,.023Z" transform="translate(-5.517 -21.023)" fill="#39426a"/>
        <path id="Trazado_772093" data-name="Trazado 772093" d="M60.951,92.09a.767.767,0,1,0,.22,1.517.683.683,0,0,0,.212,0,.76.76,0,0,0-.432-1.457Z" transform="translate(-14.552 -22.195)" fill="#39426a"/>
        <path id="Trazado_772094" data-name="Trazado 772094" d="M64.617,90.837A.759.759,0,0,0,64.9,92.3a.7.7,0,0,0,.273-.053.759.759,0,0,0-.554-1.411Z" transform="translate(-15.48 -21.883)" fill="#39426a"/>
        <path id="Trazado_772095" data-name="Trazado 772095" d="M57.243,92.995a.763.763,0,1,0,.159,1.517h.152a.774.774,0,0,0-.311-1.517Z" transform="translate(-13.651 -22.41)" fill="#39426a"/>
        <path id="Trazado_772096" data-name="Trazado 772096" d="M68.124,89.285a.759.759,0,1,0,.581-.037.759.759,0,0,0-.581.037Z" transform="translate(-16.339 -21.5)" fill="#39426a"/>
        <path id="Trazado_772097" data-name="Trazado 772097" d="M52.83,94.5a.759.759,0,0,0,.759.66h.091a.759.759,0,1,0-.842-.66Z" transform="translate(-12.751 -22.571)" fill="#39426a"/>
        <path id="Trazado_772098" data-name="Trazado 772098" d="M27.37,89.275a.759.759,0,1,0,.386.436.762.762,0,0,0-.386-.436Z" transform="translate(-6.341 -21.497)" fill="#39426a"/>
        <path id="Trazado_772099" data-name="Trazado 772099" d="M29.894,91.256a.759.759,0,0,0,.432.979.7.7,0,0,0,.273.053.759.759,0,1,0-.706-1.032Z" transform="translate(-7.203 -21.877)" fill="#39426a"/>
        <path id="Trazado_772100" data-name="Trazado 772100" d="M33.56,92.577a.516.516,0,1,0-.03-.03Z" transform="translate(-8.092 -22.174)" fill="#39426a"/>
        <path id="Trazado_772101" data-name="Trazado 772101" d="M48.94,94.758A.742.742,0,1,0,49.63,94a.759.759,0,0,0-.69.759Z" transform="translate(-11.812 -22.656)" fill="#39426a"/>
        <path id="Trazado_772102" data-name="Trazado 772102" d="M45,94.679a.759.759,0,1,0,.759-.759A.759.759,0,0,0,45,94.679Z" transform="translate(-10.861 -22.637)" fill="#39426a"/>
        <path id="Trazado_772103" data-name="Trazado 772103" d="M41.15,94.305a.759.759,0,0,0,.637.842h.091a.759.759,0,1,0-.759-.85Z" transform="translate(-9.925 -22.567)" fill="#39426a"/>
        <path id="Trazado_772104" data-name="Trazado 772104" d="M71.494,87.472a1.592,1.592,0,1,0,.023,0Z" transform="translate(-17.167 -21.067)" fill="#39426a"/>
        <path id="Trazado_772105" data-name="Trazado 772105" d="M73.557,83.064a6.069,6.069,0,1,0,8.58-8.436l-.076-.061a6.031,6.031,0,0,0-7.435,0L71.3,71.229a.762.762,0,0,0-1.077,1.077l3.338,3.33a6.016,6.016,0,0,0,0,7.427ZM82.9,79.347a4.552,4.552,0,1,1-4.552-4.552A4.552,4.552,0,0,1,82.9,79.347Z" transform="translate(-16.894 -17.107)" fill="#39426a"/>
        <path id="Trazado_772106" data-name="Trazado 772106" d="M70.217,20.18a.759.759,0,0,0,1.077,0l3.33-3.338a6.031,6.031,0,0,0,7.435,0l.068-.053a6.062,6.062,0,1,0-8.573-1.024l-3.338,3.33a.759.759,0,0,0,0,1.085ZM78.342,7.5a4.552,4.552,0,1,1-4.552,4.552A4.552,4.552,0,0,1,78.342,7.5Z" transform="translate(-16.892 -1.402)" fill="#39426a"/>
        <path id="Trazado_772107" data-name="Trazado 772107" d="M21.191,71.219a.759.759,0,0,0-1.077,0l-3.33,3.338a6.008,6.008,0,0,0-3.717-1.282,6.069,6.069,0,1,0,4.787,9.787,1.2,1.2,0,0,0,.091-.114,6.069,6.069,0,0,0-.106-7.3l3.338-3.33a.759.759,0,0,0,.015-1.1ZM13.066,83.9a4.552,4.552,0,1,1,4.552-4.552A4.552,4.552,0,0,1,13.066,83.9Z" transform="translate(-1.686 -17.104)" fill="#39426a"/>
      </g>
      <path id="Trazado_772108" data-name="Trazado 772108" d="M83.793,13.552a.759.759,0,0,1-.759-.759,2.276,2.276,0,0,0-2.276-2.276.759.759,0,0,1,0-1.517,3.793,3.793,0,0,1,3.793,3.793A.759.759,0,0,1,83.793,13.552Z" transform="translate(-19.308 -2.141)" fill="#f4929c"/>
      <path id="Trazado_772109" data-name="Trazado 772109" d="M17.793,13.552a.759.759,0,0,1-.759-.759,2.276,2.276,0,0,0-2.276-2.276.759.759,0,1,1,0-1.517,3.793,3.793,0,0,1,3.793,3.793A.759.759,0,0,1,17.793,13.552Z" transform="translate(-3.379 -2.141)" fill="#f4929c"/>
      <path id="Trazado_772110" data-name="Trazado 772110" d="M83.793,81.552a.759.759,0,0,1-.759-.759,2.276,2.276,0,0,0-2.276-2.276.759.759,0,0,1,0-1.517,3.793,3.793,0,0,1,3.793,3.793A.759.759,0,0,1,83.793,81.552Z" transform="translate(-19.308 -18.553)" fill="#f4929c"/>
      <path id="Trazado_772111" data-name="Trazado 772111" d="M17.793,81.552a.759.759,0,0,1-.759-.759,2.276,2.276,0,0,0-2.276-2.276.759.759,0,1,1,0-1.517,3.793,3.793,0,0,1,3.793,3.793A.759.759,0,0,1,17.793,81.552Z" transform="translate(-3.379 -18.553)" fill="#f4929c"/>
    </g>
  </g>
</svg>
