<svg xmlns="http://www.w3.org/2000/svg" xmlns:xlink="http://www.w3.org/1999/xlink" width="125.335" height="125.335" viewBox="0 0 125.335 125.335">
  <defs>
    <clipPath id="clip-path">
      <path id="path1659" d="M0-682.665H125.335V-557.33H0Z" transform="translate(0 682.665)"/>
    </clipPath>
  </defs>
  <g id="g1653" transform="translate(0 682.665)">
    <g id="g1655" transform="translate(0 -682.665)">
      <g id="g1657" transform="translate(0 0)" clip-path="url(#clip-path)">
        <g id="g1663" transform="translate(65.174 12.077)">
          <path id="path1665" d="M-67.069-77.358H-79.838a2.314,2.314,0,0,1-2.314-2.314V-92.441a2.314,2.314,0,0,1,2.314-2.314h12.769a2.314,2.314,0,0,1,2.314,2.314v12.769a2.314,2.314,0,0,1-2.314,2.314" transform="translate(82.152 94.754)" fill="#fee45a"/>
        </g>
        <g id="g1667" transform="translate(65.174 40.223)">
          <path id="path1669" d="M-67.069-77.358H-79.838a2.314,2.314,0,0,1-2.314-2.314V-92.441a2.314,2.314,0,0,1,2.314-2.314h12.769a2.314,2.314,0,0,1,2.314,2.314v12.769a2.314,2.314,0,0,1-2.314,2.314" transform="translate(82.152 94.754)" fill="#fee45a"/>
        </g>
        <g id="g1671" transform="translate(65.174 68.368)">
          <path id="path1673" d="M-67.069-77.358H-79.838a2.314,2.314,0,0,1-2.314-2.314V-92.441a2.314,2.314,0,0,1,2.314-2.314h12.769a2.314,2.314,0,0,1,2.314,2.314v12.769a2.314,2.314,0,0,1-2.314,2.314" transform="translate(82.152 94.754)" fill="#fee45a"/>
        </g>
        <g id="g1675" transform="translate(65.174 96.514)">
          <path id="path1677" d="M-67.069-77.358H-79.838a2.314,2.314,0,0,1-2.314-2.314V-92.441a2.314,2.314,0,0,1,2.314-2.314h12.769a2.314,2.314,0,0,1,2.314,2.314v12.769a2.314,2.314,0,0,1-2.314,2.314" transform="translate(82.152 94.754)" fill="#fee45a"/>
        </g>
        <g id="g1679" transform="translate(75.196 12.076)">
          <path id="path1681" d="M-32.787-10.3V2.471A2.313,2.313,0,0,1-35.1,4.784h-5.06a2.315,2.315,0,0,0,2.316-2.313V-10.3a2.317,2.317,0,0,0-2.316-2.316h5.06A2.315,2.315,0,0,1-32.787-10.3" transform="translate(40.16 12.613)" fill="#fed402"/>
        </g>
        <g id="g1683" transform="translate(75.196 40.223)">
          <path id="path1685" d="M-32.787-10.287V2.482A2.314,2.314,0,0,1-35.1,4.8h-5.06a2.316,2.316,0,0,0,2.316-2.316V-10.287A2.315,2.315,0,0,0-40.16-12.6h5.06a2.313,2.313,0,0,1,2.313,2.313" transform="translate(40.16 12.6)" fill="#fed402"/>
        </g>
        <g id="g1687" transform="translate(75.196 68.369)">
          <path id="path1689" d="M-32.787-10.287V2.482A2.313,2.313,0,0,1-35.1,4.8h-5.06a2.315,2.315,0,0,0,2.316-2.313V-10.287A2.315,2.315,0,0,0-40.16-12.6h5.06a2.313,2.313,0,0,1,2.313,2.313" transform="translate(40.16 12.6)" fill="#fed402"/>
        </g>
        <g id="g1691" transform="translate(75.196 96.513)">
          <path id="path1693" d="M-32.787-10.287V2.484A2.313,2.313,0,0,1-35.1,4.8h-5.06a2.315,2.315,0,0,0,2.316-2.313V-10.287A2.315,2.315,0,0,0-40.16-12.6h5.06a2.313,2.313,0,0,1,2.313,2.313" transform="translate(40.16 12.6)" fill="#fed402"/>
        </g>
        <g id="g1695" transform="translate(63.338 10.241)">
          <path id="path1697" d="M-8.765-83.686h-3.8A1.836,1.836,0,0,1-14.4-85.522a1.836,1.836,0,0,1,1.836-1.836h3.8a.469.469,0,0,0,.338-.14.469.469,0,0,0,.14-.338V-100.6a.478.478,0,0,0-.478-.478H-21.534a.478.478,0,0,0-.478.478v12.769a.478.478,0,0,0,.478.478h.566a1.836,1.836,0,0,1,1.836,1.836,1.836,1.836,0,0,1-1.836,1.836h-.566a4.154,4.154,0,0,1-4.15-4.15V-100.6a4.154,4.154,0,0,1,4.15-4.15H-8.765a4.154,4.154,0,0,1,4.15,4.15v12.769A4.123,4.123,0,0,1-5.831-84.9,4.123,4.123,0,0,1-8.765-83.686Z" transform="translate(25.684 104.754)"/>
        </g>
        <g id="g1699" transform="translate(70.008 9.588)">
          <path id="path1701" d="M-3.687-36.226a3.243,3.243,0,0,1-2.32-.967l-3.46-3.49a1.836,1.836,0,0,1,.011-2.6,1.836,1.836,0,0,1,2.6.011l3.17,3.2L6.746-50.857a1.836,1.836,0,0,1,2.6-.043,1.836,1.836,0,0,1,.043,2.6L-1.339-37.221a3.243,3.243,0,0,1-2.328,1Z" transform="translate(10 51.416)"/>
        </g>
        <g id="g1703" transform="translate(93.092 15.196)">
          <path id="path1705" d="M-99.6-6.328h-20.563A1.836,1.836,0,0,1-122-8.164,1.836,1.836,0,0,1-120.164-10H-99.6a1.836,1.836,0,0,1,1.836,1.836A1.836,1.836,0,0,1-99.6-6.328Z" transform="translate(122 10)"/>
        </g>
        <g id="g1707" transform="translate(93.092 22.683)">
          <path id="path1709" d="M-99.6-6.328h-20.563A1.836,1.836,0,0,1-122-8.164,1.836,1.836,0,0,1-120.164-10H-99.6a1.836,1.836,0,0,1,1.836,1.836A1.836,1.836,0,0,1-99.6-6.328Z" transform="translate(122 10)"/>
        </g>
        <g id="g1711" transform="translate(63.338 38.387)">
          <path id="path1713" d="M-75.233-83.686H-88a4.154,4.154,0,0,1-4.15-4.15V-100.6a4.154,4.154,0,0,1,4.15-4.15h12.769a4.154,4.154,0,0,1,4.15,4.15v12.769A4.154,4.154,0,0,1-75.233-83.686ZM-88-101.082a.478.478,0,0,0-.478.478v12.769a.478.478,0,0,0,.478.478h12.769a.478.478,0,0,0,.478-.478V-100.6a.478.478,0,0,0-.478-.478Z" transform="translate(92.152 104.754)"/>
        </g>
        <g id="g1715" transform="translate(70.008 37.734)">
          <path id="path1717" d="M-3.688-36.225a3.243,3.243,0,0,1-2.32-.967l-3.461-3.491a1.836,1.836,0,0,1,.011-2.6,1.836,1.836,0,0,1,2.6.011l3.17,3.2L6.746-50.855a1.836,1.836,0,0,1,2.6-.043,1.836,1.836,0,0,1,.043,2.6L-1.339-37.22a3.243,3.243,0,0,1-2.328,1Z" transform="translate(10 51.415)"/>
        </g>
        <g id="g1719" transform="translate(93.092 43.342)">
          <path id="path1721" d="M-99.6-6.328h-20.563A1.836,1.836,0,0,1-122-8.164,1.836,1.836,0,0,1-120.164-10H-99.6a1.836,1.836,0,0,1,1.836,1.836A1.836,1.836,0,0,1-99.6-6.328Z" transform="translate(122 10)"/>
        </g>
        <g id="g1723" transform="translate(93.092 50.828)">
          <path id="path1725" d="M-99.6-6.328h-20.563A1.836,1.836,0,0,1-122-8.164,1.836,1.836,0,0,1-120.164-10H-99.6a1.836,1.836,0,0,1,1.836,1.836A1.836,1.836,0,0,1-99.6-6.328Z" transform="translate(122 10)"/>
        </g>
        <g id="g1727" transform="translate(63.338 66.532)">
          <path id="path1729" d="M-75.233-83.686H-88a4.154,4.154,0,0,1-4.15-4.15V-100.6a4.154,4.154,0,0,1,4.15-4.15h12.769a4.154,4.154,0,0,1,4.15,4.15v12.769A4.154,4.154,0,0,1-75.233-83.686ZM-88-101.082a.478.478,0,0,0-.478.478v12.769a.478.478,0,0,0,.478.478h12.769a.478.478,0,0,0,.478-.478V-100.6a.478.478,0,0,0-.478-.478Z" transform="translate(92.152 104.754)"/>
        </g>
        <g id="g1731" transform="translate(70.008 65.879)">
          <path id="path1733" d="M-3.688-36.225a3.243,3.243,0,0,1-2.32-.967l-3.461-3.491a1.836,1.836,0,0,1,.011-2.6,1.836,1.836,0,0,1,2.6.011l3.17,3.2L6.746-50.855a1.836,1.836,0,0,1,2.6-.043,1.836,1.836,0,0,1,.043,2.6L-1.339-37.22a3.243,3.243,0,0,1-2.328,1Z" transform="translate(10 51.415)"/>
        </g>
        <g id="g1735" transform="translate(93.092 71.487)">
          <path id="path1737" d="M-99.6-6.328h-20.563A1.836,1.836,0,0,1-122-8.164,1.836,1.836,0,0,1-120.164-10H-99.6a1.836,1.836,0,0,1,1.836,1.836A1.836,1.836,0,0,1-99.6-6.328Z" transform="translate(122 10)"/>
        </g>
        <g id="g1739" transform="translate(93.092 78.974)">
          <path id="path1741" d="M-99.6-6.328h-20.563A1.836,1.836,0,0,1-122-8.164,1.836,1.836,0,0,1-120.164-10H-99.6a1.836,1.836,0,0,1,1.836,1.836A1.836,1.836,0,0,1-99.6-6.328Z" transform="translate(122 10)"/>
        </g>
        <g id="g1743" transform="translate(63.338 94.678)">
          <path id="path1745" d="M-75.233-83.686H-88a4.154,4.154,0,0,1-4.15-4.15V-100.6a4.154,4.154,0,0,1,4.15-4.15h12.769a4.154,4.154,0,0,1,4.15,4.15v12.769A4.154,4.154,0,0,1-75.233-83.686ZM-88-101.082a.478.478,0,0,0-.478.478v12.769a.478.478,0,0,0,.478.478h12.769a.478.478,0,0,0,.478-.478V-100.6a.478.478,0,0,0-.478-.478Z" transform="translate(92.152 104.754)"/>
        </g>
        <g id="g1747" transform="translate(70.008 94.025)">
          <path id="path1749" d="M-3.688-36.225a3.243,3.243,0,0,1-2.32-.967l-3.461-3.491a1.836,1.836,0,0,1,.011-2.6,1.836,1.836,0,0,1,2.6.011l3.17,3.2L6.746-50.855a1.836,1.836,0,0,1,2.6-.043,1.836,1.836,0,0,1,.043,2.6L-1.339-37.22a3.243,3.243,0,0,1-2.328,1Z" transform="translate(10 51.415)"/>
        </g>
        <g id="g1751" transform="translate(93.092 99.633)">
          <path id="path1753" d="M-99.6-6.328h-20.563A1.836,1.836,0,0,1-122-8.164,1.836,1.836,0,0,1-120.164-10H-99.6a1.836,1.836,0,0,1,1.836,1.836A1.836,1.836,0,0,1-99.6-6.328Z" transform="translate(122 10)"/>
        </g>
        <g id="g1755" transform="translate(93.092 107.119)">
          <path id="path1757" d="M-99.6-6.328h-20.563A1.836,1.836,0,0,1-122-8.164,1.836,1.836,0,0,1-120.164-10H-99.6a1.836,1.836,0,0,1,1.836,1.836A1.836,1.836,0,0,1-99.6-6.328Z" transform="translate(122 10)"/>
        </g>
        <g id="g1759" transform="translate(9.845 29.163)">
          <path id="path1761" d="M-132.489-39.834a2.463,2.463,0,0,1-1.745-2.363v-6.595h-9.83V-42.2a2.463,2.463,0,0,1-1.745,2.363,23.144,23.144,0,0,0-16.476,22.161V.813a5.169,5.169,0,0,0,5.169,5.169A5.169,5.169,0,0,0-151.945.813l.08,38.344a6.357,6.357,0,0,0,6.357,6.356,6.357,6.357,0,0,0,6.356-6.356h.009a6.357,6.357,0,0,0,6.357,6.356,6.356,6.356,0,0,0,6.356-6.356l.08-38.344a5.169,5.169,0,0,0,5.169,5.169A5.169,5.169,0,0,0-116.013.813V-17.673a23.144,23.144,0,0,0-16.476-22.161" transform="translate(162.284 48.792)" fill="#60b8fe"/>
        </g>
        <g id="g1763" transform="translate(32.671 29.163)">
          <path id="path1765" d="M-104.251-138.375v18.487a5.158,5.158,0,0,1-1.513,3.656,5.158,5.158,0,0,1-3.656,1.513,5.134,5.134,0,0,1-2.611-.708,5.1,5.1,0,0,0,1.045-.805,5.158,5.158,0,0,0,1.513-3.656v-18.487c0-8.451-6.036-14.242-14.573-17.3a5.476,5.476,0,0,1-3.648-5.144v-8.67h5.223v6.6a2.461,2.461,0,0,0,1.745,2.362,23.146,23.146,0,0,1,16.476,22.16" transform="translate(127.696 169.493)" fill="#27a5fe"/>
        </g>
        <g id="g1767" transform="translate(18.427 55.712)">
          <path id="path1769" d="M-127.62,57.821a8.181,8.181,0,0,1-6.361-3.035,8.181,8.181,0,0,1-6.361,3.035,8.2,8.2,0,0,1-8.192-8.192V-9.935a1.836,1.836,0,0,1,1.836-1.836,1.836,1.836,0,0,1,1.836,1.836V49.629a4.525,4.525,0,0,0,4.52,4.52,4.526,4.526,0,0,0,4.521-4.52l.009-34.474a1.838,1.838,0,0,1,1.836-1.836,1.836,1.836,0,0,1,1.836,1.836V49.629a4.526,4.526,0,0,0,4.521,4.52,4.525,4.525,0,0,0,4.52-4.52V-9.61a1.836,1.836,0,0,1,1.836-1.836,1.836,1.836,0,0,1,1.836,1.836V49.629A8.2,8.2,0,0,1-127.62,57.821Z" transform="translate(148.534 11.771)"/>
        </g>
        <g id="g1771" transform="translate(8.009 72.337)">
          <path id="path1773" d="M-2.995,3.436A7.013,7.013,0,0,1-10-3.569v-4.6A1.836,1.836,0,0,1-8.164-10,1.836,1.836,0,0,1-6.328-8.164v4.6A3.337,3.337,0,0,0-2.995-.236,3.416,3.416,0,0,0,.412-3.569v-2.88A1.836,1.836,0,0,1,2.248-8.284,1.836,1.836,0,0,1,4.084-6.448v2.88A7.05,7.05,0,0,1-2.995,3.436Z" transform="translate(10 10)"/>
        </g>
        <g id="g1775" transform="translate(8.008 27.327)">
          <path id="path1777" d="M-162.442-206.052a7.044,7.044,0,0,1-7.067-7.005v-2.88a1.836,1.836,0,0,1,1.836-1.836,1.836,1.836,0,0,1,1.836,1.836v2.88a3.368,3.368,0,0,0,3.395,3.333,3.337,3.337,0,0,0,3.333-3.333v-18.486a21.433,21.433,0,0,0-15.167-20.4,4.325,4.325,0,0,1-3.053-4.122v-4.759h-6.158v4.759a4.325,4.325,0,0,1-3.052,4.122,21.433,21.433,0,0,0-15.168,20.4v5.568a1.836,1.836,0,0,1-1.836,1.836,1.836,1.836,0,0,1-1.836-1.836v-5.568A25.129,25.129,0,0,1-187.6-255.462a.629.629,0,0,0,.436-.6v-6.595a1.836,1.836,0,0,1,1.836-1.836h9.83a1.836,1.836,0,0,1,1.836,1.836v6.595a.629.629,0,0,0,.437.605,25.129,25.129,0,0,1,17.784,23.919v18.486A7.013,7.013,0,0,1-162.442-206.052Z" transform="translate(205.38 264.498)"/>
        </g>
        <g id="g1779" transform="translate(16.604 1.867)">
          <path id="path1781" d="M-142.392-71.2A16.011,16.011,0,0,1-158.4-55.185,16.011,16.011,0,0,1-174.414-71.2,16.011,16.011,0,0,1-158.4-87.206,16.011,16.011,0,0,1-142.392-71.2" transform="translate(174.414 87.206)" fill="#fed2a4"/>
        </g>
        <g id="g1783" transform="translate(24.452 2.29)">
          <path id="path1785" d="M-107.5-69.311a16.011,16.011,0,0,1-16.01,16.01,15.923,15.923,0,0,1-8.164-2.235,16.017,16.017,0,0,0,3.666.423,16.01,16.01,0,0,0,16.013-16.01A16,16,0,0,0-119.841-84.9,16.014,16.014,0,0,1-107.5-69.311" transform="translate(131.672 84.898)" fill="#ffbd86"/>
        </g>
        <g id="g1787" transform="translate(14.768 0.031)">
          <path id="path1789" d="M-166.567-97.206A17.867,17.867,0,0,1-148.72-79.36a17.867,17.867,0,0,1-17.847,17.847A17.867,17.867,0,0,1-184.414-79.36,17.867,17.867,0,0,1-166.567-97.206Zm0,32.022A14.191,14.191,0,0,0-152.392-79.36a14.191,14.191,0,0,0-14.175-14.175A14.191,14.191,0,0,0-180.742-79.36,14.191,14.191,0,0,0-166.567-65.185Z" transform="translate(184.414 97.206)"/>
        </g>
        <g id="g1791" transform="translate(27.771 21.92)">
          <path id="path1793" d="M-40.879-4.747a5.938,5.938,0,0,1-4.778-2.381A1.836,1.836,0,0,1-45.3-9.7a1.836,1.836,0,0,1,2.571.359,2.3,2.3,0,0,0,1.847.921,2.3,2.3,0,0,0,1.841-.914,1.836,1.836,0,0,1,2.573-.35,1.836,1.836,0,0,1,.35,2.573A5.94,5.94,0,0,1-40.879-4.747Z" transform="translate(46.027 10.07)"/>
        </g>
      </g>
    </g>
  </g>
</svg>
