<svg xmlns="http://www.w3.org/2000/svg" width="190" height="118" viewBox="0 0 190 118">
  <g id="Grupo_1043069" data-name="Grupo 1043069" transform="translate(-180 -3151)">
    <rect id="mi-hija-no-tiene-miedo-hacer-visita-aqui" width="190" height="85" rx="15" transform="translate(180 3174)" fill="#3bc192"/>
    <circle id="Elipse_4834" data-name="Elipse 4834" cx="44" cy="44" r="44" transform="translate(187 3151)" fill="#fabf40"/>
    <circle id="Elipse_4835" data-name="Elipse 4835" cx="26.5" cy="26.5" r="26.5" transform="translate(300 3216)" fill="#fde9bc"/>
    <g id="informe-medico" transform="translate(221 3162.166)">
      <g id="Grupo_1043067" data-name="Grupo 1043067" transform="translate(2.703 2.82)">
        <g id="Grupo_1043059" data-name="Grupo 1043059" transform="translate(40.874)">
          <path id="Trazado_772020" data-name="Trazado 772020" d="M46.437,12.218v3.406H39.625V12.218a3.406,3.406,0,1,0-6.812,0v3.406H26V12.218a10.218,10.218,0,1,1,20.437,0Z" transform="translate(-26 -2)" fill="#b4dd7f"/>
        </g>
        <g id="Grupo_1043060" data-name="Grupo 1043060" transform="translate(13.625 13.625)">
          <path id="Trazado_772021" data-name="Trazado 772021" d="M83.233,98.56H11.7a1.7,1.7,0,0,1-1.7-1.7V11.7A1.7,1.7,0,0,1,11.7,10H84.936V96.857A1.7,1.7,0,0,1,83.233,98.56Z" transform="translate(-10 -10)" fill="#e6e9ed"/>
        </g>
        <g id="Grupo_1043061" data-name="Grupo 1043061" transform="translate(20.437 20.437)">
          <path id="Trazado_772022" data-name="Trazado 772022" d="M14,14H75.311V88.936H14Z" transform="translate(-14 -14)" fill="#f0d0b4"/>
        </g>
        <g id="Grupo_1043062" data-name="Grupo 1043062" transform="translate(57.905 68.123)">
          <path id="Trazado_772023" data-name="Trazado 772023" d="M53.031,44.555V59.031H36V42H53.031Z" transform="translate(-36 -42)" fill="#fcd770"/>
        </g>
        <g id="Grupo_1043063" data-name="Grupo 1043063" transform="translate(64.717 47.686)">
          <circle id="Elipse_4833" data-name="Elipse 4833" cx="3.406" cy="3.406" r="3.406" transform="translate(0)" fill="#e6e9ed"/>
        </g>
        <g id="Grupo_1043064" data-name="Grupo 1043064" transform="translate(0 30.655)">
          <path id="Trazado_772024" data-name="Trazado 772024" d="M48.273,40.437A15.211,15.211,0,0,1,45.122,45L25.843,64.28l-3.406-3.406-6.812-6.812L6.564,45A15.557,15.557,0,0,1,2,33.982v-.051a15.358,15.358,0,0,1,3.389-9.639A11.367,11.367,0,0,1,14.3,20a11.594,11.594,0,0,1,1.328.085,11.32,11.32,0,0,1,6.744,3.253l.068.068,3.406,3.406,3.474-3.474a11.4,11.4,0,0,1,16.98.954,15.358,15.358,0,0,1,3.389,9.639v.051a15.247,15.247,0,0,1-1.414,6.455Z" transform="translate(-2 -20)" fill="#ff826e"/>
        </g>
        <g id="Grupo_1043065" data-name="Grupo 1043065" transform="translate(68.123 0)">
          <path id="Trazado_772025" data-name="Trazado 772025" d="M76.062,7.109V19.985A23.873,23.873,0,0,1,62.437,41.563a25.606,25.606,0,0,1-3.406,1.311,25.605,25.605,0,0,1-3.406-1.311A23.819,23.819,0,0,1,42.136,22.42,19.278,19.278,0,0,1,42,19.985V7.109a30.215,30.215,0,0,0,8.209-1.124,30.908,30.908,0,0,0,7.613-3.253L59.031,2l1.209.732A30.837,30.837,0,0,0,76.062,7.109Z" transform="translate(-42 -2)" fill="#aab2bd"/>
        </g>
        <g id="Grupo_1043066" data-name="Grupo 1043066" transform="translate(74.936 10.218)">
          <path id="Trazado_772026" data-name="Trazado 772026" d="M66.437,16.515v3.406a1.708,1.708,0,0,1-1.7,1.7H59.625v5.109a1.708,1.708,0,0,1-1.7,1.7H54.515a1.708,1.708,0,0,1-1.7-1.7V21.625H47.7a1.708,1.708,0,0,1-1.7-1.7V16.515a1.708,1.708,0,0,1,1.7-1.7h5.109V9.7a1.708,1.708,0,0,1,1.7-1.7h3.406a1.708,1.708,0,0,1,1.7,1.7v5.109h5.109A1.708,1.708,0,0,1,66.437,16.515Z" transform="translate(-46 -8)" fill="#fcd770"/>
        </g>
      </g>
      <g id="Grupo_1043068" data-name="Grupo 1043068" transform="translate(1 0.834)">
        <path id="Trazado_772027" data-name="Trazado 772027" d="M51.812,10.406v3.406H48.406A3.41,3.41,0,0,0,45,17.218v3.406a3.41,3.41,0,0,0,3.406,3.406h3.406v3.406a3.41,3.41,0,0,0,3.406,3.406h3.406a3.41,3.41,0,0,0,3.406-3.406V24.031h3.406a3.41,3.41,0,0,0,3.406-3.406V17.218a3.41,3.41,0,0,0-3.406-3.406H62.031V10.406A3.41,3.41,0,0,0,58.625,7H55.218A3.41,3.41,0,0,0,51.812,10.406Zm13.625,6.811v3.408H58.625v6.812H55.218V20.625H48.406V17.218h6.812V10.406h3.406v6.812Z" transform="translate(29.936 3.501)"/>
        <path id="Trazado_772028" data-name="Trazado 772028" d="M104.888,6.226A29.028,29.028,0,0,1,89.949,2.087L87.857.834,85.766,2.087A29.028,29.028,0,0,1,70.826,6.226h-1.7v8.515H65.717v-1.7a11.922,11.922,0,0,0-23.843,0v1.7H18.031a3.41,3.41,0,0,0-3.406,3.406V31.793a13.036,13.036,0,0,0-9.868,4.9A17.286,17.286,0,0,0,6.063,59.681l8.561,8.561V103.3a3.41,3.41,0,0,0,3.406,3.406H89.56a3.41,3.41,0,0,0,3.406-3.406V43.421A25.4,25.4,0,0,0,106.591,20.8V6.226ZM82.748,65.187l-3.6,4.053H58.9V89.677H79.342V74.145l3.406-3.832V96.489h-57.9V78.46l1.7,1.7L47.029,59.681a17.3,17.3,0,0,0,3.023-4.065H66.03a5.109,5.109,0,1,0,0-3.406H51.418a17.511,17.511,0,0,0,.674-4.8A17.207,17.207,0,0,0,48.335,36.7,13.122,13.122,0,0,0,28.81,35.616l-2.263,2.263-1.7-1.7V24.96H69.455A25.347,25.347,0,0,0,82.748,43.421ZM70.9,83.643l5.036-5.666v8.294H62.311V72.646H75.936v.2l-5.182,5.83-3.832-3.832-2.408,2.408ZM69.123,53.912a1.7,1.7,0,1,1,1.7,1.7A1.7,1.7,0,0,1,69.123,53.912ZM45.28,13.038a8.515,8.515,0,1,1,17.031,0v1.7H58.9v-1.7a5.109,5.109,0,0,0-10.218,0v1.7H45.28Zm10.218,1.7H52.092v-1.7a1.7,1.7,0,0,1,3.406,0Zm13.625,3.406V20.8c0,.252.022.5.031.749H21.437v11.91a12.909,12.909,0,0,0-3.406-1.328V18.148ZM4.406,47.408a13.786,13.786,0,0,1,3.013-8.584,9.714,9.714,0,0,1,14.456-.8L26.546,42.7l4.672-4.672a9.714,9.714,0,0,1,14.456.8,13.827,13.827,0,0,1,2.165,13.385H32.306l-3.74,7.483L23.285,43.854l-4.7,11.761H14.625v3.406h6.262L23,53.752l4.937,14.817,6.479-12.954H46.019a14.122,14.122,0,0,1-1.4,1.657L26.546,75.347,8.471,57.272A13.82,13.82,0,0,1,4.406,47.408ZM89.56,103.3H18.031V71.648l3.406,3.406V99.9H86.154V44.908c.4.143.8.295,1.214.417l.489.146.489-.146c.414-.124.811-.276,1.214-.417Zm13.625-82.5A22.053,22.053,0,0,1,87.857,41.911,22.053,22.053,0,0,1,72.529,20.8V9.588A32.456,32.456,0,0,0,87.52,5.01l.337-.2.337.2a32.432,32.432,0,0,0,14.991,4.58Z" transform="translate(-1 -0.834)"/>
        <path id="Trazado_772029" data-name="Trazado 772029" d="M31,51h3.406v3.406H31Z" transform="translate(20.092 34.437)"/>
        <path id="Trazado_772030" data-name="Trazado 772030" d="M27,51h3.406v3.406H27Z" transform="translate(17.28 34.437)"/>
        <path id="Trazado_772031" data-name="Trazado 772031" d="M23,51h3.406v3.406H23Z" transform="translate(14.468 34.437)"/>
        <path id="Trazado_772032" data-name="Trazado 772032" d="M33,25H43.218v3.406H33Z" transform="translate(21.499 16.157)"/>
        <path id="Trazado_772033" data-name="Trazado 772033" d="M33,21H43.218v3.406H33Z" transform="translate(21.499 13.344)"/>
        <path id="Trazado_772034" data-name="Trazado 772034" d="M33,17H43.218v3.406H33Z" transform="translate(21.499 10.532)"/>
      </g>
    </g>
  </g>
</svg>
