<svg id="Grupo_1044185" data-name="Grupo 1044185" xmlns="http://www.w3.org/2000/svg" width="88" height="113" viewBox="0 0 88 113">
  <rect id="mi-hija-no-tiene-miedo-hacer-visita-aqui" width="85" height="70" rx="15" transform="translate(3 31)" fill="#3bc192"/>
  <circle id="Elipse_4834" data-name="Elipse 4834" cx="19" cy="19" r="19" transform="translate(50)" fill="#fabf40"/>
  <ellipse id="Elipse_4835" data-name="Elipse 4835" cx="17" cy="18" rx="17" ry="18" transform="translate(0 77)" fill="#fde9bc"/>
  <g id="informe-medico" transform="translate(3 0.622)">
    <g id="Grupo_1043067" data-name="Grupo 1043067" transform="translate(1.371 1.599)">
      <g id="Grupo_1043059" data-name="Grupo 1043059" transform="translate(32.903)">
        <path id="Trazado_772020" data-name="Trazado 772020" d="M26,10.226v2.742h5.484V10.226a2.742,2.742,0,1,1,5.484,0v2.742h5.484V10.226a8.226,8.226,0,1,0-16.452,0Z" transform="translate(-26 -2)" fill="#b4dd7f"/>
      </g>
      <g id="Grupo_1043060" data-name="Grupo 1043060" transform="translate(10.968 10.968)">
        <path id="Trazado_772021" data-name="Trazado 772021" d="M11.371,81.29H68.952a1.371,1.371,0,0,0,1.371-1.371V11.371A1.371,1.371,0,0,0,68.952,10H10V79.919A1.371,1.371,0,0,0,11.371,81.29Z" transform="translate(-10 -10)" fill="#e6e9ed"/>
      </g>
      <g id="Grupo_1043061" data-name="Grupo 1043061" transform="translate(16.452 16.452)">
        <path id="Trazado_772022" data-name="Trazado 772022" d="M63.355,14H14V74.323H63.355Z" transform="translate(-14 -14)" fill="#f0d0b4"/>
      </g>
      <g id="Grupo_1043062" data-name="Grupo 1043062" transform="translate(21.935 54.839)">
        <path id="Trazado_772023" data-name="Trazado 772023" d="M36,44.056V55.71H49.71V42H36Z" transform="translate(-36 -42)" fill="#fcd770"/>
      </g>
      <g id="Grupo_1043063" data-name="Grupo 1043063" transform="translate(24.677 38.387)">
        <circle id="Elipse_4833" data-name="Elipse 4833" cx="2.742" cy="2.742" r="2.742" transform="translate(0)" fill="#e6e9ed"/>
      </g>
      <g id="Grupo_1043064" data-name="Grupo 1043064" transform="translate(43.871 24.677)">
        <path id="Trazado_772024" data-name="Trazado 772024" d="M3.138,36.452a12.245,12.245,0,0,0,2.536,3.674L21.194,55.645,23.935,52.9l5.484-5.484,7.294-7.294a12.523,12.523,0,0,0,3.674-8.87v-.041a12.363,12.363,0,0,0-2.728-7.76A9.151,9.151,0,0,0,30.489,20a9.333,9.333,0,0,0-1.069.069,9.113,9.113,0,0,0-5.429,2.619l-.055.055-2.742,2.742-2.8-2.8a9.174,9.174,0,0,0-13.669.768A12.363,12.363,0,0,0,2,31.215v.041a12.273,12.273,0,0,0,1.138,5.2Z" transform="translate(-2 -20)" fill="#ff826e"/>
      </g>
      <g id="Grupo_1043065" data-name="Grupo 1043065" transform="translate(0 0)">
        <path id="Trazado_772025" data-name="Trazado 772025" d="M42,6.113V16.477a19.217,19.217,0,0,0,10.968,17.37A20.614,20.614,0,0,0,55.71,34.9a20.613,20.613,0,0,0,2.742-1.056A19.174,19.174,0,0,0,69.31,18.438a15.519,15.519,0,0,0,.11-1.96V6.113a24.323,24.323,0,0,1-6.608-.9A24.881,24.881,0,0,1,56.683,2.59L55.71,2l-.973.59A24.823,24.823,0,0,1,42,6.113Z" transform="translate(-42 -2)" fill="#aab2bd"/>
      </g>
      <g id="Grupo_1043066" data-name="Grupo 1043066" transform="translate(5.484 8.226)">
        <path id="Trazado_772026" data-name="Trazado 772026" d="M46,14.855V17.6a1.375,1.375,0,0,0,1.371,1.371h4.113v4.113a1.375,1.375,0,0,0,1.371,1.371H55.6a1.375,1.375,0,0,0,1.371-1.371V18.968h4.113A1.375,1.375,0,0,0,62.452,17.6V14.855a1.375,1.375,0,0,0-1.371-1.371H56.968V9.371A1.375,1.375,0,0,0,55.6,8H52.855a1.375,1.375,0,0,0-1.371,1.371v4.113H47.371A1.375,1.375,0,0,0,46,14.855Z" transform="translate(-46 -8)" fill="#fcd770"/>
      </g>
    </g>
    <g id="Grupo_1043068" data-name="Grupo 1043068" transform="translate(0 0)">
      <path id="Trazado_772027" data-name="Trazado 772027" d="M58.71,9.742v2.742h2.742a2.745,2.745,0,0,1,2.742,2.742v2.742a2.745,2.745,0,0,1-2.742,2.742H58.71v2.742a2.745,2.745,0,0,1-2.742,2.742H53.226a2.745,2.745,0,0,1-2.742-2.742V20.71H47.742A2.745,2.745,0,0,1,45,17.968V15.226a2.745,2.745,0,0,1,2.742-2.742h2.742V9.742A2.745,2.745,0,0,1,53.226,7h2.742A2.745,2.745,0,0,1,58.71,9.742ZM47.742,15.224v2.743h5.484v5.484h2.742V17.968h5.484V15.226H55.968V9.742H53.226v5.484Z" transform="translate(-39.516 1.453)"/>
      <path id="Trazado_772028" data-name="Trazado 772028" d="M2.371,5.174A23.367,23.367,0,0,0,14.4,1.843L16.081.834l1.684,1.009A23.367,23.367,0,0,0,29.79,5.174h1.371v6.855H33.9V10.658a9.6,9.6,0,0,1,19.194,0v1.371H72.29a2.745,2.745,0,0,1,2.742,2.742V25.755A10.494,10.494,0,0,1,82.976,29.7a13.915,13.915,0,0,1-1.052,18.5L75.032,55.1V83.32a2.745,2.745,0,0,1-2.742,2.742H14.71a2.745,2.745,0,0,1-2.742-2.742v-48.2A20.449,20.449,0,0,1,1,16.909V5.174ZM20.194,52.637l2.9,3.263H39.387V72.352H22.935v-12.5l-2.742-3.085V77.836H66.806V63.323l-1.371,1.371L48.947,48.205a13.926,13.926,0,0,1-2.433-3.272H33.651a4.113,4.113,0,1,1,0-2.742H45.414a14.1,14.1,0,0,1-.543-3.865A13.851,13.851,0,0,1,47.9,29.7a10.563,10.563,0,0,1,15.718-.871l1.822,1.822,1.371-1.371V20.255H30.894a20.4,20.4,0,0,1-10.7,14.861Zm9.538,14.857-4.054-4.561V69.61H36.645V58.642H25.677v.165L29.849,63.5l3.085-3.085,1.939,1.939Zm1.43-23.933a1.371,1.371,0,1,0-1.371,1.371A1.372,1.372,0,0,0,31.161,43.562Zm19.194-32.9a6.855,6.855,0,1,0-13.71,0v1.371h2.742V10.658a4.113,4.113,0,1,1,8.226,0v1.371h2.742Zm-8.226,1.371h2.742V10.658a1.371,1.371,0,0,0-2.742,0ZM31.161,14.771V16.91c0,.2-.018.4-.025.6H69.548V27.1a10.391,10.391,0,0,1,2.742-1.069V14.771Zm52.1,23.555a11.1,11.1,0,0,0-2.425-6.91A7.82,7.82,0,0,0,69.2,30.772l-3.761,3.761-3.761-3.761a7.82,7.82,0,0,0-11.637.644A11.131,11.131,0,0,0,48.3,42.191H60.8l3.011,6.024,4.251-12.75,3.787,9.468h3.185v2.742H69.991l-1.7-4.242L64.319,55.36,59.1,44.933H49.76a11.368,11.368,0,0,0,1.126,1.334l14.55,14.55,14.55-14.55A11.125,11.125,0,0,0,83.258,38.326ZM14.71,83.32H72.29V57.839l-2.742,2.742v20h-52.1V36.313c-.325.115-.644.237-.977.336l-.393.118-.393-.118c-.333-.1-.653-.222-.977-.336ZM3.742,16.91A17.753,17.753,0,0,0,16.081,33.9,17.753,17.753,0,0,0,28.419,16.91V7.881A26.127,26.127,0,0,1,16.352,4.2l-.271-.165-.271.163A26.107,26.107,0,0,1,3.742,7.881Z" transform="translate(-1 -0.834)"/>
      <path id="Trazado_772029" data-name="Trazado 772029" d="M33.742,51H31v2.742h2.742Z" transform="translate(10.129 17.776)"/>
      <path id="Trazado_772030" data-name="Trazado 772030" d="M29.742,51H27v2.742h2.742Z" transform="translate(19.613 17.776)"/>
      <path id="Trazado_772031" data-name="Trazado 772031" d="M25.742,51H23v2.742h2.742Z" transform="translate(29.097 17.776)"/>
      <path id="Trazado_772032" data-name="Trazado 772032" d="M41.226,25H33v2.742h8.226Z" transform="translate(-0.097 8.131)"/>
      <path id="Trazado_772033" data-name="Trazado 772033" d="M41.226,21H33v2.742h8.226Z" transform="translate(-0.097 6.647)"/>
      <path id="Trazado_772034" data-name="Trazado 772034" d="M41.226,17H33v2.742h8.226Z" transform="translate(-0.097 5.163)"/>
    </g>
  </g>
</svg>
