<svg id="Grupo_1044226" data-name="Grupo 1044226" xmlns="http://www.w3.org/2000/svg" width="90" height="113" viewBox="0 0 90 113">
  <rect id="mi-hija-no-tiene-miedo-hacer-visita-aqui" width="85" height="70" rx="15" transform="translate(5 31)" fill="#3bc192"/>
  <circle id="Elipse_4834" data-name="Elipse 4834" cx="19" cy="19" r="19" transform="translate(50)" fill="#fabf40"/>
  <ellipse id="Elipse_4835" data-name="Elipse 4835" cx="17" cy="18" rx="17" ry="18" transform="translate(0 77)" fill="#fde9bc"/>
  <g id="formulario-de-consentimiento-del-donante" transform="translate(3 3)">
    <g id="Grupo_1044247" data-name="Grupo 1044247" transform="translate(2.387 2.387)">
      <g id="Grupo_1044231" data-name="Grupo 1044231" transform="translate(41.613 2.774)">
        <path id="Trazado_775678" data-name="Trazado 775678" d="M48.645,9.548V23.419l-1.387,1.387L43.1,28.968V9.548H32V4H43.1A5.547,5.547,0,0,1,48.645,9.548Z" transform="translate(-32 -4)" fill="#ccd1d9"/>
      </g>
      <g id="Grupo_1044232" data-name="Grupo 1044232" transform="translate(0 2.774)">
        <path id="Trazado_775679" data-name="Trazado 775679" d="M59.953,53.45l.305.083V78.9a5.547,5.547,0,0,1-5.548,5.548H7.548A5.547,5.547,0,0,1,2,78.9V9.548A5.547,5.547,0,0,1,7.548,4h11.1V9.548H7.548V78.9H54.71V51.966h.028Z" transform="translate(-2 -4)" fill="#ccd1d9"/>
      </g>
      <g id="Grupo_1044233" data-name="Grupo 1044233" transform="translate(16.645)">
        <path id="Trazado_775680" data-name="Trazado 775680" d="M38.968,4.774v5.548H14V3.387A1.391,1.391,0,0,1,15.387,2H37.581a1.391,1.391,0,0,1,1.387,1.387Z" transform="translate(-14 -2)" fill="#5cd6b3"/>
      </g>
      <g id="Grupo_1044234" data-name="Grupo 1044234" transform="translate(5.548 8.323)">
        <path id="Trazado_775681" data-name="Trazado 775681" d="M42.065,8H6V77.355H53.161V8Z" transform="translate(-6 -8)" fill="#ffeaa7"/>
      </g>
      <g id="Grupo_1044235" data-name="Grupo 1044235" transform="translate(11.097 13.871)">
        <path id="Trazado_775682" data-name="Trazado 775682" d="M34.968,12V32.4a8.407,8.407,0,0,0-2.885,2.788l-.264.43a12.434,12.434,0,0,0-9.335-4.2,6.935,6.935,0,1,0-6.935-6.935,6.938,6.938,0,0,0,6.935,6.935A12.5,12.5,0,0,0,10,43.9V12Z" transform="translate(-10 -12)" fill="#e6e9ed"/>
      </g>
      <g id="Grupo_1044236" data-name="Grupo 1044236" transform="translate(56.871 19.419)">
        <path id="Trazado_775683" data-name="Trazado 775683" d="M47.161,16l8.323,8.323-4.161,4.161-4.161-4.161L43,20.161l1.387-1.387Z" transform="translate(-43 -16)" fill="#ffeaa7"/>
      </g>
      <g id="Grupo_1044237" data-name="Grupo 1044237" transform="translate(61.032 16.645)">
        <path id="Trazado_775684" data-name="Trazado 775684" d="M57.1,19.881a5.889,5.889,0,0,1-1.72,4.161L54.323,25.1,46,16.774l1.054-1.054A5.881,5.881,0,0,1,57.1,19.881Z" transform="translate(-46 -14)" fill="#aab2bd"/>
      </g>
      <g id="Grupo_1044238" data-name="Grupo 1044238" transform="translate(22.194 54.097)">
        <path id="Trazado_775685" data-name="Trazado 775685" d="M22.161,41,18,53.484l12.484-4.161Z" transform="translate(-18 -41)" fill="#aab2bd"/>
      </g>
      <g id="Grupo_1044239" data-name="Grupo 1044239" transform="translate(30.516 48.313)">
        <path id="Trazado_775686" data-name="Trazado 775686" d="M37.857,38.453h2.788L28.161,50.937,24,46.775l9.945-9.945A5.526,5.526,0,0,0,37.857,38.453Z" transform="translate(-24 -36.83)" fill="#5cd6b3"/>
      </g>
      <g id="Grupo_1044240" data-name="Grupo 1044240" transform="translate(47.161 27.742)">
        <path id="Trazado_775687" data-name="Trazado 775687" d="M54.032,26.161l-2.316,2.316-3.731,3.731a12.494,12.494,0,0,1-8.836,3.662H36L49.871,22Z" transform="translate(-36 -22)" fill="#5cd6b3"/>
      </g>
      <g id="Grupo_1044241" data-name="Grupo 1044241" transform="translate(26.348 23.583)">
        <path id="Trazado_775688" data-name="Trazado 775688" d="M0,0H43.157V5.885H0Z" transform="translate(0 30.512) rotate(-45)" fill="#fcd770"/>
      </g>
      <g id="Grupo_1044242" data-name="Grupo 1044242" transform="translate(11.097 33.29)">
        <path id="Trazado_775689" data-name="Trazado 775689" d="M26.673,39.871H10V38.484A12.479,12.479,0,0,1,31.819,30.2l-4.688,7.49a3.256,3.256,0,0,0-.485,1.72c0,.153.014.305.028.458Z" transform="translate(-10 -26)" fill="#ef7385"/>
      </g>
      <g id="Grupo_1044243" data-name="Grupo 1044243" transform="translate(69.355 30.516)">
        <path id="Trazado_775690" data-name="Trazado 775690" d="M65.871,24V44.806L52,43.419V29.548Z" transform="translate(-52 -24)" fill="#5cd6b3"/>
      </g>
      <g id="Grupo_1044244" data-name="Grupo 1044244" transform="translate(38.839 34.22)">
        <path id="Trazado_775691" data-name="Trazado 775691" d="M60.516,28.515V42.386l-1,.666a12.554,12.554,0,0,1-6.949,2.108,12.727,12.727,0,0,1-3.149-.4l-.305-.083L43.9,43.19h-.028a20.329,20.329,0,0,0-5.548-.8H35.535A5.541,5.541,0,0,1,30,36.851a2.794,2.794,0,0,1,2.788-2.788h8.683A12.494,12.494,0,0,0,50.307,30.4l3.731-3.731Z" transform="translate(-30 -26.67)" fill="#f0d0b4"/>
      </g>
      <g id="Grupo_1044245" data-name="Grupo 1044245" transform="translate(27.742 30.516)">
        <path id="Trazado_775692" data-name="Trazado 775692" d="M37.841,24.818A12.93,12.93,0,0,1,42.376,24a14.092,14.092,0,0,1,1.706.111L33.1,35.1,24.8,43.392a3.251,3.251,0,0,1-2.774-2.746c-.014-.153-.028-.305-.028-.458a3.256,3.256,0,0,1,.485-1.72l4.688-7.49.264-.43a8.407,8.407,0,0,1,2.885-2.788,10.214,10.214,0,0,1,1.248-.583Z" transform="translate(-22 -24)" fill="#f0d0b4"/>
      </g>
      <g id="Grupo_1044246" data-name="Grupo 1044246" transform="translate(16.645 19.419)">
        <circle id="Elipse_5012" data-name="Elipse 5012" cx="7" cy="7" r="7" transform="translate(-0.032 0.193)" fill="#f0d0b4"/>
      </g>
    </g>
    <g id="Grupo_1044248" data-name="Grupo 1044248" transform="translate(1 1)">
      <path id="Trazado_775693" data-name="Trazado 775693" d="M71.667,36.987l-3.751-1.072,5.859-5.858A7.271,7.271,0,0,0,63.49,19.776l-1.458,1.456V10.71A6.943,6.943,0,0,0,55.1,3.774h-9.71A2.777,2.777,0,0,0,42.613,1H20.419a2.777,2.777,0,0,0-2.774,2.774H7.935A6.943,6.943,0,0,0,1,10.71V80.065A6.943,6.943,0,0,0,7.935,87H55.1a6.943,6.943,0,0,0,6.935-6.935V56.351a14.01,14.01,0,0,0,9.474-2.2l.592-.4L87,55.242V30.854ZM65.453,21.736a4.5,4.5,0,0,1,6.36,6.363l-.071.069-6.36-6.361Zm-2.033,2.032,6.361,6.361-2.2,2.2-6.361-6.361Zm2.2,10.523-5.07,5.07a11.187,11.187,0,0,1-7.639,3.24L63.419,32.09Zm-4.161-4.161L48.973,42.614l-4.4,0L59.258,27.929ZM32.9,58.684l-2.2-2.2,9.156-9.156A6.868,6.868,0,0,0,41,50.59Zm10.054-6.131a6.855,6.855,0,0,0,3.264,1.137l-9.156,9.155-2.2-2.2ZM28.595,61.311l.753-2.26L34.5,64.2l-2.26.753Zm.7,4.623-2.522.841.841-2.522ZM34.29,28.742a8.323,8.323,0,1,0-13.449,6.543,13.923,13.923,0,0,0-5.97,4.59V17.645H37.065V35.951a9.748,9.748,0,0,0-1.946,1.8,13.866,13.866,0,0,0-4.032-2.461,8.3,8.3,0,0,0,3.2-6.548ZM25.968,34.29a5.548,5.548,0,1,1,5.548-5.548A5.554,5.554,0,0,1,25.968,34.29Zm0,2.774a11.107,11.107,0,0,1,7.583,3.006L29.444,46.64a4.608,4.608,0,0,0-.6,1.522H14.871a11.11,11.11,0,0,1,11.1-11.1ZM32.534,50.73a1.839,1.839,0,0,1-.738-2.622l4.951-7.919a6.96,6.96,0,0,1,3.444-2.817l6.259-2.347a11.435,11.435,0,0,1,2.384-.6ZM45.387,6.548H55.1a4.166,4.166,0,0,1,4.161,4.161v13.3l-2.774,2.774V9.323h-11.1ZM20.419,3.774H42.613V9.323H20.419ZM53.71,12.1V29.555L51.675,31.59a14.371,14.371,0,0,0-6.2.838l-5.636,2.115V14.871H12.1V50.935H29.146a4.66,4.66,0,0,0,1.387,1.8l-3,3L22.979,69.388a3.3,3.3,0,0,0-1.54,1.845L21,72.567a.857.857,0,0,1-1.465.2l-1.583-2.372a3.193,3.193,0,0,0-5.852,1.77V75.9h2.774V72.162a.436.436,0,0,1,.77-.233L17.223,74.3a3.6,3.6,0,0,0,6.4-.857l.442-1.333a.56.56,0,0,1,1.021,0l.631,1.9a2.772,2.772,0,0,0,2.633,1.9h7.322V73.129H28.355l-.633-1.9a3.3,3.3,0,0,0-1.042-1.5l11.133-3.71,12.3-12.3a19.346,19.346,0,0,1,3.6.5v24.45H9.323V12.1Zm5.548,67.968A4.166,4.166,0,0,1,55.1,84.226H7.935a4.166,4.166,0,0,1-4.161-4.161V10.71A4.166,4.166,0,0,1,7.935,6.548h9.71V9.323H6.548V81.452H56.484v-26.5l2.774.792Zm11.1-28.484-.387.259a11.229,11.229,0,0,1-9.241,1.443L55.5,51.79a22.14,22.14,0,0,0-6.094-.854H46.758a4.151,4.151,0,0,1-4.145-4.146,1.4,1.4,0,0,1,1.4-1.4l8.682-.008a13.973,13.973,0,0,0,9.814-4.063l3.163-3.161L70.355,39.5Zm13.871.6-11.1-1.11V39.391l11.1-4.439Z" transform="translate(-1 -1)"/>
      <path id="Trazado_775694" data-name="Trazado 775694" d="M31,11h8.323v2.774H31Z" transform="translate(10.613 2.871)"/>
      <path id="Trazado_775695" data-name="Trazado 775695" d="M31,15h8.323v2.774H31Z" transform="translate(10.613 4.419)"/>
      <path id="Trazado_775696" data-name="Trazado 775696" d="M31,19h8.323v2.774H31Z" transform="translate(10.613 5.968)"/>
      <path id="Trazado_775697" data-name="Trazado 775697" d="M9,39h5.548v2.774H9Z" transform="translate(2.097 13.71)"/>
      <path id="Trazado_775698" data-name="Trazado 775698" d="M9,43h8.323v2.774H9Z" transform="translate(2.097 15.258)"/>
    </g>
  </g>
</svg>
