<svg id="Grupo_1044199" data-name="Grupo 1044199" xmlns="http://www.w3.org/2000/svg" width="89.082" height="113" viewBox="0 0 89.082 113">
  <rect id="mi-hija-no-tiene-miedo-hacer-visita-aqui" width="85" height="70" rx="15" transform="translate(3 31)" fill="#3bc192"/>
  <circle id="Elipse_4834" data-name="Elipse 4834" cx="19" cy="19" r="19" transform="translate(50)" fill="#fabf40"/>
  <ellipse id="Elipse_4835" data-name="Elipse 4835" cx="17" cy="18" rx="17" ry="18" transform="translate(0 77)" fill="#fde9bc"/>
  <g id="lista-de-verificacion_2_" data-name="lista-de-verificacion (2)" transform="translate(4 4.918)">
    <g id="Grupo_1044279" data-name="Grupo 1044279" transform="translate(2.356 2.356)">
      <g id="Grupo_1044263" data-name="Grupo 1044263" transform="translate(0 2.712)">
        <path id="Trazado_775756" data-name="Trazado 775756" d="M64.383,41.973v35.26a5.423,5.423,0,0,1-5.425,5.425H7.425A5.423,5.423,0,0,1,2,77.233V9.425A5.423,5.423,0,0,1,7.425,4H18.274V9.425H8.781a1.36,1.36,0,0,0-1.356,1.356v65.1a1.36,1.36,0,0,0,1.356,1.356H48.11L58.959,66.383V47.4Z" transform="translate(-2 -4)" fill="#f5e0cd"/>
      </g>
      <g id="Grupo_1044264" data-name="Grupo 1044264" transform="translate(24.411 2.712)">
        <path id="Trazado_775757" data-name="Trazado 775757" d="M20,4H33.562V9.425H20Z" transform="translate(-20 -4)" fill="#f5e0cd"/>
      </g>
      <g id="Grupo_1044265" data-name="Grupo 1044265" transform="translate(46.11 2.712)">
        <path id="Trazado_775758" data-name="Trazado 775758" d="M52.274,14.2a12.154,12.154,0,0,0-5.357,8.869l-.068-.014V10.781a1.36,1.36,0,0,0-1.356-1.356H36V4H46.849a5.423,5.423,0,0,1,5.425,5.425Z" transform="translate(-36 -4)" fill="#f5e0cd"/>
      </g>
      <g id="Grupo_1044266" data-name="Grupo 1044266" transform="translate(5.425 8.137)">
        <path id="Trazado_775759" data-name="Trazado 775759" d="M56.178,8H7.356A1.36,1.36,0,0,0,6,9.356v65.1a1.36,1.36,0,0,0,1.356,1.356H46.685V64.959H57.534V9.356A1.36,1.36,0,0,0,56.178,8Z" transform="translate(-6 -8)" fill="#e6e9ed"/>
      </g>
      <g id="Grupo_1044267" data-name="Grupo 1044267" transform="translate(37.973)">
        <path id="Trazado_775760" data-name="Trazado 775760" d="M38.137,10.137v1.356a1.36,1.36,0,0,1-1.356,1.356H31.356A1.36,1.36,0,0,1,30,11.493V3.356A1.36,1.36,0,0,1,31.356,2h5.425a1.36,1.36,0,0,1,1.356,1.356v6.781Z" transform="translate(-30 -2)" fill="#b4dd7f"/>
      </g>
      <g id="Grupo_1044268" data-name="Grupo 1044268" transform="translate(16.274)">
        <path id="Trazado_775761" data-name="Trazado 775761" d="M22.137,10.137v1.356a1.36,1.36,0,0,1-1.356,1.356H15.356A1.36,1.36,0,0,1,14,11.493V3.356A1.36,1.36,0,0,1,15.356,2h5.425a1.36,1.36,0,0,1,1.356,1.356v6.781Z" transform="translate(-14 -2)" fill="#b4dd7f"/>
      </g>
      <g id="Grupo_1044269" data-name="Grupo 1044269" transform="translate(46.11 65.096)">
        <path id="Trazado_775762" data-name="Trazado 775762" d="M46.849,50,36,60.849V50Z" transform="translate(-36 -50)" fill="#ff826e"/>
      </g>
      <g id="Grupo_1044270" data-name="Grupo 1044270" transform="translate(10.849 59.671)">
        <path id="Trazado_775763" data-name="Trazado 775763" d="M10,46h5.425v5.425H10Z" transform="translate(-10 -46)" fill="#fcd770"/>
      </g>
      <g id="Grupo_1044271" data-name="Grupo 1044271" transform="translate(10.849 48.822)">
        <path id="Trazado_775764" data-name="Trazado 775764" d="M10,38h5.425v5.425H10Z" transform="translate(-10 -38)" fill="#fcd770"/>
      </g>
      <g id="Grupo_1044272" data-name="Grupo 1044272" transform="translate(10.849 37.973)">
        <path id="Trazado_775765" data-name="Trazado 775765" d="M10,30h5.425v5.425H10Z" transform="translate(-10 -30)" fill="#fcd770"/>
      </g>
      <g id="Grupo_1044273" data-name="Grupo 1044273" transform="translate(10.849 27.123)">
        <path id="Trazado_775766" data-name="Trazado 775766" d="M10,22h5.425v5.425H10Z" transform="translate(-10 -22)" fill="#fcd770"/>
      </g>
      <g id="Grupo_1044274" data-name="Grupo 1044274" transform="translate(10.849 16.274)">
        <path id="Trazado_775767" data-name="Trazado 775767" d="M10,14h5.425v5.425H10Z" transform="translate(-10 -14)" fill="#fcd770"/>
      </g>
      <g id="Grupo_1044275" data-name="Grupo 1044275" transform="translate(21.699 55.603)">
        <path id="Trazado_775768" data-name="Trazado 775768" d="M32.918,53.849,21.065,57.8a2.184,2.184,0,0,1-.732.122A2.332,2.332,0,0,1,18,55.585a2.184,2.184,0,0,1,.122-.732L22.068,43l5.425,5.425Z" transform="translate(-18 -43)" fill="#aab2bd"/>
      </g>
      <g id="Grupo_1044276" data-name="Grupo 1044276" transform="translate(31.192 31.68)">
        <path id="Trazado_775769" data-name="Trazado 775769" d="M61.684,28.872l-5.492,5.492L50.767,39.79,30.425,60.132,25,54.707,54.347,25.36A12.131,12.131,0,0,0,61.684,28.872Z" transform="translate(-25 -25.36)" fill="#b4dd7f"/>
      </g>
      <g id="Grupo_1044277" data-name="Grupo 1044277" transform="translate(25.767 24.343)">
        <path id="Trazado_775770" data-name="Trazado 775770" d="M55.772,27.287,26.425,56.634,21,51.21,52.26,19.95A12.131,12.131,0,0,0,55.772,27.287Z" transform="translate(-21 -19.95)" fill="#fcd770"/>
      </g>
      <g id="Grupo_1044278" data-name="Grupo 1044278" transform="translate(56.959 10.849)">
        <path id="Trazado_775771" data-name="Trazado 775771" d="M56.205,10a12.205,12.205,0,0,1,0,24.411c-.434,0-.868-.027-1.288-.068A12.234,12.234,0,0,1,44.068,23.494c-.041-.42-.068-.854-.068-1.288s.027-.854.068-1.275A12.215,12.215,0,0,1,56.205,10Z" transform="translate(-44 -10)" fill="#ff826e"/>
      </g>
    </g>
    <g id="Grupo_1044280" data-name="Grupo 1044280" transform="translate(1 1)">
      <path id="Trazado_775772" data-name="Trazado 775772" d="M60.5,15.293l-8.534,8.534-1.754-1.754-1.918,1.918,3.671,3.671L62.416,17.211Z" transform="translate(15.844 4.091)"/>
      <path id="Trazado_775773" data-name="Trazado 775773" d="M71.52,11.849A13.466,13.466,0,0,0,66.1,12.99v-2.5a6.789,6.789,0,0,0-6.781-6.781H49.822A2.715,2.715,0,0,0,47.11,1H41.685a2.715,2.715,0,0,0-2.712,2.712H28.123A2.715,2.715,0,0,0,25.411,1H19.986a2.715,2.715,0,0,0-2.712,2.712H7.781A6.789,6.789,0,0,0,1,10.493V78.3a6.789,6.789,0,0,0,6.781,6.781H59.315A6.789,6.789,0,0,0,66.1,78.3V43.6l4.668-4.668c.252.014.5.038.757.038a13.562,13.562,0,0,0,0-27.123ZM59.315,6.425a4.073,4.073,0,0,1,4.068,4.068v4.094a13.639,13.639,0,0,0-2.712,2.72V11.849a2.715,2.715,0,0,0-2.712-2.712H49.822V6.425Zm-30.6,54.044,7.746,7.746L26.7,71.469a.991.991,0,0,1-1.29-.926,1.038,1.038,0,0,1,.049-.309Zm1.325-2.51L58.568,29.432a13.531,13.531,0,0,0,2.459,4.555L33.548,61.466ZM41.685,3.712H47.11v8.137H41.685ZM38.973,6.425V9.137H28.123V6.425ZM19.986,3.712h5.425v8.137H19.986Zm5.425,10.849a2.715,2.715,0,0,0,2.712-2.712H38.973a2.715,2.715,0,0,0,2.712,2.712H47.11a2.715,2.715,0,0,0,2.712-2.712h8.137V24.116h.065c-.041.427-.065.858-.065,1.3,0,.255.024.5.038.757L26.938,57.226,22.886,69.38a3.689,3.689,0,0,0,4.669,4.662L39.7,69.993,57.959,51.739V66.1H47.11V76.945H9.137v-65.1h8.137a2.715,2.715,0,0,0,2.712,2.712Zm30.63,54.246-6.219,6.219V68.808ZM63.383,78.3a4.073,4.073,0,0,1-4.068,4.068H7.781A4.073,4.073,0,0,1,3.712,78.3V10.493A4.073,4.073,0,0,1,7.781,6.425h9.493V9.137H9.137a2.715,2.715,0,0,0-2.712,2.712v65.1a2.715,2.715,0,0,0,2.712,2.712h39.89L60.671,68.013V49.027l2.712-2.712ZM38.973,66.89l-3.507-3.507L62.943,35.9A13.555,13.555,0,0,0,67.5,38.364ZM71.52,36.26A10.849,10.849,0,1,1,82.37,25.411,10.862,10.862,0,0,1,71.52,36.26Z" transform="translate(-1 -1)"/>
      <path id="Trazado_775774" data-name="Trazado 775774" d="M9,21.137h8.137V13H9Zm2.712-5.425h2.712v2.712H11.712Z" transform="translate(1.849 3.274)"/>
      <path id="Trazado_775775" data-name="Trazado 775775" d="M9,29.137h8.137V21H9Zm2.712-5.425h2.712v2.712H11.712Z" transform="translate(1.849 6.123)"/>
      <path id="Trazado_775776" data-name="Trazado 775776" d="M9,37.137h8.137V29H9Zm2.712-5.425h2.712v2.712H11.712Z" transform="translate(1.849 8.973)"/>
      <path id="Trazado_775777" data-name="Trazado 775777" d="M9,45.137h8.137V37H9Zm2.712-5.425h2.712v2.712H11.712Z" transform="translate(1.849 11.822)"/>
      <path id="Trazado_775778" data-name="Trazado 775778" d="M9,53.137h8.137V45H9Zm2.712-5.425h2.712v2.712H11.712Z" transform="translate(1.849 14.671)"/>
      <path id="Trazado_775779" data-name="Trazado 775779" d="M17,13H49.548v2.712H17Z" transform="translate(4.699 3.274)"/>
      <path id="Trazado_775780" data-name="Trazado 775780" d="M17,17H49.548v2.712H17Z" transform="translate(4.699 4.699)"/>
      <path id="Trazado_775781" data-name="Trazado 775781" d="M17,21H33.274v2.712H17Z" transform="translate(4.699 6.123)"/>
      <path id="Trazado_775782" data-name="Trazado 775782" d="M17,25H33.274v2.712H17Z" transform="translate(4.699 7.548)"/>
      <path id="Trazado_775783" data-name="Trazado 775783" d="M17,29H30.562v2.712H17Z" transform="translate(4.699 8.973)"/>
      <path id="Trazado_775784" data-name="Trazado 775784" d="M17,33H30.562v2.712H17Z" transform="translate(4.699 10.397)"/>
    </g>
  </g>
</svg>
