<svg xmlns="http://www.w3.org/2000/svg" width="81" height="81" viewBox="0 0 81 81">
  <g id="Grupo_1044148" data-name="Grupo 1044148" transform="translate(-624 -12284)">
    <rect id="Rectángulo_355655" data-name="Rectángulo 355655" width="81" height="81" rx="8" transform="translate(624 12284)" fill="#fabf40"/>
    <g id="pregunta_1_" data-name="pregunta (1)" transform="translate(633 12292.996)">
      <g id="Grupo_1044146" data-name="Grupo 1044146" transform="translate(0.933 0.937)">
        <g id="Grupo_1044145" data-name="Grupo 1044145" transform="translate(6.805 19.081)">
          <path id="Trazado_775401" data-name="Trazado 775401" d="M110.422,185.26a24.127,24.127,0,1,0-48.249,0c0,13.5,10.8,14.522,24.124,14.522S110.422,198.763,110.422,185.26Z" transform="translate(-62.173 -160.81)" fill="#665e66"/>
          <path id="Trazado_775402" data-name="Trazado 775402" d="M85.981,199.784c-13.177-.016-23.808-1.124-23.808-14.521A24.289,24.289,0,0,1,86.3,160.814c-6.781,0-12.278,10.947-12.278,24.449,0,13.293,5.327,14.488,11.961,14.521Z" transform="translate(-62.173 -160.813)" fill="#454045"/>
          <path id="Trazado_775403" data-name="Trazado 775403" d="M150.911,252.913a9.7,9.7,0,0,1-9.237,9.193q-6.419.3-12.837.122h-.008q-1.628-.045-3.255-.122a9.7,9.7,0,0,1-9.236-9.193q-.282-5.492-.045-10.986h0q.072-1.711.2-3.422c.791-3.757,3.887-6.969,8.213-8.853.128-.055.257-.11.386-.163a21.859,21.859,0,0,1,5.755-1.461,23.77,23.77,0,0,1,8.764.605h0c5.837,1.552,10.2,5.314,11.153,9.884a0,0,0,0,0,0,0,116.971,116.971,0,0,1,.15,14.392Z" transform="translate(-109.462 -219.519)" fill="#f1d0a5"/>
          <path id="Trazado_775404" data-name="Trazado 775404" d="M128.837,273.648h-.008q-1.628-.045-3.255-.122a9.7,9.7,0,0,1-9.236-9.193,116.815,116.815,0,0,1,.15-14.409c.791-3.757,3.887-6.969,8.213-8.853.128-.055.257-.11.386-.163-.3,7.231-.367,17.707-.215,23.629C124.99,269.089,126.653,272.8,128.837,273.648Z" transform="translate(-109.463 -230.939)" fill="#f1b986"/>
          <path id="Trazado_775405" data-name="Trazado 775405" d="M140.367,228.632h0c-2.874,4.929-9.766,11.41-12.508,9.862-1-.567-.872-1.735-.306-2.991a22.263,22.263,0,0,1-4.281,5.258c-1.844,1.554-4.067,2.519-6.218,1.164h0q.072-1.711.2-3.422c.791-3.757,3.887-6.969,8.213-8.853.128-.055.257-.11.386-.163a21.859,21.859,0,0,1,5.755-1.461,23.771,23.771,0,0,1,8.764.605Z" transform="translate(-110.222 -219.519)" fill="#665e66"/>
          <path id="Trazado_775406" data-name="Trazado 775406" d="M123.272,240.763c-1.844,1.554-4.067,2.519-6.218,1.164h0q.072-1.711.2-3.422c.791-3.757,3.887-6.969,8.213-8.853.128-.055.257-.11.386-.163a21.859,21.859,0,0,1,5.755-1.461,23.405,23.405,0,0,1,2.781-.162c-6.023,2.1-18.46,12.9-11.113,12.9Z" transform="translate(-110.223 -219.519)" fill="#454045"/>
          <g id="Grupo_1044144" data-name="Grupo 1044144" transform="translate(10.415 28.98)">
            <ellipse id="Elipse_4990" data-name="Elipse 4990" cx="2.951" cy="1.871" rx="2.951" ry="1.871" fill="#df9380"/>
            <ellipse id="Elipse_4991" data-name="Elipse 4991" cx="2.951" cy="1.871" rx="2.951" ry="1.871" transform="translate(21.593)" fill="#f9a58e"/>
          </g>
          <path id="Trazado_775407" data-name="Trazado 775407" d="M151.719,212.32a9.255,9.255,0,0,1-.167,1.753c-1.171-6.1-8.409-10.8-17.165-10.8a23.419,23.419,0,0,0-2.781.162,21.874,21.874,0,0,0-5.417,1.327q-.367.141-.724.3c-4.384,1.909-7.507,5.183-8.244,9.006a9.282,9.282,0,0,1-.165-1.748c0-4.565,3.37-8.56,8.409-10.753q.782-.341,1.617-.621a22.106,22.106,0,0,1,4.525-1.005,23.4,23.4,0,0,1,2.781-.161C143.96,199.779,151.719,205.394,151.719,212.32Z" transform="translate(-110.225 -194.929)" fill="#80b4fb"/>
          <path id="Trazado_775408" data-name="Trazado 775408" d="M127.081,209.154l-.893,3.818q-.367.141-.724.3c-4.384,1.909-7.507,5.183-8.244,9.006a9.281,9.281,0,0,1-.165-1.748c0-4.565,3.37-8.56,8.409-10.753Q126.246,209.434,127.081,209.154Z" transform="translate(-110.224 -203.137)" fill="#5490f9"/>
        </g>
        <path id="Trazado_775409" data-name="Trazado 775409" d="M22.508,26.151H11.141A3.641,3.641,0,0,1,7.5,22.511V11.144A3.641,3.641,0,0,1,11.141,7.5H22.508a3.641,3.641,0,0,1,3.641,3.641V22.511a3.641,3.641,0,0,1-3.641,3.641Z" transform="translate(-7.5 -7.503)" fill="#da4a54"/>
        <path id="Trazado_775410" data-name="Trazado 775410" d="M13.782,26.151H11.141A3.641,3.641,0,0,1,7.5,22.511V11.144A3.641,3.641,0,0,1,11.141,7.5h2.641a3.64,3.64,0,0,0-3.641,3.641V22.511A3.64,3.64,0,0,0,13.782,26.151Z" transform="translate(-7.5 -7.503)" fill="#c32430"/>
        <path id="Trazado_775411" data-name="Trazado 775411" d="M369.677,26.151H358.31a3.641,3.641,0,0,1-3.641-3.641V11.144A3.641,3.641,0,0,1,358.31,7.5h11.367a3.641,3.641,0,0,1,3.641,3.641V22.511a3.641,3.641,0,0,1-3.641,3.641Z" transform="translate(-311.459 -7.503)" fill="#6ec17d"/>
        <path id="Trazado_775412" data-name="Trazado 775412" d="M360.952,26.152h-2.641a3.641,3.641,0,0,1-3.641-3.641V11.145A3.641,3.641,0,0,1,358.311,7.5h2.641a3.64,3.64,0,0,0-3.641,3.641V22.512A3.64,3.64,0,0,0,360.952,26.152Z" transform="translate(-311.46 -7.504)" fill="#5ea570"/>
      </g>
      <g id="Grupo_1044147" data-name="Grupo 1044147" transform="translate(0 0.004)">
        <path id="Trazado_775413" data-name="Trazado 775413" d="M79.728,153.313A25.251,25.251,0,0,0,54.67,178.7c0,6.755,2.638,11.13,8.058,13.362a10.6,10.6,0,0,0,8.943,5.708c2.686.127,5.389.19,8.094.19s5.409-.063,8.094-.19a10.6,10.6,0,0,0,8.964-5.745,12.658,12.658,0,0,0,4.9-3.455.934.934,0,0,0-1.422-1.21,9.98,9.98,0,0,1-2.568,2.131,10.781,10.781,0,0,0,.247-1.8,118.453,118.453,0,0,0-.129-14.169,10.191,10.191,0,0,0,.176-1.882c0-3.657-1.94-7.075-5.462-9.624a21.936,21.936,0,0,0-12.8-3.85,24.422,24.422,0,0,0-2.889.168,22.563,22.563,0,0,0-6.406,1.7,16.775,16.775,0,0,0-6.451,4.76,10.944,10.944,0,0,0-2.519,6.849,10.258,10.258,0,0,0,.176,1.888,118.229,118.229,0,0,0-.129,14.162,10.787,10.787,0,0,0,.256,1.84c-3.581-2.089-5.267-5.584-5.267-10.832a23.193,23.193,0,1,1,46.382,0,16.261,16.261,0,0,1-.928,5.78.933.933,0,1,0,1.744.667,18.1,18.1,0,0,0,1.051-6.447,25.25,25.25,0,0,0-25.058-25.383ZM87.772,195.9c-5.312.251-10.7.251-16.012,0a8.739,8.739,0,0,1-8.347-8.309c-.162-3.159-.191-6.349-.092-9.531a4.74,4.74,0,0,0,1.268.174,5.3,5.3,0,0,0,1.295-.166c2.448-.615,4.643-2.895,6.089-4.761a2.43,2.43,0,0,0,.81.727c2.067,1.167,5.092-.77,7.265-2.6a32.115,32.115,0,0,0,6.127-6.978c5.1,1.544,8.932,4.871,9.8,8.929a116.59,116.59,0,0,1,.143,14.206A8.741,8.741,0,0,1,87.772,195.9ZM65.478,165.953a14.91,14.91,0,0,1,5.737-4.214,20.708,20.708,0,0,1,5.88-1.555,22.579,22.579,0,0,1,2.67-.155c7.335,0,13.561,3.427,15.65,8.137a15.521,15.521,0,0,0-3.723-3.252,22.478,22.478,0,0,0-11.927-3.256,24.41,24.41,0,0,0-2.889.168,22.577,22.577,0,0,0-6.407,1.7,16.806,16.806,0,0,0-6.328,4.6A10.207,10.207,0,0,1,65.478,165.953Zm5.737-.719a20.717,20.717,0,0,1,5.88-1.554,22.868,22.868,0,0,1,7.163.293,30.989,30.989,0,0,1-5.415,6.033c-2.784,2.345-4.511,2.761-5.144,2.4-.384-.217-.354-.821.088-1.8a.934.934,0,0,0-1.662-.846c-.885,1.56-3.814,5.767-6.7,6.492a3.048,3.048,0,0,1-2.031-.147c.044-.917.1-1.832.161-2.745.732-3.37,3.51-6.326,7.658-8.132Z" transform="translate(-47.866 -134.232)"/>
        <path id="Trazado_775414" data-name="Trazado 775414" d="M307.781,348.112a8.274,8.274,0,0,0-1.64-.151,3.21,3.21,0,0,0,.242-1.244c0-1.292-.705-2.342-1.572-2.342s-1.572,1.051-1.572,2.342a3,3,0,0,0,.466,1.662,4.7,4.7,0,0,0-.747.329.935.935,0,0,0,.469,1.742.925.925,0,0,0,.469-.128,5.465,5.465,0,0,1,3.533-.378.934.934,0,0,0,.353-1.833Z" transform="translate(-264.845 -301.514)"/>
        <path id="Trazado_775415" data-name="Trazado 775415" d="M167.132,348.71a4.715,4.715,0,0,0-.747-.329,3,3,0,0,0,.466-1.662c0-1.292-.705-2.342-1.572-2.342s-1.572,1.051-1.572,2.342a3.21,3.21,0,0,0,.242,1.244,8.277,8.277,0,0,0-1.64.151.933.933,0,0,0,.353,1.833,5.472,5.472,0,0,1,3.532.377.933.933,0,0,0,.939-1.614Z" transform="translate(-141.444 -301.515)"/>
        <path id="Trazado_775416" data-name="Trazado 775416" d="M216.781,428.971a.933.933,0,0,0,.011,1.867h.005a4.99,4.99,0,0,1,3.024.9.933.933,0,0,0,1.32-1.32C219.71,428.984,217.076,428.967,216.781,428.971Z" transform="translate(-188.992 -375.58)"/>
        <path id="Trazado_775417" data-name="Trazado 775417" d="M20.515,15.945V4.578A4.579,4.579,0,0,0,15.941,0H9.082a.933.933,0,1,0,0,1.867h6.859a2.71,2.71,0,0,1,2.707,2.707V15.945a2.71,2.71,0,0,1-2.707,2.707H4.574a2.71,2.71,0,0,1-2.707-2.707V4.578A2.71,2.71,0,0,1,4.574,1.871h.774A.933.933,0,0,0,5.348,0H4.574A4.579,4.579,0,0,0,0,4.578V15.945a4.579,4.579,0,0,0,4.574,4.574H15.941A4.579,4.579,0,0,0,20.515,15.945Z" transform="translate(0 -0.004)"/>
        <path id="Trazado_775418" data-name="Trazado 775418" d="M363.111,0H351.744a4.579,4.579,0,0,0-4.574,4.574V15.945a4.579,4.579,0,0,0,4.574,4.574h11.367a4.579,4.579,0,0,0,4.574-4.574V4.578A4.579,4.579,0,0,0,363.111,0Zm2.707,15.941a2.71,2.71,0,0,1-2.707,2.707H351.744a2.71,2.71,0,0,1-2.707-2.707V4.578a2.71,2.71,0,0,1,2.707-2.707h11.367a2.71,2.71,0,0,1,2.707,2.707Z" transform="translate(-303.96 -0.004)"/>
        <path id="Trazado_775419" data-name="Trazado 775419" d="M217.55,15.839a.934.934,0,0,0,.933-.933,3.073,3.073,0,0,1,.029-.425,3.035,3.035,0,1,1,3.006,3.46.933.933,0,0,0-.933.933v2.905a.933.933,0,0,0,1.867,0V19.72a4.909,4.909,0,0,0,3.962-5.074,4.9,4.9,0,0,0-9.8.26A.933.933,0,0,0,217.55,15.839Z" transform="translate(-189.656 -8.759)"/>
        <path id="Trazado_775420" data-name="Trazado 775420" d="M249.433,121.041a.933.933,0,0,0-.933.933v.062a.933.933,0,1,0,1.867,0v-.062A.933.933,0,0,0,249.433,121.041Z" transform="translate(-217.571 -105.976)"/>
        <path id="Trazado_775421" data-name="Trazado 775421" d="M50.823,40.993a.933.933,0,0,0-1.32,0l-3.6,3.6-3.6-3.6a.933.933,0,0,0-1.32,1.32l3.6,3.6-3.6,3.6a.933.933,0,1,0,1.32,1.32l3.6-3.6,3.6,3.6a.933.933,0,0,0,1.32-1.32l-3.6-3.6,3.6-3.6a.933.933,0,0,0,0-1.32Z" transform="translate(-35.649 -35.652)"/>
        <path id="Trazado_775422" data-name="Trazado 775422" d="M395.343,34.74a.933.933,0,0,0-1.261.39l-4.62,8.75-3.134-4.031a.933.933,0,1,0-1.474,1.146l4.021,5.172a.934.934,0,0,0,.737.36c.027,0,.055,0,.082,0a.934.934,0,0,0,.744-.494L395.733,36A.933.933,0,0,0,395.343,34.74Z" transform="translate(-336.782 -30.322)"/>
      </g>
    </g>
  </g>
</svg>
