<svg xmlns="http://www.w3.org/2000/svg" width="72" height="72" viewBox="0 0 72 72">
  <g id="Grupo_1044043" data-name="Grupo 1044043" transform="translate(-705 -9336)">
    <ellipse id="Elipse_4830" data-name="Elipse 4830" cx="36" cy="36" rx="36" ry="36" transform="translate(705 9336)" fill="#3bc192"/>
    <g id="idea_1_" data-name="idea (1)" transform="translate(668.532 9347)">
      <path id="Trazado_775230" data-name="Trazado 775230" d="M390.949,232.7h-.437l.661-8.971h2.374a3.022,3.022,0,0,1,3.022,3.022v.331A5.619,5.619,0,0,1,390.949,232.7Z" transform="translate(-304.766 -201.705)" fill="#f9a58e"/>
      <path id="Trazado_775231" data-name="Trazado 775231" d="M65.587,232.7h.437l-.661-8.971H62.99a3.022,3.022,0,0,0-3.022,3.022v.331A5.619,5.619,0,0,0,65.587,232.7Z" transform="translate(-6.762 -201.705)" fill="#eaac9d"/>
      <path id="Trazado_775232" data-name="Trazado 775232" d="M148.018,424.216v-2.572a14.245,14.245,0,0,1-7.193,2.713,14.244,14.244,0,0,1-7.193-2.713v2.572a3.726,3.726,0,0,1-2.114,3.359l-3.04,1.459a.4.4,0,0,0,.174.767H153a.4.4,0,0,0,.174-.767l-3.04-1.459A3.726,3.726,0,0,1,148.018,424.216Z" transform="translate(-68.321 -380.136)" fill="#ffcbbe"/>
      <path id="Trazado_775233" data-name="Trazado 775233" d="M140.732,59.665a14.124,14.124,0,1,0-28.171,0l.96,13.04c.506,6.875,8.982,11.639,13.125,11.639s12.619-4.764,13.125-11.639Z" transform="translate(-54.143 -40.123)" fill="#ffcbbe"/>
      <path id="Trazado_775234" data-name="Trazado 775234" d="M196.454,51.145a14.107,14.107,0,0,1,5.884,12.538l-.96,13.04c-.506,6.875-8.982,11.639-13.125,11.639a9.653,9.653,0,0,1-3.03-.592,14.048,14.048,0,0,0,6.967,2.561c4.143,0,12.619-4.764,13.125-11.639l.96-13.04A14.131,14.131,0,0,0,196.454,51.145Z" transform="translate(-119.686 -46.111)" fill="#eaac9d"/>
      <path id="Trazado_775235" data-name="Trazado 775235" d="M164.164,103.228l-.86-.4a1.231,1.231,0,0,1-.454-1.867,11.519,11.519,0,0,0-2.042-2.1,7.174,7.174,0,0,1-3.346,4.368,1.061,1.061,0,0,0-.5.687l-.21.927a1.028,1.028,0,0,1-1,.8h-3.726a1.028,1.028,0,0,1-1-.8l-.209-.918a1.08,1.08,0,0,0-.506-.7,7.173,7.173,0,0,1-3.341-4.365,11.512,11.512,0,0,0-2.165,2.269c.011.021.022.043.033.065a1.231,1.231,0,0,1-.6,1.635l-.57.266a11,11,0,0,0-.929,3.758,1.5,1.5,0,0,0,1.5,1.6h19.3a1.5,1.5,0,0,0,1.5-1.6,11,11,0,0,0-.869-3.623Z" transform="translate(-81.382 -89.127)" fill="#9dc6fb"/>
      <path id="Trazado_775236" data-name="Trazado 775236" d="M165.033,106.852a11,11,0,0,0-.87-3.623l-.86-.4a1.231,1.231,0,0,1-.454-1.867,11.521,11.521,0,0,0-2.042-2.1,7.12,7.12,0,0,1-.813,1.9,10.983,10.983,0,0,1,1.1,4.125,1.5,1.5,0,0,1-1.5,1.6H142.771q-.018.184-.031.369a1.5,1.5,0,0,0,1.5,1.6h19.3A1.5,1.5,0,0,0,165.033,106.852Z" transform="translate(-81.382 -89.127)" fill="#80b4fb"/>
      <path id="Trazado_775237" data-name="Trazado 775237" d="M237.039,170.56h-4.648v-2.709a.1.1,0,0,1,.1-.1h4.444a.1.1,0,0,1,.1.1Z" transform="translate(-162.211 -151.236)" fill="#c6c1c8"/>
      <path id="Trazado_775238" data-name="Trazado 775238" d="M197.6,14.656a7.158,7.158,0,1,0-10.738,6.2,1.08,1.08,0,0,1,.506.7l.209.918a1.028,1.028,0,0,0,1,.8h3.726a1.028,1.028,0,0,0,1-.8l.21-.927a1.061,1.061,0,0,1,.5-.687A7.155,7.155,0,0,0,197.6,14.656Z" transform="translate(-117.938 -6.761)" fill="#f6e781"/>
      <path id="Trazado_775239" data-name="Trazado 775239" d="M228.11,8.315a7.16,7.16,0,0,1-1.44,11.313,1.061,1.061,0,0,0-.5.687l-.21.927a1.028,1.028,0,0,1-1,.8h-1.088a1.122,1.122,0,0,1,.089.25l.209.918a1.028,1.028,0,0,0,1,.8H228.9a1.028,1.028,0,0,0,1-.8l.21-.927a1.061,1.061,0,0,1,.5-.687,7.16,7.16,0,0,0-2.5-13.281Z" transform="translate(-154.529 -7.497)" fill="#f4dd45"/>
      <path id="Trazado_775240" data-name="Trazado 775240" d="M358.088,68.878H356.23a1.231,1.231,0,0,1,0-2.461h1.859a1.231,1.231,0,0,1,0,2.461Z" transform="translate(-272.749 -59.879)" fill="#fff9e2"/>
      <path id="Trazado_775241" data-name="Trazado 775241" d="M347.874,11.844l-1.685.786a1.231,1.231,0,1,1-1.04-2.231l1.685-.786a1.231,1.231,0,1,1,1.04,2.231Z" transform="translate(-263.228 -8.564)" fill="#fff9e2"/>
      <path id="Trazado_775242" data-name="Trazado 775242" d="M347.874,116.25l-1.685-.786a1.231,1.231,0,1,0-1.04,2.231l1.685.786a1.231,1.231,0,1,0,1.04-2.231Z" transform="translate(-263.228 -103.994)" fill="#fff9e2"/>
      <path id="Trazado_775243" data-name="Trazado 775243" d="M112,68.878h1.859a1.231,1.231,0,1,0,0-2.461H112a1.231,1.231,0,1,0,0,2.461Z" transform="translate(-52.566 -59.879)" fill="#fff9e2"/>
      <path id="Trazado_775244" data-name="Trazado 775244" d="M123.807,11.844l1.685.786a1.231,1.231,0,0,0,1.04-2.231l-1.685-.786a1.231,1.231,0,1,0-1.04,2.231Z" transform="translate(-63.676 -8.564)" fill="#fff9e2"/>
      <path id="Trazado_775245" data-name="Trazado 775245" d="M123.807,116.25l1.685-.786a1.231,1.231,0,0,1,1.04,2.231l-1.685.786a1.231,1.231,0,1,1-1.04-2.231Z" transform="translate(-63.676 -103.994)" fill="#fff9e2"/>
      <g id="Grupo_1044042" data-name="Grupo 1044042" transform="translate(52.468 -0.001)">
        <path id="Trazado_775246" data-name="Trazado 775246" d="M88.78,21.286H87.2l.124-1.69a14.805,14.805,0,0,0-2.819-9.859h.833a1.969,1.969,0,1,0,0-3.938H83.481a1.971,1.971,0,0,0-1.744,1.056A14.924,14.924,0,0,0,80.1,5.727,7.9,7.9,0,0,0,72.313,0a7.768,7.768,0,0,0-3.5.918.738.738,0,0,0,.694,1.3,6.3,6.3,0,0,1,2.839-.745A6.421,6.421,0,0,1,75.709,13.46a1.8,1.8,0,0,0-.849,1.162l-.211.927a.288.288,0,0,1-.282.225h-1.24V13.043a2.724,2.724,0,0,0,1.98-2.617.738.738,0,1,0-1.477,0,1.242,1.242,0,0,1-2.484,0,.738.738,0,0,0-1.477,0,2.724,2.724,0,0,0,1.98,2.617v2.732H70.642a.288.288,0,0,1-.282-.225l-.209-.919a1.822,1.822,0,0,0-.856-1.174,6.411,6.411,0,0,1-2.057-9.219.738.738,0,1,0-1.21-.846,7.869,7.869,0,0,0-1.114,2.332A14.9,14.9,0,0,0,63.106,6.99,1.972,1.972,0,0,0,61.3,5.8H59.439a1.969,1.969,0,0,0,0,3.938H60.5a14.918,14.918,0,0,0-1.516,2.583,1.993,1.993,0,0,0-.238.548A14.824,14.824,0,0,0,57.683,19.6l.124,1.69H56.228a3.764,3.764,0,0,0-3.76,3.76v.33a6.365,6.365,0,0,0,6.108,6.352l.067.906a10.179,10.179,0,0,0,1.063,3.789.738.738,0,0,0,1.322-.657,8.711,8.711,0,0,1-.912-3.24l-.96-13.04a13.29,13.29,0,0,1,.431-4.461,1.976,1.976,0,0,0,1.436.279,11.8,11.8,0,0,0-.4,2.371,2.241,2.241,0,0,0,2.234,2.387H77.319a.738.738,0,1,0,0-1.477H75.567v-1.8a1.764,1.764,0,0,0,.523-.909l.211-.927a.323.323,0,0,1,.148-.211,7.922,7.922,0,0,0,3.311-3.732,10.8,10.8,0,0,1,.832.906,1.968,1.968,0,0,0,1.018,2.457l.6.28a10.263,10.263,0,0,1,.705,3.124.762.762,0,0,1-.761.812H80.764a.738.738,0,1,0,0,1.477h1.389a2.241,2.241,0,0,0,2.234-2.387,11.8,11.8,0,0,0-.393-2.34,1.981,1.981,0,0,0,1.389-.449,13.292,13.292,0,0,1,.47,4.6l-.96,13.04c-.43,5.835-7.888,10.955-12.389,10.955-2.516,0-6.757-1.916-9.571-4.986a.738.738,0,0,0-1.089,1A17.617,17.617,0,0,0,64.573,41.9v2.18a3,3,0,0,1-1.7,2.694l-3.04,1.459a1.141,1.141,0,0,0,.494,2.171H84.677a1.141,1.141,0,0,0,.494-2.171l-3.04-1.459a3,3,0,0,1-1.7-2.694V41.888c3.054-2.189,5.648-5.418,5.93-9.253l.067-.906a6.365,6.365,0,0,0,6.108-6.352v-.33A3.764,3.764,0,0,0,88.78,21.286ZM63.344,10.894A1.965,1.965,0,0,0,61.6,10.76,13.406,13.406,0,0,1,64.61,7.693a7.913,7.913,0,0,0,.153,1.759,12.25,12.25,0,0,0-1.419,1.441Zm-4.4-3.125a.493.493,0,0,1,.492-.492H61.3a.492.492,0,1,1,0,.984H59.438A.493.493,0,0,1,58.946,7.768Zm-5,17.608v-.33a2.286,2.286,0,0,1,2.284-2.284h1.688l.551,7.482A4.887,4.887,0,0,1,53.945,25.377Zm8.15-7.6a10.252,10.252,0,0,1,.759-3.257l.315-.147a1.969,1.969,0,0,0,1.082-2.248,10.8,10.8,0,0,1,1-1.113,7.9,7.9,0,0,0,3.307,3.726.342.342,0,0,1,.156.223l.209.918a1.764,1.764,0,0,0,.523.909v1.8H62.855A.762.762,0,0,1,62.095,17.774Zm8.824.812V17.252H74.09v1.335ZM81.492,48.1l1.712.822h-21.4l1.712-.822a4.487,4.487,0,0,0,2.533-4.025V42.856a13.962,13.962,0,0,0,6.454,2.1,13.85,13.85,0,0,0,6.454-2.111v1.232A4.488,4.488,0,0,0,81.492,48.1ZM83.481,7.276H85.34a.492.492,0,0,1,0,.984H83.481a.49.49,0,0,1-.328-.125l-.047-.048A.493.493,0,0,1,83.481,7.276Zm1.092,6.3a.493.493,0,0,1-.654.238l-1.685-.786a.492.492,0,0,1,.416-.892l1.685.786a.492.492,0,0,1,.238.654Zm-24.129-.654,1.685-.786a.492.492,0,1,1,.416.892l-1.685.786a.492.492,0,0,1-.416-.892ZM83.274,10.8a1.961,1.961,0,0,0-1.681.008,12.255,12.255,0,0,0-1.348-1.357A7.851,7.851,0,0,0,80.4,7.694a13.415,13.415,0,0,1,3.119,3.222Zm7.79,14.575a4.887,4.887,0,0,1-4.522,4.868l.551-7.482H88.78a2.286,2.286,0,0,1,2.284,2.284Z" transform="translate(-52.468 0.001)" fill="#222221"/>
        <path id="Trazado_775247" data-name="Trazado 775247" d="M175.385,238.286H169.5a.738.738,0,1,0,0,1.477h5.883a.738.738,0,0,0,0-1.477Z" transform="translate(-157.315 -214.828)" fill="#222221"/>
        <path id="Trazado_775248" data-name="Trazado 775248" d="M251.942,244.864V240.99a1.229,1.229,0,0,1,1.228-1.228h3.917a.738.738,0,1,0,0-1.477H253.17a2.707,2.707,0,0,0-2.7,2.7v3.874a1.229,1.229,0,0,1-1.228,1.228.738.738,0,1,0,0,1.477A2.708,2.708,0,0,0,251.942,244.864Z" transform="translate(-229.201 -214.828)" fill="#222221"/>
        <path id="Trazado_775249" data-name="Trazado 775249" d="M200.662,368.7a.738.738,0,1,0-.662,1.32l.618.31a10.142,10.142,0,0,0,9.055,0l.618-.31a.738.738,0,1,0-.662-1.32l-.618.31a8.66,8.66,0,0,1-7.731,0Z" transform="translate(-185.109 -332.337)" fill="#222221"/>
        <path id="Trazado_775250" data-name="Trazado 775250" d="M201.52,31.057a.738.738,0,0,0,.757-.719,4,4,0,0,1,3.86-3.849.738.738,0,0,0-.035-1.476,5.494,5.494,0,0,0-5.3,5.287.738.738,0,0,0,.719.757Z" transform="translate(-186.199 -22.551)" fill="#222221"/>
        <path id="Trazado_775251" data-name="Trazado 775251" d="M338.23,6.608a1.956,1.956,0,0,0,1.505-.066l1.685-.786a1.969,1.969,0,1,0-1.664-3.569l-1.685.786a1.969,1.969,0,0,0,.159,3.634Zm.211-2.018a.489.489,0,0,1,.254-.278l1.685-.786a.492.492,0,1,1,.416.892l-1.685.786A.493.493,0,0,1,338.441,4.589Z" transform="translate(-308.93 -1.806)" fill="#222221"/>
        <path id="Trazado_775252" data-name="Trazado 775252" d="M116.729,5.756l1.685.786a1.969,1.969,0,1,0,1.664-3.569l-1.685-.786a1.969,1.969,0,0,0-1.664,3.569Zm.386-1.992a.493.493,0,0,1,.654-.238l1.685.786a.492.492,0,1,1-.416.892l-1.685-.786A.492.492,0,0,1,117.115,3.763Z" transform="translate(-109.377 -1.805)" fill="#222221"/>
      </g>
    </g>
  </g>
</svg>
