<svg xmlns="http://www.w3.org/2000/svg" width="81" height="81" viewBox="0 0 81 81">
  <g id="Grupo_1044069" data-name="Grupo 1044069" transform="translate(-1044 -10159)">
    <rect id="Rect치ngulo_35798" data-name="Rect치ngulo 35798" width="81" height="81" rx="8" transform="translate(1044 10159)" fill="#fabf40"/>
    <g id="doctor" transform="translate(1001.887 10165)">
      <path id="Trazado_775310" data-name="Trazado 775310" d="M110.345,342.548l-11.272-3.315H79.493l-11.272,3.315a6.417,6.417,0,0,0-4.607,6.157v12.579h51.338V348.705A6.417,6.417,0,0,0,110.345,342.548Z" transform="translate(-6.5 -293.971)" fill="#edebed"/>
      <path id="Trazado_775311" data-name="Trazado 775311" d="M212.723,365.568h-10.7l-2.139-21.391h14.974Z" transform="translate(-124.592 -298.256)" fill="#a5cdff"/>
      <path id="Trazado_775312" data-name="Trazado 775312" d="M200.374,349.042a10.658,10.658,0,0,0,14,0l.486-4.865H199.888Z" transform="translate(-124.592 -298.256)" fill="#8cb4eb"/>
      <path id="Trazado_775313" data-name="Trazado 775313" d="M207.375,278.99h0a7.487,7.487,0,0,1-7.487-7.487v-7.487h14.974V271.5A7.487,7.487,0,0,1,207.375,278.99Z" transform="translate(-124.592 -228.79)" fill="#f7d291"/>
      <path id="Trazado_775314" data-name="Trazado 775314" d="M199.888,269.611a15.759,15.759,0,0,0,14.974,0v-5.595H199.888Z" transform="translate(-124.592 -228.79)" fill="#f0c382"/>
      <path id="Trazado_775315" data-name="Trazado 775315" d="M153.418,90.34h-1.6v-10.7H124.006v10.7h-1.6a2.674,2.674,0,0,0,0,5.348h1.658a13.89,13.89,0,0,0,27.7,0h1.658a2.674,2.674,0,1,0,0-5.348Z" transform="translate(-55.127 -69.018)" fill="#ffe1a0"/>
      <path id="Trazado_775316" data-name="Trazado 775316" d="M124.1,79.645v10.7h-1.5a2.735,2.735,0,0,0-2.67,1.948,2.682,2.682,0,0,0,2.577,3.4h1.644a13.806,13.806,0,0,0,16,12.654,13.9,13.9,0,0,1-11.772-13.724V87.9A3.2,3.2,0,0,1,132,84.744a27.093,27.093,0,0,0,3.208.184,42.168,42.168,0,0,0,10.564-1.506,8.252,8.252,0,0,0,4.975-3.778Z" transform="translate(-55.218 -69.018)" fill="#f7d291"/>
      <path id="Trazado_775317" data-name="Trazado 775317" d="M143.112,47.533l.134,4.278a11.811,11.811,0,0,0-3.209,7.487v1.32a2.139,2.139,0,0,1-1.874,2.123l-2.4.3V53.95C135.759,50.406,139.1,47.354,143.112,47.533Z" transform="translate(-69.019 -41.184)" fill="#a06e50"/>
      <path id="Trazado_775318" data-name="Trazado 775318" d="M268.815,321.717,266.7,319.6l2.267-3.023a1.31,1.31,0,0,0-.462-1.957l-5.014-2.507L256,337.781h6.417l6.8-13.595A2.139,2.139,0,0,0,268.815,321.717Z" transform="translate(-173.218 -270.469)" fill="#dbd9dc"/>
      <path id="Trazado_775319" data-name="Trazado 775319" d="M320.264,23.484l-.134,7.487a11.811,11.811,0,0,1,3.209,7.487v1.32a2.139,2.139,0,0,0,1.874,2.123l2.4.3V29.9C327.617,26.357,324.275,23.305,320.264,23.484Z" transform="translate(-228.791 -20.344)" fill="#cd916e"/>
      <path id="Trazado_775320" data-name="Trazado 775320" d="M155.893,321.717l2.119-2.118-2.267-3.023a1.31,1.31,0,0,1,.462-1.957l5.014-2.507,7.487,25.669h-6.417l-6.8-13.595A2.139,2.139,0,0,1,155.893,321.717Z" transform="translate(-85.924 -270.469)" fill="#dbd9dc"/>
      <path id="Trazado_775321" data-name="Trazado 775321" d="M154.37,7.5c-8.923,0-10.633,2.713-17.5,4.9a.749.749,0,0,0-.418,1.115c1.491,2.332,7.041,8.411,22.807,4.283a5,5,0,0,0,3.64-3.843h0a5,5,0,0,0-2.865-5.3A13.171,13.171,0,0,0,154.37,7.5Z" transform="translate(-69.515 -6.499)" fill="#b67f5f"/>
      <rect id="Rect치ngulo_355966" data-name="Rect치ngulo 355966" width="10.695" height="6.418" transform="translate(62.461 60.895)" fill="#a5cdff"/>
      <path id="Trazado_775322" data-name="Trazado 775322" d="M201.406,160.322a1,1,0,0,0-1,1v1.07a1,1,0,0,0,2,0v-1.07A1,1,0,0,0,201.406,160.322Z" transform="translate(-125.04 -138.931)"/>
      <path id="Trazado_775323" data-name="Trazado 775323" d="M297.6,160.322a1,1,0,0,0-1,1v1.07a1,1,0,0,0,2,0v-1.07A1,1,0,0,0,297.6,160.322Z" transform="translate(-208.398 -138.931)"/>
      <path id="Trazado_775324" data-name="Trazado 775324" d="M232.574,218.148a1,1,0,1,0-1.405-1.425,4.41,4.41,0,0,1-5.012,0,1,1,0,0,0-1.406,1.425,6.312,6.312,0,0,0,7.823,0Z" transform="translate(-145.88 -187.557)"/>
      <path id="Trazado_775325" data-name="Trazado 775325" d="M195.529,136.274H193.39a1,1,0,1,0,0,2h2.139a1,1,0,1,0,0-2Z" transform="translate(-118.093 -118.092)"/>
      <path id="Trazado_775326" data-name="Trazado 775326" d="M289.583,138.275h2.139a1,1,0,0,0,0-2h-2.139a1,1,0,0,0,0,2Z" transform="translate(-201.452 -118.092)"/>
      <path id="Trazado_775327" data-name="Trazado 775327" d="M104.215,47.664,97,45.447a2.295,2.295,0,0,0-1.271-2.192l-4.461-2.23V37.844A14.927,14.927,0,0,0,97.544,27.67h.595a3.791,3.791,0,0,0,3.808-3.3,3.669,3.669,0,0,0-2.12-3.712V9.557a7.426,7.426,0,0,0-7.418-7.418H92.24A12.615,12.615,0,0,0,84.855,0,25.512,25.512,0,0,0,72.408,2.81a43.4,43.4,0,0,1-6.216,2.4,1,1,0,0,0-.642,1.346A9.079,9.079,0,0,0,67.18,8.928c-.5.613-1.441,2.181-1.441,5.264V20.7a3.65,3.65,0,0,0,1.535,6.966h.747A14.922,14.922,0,0,0,74.3,37.846v3.179l-4.461,2.23a2.295,2.295,0,0,0-1.271,2.192l-7.213,2.218a7.381,7.381,0,0,0-5.238,7.09V67.312a1,1,0,0,0,2,0V54.755a5.389,5.389,0,0,1,3.825-5.177l7.5-2.307,1.324,1.766-1.5,1.5a3.136,3.136,0,0,0-.588,3.624l2.865,5.729H68.81V58.756a1,1,0,0,0-2,0v1.138H62.462a1,1,0,0,0-1,1v6.417a1,1,0,0,0,1,1h10.7a1,1,0,0,0,1-1V65.134l1.313,2.626a1,1,0,0,0,1.79-.9l-6.8-13.595a1.137,1.137,0,0,1,.213-1.314L72.8,49.837a1,1,0,0,0,.093-1.308l-2.267-3.023a.309.309,0,0,1,.109-.462l3.941-1.971,2.782,9.54a1,1,0,1,0,1.921-.56l-.439-1.5a11.709,11.709,0,0,0,7.693,0L82.783,63.738l-2.16-7.4a1,1,0,1,0-1.921.56l3.12,10.7a1,1,0,0,0,1.921,0l7.151-24.518,3.941,1.971a.309.309,0,0,1,.109.462l-2.267,3.023a1,1,0,0,0,.093,1.308l2.119,2.119A1.137,1.137,0,0,1,95.1,53.27l-6.8,13.595a1,1,0,1,0,1.79.9l6.8-13.595a3.136,3.136,0,0,0-.588-3.624l-1.5-1.5,1.324-1.766,7.5,2.307a5.389,5.389,0,0,1,3.825,5.177V67.312a1,1,0,1,0,2,0V54.755A7.381,7.381,0,0,0,104.215,47.664ZM72.156,66.312H63.462V61.9h3.346v.069a1,1,0,0,0,2,0V61.9h3.346v4.416ZM73.234,4.633A23.57,23.57,0,0,1,84.855,2c3.692,0,6.991,1.545,7.674,3.594a1,1,0,1,0,1.9-.633,4.718,4.718,0,0,0-.2-.508,5.425,5.425,0,0,1,3.6,5.1V20.321H96.687a1.14,1.14,0,0,1-1.138-1.138v-1.07a12.749,12.749,0,0,0-3.5-8.194,1,1,0,0,0-1.009-.247c-5.555,1.754-13.387,3.233-19.154.315a10.765,10.765,0,0,1-3.9-3.239A49.219,49.219,0,0,0,73.234,4.633ZM89.269,41.5l-1.911,6.553a9.708,9.708,0,0,1-9.15,0L76.3,41.5V39.018a14.883,14.883,0,0,0,12.972,0Zm-6.486-3a12.918,12.918,0,0,1-12.9-12.9,1,1,0,1,0-2,0v.069h-.6a1.674,1.674,0,0,1-1.664-1.849,1.775,1.775,0,0,1,1.817-1.5h1.451a3.143,3.143,0,0,0,3.14-3.14V15.406a1,1,0,1,0-2,0v3.777a1.14,1.14,0,0,1-1.138,1.138H67.741v-6.13a6.745,6.745,0,0,1,.915-3.9,13.755,13.755,0,0,0,2.168,1.4,18.681,18.681,0,0,0,8.022,1.945,37.873,37.873,0,0,0,12.174-1.864,10.546,10.546,0,0,1,2.529,6.34v1.07a3.143,3.143,0,0,0,3.14,3.14h1.6a1.674,1.674,0,0,1,1.664,1.849,1.775,1.775,0,0,1-1.817,1.5h-.452v-.058a1,1,0,0,0-1-1h0a1,1,0,0,0-1,1A12.92,12.92,0,0,1,82.783,38.5Z"/>
      <path id="Trazado_775328" data-name="Trazado 775328" d="M367.075,435.545H365.4v-1.673a1,1,0,1,0-2,0v1.673h-1.673a1,1,0,1,0,0,2H363.4v1.673a1,1,0,0,0,2,0v-1.673h1.673a1,1,0,0,0,0-2Z" transform="translate(-263.971 -375.116)"/>
    </g>
  </g>
</svg>
