<svg xmlns="http://www.w3.org/2000/svg" width="81" height="81" viewBox="0 0 81 81">
  <g id="Grupo_988084" data-name="Grupo 988084" transform="translate(-834 -2577)">
    <g id="Grupo_988083" data-name="Grupo 988083">
      <rect id="Rectángulo_35798" data-name="Rectángulo 35798" width="81" height="81" rx="8" transform="translate(834 2577)" fill="#fabf40"/>
      <g id="planificacion" transform="translate(843 2586)">
        <g id="Grupo_988081" data-name="Grupo 988081">
          <g id="Grupo_988071" data-name="Grupo 988071">
            <path id="Trazado_212864" data-name="Trazado 212864" d="M60,56H4a2,2,0,0,1-2-2V20H62V54A2,2,0,0,1,60,56Z" fill="#e6e9ed"/>
          </g>
          <g id="Grupo_988072" data-name="Grupo 988072">
            <path id="Trazado_212865" data-name="Trazado 212865" d="M60,8H4a2.006,2.006,0,0,0-2,2V20H62V10A2.006,2.006,0,0,0,60,8Z" fill="#b4dd7f"/>
          </g>
          <g id="Grupo_988073" data-name="Grupo 988073">
            <path id="Trazado_212866" data-name="Trazado 212866" d="M57,56l1,6H47l1-6,1-6h7Z" fill="#b4dd7f"/>
          </g>
          <g id="Grupo_988074" data-name="Grupo 988074">
            <path id="Trazado_212867" data-name="Trazado 212867" d="M49,50H37a1,1,0,0,1-1-1V41a1,1,0,0,1,1-1H47a1,1,0,0,0-1,1v3.39A6.768,6.768,0,0,0,49,50Z" fill="#fcd770"/>
          </g>
          <g id="Grupo_988075" data-name="Grupo 988075">
            <path id="Trazado_212868" data-name="Trazado 212868" d="M58,27V37H54V34a2.015,2.015,0,0,0-2-2,2.006,2.006,0,0,0-2,2v3H46V27a1,1,0,0,1,1-1H57A1,1,0,0,1,58,27Z" fill="#ff826e"/>
          </g>
          <g id="Grupo_988076" data-name="Grupo 988076">
            <path id="Trazado_212869" data-name="Trazado 212869" d="M18,2l-.75,6L16,18H9L7.75,8,7,2Z" fill="#fcd770"/>
          </g>
          <g id="Grupo_988077" data-name="Grupo 988077">
            <path id="Trazado_212870" data-name="Trazado 212870" d="M58,44v1.17A6.835,6.835,0,0,1,56,50H49a6.768,6.768,0,0,1-3-5.61V41a1,1,0,0,1,1-1,3,3,0,0,1,3,3V34a2.006,2.006,0,0,1,2-2,2.015,2.015,0,0,1,2,2v6a3.995,3.995,0,0,1,4,4Z" fill="#f0d0b4"/>
          </g>
          <g id="Grupo_988078" data-name="Grupo 988078">
            <path id="Trazado_212871" data-name="Trazado 212871" d="M28,31v8a1,1,0,0,1-1,1H19a1,1,0,0,1-1-1V31a1,1,0,0,1,1-1h8A1,1,0,0,1,28,31Z" fill="#ff826e"/>
          </g>
          <g id="Grupo_988079" data-name="Grupo 988079">
            <path id="Trazado_212872" data-name="Trazado 212872" d="M20,44v3a1,1,0,0,1-1,1H7a1,1,0,0,1-1-1V35a1,1,0,0,1,1-1h3a2.006,2.006,0,0,0,2,2,2.015,2.015,0,0,0,2-2h4v5a1,1,0,0,0,1,1h1Z" fill="#fcd770"/>
          </g>
          <g id="Grupo_988080" data-name="Grupo 988080">
            <path id="Trazado_212873" data-name="Trazado 212873" d="M18,22.83V24a3.995,3.995,0,0,1-4,4v6a2.015,2.015,0,0,1-2,2,2.006,2.006,0,0,1-2-2V25a3,3,0,0,1-3,3,1,1,0,0,1-1-1V23.61A6.763,6.763,0,0,1,9,18h7a6.9,6.9,0,0,1,2,4.83Z" fill="#f0d0b4"/>
          </g>
        </g>
        <g id="Grupo_988082" data-name="Grupo 988082">
          <path id="Trazado_212874" data-name="Trazado 212874" d="M60,7H18.383l.75-6H5.867l.75,6H4a3,3,0,0,0-3,3V54a3,3,0,0,0,3,3H46.82l-1,6H59.181l-1-6H60a3,3,0,0,0,3-3V10A3,3,0,0,0,60,7Zm1,3v9H33V9H60A1,1,0,0,1,61,10ZM31,9V19H18a7.852,7.852,0,0,0-.947-1.33L18.133,9ZM19,41v6H7V35H9.184a2.982,2.982,0,0,0,5.632,0H17v4A2,2,0,0,0,19,41Zm0-2V31h8v8ZM13,27v7a1,1,0,0,1-2,0V25H9a2,2,0,0,1-2,2V23.6A5.717,5.717,0,0,1,9.334,19h6.225A5.788,5.788,0,0,1,17,22.829V24a3,3,0,0,1-3,3ZM16.867,3l-1.75,14H9.883L8.133,3ZM4,9H6.867l1.069,8.555A7.751,7.751,0,0,0,6.53,19H3V10A1,1,0,0,1,4,9ZM3,54V21H5.46A7.728,7.728,0,0,0,5,23.6V27a2,2,0,0,0,2,2,3.97,3.97,0,0,0,2-.537V33H7a2,2,0,0,0-2,2V47a2,2,0,0,0,2,2H19a2,2,0,0,0,2-2V41h6a2,2,0,0,0,2-2V31a2,2,0,0,0-2-2H19a2,2,0,0,0-2,2v2H15V28.9A5.009,5.009,0,0,0,19,24V22.829A7.841,7.841,0,0,0,18.777,21H31V55H4a1,1,0,0,1-1-1ZM54,41a3,3,0,0,1,3,3v1.171A5.788,5.788,0,0,1,55.559,49H49.334A5.717,5.717,0,0,1,47,44.4V41a2,2,0,0,1,2,2h2V34a1,1,0,0,1,2,0v7ZM48.181,61l1.666-10h5.307L56.82,61ZM60,55H57.847l-.782-4.688A7.767,7.767,0,0,0,59,45.171V44a5.008,5.008,0,0,0-4-4.9V34a3,3,0,0,0-6,0v5.537A3.97,3.97,0,0,0,47,39a2,2,0,0,0-2,2v3.4a7.708,7.708,0,0,0,2.915,6.034L47.153,55H33V21H61V54A1,1,0,0,1,60,55Z"/>
          <path id="Trazado_212875" data-name="Trazado 212875" d="M47,13h2v2H47Z"/>
          <path id="Trazado_212876" data-name="Trazado 212876" d="M51,13h2v2H51Z"/>
          <path id="Trazado_212877" data-name="Trazado 212877" d="M55,13h2v2H55Z"/>
          <path id="Trazado_212878" data-name="Trazado 212878" d="M35,13H45v2H35Z"/>
          <path id="Trazado_212879" data-name="Trazado 212879" d="M37,41h6V39H37a2,2,0,0,0-2,2v8a2,2,0,0,0,2,2h8V49H37Z"/>
          <path id="Trazado_212880" data-name="Trazado 212880" d="M57,25H47a2,2,0,0,0-2,2V37h2V27H57V37h2V27A2,2,0,0,0,57,25Z"/>
          <path id="Trazado_212881" data-name="Trazado 212881" d="M35,29h6v2H35Z"/>
          <path id="Trazado_212882" data-name="Trazado 212882" d="M35,33h8v2H35Z"/>
          <path id="Trazado_212883" data-name="Trazado 212883" d="M25,47h4v2H25Z"/>
          <path id="Trazado_212884" data-name="Trazado 212884" d="M23,43h6v2H23Z"/>
        </g>
      </g>
    </g>
  </g>
</svg>
