<svg xmlns="http://www.w3.org/2000/svg" width="81" height="81" viewBox="0 0 81 81">
  <g id="Grupo_988108" data-name="Grupo 988108" transform="translate(-1149 -2577)">
    <rect id="Rectángulo_35797" data-name="Rectángulo 35797" width="81" height="81" rx="8" transform="translate(1149 2577)" fill="#fabf40"/>
    <g id="familia" transform="translate(1157 2586)">
      <g id="Grupo_988106" data-name="Grupo 988106">
        <g id="Grupo_988085" data-name="Grupo 988085">
          <path id="Trazado_212885" data-name="Trazado 212885" d="M22.06,36.77A8.874,8.874,0,0,0,21,41v.49a4.983,4.983,0,0,1-.84,2.77l-.54.8A3.772,3.772,0,0,0,19,47.12a3.652,3.652,0,0,0,.39,1.66l.72,1.43a2,2,0,0,1-.9,2.68l-.07.04A3.877,3.877,0,0,0,17.3,54.9a2.9,2.9,0,0,0-4.15-.05L12,56v6H8a6,6,0,0,1-6-6V45.19A9.14,9.14,0,0,1,9.13,36.3l3.13-.69L15,42l5-4Z" fill="#75b1f2"/>
        </g>
        <g id="Grupo_988086" data-name="Grupo 988086">
          <path id="Trazado_212886" data-name="Trazado 212886" d="M20,38l-5,4-2.74-6.39L15,35Z" fill="#5d9cec"/>
        </g>
        <g id="Grupo_988087" data-name="Grupo 988087">
          <path id="Trazado_212887" data-name="Trazado 212887" d="M56,50v6H52l-1.15-1.15a2.9,2.9,0,0,0-4.15.05,3.877,3.877,0,0,0-1.84-1.97l-.07-.04a2,2,0,0,1-.9-2.68l.72-1.43A3.652,3.652,0,0,0,45,47.12a3.772,3.772,0,0,0-.62-2.06l-.54-.8A4.983,4.983,0,0,1,43,41.49V41a9.019,9.019,0,0,0-1.17-4.44A5.5,5.5,0,0,0,44,37a5.674,5.674,0,0,0,2.64-.66,5.74,5.74,0,0,0,2.02-1.84L49,34s2.82.4,4.87.7l.37.06A9.293,9.293,0,0,1,57.8,36.2l.07.05a9.3,9.3,0,0,1,4.14,7.73L62,50Z" fill="#fcd770"/>
        </g>
        <g id="Grupo_988088" data-name="Grupo 988088">
          <path id="Trazado_212888" data-name="Trazado 212888" d="M28,59a2.76,2.76,0,0,0,.82-.13A3.184,3.184,0,0,0,32,62H19a3,3,0,0,0,3-3,3.026,3.026,0,0,0-.48-1.63,10.483,10.483,0,0,1,3.74-2.59A2.934,2.934,0,0,0,25,56a3,3,0,0,0,3,3Z" fill="#ff826e"/>
        </g>
        <g id="Grupo_988089" data-name="Grupo 988089">
          <path id="Trazado_212889" data-name="Trazado 212889" d="M36,59a3,3,0,0,0,3-3,2.934,2.934,0,0,0-.26-1.22,10.586,10.586,0,0,1,3.74,2.58A3.034,3.034,0,0,0,42,59a3,3,0,0,0,3,3H32a3.184,3.184,0,0,0,3.18-3.13A2.76,2.76,0,0,0,36,59Z" fill="#ff826e"/>
        </g>
        <g id="Grupo_988090" data-name="Grupo 988090">
          <path id="Trazado_212890" data-name="Trazado 212890" d="M36,53a2.981,2.981,0,0,1,2.74,1.78A2.934,2.934,0,0,1,39,56a3,3,0,0,1-3,3,2.76,2.76,0,0,1-.82-.13,3.18,3.18,0,0,1-6.36,0A2.76,2.76,0,0,1,28,59a3,3,0,0,1-3-3,2.934,2.934,0,0,1,.26-1.22A2.981,2.981,0,0,1,28,53a3.4,3.4,0,0,1,.45.03,4.136,4.136,0,0,0,.55.29V55a3,3,0,0,0,6,0V53.32a4.136,4.136,0,0,0,.55-.29A3.4,3.4,0,0,1,36,53Z" fill="#fc6e51"/>
        </g>
        <g id="Grupo_988091" data-name="Grupo 988091">
          <path id="Trazado_212891" data-name="Trazado 212891" d="M44.86,52.93A3.877,3.877,0,0,1,46.7,54.9a2.938,2.938,0,0,0-.5.71L46,56H45a3.016,3.016,0,0,0-2.52,1.36,10.586,10.586,0,0,0-3.74-2.58A2.981,2.981,0,0,0,36,53a3.4,3.4,0,0,0-.45.03A6.97,6.97,0,0,0,39,47V43.69a3.009,3.009,0,0,0-2.67-2.99l-2.23-.24a5.9,5.9,0,0,1-3.79-1.98l-1.68.48A5.01,5.01,0,0,0,25,43.77V47a6.978,6.978,0,0,0,3.45,6.03A3.4,3.4,0,0,0,28,53a2.981,2.981,0,0,0-2.74,1.78,10.483,10.483,0,0,0-3.74,2.59A2.975,2.975,0,0,0,19,56H18l-.2-.39a2.938,2.938,0,0,0-.5-.71,3.877,3.877,0,0,1,1.84-1.97l.07-.04a2,2,0,0,0,.9-2.68l-.72-1.43A3.652,3.652,0,0,1,19,47.12a3.772,3.772,0,0,1,.62-2.06l.54-.8A4.983,4.983,0,0,0,21,41.49V41a9.006,9.006,0,0,1,9-9h4a9,9,0,0,1,9,9v.49a4.983,4.983,0,0,0,.84,2.77l.54.8A3.772,3.772,0,0,1,45,47.12a3.652,3.652,0,0,1-.39,1.66l-.72,1.43a2,2,0,0,0,.9,2.68Z" fill="#656d78"/>
        </g>
        <g id="Grupo_988092" data-name="Grupo 988092">
          <path id="Trazado_212892" data-name="Trazado 212892" d="M39.32,10.23h-.01l-.52.17A7.013,7.013,0,0,0,34,17.05V21a2.989,2.989,0,0,0-.94-2.18A19.568,19.568,0,0,0,34,12.84a10.812,10.812,0,0,0-1.29-5.13A14,14,0,0,1,58,16v9.34a13.687,13.687,0,0,1-3.76,9.42l-.37-.06C51.82,34.4,49,34,49,34l-.96-3.85v-.01A9.991,9.991,0,0,0,54,21V17.76a4,4,0,0,0-3.75-3.99l-5.26-.33a7.465,7.465,0,0,1-5.67-3.21Z" fill="#656d78"/>
        </g>
        <g id="Grupo_988093" data-name="Grupo 988093">
          <path id="Trazado_212893" data-name="Trazado 212893" d="M39.96,30.14v.01l-.86,3.44A8.963,8.963,0,0,0,34,32H31.73A13.743,13.743,0,0,1,30,25.34V24h1a3,3,0,0,0,3-3,9.977,9.977,0,0,0,5.96,9.14Z" fill="#656d78"/>
        </g>
        <g id="Grupo_988094" data-name="Grupo 988094">
          <path id="Trazado_212894" data-name="Trazado 212894" d="M56,56V50h6v6a6,6,0,0,1-6,6H45a3,3,0,0,1-3-3,2.983,2.983,0,0,1,3-3h1l.2-.39a2.938,2.938,0,0,1,.5-.71,2.9,2.9,0,0,1,4.15-.05L52,56Z" fill="#f0d0b4"/>
        </g>
        <g id="Grupo_988095" data-name="Grupo 988095">
          <path id="Trazado_212895" data-name="Trazado 212895" d="M48.04,30.15,49,34l-.34.5a5.74,5.74,0,0,1-2.02,1.84A5.674,5.674,0,0,1,44,37a5.5,5.5,0,0,1-2.17-.44,8.928,8.928,0,0,0-2.73-2.97l.86-3.44v-.01a9.919,9.919,0,0,0,8.08,0Z" fill="#f0d0b4"/>
        </g>
        <g id="Grupo_988096" data-name="Grupo 988096">
          <path id="Trazado_212896" data-name="Trazado 212896" d="M39.32,10.23a7.465,7.465,0,0,0,5.67,3.21l5.26.33A4,4,0,0,1,54,17.76V21a9.991,9.991,0,0,1-5.96,9.14,9.919,9.919,0,0,1-8.08,0A9.977,9.977,0,0,1,34,21V17.05a7.013,7.013,0,0,1,4.79-6.65l.52-.17Z" fill="#f0d0b4"/>
        </g>
        <g id="Grupo_988097" data-name="Grupo 988097">
          <path id="Trazado_212897" data-name="Trazado 212897" d="M39,43.69V47a6.97,6.97,0,0,1-3.45,6.03,4.136,4.136,0,0,1-.55.29A6.876,6.876,0,0,1,32,54l-3-.68a4.136,4.136,0,0,1-.55-.29A6.978,6.978,0,0,1,25,47V43.77a5.01,5.01,0,0,1,3.63-4.81l1.68-.48a5.9,5.9,0,0,0,3.79,1.98l2.23.24A3.009,3.009,0,0,1,39,43.69Z" fill="#f0d0b4"/>
        </g>
        <g id="Grupo_988098" data-name="Grupo 988098">
          <path id="Trazado_212898" data-name="Trazado 212898" d="M35,53.33V55a3,3,0,0,1-6,0V53.32L32,54a6.876,6.876,0,0,0,3-.68Z" fill="#f0d0b4"/>
        </g>
        <g id="Grupo_988099" data-name="Grupo 988099">
          <path id="Trazado_212899" data-name="Trazado 212899" d="M21.52,57.37A3.026,3.026,0,0,1,22,59a3,3,0,0,1-3,3H12V56l1.15-1.15a2.9,2.9,0,0,1,4.15.05,2.938,2.938,0,0,1,.5.71L18,56h1A2.975,2.975,0,0,1,21.52,57.37Z" fill="#f0d0b4"/>
        </g>
        <g id="Grupo_988100" data-name="Grupo 988100">
          <path id="Trazado_212900" data-name="Trazado 212900" d="M24.22,31.08l.52,2.62a8.8,8.8,0,0,0-2.68,3.07L20,38l-5-3,.78-3.92.01-.02a9.9,9.9,0,0,0,8.42,0Z" fill="#f0d0b4"/>
        </g>
        <g id="Grupo_988101" data-name="Grupo 988101">
          <path id="Trazado_212901" data-name="Trazado 212901" d="M14.15,11.53l-1.22.73A5.988,5.988,0,0,0,10,17.41V18H9a3.008,3.008,0,0,0-2.06.82A19.568,19.568,0,0,1,6,12.84,10.823,10.823,0,0,1,16.84,2h6.32A10.838,10.838,0,0,1,34,12.84a19.568,19.568,0,0,1-.94,5.98A3.008,3.008,0,0,0,31,18H30a4,4,0,0,0-4-4H17.49a3.484,3.484,0,0,1-3.34-2.47Z" fill="#b27946"/>
        </g>
        <g id="Grupo_988102" data-name="Grupo 988102">
          <path id="Trazado_212902" data-name="Trazado 212902" d="M29.8,24a10.048,10.048,0,0,0,.2-2V18h1a3,3,0,0,1,0,6H29.8Z" fill="#f0d0b4"/>
        </g>
        <g id="Grupo_988103" data-name="Grupo 988103">
          <path id="Trazado_212903" data-name="Trazado 212903" d="M23.15,23h-6.3a3,3,0,0,0-2.68,1.66l-1.86,3.73A9.952,9.952,0,0,1,10,22V17.41a5.988,5.988,0,0,1,2.93-5.15l1.22-.73A3.484,3.484,0,0,0,17.49,14H26a4,4,0,0,1,4,4v4a9.952,9.952,0,0,1-2.31,6.39l-1.86-3.73A3,3,0,0,0,23.15,23Z" fill="#f0d0b4"/>
        </g>
        <g id="Grupo_988104" data-name="Grupo 988104">
          <path id="Trazado_212904" data-name="Trazado 212904" d="M10.2,24H9a3,3,0,0,1,0-6h1v4A10.048,10.048,0,0,0,10.2,24Z" fill="#f0d0b4"/>
        </g>
        <g id="Grupo_988105" data-name="Grupo 988105">
          <path id="Trazado_212905" data-name="Trazado 212905" d="M16.85,23h6.3a3,3,0,0,1,2.68,1.66l1.86,3.73a9.926,9.926,0,0,1-3.48,2.67,9.9,9.9,0,0,1-8.42,0,9.86,9.86,0,0,1-2.86-1.99c-.22-.22-.42-.44-.62-.68l1.86-3.73A3,3,0,0,1,16.85,23Z" fill="#cf9e76"/>
        </g>
      </g>
      <g id="Grupo_988107" data-name="Grupo 988107">
        <path id="Trazado_212906" data-name="Trazado 212906" d="M16,19a1,1,0,0,1,1,1h2a3,3,0,0,0-6,0h2A1,1,0,0,1,16,19Z"/>
        <path id="Trazado_212907" data-name="Trazado 212907" d="M24,19a1,1,0,0,1,1,1h2a3,3,0,0,0-6,0h2A1,1,0,0,1,24,19Z"/>
        <path id="Trazado_212908" data-name="Trazado 212908" d="M23.789,26.658l.1-.211-1.789-.9-.1.212a2.236,2.236,0,0,1-4,0l-.1-.211-1.789.9.1.21a4.236,4.236,0,0,0,7.578,0Z"/>
        <path id="Trazado_212909" data-name="Trazado 212909" d="M40,19a1,1,0,0,1,1,1h2a3,3,0,0,0-6,0h2A1,1,0,0,1,40,19Z"/>
        <path id="Trazado_212910" data-name="Trazado 212910" d="M48,17a3,3,0,0,0-3,3h2a1,1,0,0,1,2,0h2A3,3,0,0,0,48,17Z"/>
        <path id="Trazado_212911" data-name="Trazado 212911" d="M47,23.838a3.162,3.162,0,0,1-6,0l-.052-.154-1.9.638.052.151a5.161,5.161,0,0,0,9.792,0l.052-.154-1.9-.638Z"/>
        <path id="Trazado_212912" data-name="Trazado 212912" d="M58.355,35.368a10.5,10.5,0,0,0-2.347-1.163A14.576,14.576,0,0,0,59,25.343V16A14.984,14.984,0,0,0,32.824,6.021,11.825,11.825,0,0,0,23.162,1H16.838A11.852,11.852,0,0,0,5,12.838a20.474,20.474,0,0,0,.836,5.743A3.958,3.958,0,0,0,5,21a4,4,0,0,0,4,4h.426a11.037,11.037,0,0,0,5.232,6.608l-.511,2.557L8.914,35.327A10.109,10.109,0,0,0,1,45.194V56a7.009,7.009,0,0,0,7,7H56a7.009,7.009,0,0,0,7-7l0-12.021a10.309,10.309,0,0,0-4.651-8.613Zm2.651,8.612L61,49H57V43H55V55H52.414l-.855-.855a3.894,3.894,0,0,0-4.575-.695A5.022,5.022,0,0,0,45.236,52a1,1,0,0,1-.447-1.342l.714-1.427a4.713,4.713,0,0,0-.294-4.72l-.537-.806A3.982,3.982,0,0,1,44,41.486V41a9.938,9.938,0,0,0-.47-3.023c.156.011.312.023.47.023a6.594,6.594,0,0,0,5.481-2.921l4.253.608a8.51,8.51,0,0,1,3.58,1.391,8.277,8.277,0,0,1,3.692,6.9Zm-38.277,13.6a9.583,9.583,0,0,1,1.327-1.037A3.992,3.992,0,0,0,27.993,60a4.14,4.14,0,0,0,.464,1H22.445a3.862,3.862,0,0,0,.284-3.416ZM30,54.737a7.736,7.736,0,0,0,4,0V55a2,2,0,0,1-4,0ZM36,55V54a2,2,0,0,1,0,4,1.969,1.969,0,0,1-.545-.089l-.564-.161A3.979,3.979,0,0,0,36,55Zm-4-2a6.006,6.006,0,0,1-6-6V43.771a4.016,4.016,0,0,1,2.9-3.846l1.112-.317a6.935,6.935,0,0,0,3.975,1.841l2.233.248A2,2,0,0,1,38,43.686V47a6.006,6.006,0,0,1-6,6Zm-4,1v1a3.978,3.978,0,0,0,1.109,2.75l-.564.161A1.969,1.969,0,0,1,28,58a2,2,0,0,1,0-4Zm1.82,4.854-.009-.513a3.965,3.965,0,0,0,4.378,0l-.009.513a2.18,2.18,0,0,1-4.36,0ZM36.008,60a3.993,3.993,0,0,0,3.937-3.453,9.72,9.72,0,0,1,1.327,1.037A3.853,3.853,0,0,0,41.556,61H35.544A4.179,4.179,0,0,0,36.008,60Zm6.44-4.055a11.67,11.67,0,0,0-3-1.933,4,4,0,0,0-1.622-1.549A7.962,7.962,0,0,0,40,47V43.686a4,4,0,0,0-3.559-3.977l-2.233-.248a4.951,4.951,0,0,1-4.238-3.7l-1.939.486a6.87,6.87,0,0,0,.656,1.663l-.335.1A6.024,6.024,0,0,0,24,43.771V47a7.962,7.962,0,0,0,2.172,5.463,4,4,0,0,0-1.622,1.549,11.653,11.653,0,0,0-3,1.933A3.964,3.964,0,0,0,19,55h-.386c-.039-.069-.086-.132-.128-.2a3.01,3.01,0,0,1,1.172-1.013A3,3,0,0,0,21,49.764l-.714-1.427A2.728,2.728,0,0,1,20,47.124a2.7,2.7,0,0,1,.455-1.5l.537-.806A5.979,5.979,0,0,0,22,41.486V41a8.009,8.009,0,0,1,8-8h4a8.009,8.009,0,0,1,8,8v.486a5.982,5.982,0,0,0,1.008,3.328l.537.806a2.7,2.7,0,0,1,.455,1.5,2.728,2.728,0,0,1-.286,1.213L43,49.764a2.985,2.985,0,0,0-.163,2.291,3.032,3.032,0,0,0,1.574,1.769,2.876,2.876,0,0,1,1.1.978c-.043.067-.09.129-.129.2H45a3.964,3.964,0,0,0-2.552.945Zm-13.209-28a14.659,14.659,0,0,0,.9,3.052H30a9.919,9.919,0,0,0-4.558,1.11l-.1-.5a11.07,11.07,0,0,0,3.9-3.66ZM31,22V19a2,2,0,1,1,0,4h-.051c.03-.33.051-.662.051-1ZM47.923,33.813l-.091.136a4.527,4.527,0,0,1-5.355,1.772,10.076,10.076,0,0,0-2.245-2.528l.429-1.715a10.94,10.94,0,0,0,6.678,0ZM32.361,31A12.683,12.683,0,0,1,31,25.343V25a3.956,3.956,0,0,0,2.46-.87A11.048,11.048,0,0,0,38.8,30.688l-.343,1.372A9.922,9.922,0,0,0,34,31ZM44,30a9.01,9.01,0,0,1-9-9V17.045A5.993,5.993,0,0,1,38.959,11.4a8.436,8.436,0,0,0,5.964,3.032l5.265.329A3.006,3.006,0,0,1,53,17.758V21A9.01,9.01,0,0,1,44,30ZM44,3A13.015,13.015,0,0,1,57,16v9.343a12.59,12.59,0,0,1-3.154,8.339l-4.04-.576-.6-2.417A11.01,11.01,0,0,0,55,21V17.758a5.008,5.008,0,0,0-4.688-4.99l-5.265-.329A6.462,6.462,0,0,1,39,6H37a8.4,8.4,0,0,0,.851,3.69,7.967,7.967,0,0,0-2.9,2.131,11.711,11.711,0,0,0-1.06-3.959A13.047,13.047,0,0,1,44,3ZM9,23a2,2,0,0,1,0-4v3c0,.338.021.67.051,1Zm.027-6H9a3.965,3.965,0,0,0-1.452.283A18.472,18.472,0,0,1,7,12.838,9.849,9.849,0,0,1,16.838,3h6.324A9.849,9.849,0,0,1,33,12.838a18.466,18.466,0,0,1-.548,4.445A3.965,3.965,0,0,0,31,17h-.1A5.009,5.009,0,0,0,26,13H17.487A2.487,2.487,0,0,1,16.7,8.154l.616-.2-.631-1.9-.617.2A4.479,4.479,0,0,0,13,10.513a4.7,4.7,0,0,0,.029.519l-.611.364A7.025,7.025,0,0,0,9.027,17ZM11,17.41a5.025,5.025,0,0,1,2.441-4.3l.278-.166A4.491,4.491,0,0,0,17.487,15H26a3,3,0,0,1,3,3v4a8.928,8.928,0,0,1-1.171,4.422l-1.106-2.211A3.976,3.976,0,0,0,23.146,22H16.855a3.978,3.978,0,0,0-3.578,2.211l-1.106,2.211A8.928,8.928,0,0,1,11,22Zm2.509,10.808,1.556-3.112A1.988,1.988,0,0,1,16.854,24h6.291a1.988,1.988,0,0,1,1.789,1.1l1.556,3.112a8.961,8.961,0,0,1-12.981,0ZM20,33a10.964,10.964,0,0,0,3.467-.568l.172.859a10.069,10.069,0,0,0-2.306,2.744l-1.333.8-3.881-2.329.415-2.073A10.953,10.953,0,0,0,20,33Zm-5.172,3.063,3.424,2.055L15.4,40.4l-1.747-4.075ZM3,56V45.194A8.11,8.11,0,0,1,9.348,37.28l2.32-.516L14.6,43.6l5.582-4.465A10.051,10.051,0,0,0,20,41v.486a3.982,3.982,0,0,1-.672,2.219l-.537.806a4.713,4.713,0,0,0-.294,4.72l.714,1.427a1.02,1.02,0,0,1-.517,1.376,4.842,4.842,0,0,0-1.68,1.415,3.891,3.891,0,0,0-4.573.695L11.586,55H9V43H7V55H5v2h6v4H8a5.006,5.006,0,0,1-5-5Zm10,5V56.414l.855-.855a1.907,1.907,0,0,1,3.054.494l.472.947H19a2,2,0,1,1,0,4Zm43,0H45a2,2,0,0,1,0-4h1.619l.472-.945a1.906,1.906,0,0,1,3.054-.5L51.586,57H59V55H57V51h4l0,5a5.006,5.006,0,0,1-5,5Z"/>
        <circle id="Elipse_4807" data-name="Elipse 4807" cx="1" cy="1" r="1" transform="translate(28 44)"/>
        <circle id="Elipse_4808" data-name="Elipse 4808" cx="1" cy="1" r="1" transform="translate(34 44)"/>
        <path id="Trazado_212913" data-name="Trazado 212913" d="M34,47.764a2.236,2.236,0,0,1-4,0l-.1-.211-1.789.9.1.211a4.236,4.236,0,0,0,7.578,0l.1-.211-1.789-.9Z"/>
      </g>
    </g>
  </g>
</svg>
