<svg xmlns="http://www.w3.org/2000/svg" width="72" height="72" viewBox="0 0 72 72">
  <g id="Grupo_1044054" data-name="Grupo 1044054" transform="translate(-705 -9476)">
    <ellipse id="Elipse_4831" data-name="Elipse 4831" cx="36" cy="36" rx="36" ry="36" transform="translate(705 9476)" fill="#3bc192"/>
    <g id="toma-de-decisiones" transform="translate(710.895 9489)">
      <g id="Grupo_1044052" data-name="Grupo 1044052" transform="translate(7.787 0.684)">
        <g id="Grupo_1044044" data-name="Grupo 1044044" transform="translate(23.979 19.206)">
          <path id="Trazado_775253" data-name="Trazado 775253" d="M288,224.8l7.374-6.372a1.368,1.368,0,0,1,2.039,1.785l-6.111,9.338a5.831,5.831,0,0,1-2.844,2.27l-2,.747v8.149h-8.934v-8.443a5.351,5.351,0,0,1,1.95-4.131l5.688-4.684A1.737,1.737,0,0,1,288,224.8Z" transform="translate(-277.522 -218.1)" fill="#ffe6c6"/>
        </g>
        <g id="Grupo_1044045" data-name="Grupo 1044045" transform="translate(0 19.206)">
          <path id="Trazado_775254" data-name="Trazado 775254" d="M24.219,224.8a1.737,1.737,0,0,1,2.842-1.341l5.688,4.684a5.351,5.351,0,0,1,1.95,4.131v8.442s-8.837-.1-8.934,0,0-8.148,0-8.148l-2-.747a5.832,5.832,0,0,1-2.843-2.27l-6.111-9.338a1.368,1.368,0,0,1,2.039-1.785Z" transform="translate(-14.582 -218.1)" fill="#ffe6c6"/>
        </g>
        <path id="Trazado_775255" data-name="Trazado 775255" d="M34.245,235.219H28.869a1.413,1.413,0,0,1-1.413-1.426c0-.255,0-.5.007-.717a1.91,1.91,0,0,0-1.244-1.809l-.746-.278a5.831,5.831,0,0,1-2.843-2.27l-6.111-9.338a1.362,1.362,0,0,1-.223-.748,1.381,1.381,0,0,1,.082-.464,1.368,1.368,0,0,0-1.572,2.049l6.111,9.338a5.832,5.832,0,0,0,2.843,2.27l2,.747s-.1,8.245,0,8.148a12.779,12.779,0,0,1,1.407-.041H27.3c1.336-.006,3.3.005,4.863.018h0l1.967.018h.233l.232,0h.1v-5.459a2.437,2.437,0,0,0-.453-.043Z" transform="translate(-14.582 -198.895)" fill="#f8d3aa"/>
        <path id="Trazado_775256" data-name="Trazado 775256" d="M137.528,427.76v-5.9a1.053,1.053,0,0,0-1.053-1.053h-8.352a1.053,1.053,0,0,0-1.053,1.053v5.9a.745.745,0,0,0,.745.745h8.968a.745.745,0,0,0,.745-.745Z" transform="translate(-116.813 -383.119)" fill="#f9f7f7"/>
        <path id="Trazado_775257" data-name="Trazado 775257" d="M131.162,427.026a1.735,1.735,0,0,1-1.735-1.735V420.81h-1.3a1.053,1.053,0,0,0-1.053,1.053v5.9a.745.745,0,0,0,.745.745h8.968a.745.745,0,0,0,.745-.745v-.733h-6.365Z" transform="translate(-116.812 -383.118)" fill="#f2eae7"/>
        <g id="Grupo_1044051" data-name="Grupo 1044051" transform="translate(0.368)">
          <g id="XMLID_179_" transform="translate(24.09 24.173)">
            <g id="Grupo_1044047" data-name="Grupo 1044047">
              <g id="XMLID_180_">
                <g id="Grupo_1044046" data-name="Grupo 1044046">
                  <path id="Trazado_775258" data-name="Trazado 775258" d="M331.6,280.313l-1.193,1.031v0l-6.224,5.393a2.785,2.785,0,0,0,3.774-.2l2.908-2.991a3.113,3.113,0,0,0,.735-3.228Z" transform="translate(-320.406 -279.607)" fill="#f8d3aa"/>
                  <path id="Trazado_775259" data-name="Trazado 775259" d="M292.264,273.077a1.738,1.738,0,0,1,0,2.458l-6.167,6.381-3.325-2.347a5.345,5.345,0,0,1,1.471-1.92l5.688-4.684a1.736,1.736,0,0,1,2.333.112Z" transform="translate(-282.772 -272.568)" fill="#ffe6c6"/>
                </g>
              </g>
            </g>
          </g>
          <g id="XMLID_177_" transform="translate(7.901 24.173)">
            <g id="Grupo_1044049" data-name="Grupo 1044049">
              <g id="XMLID_178_">
                <g id="Grupo_1044048" data-name="Grupo 1044048">
                  <path id="Trazado_775260" data-name="Trazado 775260" d="M111.948,286.684l-5.405-5.405-1.116-.965a3.113,3.113,0,0,0,.735,3.228l3.022,3.058A2.006,2.006,0,0,0,111.948,286.684Z" transform="translate(-105.251 -279.608)" fill="#f8d3aa"/>
                  <path id="Trazado_775261" data-name="Trazado 775261" d="M129.985,279.054l-3.235,2.862-3.745-4.138-2.244-2.243a1.737,1.737,0,0,1,2.333-2.57l5.688,4.684A5.374,5.374,0,0,1,129.985,279.054Z" transform="translate(-118.884 -272.568)" fill="#ffe6c6"/>
                </g>
              </g>
            </g>
          </g>
          <circle id="Elipse_4972" data-name="Elipse 4972" cx="10.15" cy="10.15" r="10.15" fill="#9de5d1"/>
          <g id="Grupo_1044050" data-name="Grupo 1044050" transform="translate(5.816 6.349)">
            <path id="Trazado_775262" data-name="Trazado 775262" d="M85.712,85.094a1.363,1.363,0,0,1-.941-.375L82.5,82.571a.389.389,0,0,1-.015-.55L83.837,80.6a.389.389,0,0,1,.55-.015l1.011.958a.389.389,0,0,0,.545-.01l4.2-4.3a.389.389,0,0,1,.55-.006L92.1,78.6a.389.389,0,0,1,.006.55L86.69,84.682A1.364,1.364,0,0,1,85.712,85.094Z" transform="translate(-82.383 -77.118)" fill="#f9f7f7"/>
          </g>
          <circle id="Elipse_4973" data-name="Elipse 4973" cx="10.15" cy="10.15" r="10.15" transform="translate(23.06)" fill="#ee878a"/>
          <path id="Trazado_775263" data-name="Trazado 775263" d="M22.279,17.838A10.152,10.152,0,0,1,31.107,7.773a10.15,10.15,0,1,0-1.023,19.943,10.154,10.154,0,0,1-7.805-9.878Z" transform="translate(-18.613 -7.501)" fill="#82dec5"/>
          <path id="Trazado_775264" data-name="Trazado 775264" d="M275.139,17.837a10.153,10.153,0,0,1,8.829-10.065,10.15,10.15,0,1,0-1.025,19.943A10.153,10.153,0,0,1,275.139,17.837Z" transform="translate(-248.413 -7.5)" fill="#ec6e73"/>
          <path id="Trazado_775265" data-name="Trazado 775265" d="M333.271,67.886l2.909-2.841a.385.385,0,0,0,.006-.544l-1.569-1.607a.385.385,0,0,0-.544-.006l-2.961,2.891-2.962-2.892a.385.385,0,0,0-.544.006L326.037,64.5a.385.385,0,0,0,.007.544l2.91,2.842-2.91,2.842a.385.385,0,0,0-.007.544l1.569,1.607a.385.385,0,0,0,.544.006l2.962-2.892,2.961,2.891a.385.385,0,0,0,.544-.006l1.569-1.607a.385.385,0,0,0-.006-.544Z" transform="translate(-297.902 -57.736)" fill="#f9f7f7"/>
        </g>
        <path id="Trazado_775266" data-name="Trazado 775266" d="M281.553,278.366l5.688-4.684a1.744,1.744,0,0,1,.5-.29,1.737,1.737,0,0,0-2.583-.427l-5.688,4.684a5.351,5.351,0,0,0-1.95,4.131v8.443h8.934v-5.5c-.043,0-5.682,0-5.682,0a1.17,1.17,0,0,1-1.17-1.17V282.5A5.352,5.352,0,0,1,281.553,278.366Z" transform="translate(-253.543 -248.395)" fill="#f8d3aa"/>
        <path id="Trazado_775267" data-name="Trazado 775267" d="M281.4,427.76v-5.9a1.053,1.053,0,0,0-1.053-1.053h-8.352a1.053,1.053,0,0,0-1.053,1.053v5.9a.745.745,0,0,0,.745.745h8.968A.745.745,0,0,0,281.4,427.76Z" transform="translate(-247.563 -383.119)" fill="#f9f7f7"/>
        <path id="Trazado_775268" data-name="Trazado 775268" d="M274.789,427.027a1.49,1.49,0,0,1-1.49-1.49v-4.726h-1.3a1.053,1.053,0,0,0-1.053,1.053v5.9a.745.745,0,0,0,.745.745h8.968a.745.745,0,0,0,.745-.745v-.733Z" transform="translate(-247.563 -383.119)" fill="#f2eae7"/>
      </g>
      <g id="Grupo_1044053" data-name="Grupo 1044053" transform="translate(7.105 0)">
        <path id="Trazado_775269" data-name="Trazado 775269" d="M284.82,211.139a2.062,2.062,0,0,0-2.689-.005l-6.569,5.676a2.423,2.423,0,0,0-3.635-.656l-5.688,4.684a6.016,6.016,0,0,0-2.2,4.659v4.05a1.732,1.732,0,0,0-.6,1.31V237.5a.684.684,0,0,0,1.368,0v-6.642a.369.369,0,0,1,.369-.369h8.352a.369.369,0,0,1,.369.369V237.5a.684.684,0,0,0,1.368,0v-6.642a1.738,1.738,0,0,0-.924-1.534v-3.058l1.559-.58a6.469,6.469,0,0,0,3.177-2.537l6.112-9.338a2.06,2.06,0,0,0-.369-2.671Zm-.775,1.922-6.112,9.338a5.111,5.111,0,0,1-2.51,2l-2.72,1.013a.684.684,0,0,0,.239,1.325h.032v2.381h-7.566V225.5a4.652,4.652,0,0,1,1.7-3.6l5.688-4.684a1.053,1.053,0,0,1,1.415,1.558l-2.244,2.244a.684.684,0,0,0,.967.967l2.244-2.244a2.4,2.4,0,0,0,.686-1.379l7.161-6.187a.684.684,0,0,1,1.02.892Z" transform="translate(-240.063 -191.428)"/>
        <path id="Trazado_775270" data-name="Trazado 775270" d="M28.587,229.546V225.5a6.021,6.021,0,0,0-2.154-4.62.684.684,0,1,0-.88,1.047,4.657,4.657,0,0,1,1.666,3.573v3.623H19.653v-2.381h.032a.684.684,0,0,0,.239-1.325L17.2,224.4a5.11,5.11,0,0,1-2.51-2L8.582,213.06a.684.684,0,0,1,1.02-.892l7.162,6.188a2.408,2.408,0,0,0,.685,1.378l2.244,2.244a.684.684,0,0,0,.967-.967l-2.244-2.244a1.053,1.053,0,0,1,1.415-1.558l3.429,2.824a.684.684,0,0,0,.87-1.056L20.7,216.152a2.421,2.421,0,0,0-3.635.656L10.5,211.132a2.052,2.052,0,0,0-3.059,2.677l6.112,9.338a6.469,6.469,0,0,0,3.177,2.537l1.559.58v3.058a1.738,1.738,0,0,0-.924,1.534V237.5a.684.684,0,0,0,1.368,0v-6.642a.369.369,0,0,1,.369-.369H27.45a.369.369,0,0,1,.369.369V237.5a.684.684,0,0,0,1.368,0v-6.642A1.732,1.732,0,0,0,28.587,229.546Z" transform="translate(-7.105 -191.427)"/>
        <path id="Trazado_775271" data-name="Trazado 775271" d="M21.947,21.668A10.834,10.834,0,1,0,11.113,10.834,10.846,10.846,0,0,0,21.947,21.668Zm0-20.3a9.466,9.466,0,1,1-9.466,9.466,9.477,9.477,0,0,1,9.466-9.466Z" transform="translate(-10.747 0)"/>
        <path id="Trazado_775272" data-name="Trazado 775272" d="M77.491,78.4a2.052,2.052,0,0,0,2.879-.055l1.453-1.486a.684.684,0,1,0-.978-.956L79.392,77.39a.684.684,0,0,1-.96.018L76.38,75.464l.941-.993.8.755a1.078,1.078,0,0,0,1.5-.029l4-4.087.978.956-1.715,1.754a.684.684,0,1,0,.978.956l1.922-1.965a1.072,1.072,0,0,0-.017-1.517l-1.4-1.369a1.073,1.073,0,0,0-1.517.017l-4,4.09-.8-.758a1.073,1.073,0,0,0-1.517.041l-1.347,1.421a1.074,1.074,0,0,0,.041,1.517Z" transform="translate(-68.709 -63.271)"/>
        <path id="Trazado_775273" data-name="Trazado 775273" d="M274.807,21.668a10.844,10.844,0,0,0,6.959-2.531.684.684,0,0,0-.879-1.048,9.458,9.458,0,1,1,1.815-2.031.684.684,0,1,0,1.14.756,10.834,10.834,0,1,0-9.035,4.854Z" transform="translate(-240.548 0)"/>
        <path id="Trazado_775274" data-name="Trazado 775274" d="M329.858,57.207,328.289,55.6a1.069,1.069,0,0,0-1.512-.018l-2.483,2.424-2.484-2.426a1.069,1.069,0,0,0-1.512.018l-1.569,1.606a1.069,1.069,0,0,0,.018,1.512l2.409,2.353-2.409,2.353a1.069,1.069,0,0,0-.018,1.512l1.569,1.606a1.062,1.062,0,0,0,.752.322h.013a1.062,1.062,0,0,0,.747-.3l2.484-2.426,2.483,2.424a1.069,1.069,0,0,0,1.512-.018l1.569-1.607a1.07,1.07,0,0,0-.018-1.512l-2.408-2.351,2.408-2.351A1.07,1.07,0,0,0,329.858,57.207Zm-3.883,3.374a.684.684,0,0,0,0,.979l2.7,2.632-1.151,1.179-2.747-2.682a.684.684,0,0,0-.956,0l-2.748,2.683-1.151-1.179,2.7-2.633a.684.684,0,0,0,0-.979l-2.7-2.633,1.151-1.179,2.748,2.683a.684.684,0,0,0,.956,0l2.747-2.682,1.151,1.179Z" transform="translate(-290.035 -50.236)"/>
      </g>
    </g>
  </g>
</svg>
